G04 ================== begin FILE IDENTIFICATION RECORD ==================*
G04 Layout Name:  E:/Work_File/CEPC/Schematic-amd-PCB-of-DET_V1/FEB_DET_1V0.brd*
G04 Film Name:    art03*
G04 File Format:  Gerber RS274X*
G04 File Origin:  Cadence Allegro 16.6-2015-S066*
G04 Origin Date:  Thu Aug 24 20:47:34 2017*
G04 *
G04 Layer:  VIA CLASS/SIG3*
G04 Layer:  PIN/SIG3*
G04 Layer:  ETCH/SIG3*
G04 Layer:  BOARD GEOMETRY/OUTLINE*
G04 *
G04 Offset:    (0.000 0.000)*
G04 Mirror:    No*
G04 Mode:      Positive*
G04 Rotation:  0*
G04 FullContactRelief:  No*
G04 UndefLineWidth:     5.000*
G04 ================== end FILE IDENTIFICATION RECORD ====================*
%FSLAX25Y25*MOIN*%
%IR0*IPPOS*OFA0.00000B0.00000*MIA0B0*SFA1.00000B1.00000*%
%ADD13C,.11*%
%ADD10C,.32*%
%ADD20C,.15*%
%ADD17C,.03*%
%ADD12C,.012*%
%ADD18C,.014*%
%ADD21C,.024*%
%ADD14C,.06*%
%ADD16C,.025*%
%ADD11C,.018*%
%ADD15C,.070902*%
%ADD19C,.05906*%
%ADD22C,.003*%
%ADD23C,.004*%
%ADD24C,.006*%
%ADD34C,.100004*%
%ADD25C,.120004*%
%ADD26C,.150004*%
%ADD29C,.032004*%
%ADD35C,.070004*%
%ADD33C,.034004*%
%ADD36C,.080004*%
%ADD32C,.044004*%
%ADD27C,.038004*%
%ADD28C,.080906*%
%ADD31C,.069064*%
%ADD30C,.099064*%
G75*
%LPD*%
G75*
G36*
G01X25042Y2700D02*
G02X24913Y3479I0J400D01*
G03X4369Y25447I-5313J15621D01*
G02X3600Y25600I-369J154D01*
G01Y136336D01*
X3743Y136379D01*
G03Y140021I-543J1821D01*
G01X3600Y140064D01*
Y159220D01*
G02X4052Y159616I400J0D01*
G03Y163384I248J1884D01*
G02X3600Y163781I-52J397D01*
G01Y499000D01*
G02X4369Y499153I400J0D01*
G03Y511847I15231J6347D01*
G02X3600Y512000I-369J154D01*
G01Y956700D01*
G02X4369Y956853I400J0D01*
G03X25947Y978431I15231J6347D01*
G02X26100Y979200I154J369D01*
G01X564500D01*
G02X564653Y978431I0J-400D01*
G03X586328Y957093I6347J-15231D01*
G02X587100Y956945I372J-148D01*
G01Y511755D01*
G02X586328Y511607I-400J0D01*
G03Y499393I-15328J-6107D01*
G02X587100Y499245I372J-148D01*
G01Y25355D01*
G02X586328Y25207I-400J0D01*
G03X563590Y4357I-15328J-6107D01*
G02X563410Y3600I-180J-357D01*
G01X125200D01*
Y2700D01*
X25042D01*
G37*
%LPC*%
G75*
G36*
G01X524788Y722725D02*
G03X524512I-138J-145D01*
G02Y725475I-1312J1375D01*
G03X524788I138J145D01*
G02Y722725I1312J-1375D01*
G37*
G36*
G01X78916Y556410D02*
G03X79528Y556293I353J188D01*
G02X82120I1296J-1524D01*
G03X82732Y556410I259J305D01*
G02X88189Y557350I3092J-1641D01*
G03X88459I135J147D01*
G02X93189I2365J-2581D01*
G03X93459I135J147D01*
G02X98189I2365J-2581D01*
G03X98459I135J147D01*
G02Y552188I2365J-2581D01*
G03X98189I-135J-147D01*
G02X93459I-2365J2580D01*
G03X93189I-135J-147D01*
G02X88459I-2365J2580D01*
G03X88189I-135J-147D01*
G02X82732Y553128I-2365J2580D01*
G03X82120Y553245I-353J-188D01*
G02X79528I-1296J1524D01*
G03X78916Y553128I-259J-305D01*
G02Y556410I-3092J1641D01*
G37*
G36*
G01X74335Y465582D02*
G03X74059Y465572I-133J-149D01*
G02X73965Y468318I-1359J1328D01*
G03X74241Y468328I133J149D01*
G02X74335Y465582I1359J-1328D01*
G37*
G36*
G01X62300Y441041D02*
G03X61700I-300J-265D01*
G02Y443159I-1200J1059D01*
G03X62300I300J265D01*
G02X64700I1200J-1059D01*
G03X65300I300J265D01*
G02Y441041I1200J-1059D01*
G03X64700I-300J-265D01*
G02X62300I-1200J1059D01*
G37*
G36*
G01X44359Y438600D02*
G03Y438000I265J-300D01*
G02X42241I-1059J-1200D01*
G03Y438600I-265J300D01*
G02Y441000I1059J1200D01*
G03Y441600I-265J300D01*
G02X44359I1059J1200D01*
G03Y441000I265J-300D01*
G02Y438600I-1059J-1200D01*
G37*
G36*
G01X69100Y434141D02*
G03X68500I-300J-265D01*
G02Y436259I-1200J1059D01*
G03X69100I300J265D01*
G02X71500I1200J-1059D01*
G03X72100I300J265D01*
G02Y434141I1200J-1059D01*
G03X71500I-300J-265D01*
G02X69100I-1200J1059D01*
G37*
G36*
G01X49000Y432441D02*
G03X48400I-300J-265D01*
G02Y434559I-1200J1059D01*
G03X49000I300J265D01*
G02X51400I1200J-1059D01*
G03X52000I300J265D01*
G02Y432441I1200J-1059D01*
G03X51400I-300J-265D01*
G02X49000I-1200J1059D01*
G37*
G36*
G01X59159Y435100D02*
G03Y434500I265J-300D01*
G02X57041I-1059J-1200D01*
G03Y435100I-265J300D01*
G02Y437500I1059J1200D01*
G03Y438100I-265J300D01*
G02X59159I1059J1200D01*
G03Y437500I265J-300D01*
G02Y435100I-1059J-1200D01*
G37*
G36*
G01X74759Y425100D02*
G03Y424500I265J-300D01*
G02X72641I-1059J-1200D01*
G03Y425100I-265J300D01*
G02Y427500I1059J1200D01*
G03Y428100I-265J300D01*
G02X74759I1059J1200D01*
G03Y427500I265J-300D01*
G02Y425100I-1059J-1200D01*
G37*
G36*
G01X72900Y418241D02*
G03X72300I-300J-265D01*
G02Y420359I-1200J1059D01*
G03X72900I300J265D01*
G02X75300I1200J-1059D01*
G03X75900I300J265D01*
G02Y418241I1200J-1059D01*
G03X75300I-300J-265D01*
G02X72900I-1200J1059D01*
G37*
G36*
G01X79200Y412941D02*
G03X78600I-300J-265D01*
G02Y415059I-1200J1059D01*
G03X79200I300J265D01*
G02X81600I1200J-1059D01*
G03X82200I300J265D01*
G02Y412941I1200J-1059D01*
G03X81600I-300J-265D01*
G02X79200I-1200J1059D01*
G37*
G36*
G01X239337Y411522D02*
G03X238740Y411383I-241J-320D01*
G02X238449Y413807I-1963J994D01*
G03X239062Y413814I304J260D01*
G02X239337Y411522I1238J-1014D01*
G37*
G36*
G01X243500Y396962D02*
G02Y394638I1100J-1162D01*
G02Y396962I-1100J1162D01*
G37*
G36*
G01X248962Y394143D02*
G02X249713Y396350I-662J1457D01*
G02X248962Y394143I796J-1502D01*
G37*
G36*
G01X88402Y392217D02*
G03X88436Y391643I295J-270D01*
G02X85798Y391483I-1236J-1443D01*
G03X85764Y392057I-295J270D01*
G02X85596Y394780I1236J1443D01*
G03Y395320I-296J270D01*
G02X88404I1404J1280D01*
G03Y394780I296J-270D01*
G02X88402Y392217I-1404J-1280D01*
G37*
G36*
G01X370095Y366591D02*
G03X369697Y366216I1J-400D01*
G02X367996Y368023I-1697J107D01*
G03X368394Y368398I-1J400D01*
G02X370095Y366591I1697J-107D01*
G37*
G36*
G01X406740Y350951D02*
G03X406300Y350558I-40J-398D01*
G02X404860Y352167I-1600J17D01*
G03X405300Y352561I40J398D01*
G02X406740Y350951I1600J-17D01*
G37*
G36*
G01X81640Y321398D02*
G03X81060I-290J-275D01*
G02Y323602I-1160J1102D01*
G03X81640I290J275D01*
G02Y321398I1160J-1102D01*
G37*
G36*
G01X76968Y324146D02*
G03X76828Y323526I167J-363D01*
G02X74932Y323954I-1228J-1026D01*
G03X75072Y324574I-167J363D01*
G02X74838Y326252I1228J1026D01*
G02X74461Y326588I862J1348D01*
G03X74161Y326599I-155J-127D01*
G02X73970Y326427I-1161J1102D01*
G02X71002Y325680I-1370J-827D01*
G03X70602Y326100I-399J20D01*
G02X71667Y328893I-2J1600D01*
G03X71933I133J149D01*
G02X74124Y328839I1067J-1193D01*
G03X74664Y328819I281J285D01*
G02X77162Y326948I1036J-1219D01*
G02X76968Y324146I-862J-1348D01*
G37*
G36*
G01X66908Y276442D02*
G03X66528Y276801I-398J-40D01*
G02X68192Y278558I72J1599D01*
G03X68572Y278199I398J40D01*
G02X66908Y276442I-72J-1599D01*
G37*
G36*
G01X84325Y275029D02*
G03X84225Y274429I206J-343D01*
G02X82175Y274771I-1225J-1029D01*
G03X82275Y275371I-206J343D01*
G02X84325Y275029I1225J1029D01*
G37*
G36*
G01X69172Y209202D02*
G02X66828Y208098I-772J-1402D01*
G02X69172Y209202I772J1402D01*
G37*
G36*
G01X50306Y125777D02*
G03X50393Y126420I-188J353D01*
G02X52594Y126123I1307J1380D01*
G03X52507Y125480I188J-353D01*
G02X50306Y125777I-1307J-1380D01*
G37*
G36*
G01X59110Y483265D02*
G02X56328Y482868I-1210J-1465D01*
G03X56290Y483135I-165J112D01*
G02X55941Y485686I1210J1465D01*
G03X55634Y486314I-328J229D01*
G02X58916Y491450I190J3495D01*
G03X59528Y491333I353J188D01*
G02X62120I1296J-1524D01*
G03X62732Y491450I259J305D01*
G02X68189Y492390I3092J-1641D01*
G03X68459I135J147D01*
G02X73916Y491450I2365J-2580D01*
G03X74528Y491333I353J188D01*
G02X77120I1296J-1524D01*
G03X77732Y491450I259J305D01*
G02X83189Y492390I3092J-1641D01*
G03X83459I135J147D01*
G02X88916Y491450I2365J-2580D01*
G03X89528Y491333I353J188D01*
G02X92120I1296J-1524D01*
G03X92732Y491450I259J305D01*
G02X98189Y492390I3092J-1641D01*
G03X98459I135J147D01*
G02Y487228I2365J-2581D01*
G03X98189I-135J-147D01*
G02X92732Y488168I-2365J2580D01*
G03X92120Y488285I-353J-188D01*
G02X89528I-1296J1524D01*
G03X88916Y488168I-259J-305D01*
G02X83459Y487228I-3092J1641D01*
G03X83189I-135J-147D01*
G02X77732Y488168I-2365J2580D01*
G03X77120Y488285I-353J-188D01*
G02X74528I-1296J1524D01*
G03X73916Y488168I-259J-305D01*
G02X68459Y487228I-3092J1641D01*
G03X68189I-135J-147D01*
G02X62732Y488168I-2365J2580D01*
G03X62120Y488285I-353J-188D01*
G02X59528I-1296J1524D01*
G03X58916Y488168I-259J-305D01*
G02X58016Y487080I-3092J1641D01*
G03X58134Y486392I251J-312D01*
G02X59072Y483532I-633J-1792D01*
G03X59110Y483265I165J-112D01*
G37*
G36*
G01X552500Y408336D02*
Y408083D01*
G02X552159Y407941I-200J0D01*
G01X538946Y421154D01*
G03X538290Y421017I-283J-283D01*
G02X536718Y420002I-1490J583D01*
G03X536298Y419582I-21J-399D01*
G02X534782Y421098I-1598J-82D01*
G03X535202Y421518I21J399D01*
G02X536217Y423090I1598J82D01*
G03X536354Y423746I-146J373D01*
G01X529200Y430900D01*
Y703282D01*
G03X528593Y703624I-400J0D01*
G02Y712176I-2593J4276D01*
G03X529200Y712518I207J342D01*
G01Y728242D01*
X529189Y728274D01*
G02Y729326I1511J526D01*
G01X529200Y729358D01*
Y730226D01*
G03X528660Y730601I-400J0D01*
G02Y733599I-560J1499D01*
G03X529200Y733974I140J375D01*
G01Y734700D01*
X537784Y743284D01*
G03X537661Y743933I-283J283D01*
G02X539767Y746039I639J1467D01*
G03X540416Y745916I367J160D01*
G01X556500Y762000D01*
Y771800D01*
G02X561100I2300J0D01*
G01Y728300D01*
X569600Y719800D01*
Y716800D01*
X568100Y715300D01*
X564800D01*
X557400Y722700D01*
X553900D01*
X552500Y721300D01*
Y422186D01*
G03X553080Y421829I400J0D01*
G02X554817Y421635I720J-1429D01*
G03X555084Y421647I127J154D01*
G02X555183Y419265I1116J-1147D01*
G03X554916Y419254I-127J-154D01*
G02X553080Y418971I-1116J1146D01*
G03X552500Y418614I-180J-357D01*
G01Y413320D01*
G03X553160Y413016I400J0D01*
G02X555476Y410834I1040J-1216D01*
G02X553166Y408635I-1246J-1004D01*
G03X552500Y408336I-266J-299D01*
G37*
G36*
G01X261841Y393829D02*
G02X260366Y396547I-1358J1023D01*
G02X260974Y397626I2234J-547D01*
G01X264647Y401300D01*
X274900D01*
G02Y396700I0J-2300D01*
G01X273814D01*
G03X273525Y396024I0J-400D01*
G02X271063I-1231J-1173D01*
G03X270773Y396700I-290J276D01*
G01X268380D01*
G03X268003Y396166I0J-400D01*
G02X265053Y394562I-1603J-566D01*
G03X264454Y394601I-317J-244D01*
G01X264226Y394374D01*
G02X261841Y393829I-1627J1626D01*
G37*
G36*
G01X426146Y358285D02*
G02X423171Y357128I-1446J-685D01*
G03X422511Y357297I-382J-118D01*
G02X422929Y358921I-1111J1151D01*
G03X423589Y358752I382J118D01*
G02X425014Y359169I1111J-1152D01*
G03X425454Y359732I78J392D01*
G02X426586Y358848I1446J685D01*
G03X426146Y358285I-78J-392D01*
G37*
G36*
G01X74682Y332891D02*
G02X72558Y331829I-582J-1491D01*
G03X72318Y332309I-385J107D01*
G02X72142Y335209I582J1491D01*
G03X72182Y335889I-189J352D01*
G02X73858Y335791I918J1311D01*
G03X73818Y335111I189J-352D01*
G02X74442Y333371I-918J-1311D01*
G03X74682Y332891I385J-107D01*
G37*
G36*
G01X82292Y242224D02*
G02X78511Y242603I-1892J176D01*
G03X77902Y242986I-398J43D01*
G02X76154Y242852I-1002J1614D01*
G03X75598Y242505I-157J-368D01*
G02X74446Y244348I-1898J96D01*
G03X75002Y244696I157J368D01*
G02X77903Y246214I1898J-95D01*
G03X78511Y246510I211J340D01*
G02X79120Y247704I1889J-210D01*
G03Y248296I-269J296D01*
G02X81680I1280J1404D01*
G03Y247704I269J-296D01*
G02X82298Y246396I-1280J-1404D01*
G03X82854Y246048I399J20D01*
G02X82848Y242555I746J-1748D01*
G03X82292Y242224I-158J-367D01*
G37*
G36*
G01X83264Y175449D02*
G02X81823Y173898I437J-1849D01*
G03X81336Y174351I-395J63D01*
G02X79615Y177600I-437J1849D01*
G02X79621Y180207I1385J1301D01*
G02X82479Y180093I1479J1193D01*
G02X82285Y177501I-1479J-1193D01*
G02X82777Y175902I-1385J-1301D01*
G03X83264Y175449I395J-63D01*
G37*
G36*
G01X70890Y125357D02*
G02X69289Y125630I-1089J-1557D01*
G03X69411Y126343I-108J385D01*
G02X68786Y127081I1090J1557D01*
G03X68072Y127098I-361J-172D01*
G02X68114Y128819I-1673J902D01*
G03X68828Y128802I361J172D01*
G02X71011Y126070I1673J-902D01*
G03X70890Y125357I108J-385D01*
G37*
G36*
G01X228198Y378300D02*
X238340D01*
G03X238732Y378780I0J400D01*
G02X241868I1568J320D01*
G03X242260Y378300I392J-80D01*
G01X272102D01*
X272131Y378467D01*
G02X276469I2169J-367D01*
G01X276498Y378300D01*
X298700D01*
Y397661D01*
G02Y400539I700J1439D01*
G01Y424800D01*
X310100D01*
Y442026D01*
G03X309560Y442401I-400J0D01*
G02Y445399I-560J1499D01*
G03X310100Y445774I140J375D01*
G01Y578000D01*
X298700D01*
Y582000D01*
X99000D01*
Y902400D01*
X478700D01*
X479250Y730803D01*
X484500Y725553D01*
Y602247D01*
X479677Y597424D01*
X479874Y535944D01*
G03X480609Y535727I400J1D01*
G02X480627Y530246I4191J-2727D01*
G03X479893Y530024I-334J-220D01*
G01X480024Y488924D01*
X392729Y401629D01*
X392715Y401578D01*
G02X391122Y399985I-2215J622D01*
G01X391071Y399971D01*
X389983Y398883D01*
G03X390266Y398200I283J-283D01*
G01X397030D01*
G02X406570I4770J-1500D01*
G01X552747D01*
X552874Y398326D01*
G02X556126Y395074I1626J-1626D01*
G01X552500Y391447D01*
Y389000D01*
X550053D01*
X494500Y389000D01*
X488900Y383400D01*
X526800Y345500D01*
Y329683D01*
G02X526459Y329541I-200J0D01*
G01X487800Y368200D01*
X486539D01*
G02X483661I-1439J700D01*
G01X473062D01*
G02X469473Y367774I-1962J1200D01*
G01X469047Y368200D01*
X466900D01*
X459700Y375400D01*
X398710D01*
X398690Y375222D01*
G02X395510I-1590J178D01*
G01X395490Y375400D01*
X356700D01*
X350000Y368700D01*
Y363836D01*
G02Y360936I-1786J-1450D01*
G01Y356812D01*
X351800D01*
G02X352807Y352444I0J-2300D01*
G03X352699Y351801I175J-360D01*
G01X356900Y347600D01*
X406311D01*
G02X410489I2089J-962D01*
G01X418825D01*
G02X420007Y347748I775J-1400D01*
G01X420118Y347718D01*
X420600Y348200D01*
X423400D01*
X458600Y313000D01*
Y24928D01*
G03X459280Y24643I400J0D01*
G02Y22357I1120J-1143D01*
G03X458600Y22072I-280J-286D01*
G01Y19900D01*
X316730D01*
G03X316331Y19466I0J-400D01*
G02X308269I-4031J-340D01*
G03X307870Y19900I-399J34D01*
G01X278130D01*
G03X277731Y19466I0J-400D01*
G02X269669I-4031J-340D01*
G03X269270Y19900I-399J34D01*
G01X125200D01*
Y278800D01*
X216300Y369900D01*
X221947D01*
X225300Y373253D01*
Y377277D01*
G02X224625Y378315I900J1323D01*
G02X226089Y380196I-225J1685D01*
G02X227798Y378680I111J-1596D01*
G03X228198Y378300I399J20D01*
G37*
G54D34*
X490700Y357000D03*
X494300Y454400D03*
X508100Y499200D03*
X76900Y76100D03*
G54D25*
X21300Y67400D03*
Y114200D03*
G54D26*
Y98600D03*
Y83000D03*
G54D29*
X68900Y193100D03*
X61600Y209500D03*
X72600Y210000D03*
X63000Y213300D03*
X69000D03*
X61600Y278400D03*
X73500Y276600D03*
X73300Y263300D03*
X66500Y261200D03*
X66400Y273300D03*
X63600Y328100D03*
X70900Y342400D03*
X71800Y353900D03*
X58400Y354100D03*
X71500Y346000D03*
X57000Y346100D03*
X63400Y342700D03*
X64300Y432700D03*
X65000Y419100D03*
X68000Y610200D03*
X79100Y187100D03*
X85100D03*
X80000Y191700D03*
X86000D03*
X75800Y196200D03*
X81800D03*
X80400Y200000D03*
X86400D03*
X83600Y203800D03*
X77600D03*
X75300Y213400D03*
X81300D03*
X78600Y210000D03*
X78400Y255200D03*
X83400D03*
X83000Y268400D03*
X88500Y276400D03*
X86700Y267800D03*
X91700D03*
X83900Y263400D03*
X88900D03*
X78300Y263300D03*
X81000Y259200D03*
X76000D03*
X75300Y342700D03*
X81300Y342400D03*
X95700Y529600D03*
X96500Y545200D03*
X96200Y540100D03*
X101000Y234700D03*
X108500D03*
Y242100D03*
X101000D03*
Y249600D03*
X108500D03*
Y257100D03*
X101000D03*
X118100Y529600D03*
X110700D03*
X103200D03*
X111500Y545200D03*
X106500D03*
X101500D03*
X101200Y540100D03*
X106200D03*
X111200D03*
X161000Y321500D03*
X174700Y348800D03*
X174500Y354800D03*
X165600Y375800D03*
X166900Y529300D03*
X178100D03*
X173900Y535900D03*
X174300Y545000D03*
X193800Y357200D03*
X185700Y382700D03*
X189300Y529300D03*
X200500D03*
X200700Y540300D03*
X188900Y535900D03*
X183900D03*
X178900D03*
X189300Y545000D03*
X184300D03*
X179300D03*
X220700Y373700D03*
X222800Y385200D03*
X229500Y404900D03*
X220400Y404800D03*
X213000Y398800D03*
X213400Y424000D03*
X211700Y529300D03*
X219100D03*
X215700Y540300D03*
X210700D03*
X205700D03*
X250000Y383400D03*
X244200Y383500D03*
X235600Y394500D03*
X255200Y397300D03*
X256900Y429500D03*
X248100Y438900D03*
X263800Y410600D03*
X275100Y438000D03*
X268800Y432700D03*
X270300Y416000D03*
X286500Y410600D03*
X294200Y426800D03*
X290200Y416500D03*
X286800Y426900D03*
X413850Y356050D03*
X414350Y350150D03*
X396600Y371500D03*
X392800Y368900D03*
X439100Y349300D03*
X421200Y353500D03*
X438054Y364354D03*
X431914Y362386D03*
X467100Y293900D03*
X464700Y330100D03*
X445300Y356100D03*
X461300Y362600D03*
X481100Y23700D03*
X491800Y23400D03*
X481100Y266100D03*
X486100Y270100D03*
X476200Y283600D03*
X474000Y288400D03*
X469700Y297700D03*
X479500Y306800D03*
X477400Y353000D03*
X497500Y277300D03*
X496300Y327400D03*
X522500Y278200D03*
X534840Y415740D03*
G54D33*
X291979Y394851D03*
X284105D03*
G54D32*
X277400Y427400D03*
X353400Y365900D03*
G54D27*
X11400Y138400D03*
X19400D03*
X19800Y161800D03*
X12300Y161500D03*
X63700Y71900D03*
X63900Y76900D03*
X70900Y115500D03*
X51400Y116000D03*
X61100Y127900D03*
X56000Y127800D03*
X67100Y466900D03*
X58500Y477600D03*
X52600Y484500D03*
X84800Y72600D03*
X76300Y173400D03*
X86900Y289800D03*
X79300Y289900D03*
X79200Y295300D03*
X87100Y302900D03*
X75000D03*
X81800Y303200D03*
X85200Y308200D03*
X77700Y307900D03*
X84100Y312400D03*
X77500Y312500D03*
X74600Y396600D03*
X88200Y401100D03*
X82800Y401400D03*
X75500Y401100D03*
X88500Y405700D03*
X81600Y405500D03*
X76900Y405400D03*
X75800Y471300D03*
X515800Y721200D03*
X515900Y729100D03*
X531900Y410100D03*
X527900Y418200D03*
X69500Y79800D03*
X82700Y81700D03*
X75100Y84400D03*
X70100Y85300D03*
X79800Y85400D03*
G54D28*
X61300Y19126D03*
X524700D03*
G54D31*
X164500Y494300D03*
X164600Y513000D03*
G54D30*
X139700Y494300D03*
X139800Y513000D03*
%LPD*%
G75*
G36*
G01X301178Y669116D02*
G03X295778Y667559I-3278J1227D01*
G01X295856Y667499D01*
Y667200D01*
X295501D01*
X295451Y667233D01*
G03X293529Y667200I-937J-1419D01*
G01X290046D01*
G03X289432Y667779I-1437J-909D01*
G01X289408Y667792D01*
X285800Y671400D01*
X280500D01*
X276900Y667800D01*
Y660400D01*
X292468Y644832D01*
G03X293079Y642187I1132J-1132D01*
G02X293116Y641445I-130J-378D01*
G03X294700Y631925I2084J-4545D01*
G01Y625200D01*
X306200Y613700D01*
Y585400D01*
X282856D01*
X282809Y585533D01*
G03X279791I-1509J-533D01*
G01X279744Y585400D01*
X264923D01*
G03X262277I-1323J-900D01*
G01X251157D01*
G03X250043I-557J-1500D01*
G01X240633D01*
G03X238767I-933J-1300D01*
G01X228956D01*
X228909Y585533D01*
G03X225891I-1509J-533D01*
G01X225844Y585400D01*
X113279D01*
X113237Y585544D01*
G03X110163I-1537J-444D01*
G01X110121Y585400D01*
X105500D01*
Y897200D01*
X211676D01*
G03X227924I8124J2500D01*
G01X425376D01*
G03X441624I8124J2500D01*
G01X471000D01*
Y742600D01*
X467900D01*
X438481Y772019D01*
G02X438774Y772701I283J283D01*
G03X433901Y777574I126J4999D01*
G02X433219Y777281I-400J-10D01*
G01X424900Y785600D01*
X413075D01*
G02X412707Y786156I0J400D01*
G03X404921Y784241I-4607J1944D01*
G02X404949Y783649I-254J-309D01*
G01X401000Y779700D01*
Y776000D01*
X403181Y773819D01*
G02X403049Y773166I-283J-283D01*
G03X405266Y770949I642J-1574D01*
G02X405919Y771081I370J-151D01*
G01X411100Y765900D01*
X426510D01*
G02X426908Y765460I0J-400D01*
G03X429990Y764717I1592J-160D01*
G02X430646Y764854I373J-146D01*
G01X434922Y760578D01*
G02X434851Y759956I-283J-283D01*
G03X437056Y757751I849J-1356D01*
G02X437678Y757822I339J-212D01*
G01X472400Y723100D01*
Y697455D01*
G02X471785Y697118I-400J0D01*
G03Y688682I-2685J-4218D01*
G02X472400Y688345I215J-337D01*
G01Y665100D01*
X469400D01*
X461043Y673457D01*
G03X460057Y674443I-2043J-1057D01*
G01X458492Y676008D01*
X458484Y676077D01*
G03X456477Y678084I-2283J-277D01*
G01X456408Y678092D01*
X456000Y678500D01*
Y692200D01*
X452100Y696100D01*
X451400D01*
X445339Y702161D01*
G03X443400Y705400I-1939J1039D01*
G01X442100D01*
X441833Y705667D01*
X441926Y705804D01*
G03X441600Y707949I-1326J896D01*
G01Y725700D01*
X425000Y742300D01*
X400700D01*
Y732778D01*
G03Y731664I1500J-557D01*
G01Y670600D01*
X399400Y669300D01*
X393988Y674712D01*
X393978Y674775D01*
G03X393572Y675628I-1678J-275D01*
G02X393667Y676238I299J265D01*
G03X394002Y678902I-867J1462D01*
G01X393911Y678993D01*
X394038Y679335D01*
X394166Y679345D01*
G03X394747Y682586I-126J1696D01*
G03X392393Y681462I-1647J422D01*
G03X392694Y680002I1647J-422D01*
G02X392458Y679365I-317J-244D01*
G03X391528Y676572I342J-1665D01*
G02X391433Y675962I-299J-265D01*
G03X391618Y672943I867J-1462D01*
G03X392900Y670648I1582J-622D01*
G01Y664000D01*
X374687Y645787D01*
X374625Y645776D01*
G03X373324Y644475I275J-1576D01*
G01X373313Y644413D01*
X370918Y642019D01*
G02X370352Y642020I-283J283D01*
G03X370228Y642140I-3551J-3520D01*
G02X370282Y642765I274J291D01*
G03X367811Y643912I-882J1335D01*
G02X367368Y643468I-397J-47D01*
G03X365344Y643284I-568J-4968D01*
G02X364842Y643773I-116J383D01*
G03X362983Y642632I-1542J427D01*
G02X363193Y641962I-79J-392D01*
G03X363280Y634948I3607J-3462D01*
G02X363282Y634381I-282J-284D01*
G01X332700Y603800D01*
Y597137D01*
G02X332200Y596749I-400J0D01*
G03Y593651I-400J-1549D01*
G02X332700Y593263I100J-387D01*
G01Y581600D01*
X332390D01*
G02X331992Y582040I0J400D01*
G03X328808I-1592J160D01*
G02X328410Y581600I-398J-40D01*
G01X315500D01*
Y626477D01*
G02X316200Y626741I400J0D01*
G03Y628859I1200J1059D01*
G02X315500Y629123I-300J265D01*
G01Y633600D01*
X326500D01*
X332600Y639700D01*
Y639754D01*
X332664Y639813D01*
G03X332726Y643127I-1564J1687D01*
G01X332600Y643253D01*
Y655279D01*
G02X333168Y655642I400J0D01*
G03Y658726I716J1542D01*
G02X332600Y659089I-168J363D01*
G01Y667500D01*
X330276D01*
X330249Y667668D01*
G03X325708I-2271J-368D01*
G01X325681Y667500D01*
X317300D01*
X315300Y669500D01*
Y755700D01*
X342100Y782500D01*
Y783800D01*
X338600Y787300D01*
X332400D01*
X303800Y758700D01*
Y668889D01*
G02X303207Y668539I-400J0D01*
G03X301712Y668609I-819J-1490D01*
G02X301178Y669116I-159J367D01*
G37*
G36*
G01X358300Y394800D02*
X351000Y402100D01*
Y402600D01*
X406600Y458200D01*
Y577400D01*
X461100D01*
X465600Y572900D01*
Y493600D01*
X367292Y395292D01*
X367176Y395328D01*
G03X365451Y394800I-476J-1528D01*
G01X358300D01*
G37*
G36*
G01X405900Y581300D02*
Y598902D01*
G02X406280Y599302I400J0D01*
G03Y602498I-80J1598D01*
G02X405900Y602898I20J399D01*
G01Y609038D01*
G03Y614762I-4100J2862D01*
G01Y635500D01*
X417400Y647000D01*
X474300D01*
Y608700D01*
X467300Y601700D01*
Y600153D01*
X467300Y581300D01*
X405900D01*
G37*
%LPC*%
G75*
G36*
G01X255607Y599700D02*
G02X254073Y598580I-7J-1600D01*
G03X253694Y599100I-382J120D01*
G02X255227Y600220I7J1600D01*
G03X255607Y599700I382J-120D01*
G37*
G36*
G01X236994Y600561D02*
G03X237342Y600130I398J-35D01*
G02X234300Y599001I-442J-3472D01*
G03X234282Y599555I-297J268D01*
G02X236994Y600561I1118J1145D01*
G37*
G36*
G01X325733Y602730D02*
G03X326253Y602690I283J282D01*
G02X326067Y600270I947J-1290D01*
G03X325547Y600310I-283J-282D01*
G02X325733Y602730I-947J1290D01*
G37*
G36*
G01X269380Y622243D02*
G03X269320Y622863I-280J286D01*
G02X271320Y623057I880J1337D01*
G03X271380Y622437I280J-286D01*
G02X269380Y622243I-880J-1337D01*
G37*
G36*
G01X361050Y655903D02*
G02X358022Y655686I-1550J397D01*
G02X359116Y657854I-516J1620D01*
G02X359774Y657877I384J-1553D01*
G02X361050Y655903I1670J-320D01*
G37*
G36*
G01X350431Y668133D02*
G02X353243Y667338I1170J-1234D01*
G02X351927Y665230I326J-1669D01*
G02X350802Y665398I-326J1669D01*
G02X350431Y668133I-1170J1234D01*
G37*
G36*
G01X391845Y688034D02*
G02X394606Y687826I1455J880D01*
G02X391845Y688034I-1455J-880D01*
G37*
G36*
G01X238434Y701511D02*
G02X235532Y701436I-1433J-711D01*
G02X238434Y701511I1368J3222D01*
G37*
G36*
G01X274902Y720952D02*
G02X274257Y719048I-1502J-552D01*
G02X272043Y719552I-1357J-849D01*
G02X272398Y721648I1357J848D01*
G02X274902Y720952I1502J552D01*
G37*
G36*
G01X392090Y729269D02*
G02X394613I1262J984D01*
G02X392090I-1262J-984D01*
G37*
G36*
G01X260330Y732927D02*
G02X262670Y733373I970J1273D01*
G02X260330Y732927I-970J-1273D01*
G37*
G36*
G01X271703Y745062D02*
G02X274197Y744938I1297J938D01*
G02X271703Y745062I-1297J-938D01*
G37*
G36*
G01X260267Y753655D02*
G03X260117Y754205I-346J201D01*
G02X262283Y754795I783J1395D01*
G03X262433Y754245I346J-201D01*
G02X260267Y753655I-783J-1395D01*
G37*
G36*
G01X411840Y756443D02*
G02X409528Y757212I-1484J-599D01*
G02X411840Y756443I1484J599D01*
G37*
G36*
G01X272355Y758488D02*
G02X274845Y759012I1045J1212D01*
G02X272355Y758488I-1045J-1212D01*
G37*
G36*
G01X408785Y765267D02*
G02X409595Y762171I398J-1550D01*
G02X407639Y763295I-1544J-422D01*
G02X407583Y763742I1544J422D01*
G03X407083Y764136I-400J6D01*
G02X405086Y765698I-398J1550D01*
G03X404599Y766092I-400J3D01*
G02X405855Y767642I-345J1563D01*
G03X406341Y767248I400J-3D01*
G02X408286Y765661I345J-1563D01*
G03X408785Y765267I400J-6D01*
G37*
G36*
G01X273314Y769486D02*
G02X273300Y769700I1586J214D01*
G02X271930Y772127I0J1600D01*
G02X271530Y774227I970J1273D01*
G02X271763Y776920I970J1273D01*
G03X271863Y777154I-92J178D01*
G02Y778046I1537J446D01*
G03X271763Y778280I-192J56D01*
G02X274037Y779254I737J1421D01*
G03X274137Y779020I192J-56D01*
G02Y776180I-737J-1421D01*
G03X274037Y775946I92J-178D01*
G02X273870Y774673I-1537J-446D01*
G02X274270Y772573I-970J-1273D01*
G02X274900Y771300I-970J-1273D01*
G02X275241Y768137I0J-1600D01*
G03X275086Y767914I43J-195D01*
G02X273159Y769263I-1586J-214D01*
G03X273314Y769486I-43J195D01*
G37*
G36*
G01X283466Y788696D02*
G03X283732Y788674I146J137D01*
G02X283534Y786304I968J-1274D01*
G03X283268Y786326I-146J-137D01*
G02X283466Y788696I-968J1274D01*
G37*
G36*
G01X343457Y796714D02*
G02X340090Y796316I-1699J-72D01*
G02X339777Y799690I-300J1674D01*
G02X342499Y800259I1523J-490D01*
G03X342763Y800227I150J132D01*
G02X345062Y799879I964J-1400D01*
G02X344565Y797348I838J-1479D01*
G02X343832Y797130I-838J1479D01*
G03X343457Y796714I25J-399D01*
G37*
G36*
G01X280142Y799617D02*
G03X280401Y799540I172J102D01*
G02X279724Y797283I699J-1439D01*
G03X279465Y797360I-172J-102D01*
G02X280142Y799617I-699J1439D01*
G37*
G36*
G01X304080Y808763D02*
G03X303846Y808863I-178J-92D01*
G02X304820Y811137I-446J1537D01*
G03X305054Y811037I178J92D01*
G02X304080Y808763I446J-1537D01*
G37*
G36*
G01X294406Y813442D02*
G02X296031Y810698I3494J215D01*
G02X294406Y813442I-931J1302D01*
G37*
G36*
G01X437249Y626671D02*
G03X437080Y626110I176J-359D01*
G02X434102Y625382I-1380J-810D01*
G03X433693Y625802I-399J20D01*
G02X437249Y626671I-193J8498D01*
G37*
G54D34*
X455300Y704400D03*
X407000Y450500D03*
X431600Y592600D03*
G54D29*
X448400Y874900D03*
Y845000D03*
Y815200D03*
X424400Y854500D03*
X436500Y812600D03*
X400800Y864800D03*
X402050Y836950D03*
X408600Y814200D03*
X406850Y823350D03*
X409600Y804800D03*
X404780Y759780D03*
X413425Y753875D03*
X383350Y836850D03*
X385000Y810000D03*
X373300Y810300D03*
X378150Y823350D03*
X374300Y818100D03*
X365500Y825400D03*
X371600Y822400D03*
X365000Y807600D03*
X376400Y801500D03*
X381128Y788028D03*
X374700Y655500D03*
X339700Y861600D03*
X361900Y854800D03*
X341300Y812200D03*
X346400Y812100D03*
X343900Y818500D03*
X353000Y825500D03*
X339900Y656300D03*
X356800Y640400D03*
X356700Y634400D03*
X349400Y636100D03*
X350500Y644500D03*
X354900Y643900D03*
X339900Y643300D03*
X349800Y631900D03*
X314400Y866600D03*
X321200Y810200D03*
X328000Y811400D03*
Y799200D03*
X311900Y807800D03*
X334500Y633100D03*
X335600Y642200D03*
X320800Y590100D03*
X325900Y589700D03*
X296800Y848700D03*
X284500Y809400D03*
X290800Y816300D03*
X305500Y822200D03*
X300600Y827900D03*
X286700Y627400D03*
X285500Y641000D03*
X301600Y610600D03*
X288400Y599700D03*
X288000Y624000D03*
X287900Y615500D03*
X288200Y605600D03*
X278900Y814500D03*
X282500Y818000D03*
X274700Y752100D03*
X261000Y742100D03*
X272700Y730100D03*
X262300Y724300D03*
X272900Y653700D03*
X273100Y648100D03*
X268500Y632700D03*
X262200Y640100D03*
X270500Y605600D03*
X279900Y615600D03*
X262000Y596200D03*
X280800Y596300D03*
X270500Y598100D03*
X252900Y866700D03*
X239500Y825500D03*
X243500Y793100D03*
X255200Y792700D03*
X249700Y780400D03*
X245900Y774800D03*
X241700Y768800D03*
X247400Y761800D03*
X250000Y728200D03*
X247900Y722500D03*
X247600Y679000D03*
X240600Y690800D03*
X257200Y692200D03*
X247800Y702800D03*
X247400Y660000D03*
X248000Y666700D03*
X247900Y673200D03*
X241200Y665500D03*
X234500Y638500D03*
X250200Y645100D03*
X248700Y604800D03*
X255600Y609300D03*
X253900Y622900D03*
X236600Y607700D03*
X246300Y608200D03*
X220800Y761300D03*
X220600Y706000D03*
X227100Y697200D03*
X224000Y630800D03*
X211800Y646100D03*
X215000Y637200D03*
X227200Y598800D03*
X182200Y879100D03*
X181000Y854200D03*
X193700Y812500D03*
X182400Y770800D03*
X197000Y692700D03*
X192300Y702400D03*
X187000Y664800D03*
X179600Y657700D03*
X196500Y664000D03*
X185600Y651200D03*
X196500Y676400D03*
X204643Y648158D03*
X184958Y628958D03*
X183258Y611300D03*
X184300Y590500D03*
X169000Y878900D03*
X175900Y826800D03*
X169840Y680060D03*
X166100Y679800D03*
X153270Y669530D03*
X159800Y668600D03*
X159900Y676200D03*
X161000Y658500D03*
X171000D03*
X172500Y626800D03*
X126800Y876600D03*
X132000Y859200D03*
X132500Y809900D03*
X129200Y701200D03*
X133970Y669530D03*
X145000Y658500D03*
X149000D03*
X113800Y876900D03*
X120700Y882500D03*
X121800Y824700D03*
X123200Y770800D03*
X120300Y666600D03*
X120900Y653000D03*
X121100Y639600D03*
X121600Y607900D03*
X121500Y619800D03*
X121800Y588500D03*
X425300Y608200D03*
X431700Y603100D03*
X435900Y612600D03*
X435700Y621600D03*
X425600Y597600D03*
X412900Y613000D03*
X422800Y639000D03*
G54D35*
X419900Y886342D03*
Y866658D03*
Y832342D03*
Y812658D03*
Y758658D03*
X358900Y886342D03*
Y866658D03*
Y833342D03*
Y813658D03*
Y778342D03*
Y758658D03*
Y724342D03*
Y704658D03*
Y670342D03*
Y650658D03*
X297900Y886342D03*
Y866658D03*
Y833342D03*
Y778342D03*
Y758658D03*
Y724342D03*
Y704658D03*
Y616342D03*
Y596658D03*
X236900Y886342D03*
Y866658D03*
Y833342D03*
Y813658D03*
Y778342D03*
Y758658D03*
Y724342D03*
Y670342D03*
Y650658D03*
Y616342D03*
X175900Y886342D03*
Y866658D03*
Y832342D03*
Y812658D03*
Y778342D03*
Y758658D03*
Y724342D03*
Y704658D03*
Y670342D03*
Y650658D03*
Y616342D03*
Y596658D03*
X114900Y886342D03*
Y866658D03*
Y832342D03*
Y812658D03*
Y778342D03*
Y758658D03*
Y724342D03*
Y704658D03*
Y670342D03*
Y650658D03*
Y616342D03*
Y596658D03*
X419900Y616342D03*
Y596658D03*
G54D33*
X389002Y788302D03*
X393151Y781434D03*
Y773560D03*
Y769623D03*
X393825Y700725D03*
X385065Y797365D03*
X373254Y796946D03*
X369317Y788517D03*
X365380Y788720D03*
Y666200D03*
X369317Y657517D03*
X373254Y665654D03*
X377191Y665691D03*
X385065Y665565D03*
X381200Y656449D03*
X361443Y796900D03*
X351601Y797199D03*
X349632Y787000D03*
X353569Y787100D03*
X335853Y796953D03*
X331916Y797284D03*
X327979Y788321D03*
X324042Y797058D03*
X316168Y797132D03*
X312231Y797169D03*
X320105Y797007D03*
X315962Y787375D03*
X304357Y788757D03*
X292546Y788346D03*
X288609Y788609D03*
X308294Y798151D03*
X301896D03*
X260700Y783600D03*
X271716Y726316D03*
X271902Y671198D03*
G54D36*
X333200Y885600D03*
X200800Y776200D03*
%LPD*%
G75*
G54D10*
X19600Y19100D03*
Y505500D03*
Y963200D03*
X571000Y19100D03*
Y505500D03*
Y963200D03*
G54D11*
X3200Y138200D03*
X4300Y161500D03*
X11400Y138400D03*
X19400D03*
X12300Y161500D03*
X19800Y161800D03*
X63700Y71900D03*
X63900Y76900D03*
X51400Y116000D03*
X51700Y127800D03*
X51200Y124100D03*
X61100Y127900D03*
X56000Y127800D03*
X58500Y477600D03*
X57900Y481800D03*
X57500Y484600D03*
X52600Y484500D03*
X82700Y81700D03*
X69500Y79800D03*
X75100Y84400D03*
X79800Y85400D03*
X70100Y85300D03*
X70900Y115500D03*
X69800Y123800D03*
X70500Y127900D03*
X66400Y128000D03*
X83700Y173600D03*
X76300Y173400D03*
X80900Y176200D03*
X81000Y178900D03*
X81100Y181400D03*
X83600Y244300D03*
X76900Y244600D03*
X73700Y242600D03*
X80400Y242400D03*
Y246300D03*
Y249700D03*
X79300Y289900D03*
X79200Y295300D03*
X75000Y302900D03*
X81800Y303200D03*
X77700Y307900D03*
X77500Y312500D03*
X74600Y396600D03*
X82800Y401400D03*
X75500Y401100D03*
X81600Y405500D03*
X76900Y405400D03*
X75600Y467000D03*
X72700Y466900D03*
X67100D03*
X75800Y471300D03*
X84800Y72600D03*
X86900Y289800D03*
X87100Y302900D03*
X85200Y308200D03*
X84100Y312400D03*
X87200Y390200D03*
X87000Y393500D03*
Y396600D03*
X88200Y401100D03*
X88500Y405700D03*
X526100Y724100D03*
X523200D03*
X515800Y721200D03*
X515900Y729100D03*
X531900Y410100D03*
X527900Y418200D03*
G54D20*
X219800Y899700D03*
X433500Y634300D03*
Y899700D03*
G54D21*
G01X19600Y19100D02*
Y35800D01*
G01Y19100D02*
X36300D01*
G01X21300Y61200D02*
Y67400D01*
G01D02*
Y73600D01*
G01X15100Y67400D02*
X21300D01*
G01D02*
X27500D01*
G01X21300Y108000D02*
Y114200D01*
G01D02*
Y120400D01*
G01X15100Y114200D02*
X21300D01*
G01D02*
X27500D01*
G01X19600Y488800D02*
Y505500D01*
G01D02*
Y522200D01*
G01Y505500D02*
X36300D01*
G01X19600Y946500D02*
Y963200D01*
G01D02*
X36300D01*
G01X61300Y14881D02*
Y19126D01*
G01D02*
Y23371D01*
G01X57055Y19126D02*
X61300D01*
G01D02*
X65545D01*
G01X60824Y487609D02*
Y489809D01*
G01D02*
Y492009D01*
G01X75824Y487609D02*
Y489809D01*
G01D02*
Y492009D01*
G01X80824Y552569D02*
Y554769D01*
G01D02*
Y556969D01*
G01X90824Y487609D02*
Y489809D01*
G01D02*
Y492009D01*
G01X164500Y490647D02*
Y494300D01*
G01D02*
Y497953D01*
G01X160847Y494300D02*
X164500D01*
G01D02*
X168153D01*
G01X164600Y509347D02*
Y513000D01*
G01D02*
Y516653D01*
G01X160947Y513000D02*
X164600D01*
G01D02*
X168253D01*
G01X273700Y14881D02*
Y19126D01*
G01X269455D02*
X273700D01*
G01D02*
X277945D01*
G01X312300Y14881D02*
Y19126D01*
G01X308055D02*
X312300D01*
G01D02*
X316545D01*
G01X524700Y14881D02*
Y19126D01*
G01D02*
Y23371D01*
G01X520455Y19126D02*
X524700D01*
G01D02*
X528945D01*
G01X554300Y19100D02*
X571000D01*
G01X554300Y505500D02*
X571000D01*
G01X554300Y963200D02*
X571000D01*
G01Y19100D02*
Y35800D01*
G01Y488800D02*
Y505500D01*
G01D02*
Y522200D01*
G01Y946500D02*
Y963200D01*
X236777Y412377D03*
X240921Y315621D03*
X274300Y378100D03*
X278800Y265600D03*
X279400Y315100D03*
X277400Y427400D03*
X311500Y314300D03*
X319100Y273500D03*
X316777Y429400D03*
X353400Y365900D03*
X358500Y258800D03*
X358100Y427500D03*
G54D12*
X6300Y206400D03*
X16400Y123400D03*
X21200Y177800D03*
Y193800D03*
Y185800D03*
X22800Y211400D03*
X13800Y210300D03*
X7000Y217300D03*
X14800Y233500D03*
X22800Y227400D03*
Y219400D03*
X6700Y231000D03*
X14700Y223900D03*
X22600Y252700D03*
Y244700D03*
X14800Y249500D03*
Y241500D03*
X22600Y260700D03*
X7600Y268600D03*
X24100Y291900D03*
Y283900D03*
X9600Y280600D03*
X23700Y314700D03*
Y306700D03*
X24100Y299900D03*
X11700Y331800D03*
Y323800D03*
Y315800D03*
X23300Y332500D03*
X23700Y322700D03*
X23300Y348500D03*
Y340500D03*
X24500Y392400D03*
Y384400D03*
Y400400D03*
X24400Y410300D03*
Y426300D03*
Y418300D03*
X20600Y469600D03*
Y465600D03*
Y461600D03*
Y457600D03*
Y473600D03*
X16300Y666300D03*
Y696200D03*
Y726000D03*
Y755900D03*
Y785800D03*
Y815600D03*
Y845500D03*
Y875300D03*
Y905200D03*
Y935000D03*
X34700Y120800D03*
X34600Y116300D03*
X41100Y125200D03*
X27100Y123000D03*
X34800Y125400D03*
X30800Y163000D03*
X35900Y167500D03*
X30300Y172900D03*
X38500Y177800D03*
X31100Y190100D03*
X28500Y180300D03*
X38500Y185800D03*
Y193800D03*
X26400Y201000D03*
X27600Y233900D03*
X28500Y224000D03*
X27600Y245900D03*
Y241900D03*
X27200Y253300D03*
Y269300D03*
Y261300D03*
X29900Y349200D03*
Y341200D03*
Y357200D03*
X30700Y390300D03*
Y382300D03*
X32500Y403300D03*
X29900Y410800D03*
X30700Y398300D03*
X32700Y412800D03*
X29900Y426800D03*
Y418800D03*
X43300Y436800D03*
Y439800D03*
Y442800D03*
X41200Y457200D03*
Y453200D03*
X40200Y467500D03*
Y463500D03*
Y479500D03*
Y475500D03*
Y471500D03*
X43000Y595100D03*
X41000Y623600D03*
Y605600D03*
X41300Y637300D03*
X41800Y646300D03*
X61700Y64200D03*
X50600Y138800D03*
X50400Y156100D03*
X50500Y143800D03*
Y151100D03*
X61600Y153300D03*
X59700Y183800D03*
X61600Y209500D03*
X63000Y213300D03*
X61200Y224100D03*
X56200D03*
X57100Y252100D03*
X63900Y294800D03*
X56900Y294700D03*
X61600Y278400D03*
X53400Y318800D03*
X63600D03*
Y328100D03*
X57000Y346100D03*
X63400Y342700D03*
X49800Y368400D03*
X54300D03*
X58800D03*
X58400Y354100D03*
X59100Y385600D03*
X55900Y409700D03*
X58100Y433300D03*
Y436300D03*
Y439300D03*
X47200Y433500D03*
X50200D03*
X53200D03*
X63500Y442100D03*
X60500D03*
X64300Y432700D03*
X55000Y461400D03*
X59000D03*
X47600Y461300D03*
X51600D03*
X58600Y457200D03*
Y453200D03*
X51100Y495200D03*
X62500Y610300D03*
X50741Y631559D03*
X50700Y629000D03*
X52500Y646600D03*
X46100Y666300D03*
Y696200D03*
Y726000D03*
Y755900D03*
Y785800D03*
Y815600D03*
Y845500D03*
Y875300D03*
Y905200D03*
Y935000D03*
X76800Y9200D03*
X68800D03*
X77800Y17500D03*
X69800D03*
X74500Y63900D03*
X68500Y58600D03*
X80000Y145600D03*
X76000D03*
X72000D03*
X68000D03*
X77600Y153300D03*
X73600D03*
X69600D03*
X65600D03*
X71600Y159700D03*
X65700Y159600D03*
X68900Y193100D03*
X79100Y187100D03*
X80000Y191700D03*
X75800Y196200D03*
X81800D03*
X78500Y183800D03*
X68900D03*
X75300Y213400D03*
X81300D03*
X67600Y209500D03*
X72600Y210000D03*
X78600D03*
X69000Y213300D03*
X80400Y200000D03*
X83600Y203800D03*
X77600D03*
X68400Y207800D03*
X81800Y223500D03*
X72100Y230700D03*
X77100D03*
X82100D03*
X66200Y224100D03*
X75800Y252100D03*
X66500D03*
X78400Y255200D03*
X83400D03*
X66500Y261200D03*
X75400Y274600D03*
X83000Y268400D03*
Y273400D03*
X68500Y276600D03*
X73500D03*
X83500Y276400D03*
X73300Y263300D03*
X78300D03*
X81000Y259200D03*
X76000D03*
X66400Y273300D03*
X66600Y278400D03*
X73500Y318800D03*
X72900Y333800D03*
X74100Y331400D03*
X82800Y322500D03*
X79900D03*
X75600D03*
X76300Y325600D03*
X72600D03*
X75700Y327600D03*
X73000Y327700D03*
X70600D03*
X73100Y337200D03*
X70900Y342400D03*
X75300Y342700D03*
X81300Y342400D03*
X71500Y346000D03*
X71800Y353900D03*
X74280Y379480D03*
X64900Y385700D03*
X74100Y409700D03*
X65000Y409600D03*
Y419100D03*
X71100Y419300D03*
X74100D03*
X77100D03*
X77400Y414000D03*
X80400D03*
X83400D03*
X73700Y423300D03*
Y426300D03*
Y429300D03*
X67300Y435200D03*
X70300D03*
X73300D03*
X66500Y442100D03*
X81000Y495200D03*
X66100D03*
X80900Y543500D03*
X83300Y563900D03*
X76200Y595600D03*
X68000Y610200D03*
X78300Y623500D03*
X76300Y605000D03*
X75900Y613700D03*
X78300Y634400D03*
X65159Y631559D03*
X76900Y644800D03*
X67800Y645900D03*
X75900Y666300D03*
Y696200D03*
Y726000D03*
Y755900D03*
Y785800D03*
Y815600D03*
Y845500D03*
Y875300D03*
Y905200D03*
Y935000D03*
X84800Y9200D03*
X101100Y9000D03*
X93100D03*
X100200Y17200D03*
X92200D03*
X85800Y17500D03*
X100100Y83100D03*
Y75700D03*
Y72000D03*
X95000Y70100D03*
X94100Y93800D03*
X100100Y90400D03*
X84000Y145600D03*
X85100Y187100D03*
X86000Y191700D03*
X101300Y181900D03*
Y186900D03*
Y191900D03*
X99000Y189500D03*
Y194500D03*
X86400Y200000D03*
X99000Y199500D03*
X99900Y202400D03*
X101000Y234700D03*
X102200Y219200D03*
Y224200D03*
Y229200D03*
X86800Y223500D03*
X91800D03*
X96800Y238200D03*
Y245600D03*
Y253100D03*
X101000Y242100D03*
Y249600D03*
Y257100D03*
X88500Y276400D03*
X86700Y267800D03*
X91700D03*
X83900Y263400D03*
X88900D03*
X102800Y309300D03*
X102100Y303600D03*
X92200Y323800D03*
X96700D03*
X101200D03*
X89300Y329600D03*
X102100Y341100D03*
X97600D03*
X93100D03*
X101900Y347200D03*
Y351700D03*
X89300Y335700D03*
X101900Y356200D03*
X95400Y358900D03*
Y363400D03*
Y367900D03*
X98700Y393200D03*
X98600Y400900D03*
Y412200D03*
X98200Y420500D03*
X88900Y429100D03*
X88500Y433300D03*
X94700Y495200D03*
X95700Y529600D03*
X101500Y545200D03*
X96500D03*
X101200Y540100D03*
X96200D03*
X109100Y9000D03*
X114400Y12300D03*
X108200Y17200D03*
X120400Y38600D03*
Y41600D03*
X117900Y40100D03*
X107600Y40400D03*
X112600D03*
X110100Y41900D03*
Y38900D03*
X109900Y202400D03*
X104900D03*
X110100Y216300D03*
Y211300D03*
Y206300D03*
X108500Y234700D03*
X113200Y256700D03*
Y249300D03*
Y238100D03*
X108500Y242100D03*
Y249600D03*
Y257100D03*
X109900Y265000D03*
X114400D03*
X115300Y286700D03*
Y282200D03*
Y277700D03*
X109500Y287000D03*
Y282500D03*
Y278000D03*
X110400Y294500D03*
Y290000D03*
X107300Y309300D03*
X111800D03*
X110400Y299000D03*
X111100Y303600D03*
X106600D03*
X105300Y370600D03*
Y366100D03*
X113600Y389500D03*
X105300Y375100D03*
X113600Y397000D03*
Y404400D03*
X106100Y408100D03*
Y400700D03*
Y393200D03*
Y415600D03*
X122200Y486000D03*
X118100Y529600D03*
X110700D03*
X103200D03*
X111500Y545200D03*
X106500D03*
X106200Y540100D03*
X111200D03*
X122200Y534500D03*
X121600Y552700D03*
X122100Y569400D03*
X111700Y585100D03*
X121800Y588500D03*
X121600Y607900D03*
X121500Y619800D03*
X121100Y639600D03*
X120900Y653000D03*
X120300Y666600D03*
X121800Y824700D03*
X120700Y882500D03*
X113800Y876900D03*
X105800Y935000D03*
X139700Y23200D03*
X129900Y23600D03*
X141400Y7100D03*
X140700Y16600D03*
X132700D03*
X122400Y12300D03*
X130400D03*
X137500Y42400D03*
X136800Y40100D03*
X131900Y37300D03*
X128000Y42000D03*
X132200Y39800D03*
X127200D03*
X122900Y40100D03*
X122600Y370500D03*
X123200Y394900D03*
X123300Y424900D03*
X122700Y457700D03*
X122300Y508700D03*
X131300Y553300D03*
X138000Y559200D03*
X133970Y669530D03*
X129200Y701200D03*
X123200Y770800D03*
X132500Y809900D03*
X132000Y859200D03*
X126800Y876600D03*
X135600Y935000D03*
X150000Y23100D03*
X149400Y7100D03*
X157400D03*
X153800Y13000D03*
X148700Y16600D03*
X158900Y39200D03*
Y42200D03*
X156400Y40700D03*
X142100Y37200D03*
X141800Y40100D03*
X147900Y34700D03*
X158900Y188500D03*
Y192500D03*
Y196500D03*
X156000Y210900D03*
X160300Y214900D03*
X156000Y218900D03*
X160700Y227300D03*
X158600Y235300D03*
X158300Y255500D03*
X155600Y261600D03*
X154600Y268400D03*
X153800Y275400D03*
X154900Y333400D03*
X155700Y329800D03*
X155600Y326100D03*
X155000Y352800D03*
Y345300D03*
Y337800D03*
Y367700D03*
X155900Y360600D03*
X159100Y391900D03*
X160000Y399200D03*
X160200Y423400D03*
Y445800D03*
Y468200D03*
Y483100D03*
X142900Y553300D03*
X155800Y553400D03*
X149000Y658500D03*
X145000D03*
X159900Y676200D03*
X159800Y668600D03*
X153270Y669530D03*
X170400Y23700D03*
X161800Y13000D03*
X169800D03*
X175700Y36100D03*
X161400Y40700D03*
X162500Y104500D03*
X162000Y122700D03*
Y130700D03*
X171200Y210600D03*
X170400Y225200D03*
X173300Y219400D03*
X178400Y225200D03*
X164900Y233100D03*
X171900Y237300D03*
X172900Y233100D03*
X163100Y238500D03*
X178700Y274600D03*
X174700Y268700D03*
X174500Y260300D03*
X165200Y269000D03*
X164900Y275600D03*
X161300Y279800D03*
X161000Y321500D03*
X168200Y333900D03*
X161100Y329900D03*
X166800Y329800D03*
X173100Y329900D03*
X178200Y330000D03*
X178100Y326400D03*
X173300Y326500D03*
X167000Y326400D03*
X161100Y326200D03*
X174700Y348800D03*
X168200Y345300D03*
X162100Y339400D03*
X174500Y354800D03*
X177200Y368500D03*
X163200Y369900D03*
X175300Y361200D03*
X165600Y375800D03*
X178500Y391900D03*
X174800D03*
X171000D03*
X167300D03*
X163600D03*
X166900Y529300D03*
X178100D03*
X178900Y535900D03*
X173900D03*
X179300Y545000D03*
X174300D03*
X162800Y560100D03*
X170500Y553900D03*
X172500Y626800D03*
X179600Y657700D03*
X171000Y658500D03*
X161000D03*
X169840Y680060D03*
X166100Y679800D03*
X175900Y826800D03*
X169000Y878900D03*
X165400Y935000D03*
X180400Y23200D03*
X198500Y9500D03*
X190500D03*
X192800Y16600D03*
X184800D03*
X190350Y23250D03*
X195000Y35400D03*
X185000Y35000D03*
X198600Y40300D03*
X195600D03*
X197100Y42800D03*
Y37800D03*
X198600Y177500D03*
X186800Y196100D03*
X188700Y209000D03*
X194200Y215700D03*
X188700Y217000D03*
X183400Y218600D03*
Y226600D03*
X183700Y254100D03*
X185800Y268800D03*
X196200Y273200D03*
X195150Y333350D03*
X185400Y326000D03*
X190200Y331700D03*
X196700Y325900D03*
X198900Y320600D03*
X188200Y343300D03*
X193800Y357200D03*
X196600Y359200D03*
X185700Y382700D03*
X195300Y392300D03*
X185900Y391900D03*
X182200D03*
X197800Y411200D03*
Y403700D03*
Y396300D03*
Y426100D03*
Y418600D03*
Y433600D03*
X194200Y466100D03*
X189300Y529300D03*
X188900Y535900D03*
X183900D03*
X189300Y545000D03*
X184300D03*
X188300Y553700D03*
X195700Y559600D03*
X184300Y590500D03*
X183258Y611300D03*
X184958Y628958D03*
X185600Y651200D03*
X196500Y664000D03*
Y676400D03*
X187000Y664800D03*
X197000Y692700D03*
X192300Y702400D03*
X182400Y770800D03*
X193700Y812500D03*
X181000Y854200D03*
X182200Y879100D03*
X195400Y935000D03*
X200200Y23600D03*
X210000Y24200D03*
X206500Y9500D03*
X211700Y10600D03*
X200800Y16600D03*
X210400Y38700D03*
X207400D03*
X208900Y41200D03*
Y36200D03*
X218700Y37600D03*
Y53700D03*
X210000Y48900D03*
X215700Y53800D03*
X209700D03*
X205700D03*
Y196300D03*
Y200300D03*
Y204300D03*
X211200Y201900D03*
X204600Y226900D03*
X207300Y229100D03*
X208400Y231700D03*
Y234700D03*
Y237700D03*
X204100Y237600D03*
X217000Y229600D03*
X212000Y261900D03*
X211600Y275200D03*
X212100Y269500D03*
X202300Y281700D03*
X203700Y333400D03*
X211700Y325500D03*
X204600Y326000D03*
X210800Y333100D03*
X203100Y316600D03*
X200300Y347700D03*
X216300Y352600D03*
X212900Y348700D03*
X217400Y354800D03*
X207600Y369300D03*
X218700Y368200D03*
X202800Y392300D03*
X210800Y385200D03*
X211200Y380700D03*
X208800Y374100D03*
X213000Y398800D03*
X202500Y402800D03*
Y410200D03*
X200500Y398800D03*
X213400Y424000D03*
X202500Y417700D03*
Y430300D03*
X216100Y504900D03*
X200500Y529300D03*
X211700D03*
X215700Y540300D03*
X210700D03*
X205700D03*
X200700D03*
X203600Y554000D03*
X215000Y637200D03*
X211800Y646100D03*
X204643Y648158D03*
X229600Y6000D03*
X221600D03*
X237600D03*
X229950Y22950D03*
X233300Y16900D03*
X225300D03*
X219700Y10600D03*
X227700D03*
X235400Y35700D03*
X225300Y35500D03*
X221700Y37600D03*
X220200Y40100D03*
Y35100D03*
X223200Y159900D03*
X228300Y212000D03*
X230700Y205100D03*
X232300Y211900D03*
X234300Y206400D03*
X237600Y239800D03*
X228100Y243400D03*
X231100Y255300D03*
X228700Y240600D03*
X236600Y255500D03*
X223900Y261900D03*
X222900Y275200D03*
X223500Y269500D03*
X231400Y259900D03*
X223700Y273300D03*
X236800Y274100D03*
X219300Y291000D03*
X236900Y291500D03*
X224500Y299300D03*
X225500Y296500D03*
X224300Y332700D03*
X236600Y344600D03*
X225300Y348400D03*
Y364100D03*
X225900Y365800D03*
X222200Y362000D03*
X222800Y385200D03*
X226200Y378600D03*
X220700Y373700D03*
X229500Y404900D03*
X235600Y394500D03*
X220400Y404800D03*
X224100Y466100D03*
X219100Y529300D03*
X227400Y540300D03*
Y562700D03*
Y585000D03*
X227200Y598800D03*
X235400Y600700D03*
X236600Y607700D03*
X224000Y630800D03*
X234500Y638500D03*
X237000Y700800D03*
X227100Y697200D03*
X220600Y706000D03*
X220800Y761300D03*
X225200Y935000D03*
X240750Y22450D03*
X249900Y23300D03*
X251000Y16700D03*
X256000Y11300D03*
X248000D03*
X241300Y16900D03*
X254500Y37900D03*
X254100Y42100D03*
X249600Y41400D03*
X250000Y37700D03*
X241600Y40500D03*
X238600D03*
X240100Y43000D03*
Y38000D03*
X241700Y149500D03*
X254000Y196100D03*
X251300Y204900D03*
X252440Y224800D03*
X254600Y237100D03*
X239500Y238200D03*
X248800Y251700D03*
X240000Y252400D03*
X243600Y249600D03*
X245400Y251750D03*
X244900Y274600D03*
X250100Y271900D03*
X254300D03*
X250300Y268900D03*
X239400Y273700D03*
X240500Y262900D03*
X249500Y264100D03*
X254600Y266100D03*
X252100Y289700D03*
X239400Y292800D03*
X249700Y303700D03*
X252600Y313173D03*
X249400Y299700D03*
X245200Y300700D03*
X250500Y311400D03*
X245800Y309700D03*
X242900Y296700D03*
X250300Y325150D03*
X252100Y320400D03*
Y331800D03*
X252000Y318000D03*
X238300Y340900D03*
X239300Y338600D03*
X239900Y348000D03*
X249900Y334700D03*
X240200Y342700D03*
X250600Y336600D03*
X249600Y350500D03*
X246400Y354600D03*
X239700Y354500D03*
X239200Y360200D03*
X240900Y356600D03*
X240300Y379100D03*
X250000Y383400D03*
X244200Y383500D03*
X252100Y381000D03*
X246800Y377200D03*
X257000Y379500D03*
X249900Y377000D03*
X242400Y395800D03*
X248300Y395600D03*
X244600Y407700D03*
X250000Y407500D03*
X255200Y409600D03*
X244600Y395800D03*
X255200Y397300D03*
X240300Y412800D03*
X256900Y429500D03*
X242300Y427600D03*
X255400Y412800D03*
X248100Y438900D03*
X250900Y447900D03*
X246500Y466100D03*
X250600Y583900D03*
X239700Y584100D03*
X253700Y600700D03*
X255600Y598100D03*
X248700Y604800D03*
X246300Y608200D03*
X253900Y622900D03*
X255600Y609300D03*
X247400Y660000D03*
X250200Y645100D03*
X247600Y679000D03*
X248000Y666700D03*
X247900Y673200D03*
X241200Y665500D03*
X257200Y692200D03*
X240600Y690800D03*
X247800Y702800D03*
X250000Y728200D03*
X247900Y722500D03*
X247400Y761800D03*
X245900Y774800D03*
X241700Y768800D03*
X243500Y793100D03*
X255200Y792700D03*
X249700Y780400D03*
X243300Y787100D03*
X239500Y825500D03*
X252900Y866700D03*
X255000Y935000D03*
X260100Y23600D03*
X259000Y16700D03*
X267000D03*
X264000Y11300D03*
X265500Y37100D03*
X268600Y36600D03*
X265700Y41100D03*
X261100Y43000D03*
X269800Y133300D03*
X259200Y173900D03*
X275800Y196600D03*
X257800Y182700D03*
X275900Y183700D03*
X274800Y208200D03*
X260600Y214200D03*
X275200Y227000D03*
X274600Y237900D03*
X259700Y252600D03*
X260800Y239900D03*
X270800Y238500D03*
X267300Y239100D03*
X258800Y242600D03*
X259500Y269600D03*
X261900Y267300D03*
X268300Y379800D03*
X266000Y378300D03*
X263800Y410600D03*
X262600Y396000D03*
X274900Y399000D03*
X260200Y408200D03*
X265900D03*
X271300Y408400D03*
X274700Y409900D03*
X270300Y416000D03*
X268800Y432700D03*
X275100Y438000D03*
X263100Y439800D03*
X276300Y466100D03*
X275700Y504900D03*
X263600Y584500D03*
X270500Y598100D03*
X262000Y596200D03*
X270500Y621100D03*
Y605600D03*
X268500Y632700D03*
X270200Y624200D03*
X262200Y640100D03*
X272900Y653700D03*
X273100Y648100D03*
X259700Y660000D03*
X260600Y679000D03*
X273400Y720400D03*
X272900Y718200D03*
X273900Y722200D03*
X261700Y732100D03*
X261300Y734200D03*
X262300Y724300D03*
X272700Y730100D03*
X260200Y722500D03*
X273800Y757800D03*
X261650Y752850D03*
X261000Y742100D03*
X274700Y752100D03*
X260900Y755600D03*
X272900Y744000D03*
X273000Y746000D03*
X273400Y777600D03*
Y759700D03*
X272500Y775500D03*
X273500Y767700D03*
X274900Y769700D03*
X272900Y773400D03*
X273300Y771300D03*
X258100Y774800D03*
X272500Y779700D03*
X292100Y53600D03*
X288900Y46500D03*
X278100Y174600D03*
X285900Y187600D03*
X294100Y192900D03*
X292000Y213300D03*
X285200Y213100D03*
X291800Y209100D03*
X292100Y237800D03*
X292300Y221200D03*
X283200Y240300D03*
X288000Y253100D03*
X291950Y253150D03*
X276900Y239000D03*
X286200Y241000D03*
X294200Y240600D03*
X282200Y263200D03*
X290100Y271900D03*
X291000Y268200D03*
X278800Y302600D03*
X289100Y312600D03*
X286000Y377700D03*
X293200Y378200D03*
X288700Y380100D03*
X286500Y410600D03*
X284000Y408100D03*
X292200Y407400D03*
X278200Y411500D03*
X286800Y426900D03*
X290200Y416500D03*
X294200Y426800D03*
X279800Y434400D03*
X293400Y564100D03*
X293100Y582400D03*
X281300Y585000D03*
X280800Y596300D03*
X288400Y599700D03*
X288200Y605600D03*
X287900Y615500D03*
X279900Y615600D03*
X285500Y641000D03*
X288000Y624000D03*
X286700Y627400D03*
X293600Y643700D03*
X285100Y654400D03*
X284800Y649500D03*
X282800Y667600D03*
X284700Y787400D03*
X282300Y787600D03*
X278766Y798800D03*
X281100Y798100D03*
X284500Y809400D03*
X290800Y816300D03*
X295100Y812000D03*
X278900Y814500D03*
X291000Y804500D03*
X277200Y801700D03*
X282500Y818000D03*
X284900Y935000D03*
X304100Y53500D03*
X314600Y46200D03*
X301500Y46400D03*
X311800Y65200D03*
X308200Y161100D03*
X306950Y183550D03*
X310600Y213200D03*
X298100Y209300D03*
X299200Y213500D03*
X312800Y213900D03*
X301200Y228800D03*
X301000Y232700D03*
X301100Y236900D03*
X298300Y238300D03*
X304800Y238400D03*
X307800D03*
X311800D03*
X299000Y267200D03*
X303500Y303200D03*
X302400Y315100D03*
X302200Y331200D03*
X303200Y342500D03*
X301600Y372700D03*
X314500Y379200D03*
X301821Y377500D03*
X309200Y377000D03*
X314100Y409200D03*
X303900D03*
X309500D03*
Y397000D03*
X299400Y399100D03*
X310000Y412700D03*
X301500Y413900D03*
X309000Y443900D03*
X303700Y443800D03*
X298700Y466100D03*
X309900Y564100D03*
X302700Y555000D03*
X302100Y574300D03*
X301600Y610600D03*
X309900Y635600D03*
X305700Y626400D03*
X306325Y656475D03*
X310300Y644700D03*
X305000Y647200D03*
X306900Y644400D03*
X303400Y810400D03*
X311900Y807800D03*
X305500Y809500D03*
Y822200D03*
X300600Y827900D03*
X296800Y848700D03*
X314400Y866600D03*
X314700Y935000D03*
X332276Y22600D03*
X329000Y9200D03*
X321000D03*
X325424Y37800D03*
X322576D03*
X315500Y53500D03*
X324100Y75000D03*
X332600Y166300D03*
X327400Y181600D03*
X334200Y182000D03*
X315700Y187900D03*
X333500Y199300D03*
X325700Y200500D03*
X331200Y201900D03*
Y207600D03*
X327900Y200200D03*
X319900Y211200D03*
X319400Y203400D03*
X317200Y227300D03*
X331500Y233900D03*
X331250Y231150D03*
X315300Y222100D03*
X315800Y238400D03*
X333600Y239300D03*
X326700Y240100D03*
X330400Y272100D03*
X325400Y309000D03*
X332000Y297500D03*
X331200Y302300D03*
X325500Y311800D03*
X331700Y317100D03*
X319300Y379500D03*
X323900Y379900D03*
X334000Y379500D03*
X329900Y379300D03*
X316777Y377123D03*
X327700Y404500D03*
X329400Y414300D03*
X324600Y413100D03*
X328500Y443400D03*
X317700Y448100D03*
X331900Y442100D03*
X323500Y444200D03*
X328600Y466100D03*
X320500Y504900D03*
X330400Y563700D03*
X322600Y553600D03*
X321100Y574200D03*
X330400Y582200D03*
X331800Y595200D03*
X324600Y601600D03*
X325900Y589700D03*
X320800Y590100D03*
X327200Y601400D03*
X331100Y641500D03*
X317400Y640800D03*
X316400Y642800D03*
X317400Y627800D03*
X334500Y633100D03*
X326100Y641600D03*
X322200Y640100D03*
X324042Y656842D03*
X327979Y667300D03*
X321200Y810200D03*
X328000Y811400D03*
Y799200D03*
X351976Y22200D03*
X335124Y22600D03*
X337000Y9200D03*
X345224Y36076D03*
X342376D03*
X350700Y99400D03*
X336500Y86000D03*
X346400Y194500D03*
X345200Y181000D03*
X343000Y190900D03*
X341900Y200300D03*
X340000Y208500D03*
X335400Y227300D03*
X345100Y240600D03*
X340400Y273100D03*
X337500Y270700D03*
X341600Y269500D03*
X336800Y267500D03*
X341000Y292600D03*
X344900Y292800D03*
X350400Y293000D03*
X353800Y315100D03*
X344800Y309000D03*
X341100Y309700D03*
X345000Y302000D03*
X344800Y297500D03*
X350100Y302100D03*
X350300Y297400D03*
X347250Y327250D03*
X349300Y322800D03*
X337400Y331400D03*
X339000Y338200D03*
X341900Y352543D03*
X334700Y350575D03*
X349200Y334827D03*
X340400Y367900D03*
X351800Y354512D03*
X348214Y362386D03*
X340054Y364354D03*
X342000Y358449D03*
X337200Y360417D03*
X345200Y356480D03*
X349200Y376300D03*
X344000Y411200D03*
X337100Y407000D03*
X347500Y408500D03*
X340300Y410400D03*
X351600Y411900D03*
X337400Y420000D03*
X346777Y435123D03*
X351400Y433400D03*
X339300Y435400D03*
X351000Y466100D03*
X342200Y601400D03*
X348400Y605200D03*
X349800Y631900D03*
X349400Y636100D03*
X335600Y642200D03*
X350500Y644500D03*
X339900Y643300D03*
Y656300D03*
X337800Y782800D03*
X341300Y812200D03*
X346400Y812100D03*
X341300Y799200D03*
X353000Y825500D03*
X343900Y818500D03*
X339700Y861600D03*
X344500Y935000D03*
X370650Y24250D03*
X354824Y22200D03*
X365800Y9200D03*
X364624Y34676D03*
X361776D03*
X365600Y112500D03*
X372600Y126900D03*
X372000Y189700D03*
X357900Y196500D03*
X369700Y207800D03*
X368200Y239900D03*
X365800Y253600D03*
X370400Y257700D03*
X370300Y263700D03*
X367091Y279709D03*
X369900Y279900D03*
X355105Y311205D03*
X354300Y332858D03*
X371336Y338764D03*
X369700Y342700D03*
X368702Y380102D03*
X359000Y391800D03*
X366700Y393800D03*
X365250Y405450D03*
X369800Y437500D03*
X362700Y441900D03*
X370400Y431300D03*
X371400Y466300D03*
X365300Y504900D03*
X365800Y531600D03*
X364500Y544900D03*
X363100Y561200D03*
X365200Y584300D03*
X365000Y596900D03*
X370900Y590700D03*
X368200Y600900D03*
X363800Y631200D03*
X356700Y634400D03*
X356800Y640400D03*
X359500Y656300D03*
X369400Y644100D03*
X363300Y644200D03*
X354900Y643900D03*
X365000Y807600D03*
X365500Y825400D03*
X371600Y822400D03*
X361900Y854800D03*
X359600Y935000D03*
X391100Y23600D03*
X381050Y23550D03*
X373800Y9200D03*
X381800D03*
X373700Y145000D03*
X374300Y167300D03*
X376900Y196900D03*
X375200Y184900D03*
X383200Y216400D03*
X384300Y204700D03*
Y234400D03*
X375400Y218800D03*
X384100Y239700D03*
X373700Y240300D03*
X383100Y255400D03*
X376700Y269900D03*
X378300Y263100D03*
X376450Y273350D03*
X375200Y285700D03*
X378800Y279200D03*
X376000Y279700D03*
X389700Y304324D03*
Y301476D03*
X386500Y312976D03*
X384700Y320400D03*
X385500Y327600D03*
Y324751D03*
X386500Y315824D03*
X382300Y331200D03*
X376768Y340732D03*
X391000Y335100D03*
X388650Y337050D03*
X386800Y335100D03*
X383200Y368400D03*
X390500Y402200D03*
X382400Y399400D03*
X380800Y393800D03*
X387100Y394400D03*
X374700Y435200D03*
X378200Y600900D03*
X388200D03*
X374700Y655500D03*
X391000Y655700D03*
X381900Y644100D03*
X374900Y644200D03*
X381128Y788028D03*
X385000Y810000D03*
X373300Y810300D03*
X376400Y801500D03*
X378150Y823350D03*
X374300Y818100D03*
X383350Y836850D03*
X389400Y935000D03*
X411050Y24150D03*
X410500Y9200D03*
X405350Y292350D03*
X396200Y311900D03*
Y309000D03*
X402000Y330900D03*
X402900Y320900D03*
Y318051D03*
X393500Y337100D03*
X406900Y352543D03*
X404700Y350575D03*
X408400Y346638D03*
X395600Y342500D03*
X392800Y368900D03*
X396600Y371500D03*
X398100Y378200D03*
X397100Y375400D03*
X393600Y407800D03*
X395100Y401500D03*
X395000Y413800D03*
X394900Y424400D03*
X395100Y434000D03*
X410300Y506200D03*
Y498200D03*
Y514200D03*
X396200Y600900D03*
X406200D03*
X393800Y637300D03*
X403400Y646500D03*
X401000Y656600D03*
X409500Y661400D03*
X398700Y667000D03*
X400700Y666400D03*
X407200Y666600D03*
X411200Y678300D03*
X404600Y714500D03*
X404400Y734200D03*
X404300Y736200D03*
X403700Y726000D03*
X393351Y730253D03*
X404700Y729000D03*
X393351Y728284D03*
X402200Y732221D03*
X410357Y755843D03*
X411012Y757812D03*
X404780Y759780D03*
X403597Y777497D03*
X406686Y765686D03*
X404254Y767654D03*
X408051Y761749D03*
X409183Y763717D03*
X405965Y779465D03*
X409600Y804800D03*
X408600Y814200D03*
X406850Y823350D03*
X402050Y836950D03*
X400800Y864800D03*
X420650Y23950D03*
X418500Y9200D03*
X426500D03*
X413000Y37300D03*
X426500Y41000D03*
X424200Y38800D03*
X431000Y35800D03*
X427900Y273900D03*
X427600Y279000D03*
X427500Y331900D03*
X428400Y320100D03*
X414350Y350150D03*
X421200Y353500D03*
X419600Y346200D03*
X424700Y357600D03*
X413850Y356050D03*
X421400Y358449D03*
X426900Y360417D03*
X416300Y458800D03*
Y466800D03*
Y450800D03*
X426100Y463000D03*
Y471000D03*
Y479000D03*
Y507800D03*
Y515800D03*
Y523800D03*
X421136Y547178D03*
X420393Y566034D03*
X414736Y560378D03*
X426793Y552834D03*
X426050Y571691D03*
X425600Y597600D03*
X425300Y608200D03*
X412900Y613000D03*
X422800Y639000D03*
X429200Y658200D03*
X430600Y650500D03*
X425700Y677900D03*
X424100Y671400D03*
X427200Y664700D03*
X429676Y671676D03*
X417600Y672100D03*
X419100Y684600D03*
X428300Y684200D03*
X422500Y686600D03*
X428976Y715500D03*
X430900Y718300D03*
X413100Y738200D03*
X422551Y737700D03*
X425400D03*
X427576Y725300D03*
X430424D03*
X411900Y740095D03*
X413425Y753875D03*
X428500Y765300D03*
X418300Y770500D03*
X424400Y854500D03*
X419300Y935000D03*
X419200D03*
X436100Y23200D03*
X446000Y23400D03*
X434000Y38300D03*
X433500Y35900D03*
X448300Y303300D03*
X432100Y317000D03*
X441600Y333900D03*
X439100Y349300D03*
X445300Y356100D03*
X431914Y362386D03*
X438054Y364354D03*
X435400Y360700D03*
X432450Y558491D03*
X431700Y603100D03*
X435700Y621600D03*
X435900Y612600D03*
X435700Y625300D03*
X439100Y654500D03*
X438000Y661300D03*
X436776Y676876D03*
Y679724D03*
X434100Y673651D03*
Y676500D03*
X440300Y681176D03*
X436500Y666300D03*
X447400Y687076D03*
X444276Y696400D03*
X447400Y689924D03*
X447124Y696400D03*
X444736Y683040D03*
Y685889D03*
X440300Y684024D03*
X431824Y715500D03*
X440551Y703200D03*
X443400D03*
X440600Y706700D03*
X435700Y758600D03*
X448400Y815200D03*
X436500Y812600D03*
X448400Y845000D03*
Y874900D03*
X449100Y935000D03*
X450850Y24150D03*
X463300Y9200D03*
X455300D03*
X460400Y23500D03*
X457900Y39600D03*
X465000Y39400D03*
X462800Y36600D03*
X457500D03*
X454000Y36700D03*
X457200Y97500D03*
X468800Y109500D03*
X460300Y256100D03*
X460600Y286900D03*
X451900Y288100D03*
X467100Y293900D03*
X463300Y302900D03*
X453724Y307076D03*
X464700Y330100D03*
X453100Y332100D03*
X461300Y362600D03*
X461000Y367900D03*
Y371700D03*
X460800Y355900D03*
X469500Y658200D03*
X459000Y672400D03*
X461700Y669400D03*
X456200Y675800D03*
X466100Y664700D03*
X471300Y9200D03*
X481100Y23700D03*
X476900Y40300D03*
X482800Y40200D03*
X479000Y37400D03*
X474000D03*
X487019Y65202D03*
X483900Y131300D03*
X472400Y132800D03*
X483900Y161100D03*
X472700Y165800D03*
X483900Y191000D03*
X472700Y195600D03*
X483900Y220800D03*
X472700Y225500D03*
X483600Y254000D03*
X472700Y255400D03*
X486100Y270100D03*
X481100Y266100D03*
X486000Y281900D03*
X476200Y283600D03*
X474000Y288400D03*
X487700Y303400D03*
X479500Y306800D03*
X469700Y297700D03*
X476000Y332500D03*
X477400Y353000D03*
X486300Y346200D03*
X481900Y350700D03*
X471100Y369400D03*
X485100Y368900D03*
X479300Y365200D03*
X481500Y386500D03*
X480100Y407200D03*
Y423200D03*
Y415200D03*
Y445100D03*
Y437100D03*
X481700Y466200D03*
X480100Y453100D03*
X481700Y482200D03*
Y474200D03*
X486400Y600600D03*
Y592600D03*
Y608600D03*
X472700Y650500D03*
X487000Y657300D03*
Y673300D03*
Y665300D03*
X477300Y851700D03*
Y886200D03*
X478900Y935000D03*
X508100Y9200D03*
X500100D03*
X491800Y23400D03*
X496100Y40100D03*
X492800Y36600D03*
X497176Y58559D03*
X502833Y64215D03*
X491519Y52902D03*
X492676Y70859D03*
X498333Y76515D03*
X505900Y285600D03*
X497500Y277300D03*
X506100Y300800D03*
X496300Y327400D03*
X501400Y341200D03*
X497000Y372700D03*
Y361300D03*
X497200Y364600D03*
X491900Y386100D03*
Y378700D03*
X496900Y641700D03*
Y657700D03*
Y649700D03*
X498129Y735688D03*
X503786Y730031D03*
X506600Y724900D03*
X498372Y749645D03*
X504029Y743988D03*
X492472Y741345D03*
X501700Y757800D03*
X507800Y755000D03*
X501900Y778100D03*
X501700Y766400D03*
X490600Y766500D03*
X501800Y788400D03*
X507100Y788800D03*
X491300Y806800D03*
X507100Y851700D03*
Y886200D03*
X493900Y935000D03*
X516100Y9200D03*
X525119Y147202D03*
X522500Y278200D03*
X524300Y313900D03*
X510600Y330400D03*
X519900Y328900D03*
Y321400D03*
X524400Y341000D03*
X510600Y335900D03*
Y341600D03*
X527000Y359900D03*
X527100Y354900D03*
X521900Y398800D03*
Y395400D03*
X525900Y401100D03*
X521900Y401800D03*
X525200Y427900D03*
X527300Y429900D03*
X521900Y419600D03*
X522400Y424900D03*
X525000Y425200D03*
X515900Y680500D03*
Y672500D03*
Y664500D03*
X522800Y716000D03*
X509686Y738331D03*
X520200Y736500D03*
X518300Y731900D03*
X526200Y755500D03*
X525900Y750500D03*
X517800Y777600D03*
X521000Y760000D03*
X514700Y765300D03*
X517500Y763000D03*
X512200Y788600D03*
X517600Y788500D03*
X517800Y781700D03*
X526300Y788400D03*
X521200Y806800D03*
X522700Y827900D03*
Y872700D03*
Y902500D03*
X523700Y935000D03*
X528319Y98302D03*
X533976Y103959D03*
X539633Y109615D03*
X530776Y152859D03*
X536433Y158515D03*
X529600Y193800D03*
Y185800D03*
Y215700D03*
Y201800D03*
Y223700D03*
Y231700D03*
Y268500D03*
Y276500D03*
Y260500D03*
X528600Y287500D03*
X533700Y282300D03*
X530200Y315100D03*
X536900Y314200D03*
X529800Y304600D03*
X528800Y322500D03*
X536100Y347700D03*
X531750Y340550D03*
X527900Y367900D03*
X536300Y364900D03*
X534300Y387600D03*
X527600Y377600D03*
X527700Y373200D03*
X536200Y381600D03*
X540100Y407800D03*
X544100Y401200D03*
X534700Y419500D03*
X534840Y415740D03*
X536800Y421600D03*
X546600Y429700D03*
X530900Y430000D03*
X540000Y416000D03*
X544100Y411800D03*
X533470Y413770D03*
X533600Y411800D03*
X544200Y423100D03*
X546070Y421470D03*
X542130Y423630D03*
X542400Y693900D03*
X534800Y698500D03*
X533100Y711800D03*
X531600Y713900D03*
X542200Y701700D03*
X542800Y705600D03*
X534300D03*
X532400Y734200D03*
X528100Y732100D03*
X534300Y735600D03*
X532100Y732300D03*
X530700Y728800D03*
X537200Y721000D03*
X537400Y728200D03*
X545500Y728500D03*
X544900Y720900D03*
X541400Y725000D03*
X531470Y726970D03*
X531600Y725000D03*
X541300Y735900D03*
X543500D03*
X539400Y735800D03*
X538300Y745400D03*
X540700Y740800D03*
X542100Y745700D03*
X535500Y750700D03*
X531500Y750300D03*
X544400Y741900D03*
X531800Y755500D03*
X534000Y766400D03*
X536400Y762700D03*
X535100Y781300D03*
X534200Y788300D03*
X536900Y851700D03*
Y886200D03*
X561600Y314600D03*
X555600D03*
X561200Y318700D03*
X561000Y324500D03*
X556500Y328200D03*
X556200Y333400D03*
X560600Y336300D03*
X561600Y342400D03*
X555500Y347700D03*
X559100Y364900D03*
X554600Y367300D03*
X561200Y368800D03*
X561800Y356600D03*
X555300Y362900D03*
X561600Y373700D03*
X547500Y387400D03*
X563800Y391300D03*
X554230Y409830D03*
X554500Y396700D03*
X564200Y402200D03*
X547600Y399600D03*
X548100Y407900D03*
X548040Y401660D03*
X549600Y421900D03*
X556200Y420500D03*
X553800Y420400D03*
X554200Y411800D03*
X559300Y421300D03*
X563900Y421100D03*
X559300Y430300D03*
X548200Y416000D03*
X554460Y415740D03*
X547000Y435300D03*
X556900Y433300D03*
X558100Y436500D03*
X552200Y437100D03*
X555700Y694100D03*
Y699000D03*
X547100Y714300D03*
Y709000D03*
Y712000D03*
X551100Y713300D03*
X555700Y713200D03*
X554100Y705200D03*
X546950Y732450D03*
X551000Y725000D03*
X550100Y734400D03*
X549800Y736300D03*
X564700Y724600D03*
X551600Y732700D03*
X548800Y750000D03*
X565600Y741100D03*
X547400Y757300D03*
X561900Y757400D03*
X555800Y751700D03*
X558800Y771800D03*
X547200Y761800D03*
X561800Y764400D03*
X555600Y768000D03*
X551250Y760150D03*
X566000Y791900D03*
X551000Y806800D03*
X552500Y827900D03*
Y872700D03*
Y902500D03*
X553500Y935000D03*
X578700Y45000D03*
Y53000D03*
Y61000D03*
Y97800D03*
Y89800D03*
Y105800D03*
Y134500D03*
Y142500D03*
Y150500D03*
Y179900D03*
Y187900D03*
Y195900D03*
Y232700D03*
Y224700D03*
Y240700D03*
Y269500D03*
Y277500D03*
Y285500D03*
Y314300D03*
Y322300D03*
Y330300D03*
Y367700D03*
Y359700D03*
Y375700D03*
X571300Y402300D03*
X571500Y409400D03*
X571100Y421500D03*
X570900Y415100D03*
X566800Y718500D03*
X575000Y733600D03*
X584600Y741600D03*
X568900Y757100D03*
X575100Y752300D03*
X569200Y763000D03*
X582600Y760300D03*
X574700Y766700D03*
X582300Y827900D03*
Y872700D03*
Y902500D03*
G54D22*
G01X0Y0D02*
X590550D01*
Y984250D01*
X0D01*
Y0D01*
G54D13*
X21300Y67400D03*
Y83000D03*
Y98600D03*
Y114200D03*
G54D23*
G01X396200Y309000D02*
X397769D01*
X400600Y306169D01*
Y115931D01*
X333300Y48631D01*
Y23624D01*
X332276Y22600D01*
G01X325424Y37800D02*
X324400Y38824D01*
Y54069D01*
X395300Y124969D01*
Y299621D01*
X391621Y303300D01*
X390724D01*
X389700Y304324D01*
G01X322576Y37800D02*
X323600Y38824D01*
Y54400D01*
X394500Y125300D01*
Y299290D01*
X391290Y302500D01*
X390724D01*
X389700Y301476D01*
G01X402900Y318051D02*
X403758Y318910D01*
X406390D01*
X420300Y305000D01*
Y106300D01*
X353000Y39000D01*
Y23224D01*
X351976Y22200D01*
G01X396200Y311900D02*
Y311700D01*
X401400Y306500D01*
Y115600D01*
X334100Y48300D01*
Y23624D01*
X335124Y22600D01*
G01X345224Y36076D02*
X344200Y37100D01*
Y39269D01*
X408700Y103769D01*
Y308931D01*
X402831Y314800D01*
X387524D01*
X386500Y315824D01*
G01X342376Y36076D02*
X343400Y37100D01*
Y39600D01*
X407900Y104100D01*
Y308600D01*
X402500Y314000D01*
X387524D01*
X386500Y312976D01*
G01X402900Y320900D02*
X404090Y319710D01*
X406722D01*
X421100Y305331D01*
Y105969D01*
X353800Y38669D01*
Y23224D01*
X354824Y22200D01*
G01X364624Y34676D02*
X363600Y35700D01*
Y38869D01*
X434900Y110169D01*
Y305100D01*
X412200Y327800D01*
X385700D01*
X385500Y327600D01*
G01X361776Y34676D02*
X362800Y35700D01*
Y39200D01*
X434100Y110500D01*
Y304769D01*
X411869Y327000D01*
X387749D01*
X385500Y324751D01*
G01X434100Y673651D02*
X432917D01*
X430000Y676569D01*
Y697769D01*
X423800Y703969D01*
Y737300D01*
X423400Y737700D01*
X422551D01*
G01X434100Y676500D02*
X431200D01*
X430800Y676900D01*
Y698100D01*
X424600Y704300D01*
Y737300D01*
X425000Y737700D01*
X425400D01*
G01X436776Y676876D02*
X433300Y680351D01*
Y709369D01*
X430000Y712669D01*
Y714476D01*
X428976Y715500D01*
G01X440300Y681176D02*
X437800Y683676D01*
Y715269D01*
X428793Y724276D01*
X428600D01*
X427576Y725300D01*
G01X440300Y684024D02*
X438600Y685724D01*
Y715600D01*
X429945Y724255D01*
Y724821D01*
X430424Y725300D01*
G01X436776Y679724D02*
X435058D01*
X434100Y680683D01*
Y709700D01*
X430800Y713000D01*
Y714476D01*
X431824Y715500D01*
G01X444276Y696400D02*
Y690200D01*
X447400Y687076D01*
G01X447124Y696400D02*
X447400Y696124D01*
Y689924D01*
G01X444736Y683040D02*
X442800Y684976D01*
Y686693D01*
X441300Y688193D01*
Y702717D01*
X440900Y703117D01*
X440634D01*
X440551Y703200D01*
G01X444736Y685889D02*
X442100Y688524D01*
Y702486D01*
X442814Y703200D01*
X443400D01*
G54D14*
X14200Y299200D03*
X76900Y76100D03*
X97000Y143800D03*
X151800Y225300D03*
X185400Y458500D03*
X200800Y776200D03*
X220800Y188400D03*
X236300Y47300D03*
X237600Y144200D03*
X251700Y47700D03*
X242600Y56200D03*
X258100Y541900D03*
X275500Y45000D03*
X295200Y636900D03*
X329300Y224200D03*
X333200Y885600D03*
X344000Y93300D03*
X339200Y222400D03*
X366800Y638500D03*
X390400Y386800D03*
X385400Y606400D03*
X378700Y637400D03*
X401800Y396700D03*
X407000Y450500D03*
X401800Y611900D03*
X408100Y788100D03*
X431600Y592600D03*
X438900Y777700D03*
X471100Y153600D03*
X472000Y240500D03*
X469100Y692900D03*
X455300Y704400D03*
X490700Y357000D03*
X484800Y533000D03*
X494300Y454400D03*
X508100Y499200D03*
X526000Y707900D03*
X527500Y806000D03*
G54D24*
G01X349200Y376300D02*
X337500D01*
X332100Y370900D01*
X237900D01*
X139700Y272700D01*
Y23200D01*
G01X301821Y377500D02*
X297421Y373100D01*
X228400D01*
X129900Y274600D01*
Y23600D01*
G01X151800Y225300D02*
Y24900D01*
X150000Y23100D01*
G01X340400Y367900D02*
X242396D01*
X151800Y277304D01*
Y225300D01*
G01X340054Y364354D02*
X246250D01*
X167900Y286004D01*
Y26200D01*
X170400Y23700D01*
G01X175700Y36100D02*
Y190300D01*
X181000Y195600D01*
Y292100D01*
X203800Y314900D01*
X203804D01*
X204800Y315896D01*
Y315900D01*
X251286Y362386D01*
X348214D01*
G01X337200Y360417D02*
X255222D01*
X191400Y296596D01*
Y187900D01*
X180400Y176900D01*
Y23200D01*
G01X190350Y23250D02*
X189300Y24300D01*
Y156900D01*
X220800Y188400D01*
G01X195000Y35400D02*
X192851Y37549D01*
Y142951D01*
X245100Y195200D01*
Y244700D01*
X247100Y246700D01*
Y295700D01*
X247600Y296200D01*
Y329996D01*
X272116Y354512D01*
X351800D01*
G01X342000Y358449D02*
X262249D01*
X200000Y296200D01*
Y188200D01*
X184100Y172300D01*
Y35600D01*
X184700Y35000D01*
X185000D01*
G01X200200Y23600D02*
X201251Y24651D01*
Y130151D01*
X256800Y185700D01*
Y322343D01*
X287000Y352543D01*
X341900D01*
G01X334700Y350575D02*
X307775D01*
X269100Y311900D01*
Y155200D01*
X212500Y98600D01*
Y26700D01*
X210000Y24200D01*
G01X349200Y334827D02*
X344827D01*
X329401Y319401D01*
Y303408D01*
X286819Y260827D01*
X286776D01*
X281100Y255150D01*
Y135900D01*
X229950Y84750D01*
Y22950D01*
G01X236300Y47300D02*
X235400Y46400D01*
Y35700D01*
G01X337400Y331400D02*
X272800Y266800D01*
Y254184D01*
X272462Y253846D01*
Y252354D01*
X272800Y252016D01*
Y146600D01*
X225300Y99100D01*
Y35500D01*
G01X354300Y332858D02*
X349058D01*
X336550Y320350D01*
Y295346D01*
X289000Y247796D01*
Y125300D01*
X236300Y72600D01*
Y47300D01*
G01X220800Y188400D02*
X241800Y209400D01*
Y259000D01*
X242700Y259900D01*
Y293000D01*
X238500Y297200D01*
Y327100D01*
X267880Y356480D01*
X345200D01*
G01X236900Y291500D02*
X235800D01*
X219500Y275200D01*
Y220800D01*
X228300Y212000D01*
G01X230700Y205100D02*
X230600Y205200D01*
Y250900D01*
X227600Y253900D01*
Y269400D01*
X223700Y273300D01*
G01X232300Y211900D02*
X233149Y212749D01*
Y259447D01*
X233100Y259496D01*
Y260904D01*
X233149Y260953D01*
Y270449D01*
X236800Y274100D01*
G01X234300Y206400D02*
Y212203D01*
X234900Y212803D01*
Y257300D01*
X237300Y259700D01*
Y270200D01*
X239400Y272300D01*
Y273700D01*
G01X240750Y22450D02*
X244500Y26200D01*
Y54300D01*
X242600Y56200D01*
G01X251700Y47700D02*
Y25100D01*
X249900Y23300D01*
G01X242600Y56200D02*
Y63900D01*
X296084Y117384D01*
Y241784D01*
X342900Y288600D01*
Y322900D01*
X347250Y327250D01*
G01X349300Y322800D02*
X347100Y320600D01*
Y284900D01*
X323400Y261200D01*
Y132600D01*
X251700Y60900D01*
Y47700D01*
G01X252440Y224800D02*
Y261160D01*
X249500Y264100D01*
G01X254600Y237100D02*
Y266100D01*
G01X353800Y315100D02*
X352700Y314000D01*
Y130900D01*
X260100Y38300D01*
Y23600D01*
G01X275500Y45000D02*
X273400D01*
X265500Y37100D01*
G01X355105Y311205D02*
Y126705D01*
X275500Y47100D01*
Y45000D01*
G01X274900Y399000D02*
X265600D01*
X262600Y396000D01*
G01X305700Y626400D02*
X300400Y631700D01*
Y651693D01*
X284493Y667600D01*
X282800D01*
G01X301821Y377500D02*
Y410821D01*
X313200Y422200D01*
Y657146D01*
X310800Y659546D01*
Y755800D01*
X337800Y782800D01*
G01X331250Y231150D02*
X333500Y228900D01*
Y199300D01*
G01X319300Y379500D02*
Y398700D01*
X344500Y423900D01*
Y596300D01*
X398100Y649900D01*
Y666400D01*
X398700Y667000D01*
G01X314500Y379200D02*
Y398054D01*
X321000Y404554D01*
Y423200D01*
X335454Y437654D01*
Y600154D01*
X391000Y655700D01*
G01X385400Y606400D02*
Y458500D01*
X323643Y396743D01*
Y380157D01*
X323900Y379900D01*
G01X401800Y611900D02*
Y459400D01*
X341000Y398600D01*
X333800D01*
X331517Y396317D01*
Y381983D01*
X334000Y379500D01*
G01X393800Y637300D02*
Y635300D01*
X393900Y635200D01*
Y458300D01*
X339900Y404300D01*
X335700D01*
X327900Y396500D01*
Y381300D01*
X329900Y379300D01*
G01X327979Y667300D02*
Y644621D01*
X331100Y641500D01*
G01X324042Y656842D02*
Y647442D01*
X317400Y640800D01*
G01X393500Y337100D02*
X391850Y338750D01*
X373727D01*
X372041Y337064D01*
X340136D01*
X339000Y338200D01*
G01X368702Y380102D02*
X369900Y381300D01*
X484702D01*
X524400Y341602D01*
Y341000D01*
G01X554500Y396700D02*
X549100Y391300D01*
X359500D01*
X359000Y391800D01*
G01X390500Y402200D02*
Y413100D01*
X469600Y492200D01*
Y599200D01*
X477200Y606800D01*
Y722900D01*
X431600Y768500D01*
X412594D01*
X403597Y777497D01*
G01X404600Y714500D02*
X406400Y712700D01*
Y694800D01*
X406300Y694700D01*
Y669200D01*
X405100Y668000D01*
Y652600D01*
X385500Y633000D01*
Y612700D01*
X385400Y612600D01*
Y606400D01*
G01X446000Y23400D02*
X440300Y29100D01*
Y303700D01*
X401500Y342500D01*
X395600D01*
G01X450850Y24150D02*
Y286746D01*
X450200Y287396D01*
Y288804D01*
X450850Y289454D01*
Y303850D01*
X408400Y346300D01*
Y346638D01*
G01X398100Y378200D02*
X462300D01*
X471100Y369400D01*
G01X393600Y407800D02*
Y409300D01*
X476800Y492500D01*
Y597800D01*
X482200Y603200D01*
Y724600D01*
X425500Y781300D01*
X407800D01*
X405965Y779465D01*
G01X403700Y726000D02*
X407600Y722100D01*
Y686500D01*
X414100Y680000D01*
Y649900D01*
X401800Y637600D01*
Y611900D01*
G01X429200Y658200D02*
X469500D01*
G01X425700Y677900D02*
Y673000D01*
X428700Y670000D01*
X428947D01*
X428971Y669976D01*
X430380D01*
X430404Y670000D01*
X456600D01*
X459000Y672400D01*
G01X461700Y669400D02*
X460800Y668500D01*
X427000D01*
X424100Y671400D01*
G01X456200Y675800D02*
X452351Y671951D01*
X432149D01*
X427900Y676200D01*
Y678800D01*
X422100Y684600D01*
X419100D01*
G01X427200Y664700D02*
X435696D01*
X435796Y664600D01*
X437204D01*
X437304Y664700D01*
X466100D01*
G01X430600Y650500D02*
X472700D01*
G01X544200Y423100D02*
Y425500D01*
X542500Y427200D01*
Y680800D01*
X539700Y683600D01*
Y732600D01*
X541300Y734200D01*
Y735900D01*
G01X539400Y735800D02*
Y734146D01*
X535300Y730046D01*
Y707004D01*
X536000Y706304D01*
Y704896D01*
X535300Y704196D01*
Y700404D01*
X536500Y699204D01*
Y697796D01*
X535300Y696596D01*
Y430460D01*
X542130Y423630D01*
G01X546070Y421470D02*
X549000Y424400D01*
Y732804D01*
X545904Y735900D01*
X543500D01*
G01X558800Y771800D02*
Y726500D01*
X566800Y718500D01*
G54D15*
X61300Y19126D03*
X273700D03*
X312300D03*
X524700D03*
G54D16*
X59600Y74900D03*
X59800Y67000D03*
X61900Y89000D03*
G54D17*
X55824Y489809D03*
X60824D03*
X65824D03*
X70824D03*
X75824D03*
X80824D03*
Y554769D03*
X75824D03*
X85824Y489809D03*
X90824D03*
X95824D03*
X100824D03*
Y554769D03*
X95824D03*
X90824D03*
X85824D03*
X114900Y596658D03*
Y616342D03*
Y650658D03*
Y670342D03*
Y704658D03*
Y724342D03*
Y758658D03*
Y778342D03*
Y812658D03*
Y832342D03*
Y866658D03*
Y886342D03*
X175900Y596658D03*
Y616342D03*
Y650658D03*
Y670342D03*
Y704658D03*
Y724342D03*
Y758658D03*
Y778342D03*
Y812658D03*
Y832342D03*
Y866658D03*
Y886342D03*
X236900Y596658D03*
Y616342D03*
Y650658D03*
Y670342D03*
Y704658D03*
Y724342D03*
Y758658D03*
Y778342D03*
Y813658D03*
Y833342D03*
Y866658D03*
Y886342D03*
X297900Y596658D03*
Y616342D03*
Y650658D03*
Y670342D03*
Y704658D03*
Y724342D03*
Y758658D03*
Y778342D03*
Y813658D03*
Y833342D03*
Y866658D03*
Y886342D03*
X358900Y596658D03*
Y616342D03*
Y650658D03*
Y670342D03*
Y704658D03*
Y724342D03*
Y758658D03*
Y778342D03*
Y813658D03*
Y833342D03*
Y866658D03*
Y886342D03*
X419900Y596658D03*
Y616342D03*
Y650658D03*
Y670342D03*
Y704658D03*
Y724342D03*
Y758658D03*
Y778342D03*
Y812658D03*
Y832342D03*
Y866658D03*
Y886342D03*
G54D18*
X113600Y737300D03*
Y744800D03*
X128500Y737300D03*
Y744800D03*
Y767200D03*
Y782100D03*
Y797000D03*
Y819400D03*
Y834400D03*
Y849300D03*
X156400Y595600D03*
X155800Y615900D03*
X150800Y687200D03*
X160200Y701700D03*
X143400Y737300D03*
X158300D03*
Y744800D03*
X143400D03*
Y767200D03*
X158300Y782100D03*
X143400D03*
Y804500D03*
X158300D03*
X143400Y834400D03*
Y819400D03*
Y849300D03*
X165800Y687200D03*
Y767200D03*
X173300Y782100D03*
Y804500D03*
X196100Y594700D03*
X195900Y619700D03*
X188200Y728800D03*
Y722400D03*
X195600Y767200D03*
X188200Y782100D03*
Y804500D03*
X190500Y826700D03*
X188800Y883700D03*
X218000Y676200D03*
X211300Y680900D03*
X204600Y694400D03*
X211000Y701300D03*
X203100Y728800D03*
Y722400D03*
X210600Y767200D03*
Y782100D03*
X218000Y804500D03*
X202700D03*
X202300Y816100D03*
X218300Y816400D03*
X218400Y826700D03*
X201700D03*
X211200Y859000D03*
X231349Y263200D03*
X223800Y323016D03*
X225500Y327000D03*
X237400Y380102D03*
X224400Y380000D03*
X220000Y593600D03*
X220800Y622400D03*
X233000Y676200D03*
X226300Y680900D03*
X227300Y717100D03*
X225500Y767200D03*
Y782100D03*
X250640Y253149D03*
X239000Y367800D03*
X250509Y394848D03*
X255300Y833400D03*
X247800Y840900D03*
X255300D03*
X251400Y845600D03*
X244000D03*
X248500Y883700D03*
X262451Y252900D03*
X274262Y253100D03*
X260483Y394851D03*
X272294D03*
X266400Y395600D03*
X271902Y671198D03*
X276100Y671900D03*
X262666Y673166D03*
X262929Y669229D03*
X276100Y686800D03*
X271716Y726316D03*
X262584Y728284D03*
X260700Y783600D03*
X262429Y785371D03*
X262534Y781434D03*
X270200Y833400D03*
X262700D03*
Y840900D03*
X270200D03*
X273800Y845600D03*
X266300D03*
X258800D03*
X270900Y859000D03*
X284105Y394851D03*
X291979D03*
X286640Y657160D03*
X288609Y666291D03*
X294514Y665814D03*
X291300Y671900D03*
X292000Y686700D03*
X286000Y717800D03*
X295500Y748900D03*
X280500Y763900D03*
X295500D03*
X292546Y788346D03*
X288609Y788609D03*
X286640Y798100D03*
X277700Y833400D03*
Y840900D03*
X285100D03*
X288700Y845600D03*
X281200D03*
X297884Y252700D03*
X308700Y379800D03*
X314100Y400200D03*
X303790Y394851D03*
X307727Y395273D03*
X310262Y657538D03*
X298451Y657549D03*
X302388Y667049D03*
X306300Y671900D03*
X304900Y686900D03*
X303900Y702800D03*
X298100Y733900D03*
X310400Y763900D03*
X312231Y797169D03*
X304357Y788757D03*
X309500Y778900D03*
X296300Y798151D03*
X301896D03*
X308294D03*
X308600Y832800D03*
X309000Y842900D03*
X299600Y843000D03*
X308200Y883700D03*
X321506Y253149D03*
X325443D03*
X333317D03*
X317000Y380000D03*
X329700Y394851D03*
X333317D03*
X317300Y395600D03*
X325443Y395300D03*
X329700Y587600D03*
X319500Y608800D03*
X326300Y609600D03*
X333400Y620100D03*
X319300Y620400D03*
X333884Y657184D03*
X322073Y665527D03*
X329947Y665747D03*
X321200Y671900D03*
X319800Y686900D03*
X318600Y702400D03*
X328300Y703300D03*
X323700Y721600D03*
X317900Y734000D03*
X332800D03*
X317900Y748900D03*
X325300Y763900D03*
X315962Y787375D03*
X331916Y797284D03*
X324042Y797058D03*
X316168Y797132D03*
X324400Y778900D03*
X320105Y797007D03*
X327979Y788321D03*
X329700Y823100D03*
X319700Y842800D03*
X330600Y859000D03*
X345128Y253149D03*
X336700Y342900D03*
X352600Y343000D03*
X346100D03*
X337900Y381900D03*
X343800Y379400D03*
X353002Y394851D03*
X337254D03*
X349065D03*
X339500Y636900D03*
Y629500D03*
X349632Y666632D03*
X351601Y666899D03*
X353569Y665669D03*
X336100Y671900D03*
X346500Y704200D03*
X337200Y714300D03*
X347700Y734000D03*
X340200Y748900D03*
Y763900D03*
X351601Y797199D03*
X341758Y796642D03*
X349632Y787000D03*
X353569Y787100D03*
X335853Y796953D03*
X346800Y778900D03*
X339300D03*
X339790Y797990D03*
X334800Y805700D03*
X345900Y798400D03*
X343727Y798827D03*
X345000Y832400D03*
X369898Y267898D03*
X369600Y271100D03*
X368450Y273850D03*
X367751Y313149D03*
X356400Y313300D03*
X368000Y315383D03*
X356300Y327100D03*
X370620Y328921D03*
X369395Y370273D03*
X370091Y368291D03*
X368000Y366323D03*
X354000Y380200D03*
X356900Y379400D03*
X357506Y657306D03*
X361443Y657557D03*
X369317Y657517D03*
X365380Y666200D03*
X373254Y665654D03*
X357100Y686900D03*
X359000Y714100D03*
X362600Y734000D03*
Y748900D03*
X355200Y763900D03*
X369317Y788517D03*
X365380Y788720D03*
X373254Y796946D03*
X361443Y796900D03*
X367900Y883700D03*
X390200Y273200D03*
X388700Y267100D03*
X390700Y286900D03*
X390400Y282800D03*
X389700Y293000D03*
X390100Y277400D03*
X374650Y326950D03*
X374450Y322850D03*
X379000Y584900D03*
Y616500D03*
X381200Y656449D03*
X392300Y674500D03*
X377191Y665691D03*
X385065Y665565D03*
X373400Y671900D03*
X373900Y684200D03*
Y699200D03*
Y714100D03*
X377600Y734000D03*
Y748900D03*
Y763900D03*
X389002Y788302D03*
X376600Y778900D03*
X385065Y797365D03*
X381100Y850600D03*
X408800Y585900D03*
X397800Y586400D03*
X397300Y619500D03*
X411400Y631400D03*
X394040Y681040D03*
X393200Y672321D03*
X403751Y671198D03*
X404500Y679072D03*
X392800Y677700D03*
X393825Y700725D03*
X393151Y686946D03*
X393300Y688914D03*
X393100Y683009D03*
X393151Y773560D03*
X403691Y771591D03*
X393151Y769623D03*
Y781434D03*
X407500Y797600D03*
X401300Y803900D03*
X408700Y850600D03*
X393900D03*
X405200Y859000D03*
X422300Y584300D03*
X427200Y624500D03*
X426200Y797700D03*
X417700Y797600D03*
X429700Y805700D03*
X413300Y825000D03*
X412700Y840300D03*
X412800Y883700D03*
X436600Y583700D03*
X438400Y589200D03*
X447600Y734800D03*
X432800Y788700D03*
X433600Y797700D03*
X431900Y818900D03*
X431500Y840500D03*
X461600Y676800D03*
Y683800D03*
X461200Y697200D03*
X465600Y717000D03*
X455800Y726800D03*
X467400Y778100D03*
X451900Y777900D03*
X451500Y788800D03*
X466900D03*
X465800Y803800D03*
X452000Y803700D03*
X467100Y830600D03*
X451800Y828500D03*
X468300Y865500D03*
X450700Y865200D03*
X457600Y883700D03*
X470500Y620100D03*
Y642500D03*
Y627600D03*
X470700Y670200D03*
X470300Y682600D03*
G54D19*
X139700Y494300D03*
X139800Y513000D03*
X164500Y494300D03*
X164600Y513000D03*
M02*
