G04 ================== begin FILE IDENTIFICATION RECORD ==================*
G04 Layout Name:  E:/Work_File/CEPC/Schematic-amd-PCB-of-DET_V1/FEB_DET_1V0.brd*
G04 Film Name:    art06*
G04 File Format:  Gerber RS274X*
G04 File Origin:  Cadence Allegro 16.6-2015-S066*
G04 Origin Date:  Thu Aug 24 20:47:34 2017*
G04 *
G04 Layer:  VIA CLASS/SIG6*
G04 Layer:  PIN/SIG6*
G04 Layer:  ETCH/SIG6*
G04 Layer:  BOARD GEOMETRY/OUTLINE*
G04 *
G04 Offset:    (0.000 0.000)*
G04 Mirror:    No*
G04 Mode:      Positive*
G04 Rotation:  0*
G04 FullContactRelief:  No*
G04 UndefLineWidth:     5.000*
G04 ================== end FILE IDENTIFICATION RECORD ====================*
%FSLAX25Y25*MOIN*%
%IR0*IPPOS*OFA0.00000B0.00000*MIA0B0*SFA1.00000B1.00000*%
%ADD13C,.11*%
%ADD10C,.32*%
%ADD20C,.15*%
%ADD17C,.03*%
%ADD12C,.012*%
%ADD18C,.014*%
%ADD21C,.024*%
%ADD14C,.06*%
%ADD16C,.025*%
%ADD11C,.018*%
%ADD15C,.070902*%
%ADD19C,.05906*%
%ADD22C,.003*%
%ADD23C,.006*%
%ADD26C,.100004*%
%ADD31C,.120004*%
%ADD30C,.150004*%
%ADD24C,.032004*%
%ADD34C,.070004*%
%ADD28C,.034004*%
%ADD32C,.080004*%
%ADD27C,.044004*%
%ADD29C,.038004*%
%ADD25C,.080906*%
%ADD33C,.099064*%
G75*
%LPD*%
G75*
G36*
G01X70500Y82021D02*
G02X69996Y81635I-400J0D01*
G03Y77966I-496J-1835D01*
G02X70500Y77579I104J-386D01*
G01Y41900D01*
X225200D01*
Y62900D01*
X108800D01*
Y233121D01*
X108945Y233163D01*
G03Y236237I-445J1537D01*
G01X108800Y236279D01*
Y240521D01*
X108945Y240563D01*
G03Y243637I-445J1537D01*
G01X108800Y243679D01*
Y248021D01*
X108945Y248063D01*
G03Y251137I-445J1537D01*
G01X108800Y251179D01*
Y255521D01*
X108945Y255563D01*
G03Y258637I-445J1537D01*
G01X108800Y258679D01*
Y474500D01*
X518700D01*
Y400000D01*
X541000D01*
Y421768D01*
G02X541546Y422140I400J0D01*
G03X542869Y422211I584J1490D01*
G03X544269Y421501I1330J889D01*
G02X544477Y421320I9J-200D01*
G03X547571Y420914I1593J150D01*
G02X548277Y421000I375J-139D01*
G03X548099Y422456I1323J900D01*
G02X547393Y422370I-375J139D01*
G03X546001Y423069I-1323J-900D01*
G02X545793Y423250I-9J200D01*
G03X543460Y424519I-1593J-150D01*
G03X541546Y425120I-1330J-889D01*
G02X541000Y425492I-146J372D01*
G01Y474500D01*
X587100D01*
Y25355D01*
G02X586328Y25207I-400J0D01*
G03X563787Y4260I-15328J-6107D01*
G02X563612Y3500I-175J-360D01*
G01X30100D01*
X28783Y4817D01*
G02X28842Y5431I283J283D01*
G03X5931Y28342I-9242J13669D01*
G02X5317Y28283I-331J224D01*
G01X3700Y29900D01*
Y111300D01*
X16047D01*
G03X26553I5253J2900D01*
G01X70500D01*
Y87600D01*
G02X70100Y87200I-400J0D01*
G03Y83400I0J-1900D01*
G02X70500Y83000I0J-400D01*
G01Y82021D01*
G37*
G36*
G01X521700Y422923D02*
G02X522160Y423318I400J0D01*
G03X523579Y423818I240J1582D01*
G02X524099Y423878I295J-271D01*
G03X526255Y426193I901J1322D01*
G02X526295Y426733I314J248D01*
G03X526800Y427902I-1095J1167D01*
G02X527220Y428302I400J1D01*
G03X525700Y429898I80J1598D01*
G02X525280Y429498I-400J-1D01*
G03X523945Y426907I-80J-1598D01*
G02X523905Y426367I-314J-248D01*
G03X523821Y426282I1095J-1166D01*
G02X523301Y426222I-295J271D01*
G03X522160Y426482I-901J-1322D01*
G02X521700Y426878I-60J395D01*
G01Y477500D01*
X427770D01*
G02X427436Y478120I0J400D01*
G03X424764I-1336J880D01*
G02X424430Y477500I-334J-220D01*
G01X105800D01*
Y417179D01*
X105656Y417137D01*
G03Y414063I444J-1537D01*
G01X105800Y414021D01*
Y409679D01*
X105656Y409637D01*
G03Y406563I444J-1537D01*
G01X105800Y406521D01*
Y402279D01*
X105656Y402237D01*
G03Y399163I444J-1537D01*
G01X105800Y399121D01*
Y394779D01*
X105656Y394737D01*
G03Y391663I444J-1537D01*
G01X105800Y391621D01*
Y377098D01*
G02X105380Y376698I-400J0D01*
G03Y373502I-80J-1598D01*
G02X105800Y373102I20J-399D01*
G01Y372598D01*
G02X105380Y372198I-400J0D01*
G03Y369002I-80J-1598D01*
G02X105800Y368602I20J-399D01*
G01Y368098D01*
G02X105380Y367698I-400J0D01*
G03Y364502I-80J-1598D01*
G02X105800Y364102I20J-399D01*
G01Y309892D01*
X105789Y309828D01*
X105779Y309797D01*
G03X105785Y308786I1521J-497D01*
G01X105800Y308742D01*
Y304986D01*
G03Y302214I800J-1386D01*
G01Y204337D01*
G02X105300Y203949I-400J0D01*
G03Y200851I-400J-1549D01*
G02X105800Y200463I100J-387D01*
G01Y59900D01*
X222200D01*
Y44900D01*
X73500D01*
Y61992D01*
G02X74020Y62374I400J0D01*
G03Y65426I480J1526D01*
G02X73500Y65808I-120J382D01*
G01Y71610D01*
G02X74122Y71942I400J0D01*
G03Y80258I2778J4158D01*
G02X73500Y80590I-222J333D01*
G01Y82438D01*
G02X74109Y82779I400J0D01*
G03Y86021I991J1621D01*
G02X73500Y86362I-209J341D01*
G01Y114400D01*
X35923D01*
G02X35659Y115100I0J400D01*
G03X33541I-1059J1200D01*
G02X33277Y114400I-265J-300D01*
G01X28798D01*
G03X13802I-7498J-200D01*
G01X3700D01*
Y495584D01*
G02X4437Y495800I400J0D01*
G03Y515200I15163J9700D01*
G02X3700Y515416I-337J216D01*
G01Y611800D01*
X60829D01*
G02X61164Y611180I0J-400D01*
G03X63837I1336J-880D01*
G02X64171Y611800I334J220D01*
G01X73600D01*
Y557472D01*
G03Y552066I2224J-2703D01*
G01Y527200D01*
X513100D01*
Y732300D01*
X516300D01*
G02X516700Y731900I0J-400D01*
G03X519900I1600J0D01*
G02X520300Y732300I400J0D01*
G01X526300D01*
G02X526500Y732100I0J-200D01*
G03X529700I1600J0D01*
G02X529900Y732300I200J0D01*
G01X530490D01*
X530510Y732122D01*
G03X532180Y730702I1590J178D01*
G02X532600Y730302I20J-399D01*
G01Y730123D01*
G02X531900Y729859I-400J0D01*
G03X529928Y727398I-1200J-1059D01*
G03X530278Y725902I1542J-428D01*
G03X532080Y723474I1322J-902D01*
G02X532600Y723092I120J-382D01*
G01Y715808D01*
G02X532080Y715426I-400J0D01*
G03X531205Y712349I-480J-1526D01*
G02X531505Y711929I-99J-388D01*
G03X532478Y710326I1595J-129D01*
G01X532600Y710274D01*
Y527200D01*
X587100D01*
Y515096D01*
G02X586359Y514887I-400J0D01*
G03Y496113I-15359J-9387D01*
G02X587100Y495904I341J-209D01*
G01Y477500D01*
X538000D01*
Y423433D01*
G02X537440Y423067I-400J0D01*
G03X535202Y421518I-640J-1467D01*
G02X534782Y421098I-399J-21D01*
G03X536298Y419582I-82J-1598D01*
G02X536718Y420002I399J21D01*
G03X537440Y420133I82J1598D01*
G02X538000Y419767I160J-367D01*
G01Y403000D01*
X522959D01*
G03X521900Y403400I-1059J-1200D01*
G02X521700Y403600I0J200D01*
G01Y417800D01*
G02X521900Y418000I200J0D01*
G03Y421200I0J1600D01*
G02X521700Y421400I0J200D01*
G01Y422923D01*
G37*
G36*
G01X585235Y954856D02*
G02X585863Y954937I345J-202D01*
G01X586000Y954800D01*
Y530200D01*
X535600D01*
Y734667D01*
G03X532754Y736013I-1300J933D01*
G01X532737Y735950D01*
X532545Y735795D01*
X532470Y735799D01*
G03X531238Y735300I-70J-1599D01*
G01X510100D01*
Y530700D01*
X489855D01*
G02X489481Y531241I0J400D01*
G03X480120I-4681J1759D01*
G02X479745Y530700I-374J-141D01*
G01X219875D01*
G03X218325I-775J-1400D01*
G01X212475D01*
G03X210925I-775J-1400D01*
G01X201275D01*
G03X199725I-775J-1400D01*
G01X190075D01*
G03X188525I-775J-1400D01*
G01X178875D01*
G03X177325I-775J-1400D01*
G01X167675D01*
G03X166125I-775J-1400D01*
G01X119262D01*
G03X116938I-1162J-1100D01*
G01X111862D01*
G03X109538I-1162J-1100D01*
G01X104362D01*
G03X102038I-1162J-1100D01*
G01X96862D01*
G03X94538I-1162J-1100D01*
G01X76600D01*
Y551352D01*
X76747Y551393D01*
G03X78916Y553128I-923J3376D01*
G02X79528Y553245I353J-188D01*
G03X82120I1296J1524D01*
G02X82732Y553128I259J-305D01*
G03X88163Y552165I3092J1641D01*
G01X88190Y552189D01*
X88324Y552241D01*
X88458Y552189D01*
X88485Y552165D01*
G03X93163I2339J2604D01*
G01X93190Y552189D01*
X93324Y552241D01*
X93458Y552189D01*
X93485Y552165D01*
G03X98163I2339J2604D01*
G01X98190Y552189D01*
X98324Y552241D01*
X98458Y552189D01*
X98485Y552165D01*
G03Y557373I2339J2604D01*
G01X98458Y557349D01*
X98324Y557297D01*
X98190Y557349D01*
X98163Y557373D01*
G03X93485I-2339J-2604D01*
G01X93458Y557349D01*
X93324Y557297D01*
X93190Y557349D01*
X93163Y557373D01*
G03X88485I-2339J-2604D01*
G01X88458Y557349D01*
X88324Y557297D01*
X88190Y557349D01*
X88163Y557373D01*
G03X82732Y556410I-2339J-2604D01*
G02X82120Y556293I-353J188D01*
G03X79528I-1296J-1524D01*
G02X78916Y556410I-259J305D01*
G03X76747Y558145I-3092J-1641D01*
G01X76600Y558186D01*
Y614800D01*
X3600D01*
Y955300D01*
X4209Y955909D01*
G02X4850Y955806I283J-283D01*
G03X26100Y978366I14751J7395D01*
G01Y979200D01*
X564600D01*
Y978409D01*
X564479Y978357D01*
G03X585235Y954856I6521J-15157D01*
G37*
%LPC*%
G75*
G36*
G01X277426Y184180D02*
G02X274374I-1526J-480D01*
G03X273992Y184700I-382J120D01*
G01X273700D01*
X253554Y204846D01*
G03X252877Y204630I-283J-283D01*
G02X251030Y206477I-1577J270D01*
G03X251246Y207154I-67J394D01*
G01X218900Y239500D01*
Y289444D01*
X218767Y289491D01*
G02Y292509I533J1509D01*
G01X218900Y292556D01*
Y295700D01*
X221100Y297900D01*
Y299153D01*
X222874Y300926D01*
G02X224692Y301592I1626J-1626D01*
G01X224784Y301584D01*
X225800Y302600D01*
X234500D01*
X246800Y314900D01*
Y332300D01*
X245800D01*
X241800Y336300D01*
X239300D01*
G02X237032Y338981I0J2300D01*
G02X236167Y341761I1268J1919D01*
G01X236216Y341884D01*
X235543Y342557D01*
G02X234557Y343543I1057J2043D01*
G01X232500Y345600D01*
X234200Y347300D01*
Y356300D01*
X223600D01*
X219700Y360200D01*
Y366292D01*
G03X219180Y366674I-400J0D01*
G02X220249Y368602I-480J1527D01*
G03X220919Y368419I387J100D01*
G01X221500Y369000D01*
X228300D01*
X238028Y378728D01*
X238016Y378825D01*
G02X240300Y381400I2284J275D01*
G01X240700D01*
X240900Y381600D01*
Y395242D01*
X240889Y395274D01*
G02Y396326I1511J526D01*
G01X240900Y396358D01*
Y398200D01*
X270100Y427400D01*
Y430914D01*
G03X269520Y431271I-400J0D01*
G02Y434129I-720J1429D01*
G03X270100Y434486I180J357D01*
G01Y440500D01*
X315400D01*
Y448100D01*
G02X320000I2300J0D01*
G01Y440500D01*
X327892D01*
X328525Y441134D01*
G03X328294Y441813I-283J283D01*
G02X329939Y444100I206J1587D01*
G03X330536Y443952I360J175D01*
G02X334200Y442100I1364J-1852D01*
G01Y440500D01*
X375300D01*
X382000Y433800D01*
Y413700D01*
X365083Y396783D01*
G03X365366Y396100I283J-283D01*
G01X366700D01*
G02Y391500I0J-2300D01*
G01X364353D01*
X363000Y390147D01*
Y390143D01*
X355400Y382543D01*
Y380066D01*
G03X356083Y379783I400J0D01*
G01X356200Y379900D01*
X367102D01*
Y380100D01*
G02X370303I1600J2D01*
G01Y379900D01*
X479600D01*
X487700Y371800D01*
Y366900D01*
X487000Y366200D01*
X477600D01*
X470700Y373100D01*
X440066D01*
G03X439783Y372417I0J-400D01*
G01X447300Y364900D01*
X461300D01*
G02X462596Y364500I0J-2300D01*
G01X468700D01*
X477971Y355229D01*
X478022Y355215D01*
G02X479615Y353622I-622J-2215D01*
G01X479629Y353571D01*
X479800Y353400D01*
Y351600D01*
X479225D01*
G02X477400Y350700I-1825J1400D01*
G01X452853D01*
X440353Y338200D01*
X436000D01*
X435400Y337600D01*
Y332900D01*
X499600D01*
Y323700D01*
X498800Y322900D01*
X438000D01*
X437400Y322300D01*
Y315300D01*
X436000Y313900D01*
X406100D01*
X398583Y306383D01*
G03X398866Y305700I283J-283D01*
G01X451978D01*
G03X452327Y306295I0J400D01*
G02X455121I1397J781D01*
G03X455470Y305700I349J-195D01*
G01X464800D01*
X468424Y302076D01*
X468577D01*
X471327Y299326D01*
G02X471743Y298757I-1627J-1626D01*
G01X474500Y296000D01*
Y291153D01*
X475627Y290026D01*
G02X472373Y286774I-1627J-1627D01*
G01X471047Y288100D01*
X453510D01*
X453490Y287922D01*
G02X450310I-1590J178D01*
G01X450290Y288100D01*
X433500D01*
X429300Y283900D01*
Y281900D01*
X434900Y276300D01*
X491900D01*
X495900Y280300D01*
X501600D01*
X503900Y278000D01*
X493300Y267400D01*
X496200Y264500D01*
X503600D01*
X506959Y267859D01*
G02X507300Y267717I141J-141D01*
G01Y267219D01*
G03X507983Y266936I400J0D01*
G01X520874Y279826D01*
G02X524126Y276574I1627J-1626D01*
G01X507300Y259747D01*
Y257300D01*
X504400Y254400D01*
X389600D01*
X380583Y263417D01*
G03X379900Y263128I-283J-283D01*
G02X378328Y264700I-1600J-27D01*
G03X378617Y265383I7J400D01*
G01X371700Y272300D01*
X369150D01*
X369112Y272284D01*
G02X367788I-663J1566D01*
G01X367750Y272300D01*
X320944D01*
G02X317256I-1844J1200D01*
G01X272900D01*
Y254967D01*
G03X273483Y254611I400J0D01*
G02X275483Y251917I779J-1511D01*
G01X289117Y238283D01*
G03X289800Y238566I283J283D01*
G01Y248047D01*
X286374Y251474D01*
G02X289626Y254726I1626J1626D01*
G01X289669Y254684D01*
G03X290248Y254697I283J283D01*
G02X293576Y254776I1702J-1547D01*
G01X295539Y252814D01*
G03X296215Y253021I283J283D01*
G02X298206Y251030I1670J-321D01*
G03X297998Y250355I76J-393D01*
G01X300600Y247753D01*
Y238300D01*
G02X296000I-2300J0D01*
G01Y245847D01*
X295083Y246764D01*
G03X294400Y246481I-283J-283D01*
G01Y237800D01*
G02X292678Y235574I-2300J0D01*
G03X292496Y234904I101J-387D01*
G01X293800Y233600D01*
X310000D01*
X317000Y226600D01*
X324913D01*
G02X333687I4387J-2400D01*
G01X336487D01*
G02X341913I2713J-4200D01*
G01X374900D01*
X377100Y224400D01*
Y220349D01*
G02Y217250I-1700J-1549D01*
G01Y215500D01*
X376600Y215000D01*
X374853D01*
X336800Y215000D01*
X336500Y214700D01*
Y207900D01*
X327500Y198900D01*
X326300Y200100D01*
X303500D01*
Y196700D01*
X291500Y184700D01*
X277808D01*
G03X277426Y184180I0J-400D01*
G37*
G36*
G01X281504Y264641D02*
G02X280609Y263373I696J-1441D01*
G03X279994Y263752I-398J43D01*
G02X280941Y265093I-1194J1848D01*
G03X281504Y264641I389J-92D01*
G37*
G36*
G01X353685Y21076D02*
G03X353115I-285J-281D01*
G02Y23324I-1139J1124D01*
G03X353685I285J281D01*
G02Y21076I1139J-1124D01*
G37*
G36*
G01X333985Y21476D02*
G03X333415I-285J-281D01*
G02Y23724I-1139J1124D01*
G03X333985I285J281D01*
G02Y21476I1140J-1124D01*
G37*
G36*
G01X363485Y33552D02*
G03X362915I-285J-281D01*
G02Y35799I-1139J1124D01*
G03X363485I285J281D01*
G02Y33552I1140J-1123D01*
G37*
G36*
G01X344085Y34952D02*
G03X343515I-285J-281D01*
G02Y37199I-1139J1123D01*
G03X344085I285J281D01*
G02Y34952I1140J-1124D01*
G37*
G36*
G01X324285Y36676D02*
G03X323715I-285J-281D01*
G02Y38924I-1139J1123D01*
G03X324285I285J281D01*
G02Y36676I1140J-1123D01*
G37*
G36*
G01X203153Y347300D02*
X201927Y346074D01*
G02X198674Y349326I-1627J1626D01*
G01X201247Y351900D01*
X206947D01*
X209947Y354900D01*
X215794D01*
X215822Y355067D01*
G02X218396Y353548I1578J-267D01*
G02X216300Y350300I-2096J-947D01*
G01X211853D01*
X208853Y347300D01*
X203153D01*
G37*
G36*
G01X226089Y380196D02*
G02X224625Y378315I111J-1596D01*
G02X226089Y380196I-225J1685D01*
G37*
G36*
G01X552954Y410796D02*
G02X555476Y410834I1246J1004D01*
G02X552954Y410796I-1246J-1004D01*
G37*
G36*
G01X239337Y411522D02*
G03X238740Y411383I-241J-320D01*
G02X238449Y413807I-1963J994D01*
G03X239062Y413814I304J260D01*
G02X239337Y411522I1238J-1014D01*
G37*
G36*
G01X555183Y419265D02*
G03X554916Y419254I-127J-154D01*
G02X554817Y421635I-1116J1147D01*
G03X555084Y421647I127J154D01*
G02X555183Y419265I1116J-1147D01*
G37*
G36*
G01X62300Y441041D02*
G03X61700I-300J-265D01*
G02Y443159I-1200J1059D01*
G03X62300I300J265D01*
G02X64700I1200J-1059D01*
G03X65300I300J265D01*
G02Y441041I1200J-1059D01*
G03X64700I-300J-265D01*
G02X62300I-1200J1059D01*
G37*
G36*
G01X44359Y438600D02*
G03Y438000I265J-300D01*
G02X42241I-1059J-1200D01*
G03Y438600I-265J300D01*
G02Y441000I1059J1200D01*
G03Y441600I-265J300D01*
G02X44359I1059J1200D01*
G03Y441000I265J-300D01*
G02Y438600I-1059J-1200D01*
G37*
G36*
G01X69100Y434141D02*
G03X68500I-300J-265D01*
G02Y436259I-1200J1059D01*
G03X69100I300J265D01*
G02X71500I1200J-1059D01*
G03X72100I300J265D01*
G02Y434141I1200J-1059D01*
G03X71500I-300J-265D01*
G02X69100I-1200J1059D01*
G37*
G36*
G01X49000Y432441D02*
G03X48400I-300J-265D01*
G02Y434559I-1200J1059D01*
G03X49000I300J265D01*
G02X51400I1200J-1059D01*
G03X52000I300J265D01*
G02Y432441I1200J-1059D01*
G03X51400I-300J-265D01*
G02X49000I-1200J1059D01*
G37*
G36*
G01X59159Y435100D02*
G03Y434500I265J-300D01*
G02X57041I-1059J-1200D01*
G03Y435100I-265J300D01*
G02Y437500I1059J1200D01*
G03Y438100I-265J300D01*
G02X59159I1059J1200D01*
G03Y437500I265J-300D01*
G02Y435100I-1059J-1200D01*
G37*
G36*
G01X74759Y425100D02*
G03Y424500I265J-300D01*
G02X72641I-1059J-1200D01*
G03Y425100I-265J300D01*
G02Y427500I1059J1200D01*
G03Y428100I-265J300D01*
G02X74759I1059J1200D01*
G03Y427500I265J-300D01*
G02Y425100I-1059J-1200D01*
G37*
G36*
G01X72900Y418241D02*
G03X72300I-300J-265D01*
G02Y420359I-1200J1059D01*
G03X72900I300J265D01*
G02X75300I1200J-1059D01*
G03X75900I300J265D01*
G02Y418241I1200J-1059D01*
G03X75300I-300J-265D01*
G02X72900I-1200J1059D01*
G37*
G36*
G01X79200Y412941D02*
G03X78600I-300J-265D01*
G02Y415059I-1200J1059D01*
G03X79200I300J265D01*
G02X81600I1200J-1059D01*
G03X82200I300J265D01*
G02Y412941I1200J-1059D01*
G03X81600I-300J-265D01*
G02X79200I-1200J1059D01*
G37*
G36*
G01X535058Y413964D02*
G02X534792Y412868I-1588J-194D01*
G02X532278Y412702I-1192J-1068D01*
G02X533100Y415327I1192J1068D01*
G03X533252Y415546I-46J195D01*
G02X535210Y414183I1588J194D01*
G03X535058Y413964I46J-195D01*
G37*
G36*
G01X81640Y321398D02*
G03X81060I-290J-275D01*
G02Y323602I-1160J1102D01*
G03X81640I290J275D01*
G02Y321398I1160J-1102D01*
G37*
G36*
G01X76968Y324146D02*
G03X76828Y323526I167J-363D01*
G02X74932Y323954I-1228J-1026D01*
G03X75072Y324574I-167J363D01*
G02X74838Y326252I1228J1026D01*
G02X74461Y326588I862J1348D01*
G03X74161Y326599I-155J-127D01*
G02X73970Y326427I-1161J1102D01*
G02X71002Y325680I-1370J-827D01*
G03X70602Y326100I-399J20D01*
G02X71667Y328893I-2J1600D01*
G03X71933I133J149D01*
G02X74124Y328839I1067J-1193D01*
G03X74664Y328819I281J285D01*
G02X77162Y326948I1036J-1219D01*
G02X76968Y324146I-862J-1348D01*
G37*
G36*
G01X66908Y276442D02*
G03X66528Y276801I-398J-40D01*
G02X68192Y278558I72J1599D01*
G03X68572Y278199I398J40D01*
G02X66908Y276442I-72J-1599D01*
G37*
G36*
G01X73800Y274602D02*
G03X73420Y275002I-400J0D01*
G02X75100Y276598I80J1598D01*
G03X75480Y276198I400J0D01*
G02X73800Y274602I-80J-1598D01*
G37*
G36*
G01X84325Y275029D02*
G03X84225Y274429I206J-343D01*
G02X82175Y274771I-1225J-1029D01*
G03X82275Y275371I-206J343D01*
G02X84325Y275029I1225J1029D01*
G37*
G36*
G01X69172Y209202D02*
G02X66828Y208098I-772J-1402D01*
G02X69172Y209202I772J1402D01*
G37*
G36*
G01X100535Y200931D02*
G03X100355Y200351I159J-367D01*
G02X98365Y200969I-1355J-851D01*
G03X98545Y201549I-159J367D01*
G02X100535Y200931I1355J851D01*
G37*
G36*
G01X63189Y487228D02*
G02X57732Y488168I-2365J2580D01*
G03X57120Y488285I-353J-188D01*
G02Y491333I-1296J1524D01*
G03X57732Y491450I259J305D01*
G02X63189Y492390I3092J-1641D01*
G03X63459I135J147D01*
G02X64996Y493210I2365J-2581D01*
G03X65141Y493919I-95J389D01*
G02X66923Y493828I959J1281D01*
G03X66995Y493108I206J-343D01*
G02X68189Y492390I-1171J-3299D01*
G03X68459I135J147D01*
G02X73189I2365J-2581D01*
G03X73459I135J147D01*
G02X78189I2365J-2581D01*
G03X78459I135J147D01*
G02X79930Y493193I2365J-2581D01*
G03X80062Y493904I-102J387D01*
G02X81852Y493845I938J1296D01*
G03X81937Y493127I213J-339D01*
G02X83189Y492390I-1113J-3318D01*
G03X83459I135J147D01*
G02X88189I2365J-2581D01*
G03X88459I135J147D01*
G02X93189I2365J-2581D01*
G03X93459I135J147D01*
G02X98189I2365J-2581D01*
G03X98459I135J147D01*
G02Y487228I2365J-2581D01*
G03X98189I-135J-147D01*
G02X93459I-2365J2581D01*
G03X93189I-135J-147D01*
G02X88459I-2365J2581D01*
G03X88189I-135J-147D01*
G02X83459I-2365J2581D01*
G03X83189I-135J-147D01*
G02X78459I-2365J2581D01*
G03X78189I-135J-147D01*
G02X73459I-2365J2581D01*
G03X73189I-135J-147D01*
G02X68459I-2365J2581D01*
G03X68189I-135J-147D01*
G02X63459I-2365J2581D01*
G03X63189I-135J-147D01*
G37*
G36*
G01X52985Y460498D02*
G02X52935Y462182I-1385J802D01*
G03X53615Y462202I334J220D01*
G02X53665Y460518I1385J-802D01*
G03X52985Y460498I-334J-220D01*
G37*
G36*
G01X31494Y410936D02*
G02X30546Y412264I-1594J-136D01*
G03X31106Y412664I161J366D01*
G02X32054Y411336I1594J136D01*
G03X31494Y410936I-161J-366D01*
G37*
G36*
G01X74682Y332891D02*
G02X72558Y331829I-582J-1491D01*
G03X72318Y332309I-385J107D01*
G02X72142Y335209I582J1491D01*
G03X72182Y335889I-189J352D01*
G02X73858Y335791I918J1311D01*
G03X73818Y335111I189J-352D01*
G02X74442Y333371I-918J-1311D01*
G03X74682Y332891I385J-107D01*
G37*
G36*
G01X100976Y188467D02*
G02X99784Y187413I324J-1567D01*
G03X99324Y187933I-379J128D01*
G02X99277Y191076I-324J1567D01*
G03X99737Y191556I69J394D01*
G02X99784Y192413I1563J344D01*
G03X99324Y192933I-379J128D01*
G02X100516Y193987I-324J1567D01*
G03X100976Y193467I379J-128D01*
G02X101023Y190324I324J-1567D01*
G03X100563Y189844I-69J-394D01*
G02X100516Y188987I-1563J-344D01*
G03X100976Y188467I379J-128D01*
G37*
G36*
G01X79598Y184964D02*
G02X77882Y185276I-1098J-1164D01*
G03X78002Y185936I-154J369D01*
G02X79718Y185624I1098J1164D01*
G03X79598Y184964I154J-369D01*
G37*
G36*
G01X106700Y904300D02*
Y905300D01*
X475200D01*
Y904300D01*
X475200Y578300D01*
X106600D01*
Y904300D01*
X106700D01*
G37*
G36*
G01X542400Y734738D02*
G02X540418Y734565I-1100J1162D01*
G02X540282Y737135I-1018J1235D01*
G02X542400Y737062I1018J-1235D01*
G02Y734738I1100J-1162D01*
G37*
G54D26*
X494300Y454400D03*
X490700Y357000D03*
X407000Y450500D03*
X401800Y396700D03*
X390400Y386800D03*
X275500Y45000D03*
X242600Y56200D03*
X251700Y47700D03*
X236300Y47300D03*
X220800Y188400D03*
X151800Y225300D03*
X508100Y499200D03*
X526000Y707900D03*
G54D31*
X21300Y67400D03*
G54D30*
Y83000D03*
Y98600D03*
G54D24*
X554500Y396700D03*
X524400Y341000D03*
X471100Y369400D03*
X479500Y306800D03*
X476200Y283600D03*
X491800Y23400D03*
X481100Y23700D03*
X460400Y23500D03*
X450850Y24150D03*
X446000Y23400D03*
X436100Y23200D03*
X420650Y23950D03*
X390500Y402200D03*
X393600Y407800D03*
X411050Y24150D03*
X391100Y23600D03*
X370300Y263700D03*
X383100Y255400D03*
X365800Y253600D03*
X369700Y207800D03*
X381050Y23550D03*
X370650Y24250D03*
X331250Y231150D03*
X333500Y199300D03*
X309000Y443900D03*
X257800Y182700D03*
X265500Y37100D03*
X260100Y23600D03*
X248100Y438900D03*
X256900Y429500D03*
X235600Y394500D03*
X232300Y211900D03*
X234300Y206400D03*
X240750Y22450D03*
X235400Y35700D03*
X249900Y23300D03*
X213400Y424000D03*
X213000Y398800D03*
X220400Y404800D03*
X229500Y404900D03*
X222800Y385200D03*
X220700Y373700D03*
X225300Y348400D03*
X224300Y332700D03*
X217000Y229600D03*
X228300Y212000D03*
X230700Y205100D03*
X210000Y24200D03*
X225300Y35500D03*
X229950Y22950D03*
X185700Y382700D03*
X193800Y357200D03*
X195150Y333350D03*
X198900Y320600D03*
X185400Y326000D03*
X178700Y274600D03*
X196200Y273200D03*
X183700Y254100D03*
X180400Y23200D03*
X190350Y23250D03*
X185000Y35000D03*
X195000Y35400D03*
X200200Y23600D03*
X165600Y375800D03*
X174500Y354800D03*
X174700Y348800D03*
X161000Y321500D03*
X161300Y279800D03*
X158300Y255500D03*
X170400Y23700D03*
X175700Y36100D03*
X129900Y23600D03*
X139700Y23200D03*
X150000Y23100D03*
X100100Y90400D03*
Y72000D03*
Y75700D03*
X95000Y70100D03*
X16400Y123400D03*
X6300Y206400D03*
X13800Y210300D03*
X14700Y223900D03*
X6700Y231000D03*
X7000Y217300D03*
X14800Y249500D03*
Y241500D03*
Y233500D03*
X9600Y280600D03*
X7600Y268600D03*
X11700Y331800D03*
Y323800D03*
Y315800D03*
X20600Y465600D03*
Y461600D03*
Y457600D03*
Y473600D03*
Y469600D03*
X41100Y125200D03*
X27100Y123000D03*
X34800Y125400D03*
X34700Y120800D03*
X30300Y172900D03*
X30800Y163000D03*
X21200Y177800D03*
X35900Y167500D03*
X38500Y177800D03*
X31100Y190100D03*
X28500Y180300D03*
X26400Y201000D03*
X21200Y193800D03*
Y185800D03*
X38500D03*
Y193800D03*
X28500Y224000D03*
X22800Y227400D03*
Y219400D03*
Y211400D03*
X27600Y241900D03*
X22600Y252700D03*
Y244700D03*
X27600Y245900D03*
Y233900D03*
X27200Y253300D03*
X22600Y260700D03*
X27200Y269300D03*
Y261300D03*
X23700Y306700D03*
X24100Y299900D03*
Y291900D03*
Y283900D03*
X23300Y332500D03*
X23700Y322700D03*
Y314700D03*
X29900Y357200D03*
Y349200D03*
Y341200D03*
X23300Y348500D03*
Y340500D03*
X24500Y384400D03*
X30700Y382300D03*
X32500Y403300D03*
X24500Y400400D03*
Y392400D03*
X24400Y410300D03*
X30700Y398300D03*
Y390300D03*
X24400Y418300D03*
Y426300D03*
X29900Y426800D03*
Y418800D03*
X41200Y457200D03*
Y453200D03*
X40200Y463500D03*
Y479500D03*
Y475500D03*
Y471500D03*
Y467500D03*
X43000Y595100D03*
X41000Y605600D03*
X50600Y138800D03*
X50500Y143800D03*
Y151100D03*
X72000Y145600D03*
X68000D03*
X50400Y156100D03*
X73600Y153300D03*
X69600D03*
X65600D03*
X61600D03*
X65700Y159600D03*
X71600Y159700D03*
X68900Y183800D03*
Y193100D03*
X59700Y183800D03*
X72100Y230700D03*
X66200Y224100D03*
X61200D03*
X56200D03*
X61600Y209500D03*
X72600Y210000D03*
X63000Y213300D03*
X69000D03*
X66500Y252100D03*
X57100D03*
X61600Y278400D03*
X73300Y263300D03*
X66500Y261200D03*
X66400Y273300D03*
X56900Y294700D03*
X63900Y294800D03*
X73500Y318800D03*
X63600Y328100D03*
Y318800D03*
X53400D03*
X70900Y342400D03*
X71800Y353900D03*
X58400Y354100D03*
X71500Y346000D03*
X57000Y346100D03*
X63400Y342700D03*
X49800Y368400D03*
X54300D03*
X58800D03*
X59100Y385600D03*
X64900Y385700D03*
X55900Y409700D03*
X65000Y409600D03*
X64300Y432700D03*
X65000Y419100D03*
X59000Y461400D03*
X47600Y461300D03*
X58600Y457200D03*
Y453200D03*
X51100Y495200D03*
X84000Y145600D03*
X80000D03*
X76000D03*
X77600Y153300D03*
X85100Y187100D03*
X80000Y191700D03*
X86000D03*
X75800Y196200D03*
X81800D03*
X80400Y200000D03*
X86400D03*
X83600Y203800D03*
X77600D03*
X81800Y223500D03*
X86800D03*
X91800D03*
X77100Y230700D03*
X82100D03*
X75300Y213400D03*
X81300D03*
X78600Y210000D03*
X96800Y238200D03*
Y245600D03*
Y253100D03*
X78400Y255200D03*
X83400D03*
X75800Y252100D03*
X83000Y268400D03*
X88500Y276400D03*
X86700Y267800D03*
X91700D03*
X83900Y263400D03*
X88900D03*
X78300Y263300D03*
X81000Y259200D03*
X76000D03*
X89300Y335700D03*
Y329600D03*
X92200Y323800D03*
X96700D03*
X97600Y341100D03*
X93100D03*
X95400Y358900D03*
X75300Y342700D03*
X81300Y342400D03*
X95400Y363400D03*
Y367900D03*
X74280Y379480D03*
X98700Y393200D03*
X98600Y400900D03*
Y412200D03*
X74100Y409700D03*
X88500Y433300D03*
X98200Y420500D03*
X88900Y429100D03*
X94700Y495200D03*
X101300Y181900D03*
X102200Y219200D03*
Y224200D03*
Y229200D03*
X101000Y234700D03*
Y242100D03*
Y249600D03*
Y257100D03*
X102800Y309300D03*
X102100Y303600D03*
X101200Y323800D03*
X102100Y341100D03*
X101900Y347200D03*
Y351700D03*
Y356200D03*
X122200Y486000D03*
X122300Y508700D03*
X160200Y483100D03*
X216100Y504900D03*
X275700D03*
X320500D03*
X365300D03*
X410300Y506200D03*
Y514200D03*
Y498200D03*
X426100Y515800D03*
Y507800D03*
Y523800D03*
X481700Y482200D03*
X515900Y672500D03*
Y664500D03*
Y680500D03*
X530900Y430000D03*
X522800Y716000D03*
X100100Y83100D03*
X94100Y93800D03*
X96500Y545200D03*
X96200Y540100D03*
X111500Y545200D03*
X106500D03*
X101500D03*
X101200Y540100D03*
X106200D03*
X111200D03*
X173900Y535900D03*
X174300Y545000D03*
X200700Y540300D03*
X188900Y535900D03*
X183900D03*
X178900D03*
X189300Y545000D03*
X184300D03*
X179300D03*
X215700Y540300D03*
X210700D03*
X205700D03*
X538300Y745400D03*
X551000Y725000D03*
X566800Y718500D03*
X546950Y732450D03*
X558800Y771800D03*
G54D28*
X345128Y253149D03*
X321506D03*
X325443D03*
X333317D03*
X225500Y327000D03*
G54D32*
X14200Y299200D03*
X97000Y143800D03*
G54D27*
X358500Y258800D03*
X240921Y315621D03*
G54D29*
X63900Y76900D03*
X63700Y71900D03*
X79800Y85400D03*
X84800Y72600D03*
X82700Y81700D03*
G54D25*
X524700Y19126D03*
X312300D03*
X273700D03*
X61300D03*
G54D33*
X139700Y494300D03*
X139800Y513000D03*
X164500Y494300D03*
X164600Y513000D03*
%LPD*%
G75*
G36*
G01X109600Y581300D02*
Y901300D01*
X210981D01*
G02X211377Y900846I0J-400D01*
G03X228223I8423J-1146D01*
G02X228619Y901300I396J54D01*
G01X424681D01*
G02X425077Y900846I0J-400D01*
G03X441923I8423J-1146D01*
G02X442319Y901300I396J54D01*
G01X472200D01*
Y697577D01*
G02X471600Y697230I-400J0D01*
G03Y688570I-2500J-4330D01*
G02X472200Y688223I200J-346D01*
G01Y652026D01*
X472078Y651974D01*
G03Y649026I622J-1474D01*
G01X472200Y648974D01*
Y581300D01*
X332337D01*
G02X331949Y581800I0J400D01*
G03X328851I-1549J400D01*
G02X328463Y581300I-387J-100D01*
G01X294974D01*
G02X294599Y581840I0J400D01*
G03X291601I-1499J560D01*
G02X291226Y581300I-375J-140D01*
G01X109600D01*
G37*
%LPC*%
G75*
G36*
G01X255607Y599700D02*
G02X254073Y598580I-7J-1600D01*
G03X253694Y599100I-382J120D01*
G02X255227Y600220I7J1600D01*
G03X255607Y599700I382J-120D01*
G37*
G36*
G01X250200Y601100D02*
X248000D01*
X245800Y603300D01*
X246100Y603600D01*
Y606604D01*
X245944Y606640D01*
G02Y609760I356J1560D01*
G01X246100Y609796D01*
Y659067D01*
G02X245901Y660560I1300J933D01*
G03X245526Y661100I-375J140D01*
G01X242100D01*
X239700Y663500D01*
Y663754D01*
X239636Y663813D01*
G02X239574Y667127I1564J1687D01*
G01X239700Y667253D01*
Y667910D01*
X239418D01*
X239360Y667852D01*
G02X239054Y673102I-2459J2490D01*
G03X239700Y673417I246J315D01*
G01Y689477D01*
G02Y692123I900J1323D01*
G01Y701583D01*
G03X239054Y701898I-400J0D01*
G02X238434Y701511I-2154J2759D01*
G02X235532Y701436I-1433J-711D01*
G02X239054Y707416I1368J3222D01*
G03X239700Y707732I246J315D01*
G01Y714734D01*
G03X239017Y715017I-400J0D01*
G01X196100Y672100D01*
X195500D01*
X192500Y675100D01*
Y678100D01*
X219373Y704973D01*
G02X221496Y707326I1227J1027D01*
G01X221633Y707233D01*
X235138Y720738D01*
G03X235065Y721362I-283J283D01*
G02X235280Y727445I1835J2981D01*
G03X235095Y728200I-185J355D01*
G01X182500D01*
X179333Y725033D01*
X179350Y724931D01*
G02X175312Y720892I-3450J-589D01*
G01X175210Y720910D01*
X134900Y680600D01*
Y670832D01*
G02Y668228I-930J-1302D01*
G01Y615900D01*
X123400Y604400D01*
X121200D01*
X118400Y607200D01*
Y608900D01*
X124900Y615400D01*
Y661400D01*
X122800Y663500D01*
X118100D01*
X117000Y664600D01*
Y666832D01*
G03X116426Y667192I-400J0D01*
G02Y673493I-1526J3150D01*
G03X117000Y673853I174J360D01*
G01Y685000D01*
X173200Y741200D01*
X241600D01*
X246000Y745600D01*
X263600D01*
X298700Y710500D01*
X298500Y710300D01*
Y708110D01*
X298657Y708075D01*
G02Y701240I-757J-3417D01*
G01X298500Y701205D01*
Y689200D01*
X304200D01*
X325787Y667613D01*
G03X326451Y667777I283J283D01*
G02X329551Y667599I1527J-477D01*
G03X329768Y667438I196J37D01*
G02X330225Y664070I179J-1691D01*
G03X330008Y663392I65J-395D01*
G01X333100Y660300D01*
Y659249D01*
G03X333573Y658856I400J0D01*
G02Y655513I311J-1671D01*
G03X333100Y655120I-73J-393D01*
G01Y635400D01*
X333908Y634592D01*
X334024Y634628D01*
G02X336028Y632624I476J-1528D01*
G01X335992Y632508D01*
X352300Y616200D01*
Y604200D01*
X350300Y602200D01*
X347100D01*
X345500Y603800D01*
Y610600D01*
X344100Y612000D01*
X343700D01*
X325100Y630600D01*
Y640351D01*
G02Y642849I1000J1249D01*
G01Y651700D01*
X313300Y663500D01*
X307100D01*
Y657875D01*
G02Y655075I-775J-1400D01*
G01Y645996D01*
X307256Y645960D01*
G02X308187Y645351I-356J-1560D01*
G03X308867Y645411I322J238D01*
G02X309013Y643749I1433J-711D01*
G03X308333Y643689I-322J-238D01*
G02X307256Y642840I-1433J711D01*
G01X307100Y642804D01*
Y627175D01*
G02Y625625I-1400J-775D01*
G01Y607300D01*
X297500D01*
X296400Y608400D01*
Y613180D01*
G02Y619505I1500J3163D01*
G01Y631559D01*
G03X295941Y631955I-400J0D01*
G02X293200Y641483I-741J4945D01*
G01Y642144D01*
X293067Y642191D01*
G02X292029Y643394I533J1509D01*
G03X291354Y643601I-393J-76D01*
G01X287126Y639374D01*
G02X283874Y642627I-1626J1627D01*
G01X294205Y652958D01*
X295262D01*
G02X296400Y653820I2638J-2300D01*
G01Y664330D01*
G03X295717Y664613I-400J0D01*
G02X296023Y666599I-1203J1202D01*
G01X296079Y666491D01*
X296400D01*
Y667180D01*
G02X295189Y672556I1500J3162D01*
G01X295303Y672697D01*
X276300Y691700D01*
X273400D01*
Y672002D01*
G02Y670393I-1498J-805D01*
G01Y655226D01*
X273522Y655174D01*
G02Y652226I-622J-1474D01*
G01X273400Y652174D01*
Y649679D01*
X273544Y649637D01*
G02Y646563I-444J-1537D01*
G01X273400Y646521D01*
Y628600D01*
X265800D01*
X263700Y630700D01*
Y638429D01*
G03X263080Y638764I-400J0D01*
G02Y641436I-880J1336D01*
G03X263700Y641771I220J334D01*
G01Y714300D01*
X264500D01*
X267000Y716800D01*
Y724300D01*
X265700Y725600D01*
X264594Y724494D01*
X264598Y724406D01*
G02X262300Y722000I-2298J-105D01*
G01X262100D01*
X255300Y715200D01*
Y693523D01*
G03X256000Y693259I400J0D01*
G02Y691141I1200J-1059D01*
G03X255300Y690877I-300J-265D01*
G01Y623675D01*
G02Y622125I-1400J-775D01*
G01Y611298D01*
G03X255680Y610898I400J0D01*
G02Y607702I-80J-1598D01*
G03X255300Y607302I20J-399D01*
G01Y606200D01*
X250200Y601100D01*
G37*
G36*
G01X406799Y612026D02*
G02X401926Y616899I-4999J-126D01*
G03X402219Y617581I10J400D01*
G01X390700Y629100D01*
X364739D01*
G02X362861I-939J2100D01*
G01X349800D01*
X349229Y629671D01*
X349178Y629685D01*
G02X348174Y630274I622J2215D01*
G01X343300Y635147D01*
Y670300D01*
X269200Y744400D01*
Y746900D01*
X271900Y749600D01*
Y754200D01*
X269900Y756200D01*
Y763200D01*
X271300Y764600D01*
X280000D01*
X289100Y755500D01*
X295142D01*
G03X295425Y756183I0J400D01*
G02X300375I2475J2475D01*
G03X300658Y755500I283J-283D01*
G01X349900D01*
X364200Y769800D01*
Y787496D01*
G02Y789944I1180J1224D01*
G01Y806214D01*
G02Y808986I800J1386D01*
G01Y820000D01*
X361700Y822500D01*
Y827500D01*
X364561D01*
G02X366439I939J-2100D01*
G01X369600D01*
X373200Y823900D01*
Y822424D01*
G02Y822376I-1600J-24D01*
G01Y819974D01*
G03X373740Y819599I400J0D01*
G02Y816601I560J-1499D01*
G03X373200Y816226I-140J-375D01*
G01Y812097D01*
G03X373389Y811898I200J0D01*
G02Y808702I-89J-1598D01*
G03X373200Y808503I11J-200D01*
G01Y798840D01*
G03X373385Y798641I200J0D01*
G02Y795250I-130J-1695D01*
G03X373200Y795051I15J-199D01*
G01Y759900D01*
X369483Y756183D01*
G03X369766Y755500I283J-283D01*
G01X408357D01*
G03X408757Y755889I0J400D01*
G02X409528Y757212I1600J-45D01*
G02X412233Y758846I1484J600D01*
G03X412821Y758821I305J258D01*
G01X423500Y769500D01*
X432400D01*
Y760900D01*
X421200Y749700D01*
X419153D01*
X418953Y749500D01*
X300500D01*
Y741800D01*
X375415Y666885D01*
G03X375982Y666887I283J283D01*
G02X378387Y664482I1209J-1195D01*
G03X378385Y663915I281J-284D01*
G01X391600Y650700D01*
X392400Y651500D01*
X405200D01*
X406700Y650000D01*
Y644000D01*
X393500D01*
X391000Y641500D01*
Y637800D01*
X391533Y637267D01*
G03X392212Y637500I283J283D01*
G02X394000Y635712I1588J-200D01*
G03X393767Y635033I50J-397D01*
G01X413612Y615188D01*
X413656Y615173D01*
G02X415073Y613756I-756J-2173D01*
G01X415088Y613712D01*
X418400Y610400D01*
X415200Y607200D01*
X412600D01*
X407481Y612319D01*
G03X406799Y612026I-283J-283D01*
G37*
G36*
G01X177973Y653478D02*
G02X176054Y654154I-2073J-2820D01*
G01X176142Y654150D01*
X176346Y654354D01*
X176200Y654500D01*
Y659800D01*
X177000Y660600D01*
X186900D01*
X193300Y667000D01*
X201000D01*
X201200Y666800D01*
Y662000D01*
X193400Y654200D01*
X178210D01*
G03X177973Y653478I0J-400D01*
G37*
G36*
G01X393909Y678988D02*
G02X393667Y676238I-1109J-1288D01*
G03X393572Y675628I204J-344D01*
G02X393882Y673878I-1272J-1128D01*
G02X391618Y672943I-683J-1557D01*
G02X391433Y675962I683J1557D01*
G03X391528Y676572I-204J344D01*
G02X392458Y679365I1272J1128D01*
G03X392694Y680002I-80J392D01*
G02X392393Y681462I1346J1039D01*
G02X394747Y682586I707J1546D01*
G02X394040Y679340I-707J-1546D01*
G01X393909Y678988D01*
G37*
G36*
G01X441691Y702077D02*
G02X439796Y704611I-1139J1124D01*
G03X439806Y705311I-189J353D01*
G02X441355Y705289I794J1389D01*
G03X441346Y704589I189J-353D01*
G02X441691Y704324I-794J-1389D01*
G03X442260I285J281D01*
G02Y702077I1140J-1124D01*
G03X441691I-285J-281D01*
G37*
G36*
G01X236994Y600561D02*
G03X237342Y600130I398J-35D01*
G02X234300Y599001I-442J-3472D01*
G03X234282Y599555I-297J268D01*
G02X236994Y600561I1118J1145D01*
G37*
G36*
G01X386605Y601028D02*
G03X386147Y601456I-399J32D01*
G02X388959Y602888I-747J4944D01*
G03X389035Y602265I285J-281D01*
G02X386605Y601028I-835J-1365D01*
G37*
G36*
G01X325733Y602730D02*
G03X326253Y602690I283J282D01*
G02X326067Y600270I947J-1290D01*
G03X325547Y600310I-283J-282D01*
G02X325733Y602730I-947J1290D01*
G37*
G36*
G01X271320Y623057D02*
G03X271380Y622437I280J-286D01*
G02X269380Y622243I-880J-1337D01*
G03X269320Y622863I-280J286D01*
G02X271320Y623057I880J1337D01*
G37*
G36*
G01X437249Y626671D02*
G03X437080Y626110I176J-359D01*
G02X434102Y625382I-1380J-810D01*
G03X433693Y625802I-399J20D01*
G02X437249Y626671I-193J8498D01*
G37*
G36*
G01X317924Y642312D02*
G02X315876Y641288I-524J-1512D01*
G02X317924Y642312I524J1512D01*
G37*
G36*
G01X399352Y665538D02*
G02X400048Y667862I-651J1462D01*
G02X399352Y665538I651J-1462D01*
G37*
G36*
G01X423306Y669534D02*
G02X416458Y670979I-3406J809D01*
G02X418382Y673496I1142J1121D01*
G02X422516Y672668I1518J-3154D01*
G03X423072Y672627I299J266D01*
G02X423776Y669833I1028J-1227D01*
G03X423306Y669534I-81J-392D01*
G37*
G36*
G01X435223Y675360D02*
G03Y674791I281J-285D01*
G02X432976I-1123J-1139D01*
G03Y675360I-281J285D01*
G02X435006Y677819I1123J1140D01*
G03X435541Y677894I227J330D01*
G02X435652Y678015I1234J-1018D01*
G03Y678585I-281J285D01*
G02X437899I1124J1140D01*
G03Y678015I281J-285D01*
G02X435870Y675557I-1123J-1140D01*
G03X435334Y675482I-227J-330D01*
G02X435223Y675360I-1234J1018D01*
G37*
G36*
G01X441423Y682885D02*
G03Y682315I281J-285D01*
G02X439177I-1123J-1140D01*
G03Y682885I-281J285D01*
G02X441423I1124J1140D01*
G37*
G36*
G01X445859Y684749D02*
G03Y684180I281J-285D01*
G02X443612I-1124J-1139D01*
G03Y684749I-281J285D01*
G02X445356Y687364I1123J1139D01*
G03X445889Y687601I155J369D01*
G02X446276Y688215I1511J-526D01*
G03Y688785I-281J285D01*
G02X448523I1124J1140D01*
G03Y688215I281J-285D01*
G02X446780Y685601I-1123J-1139D01*
G03X446247Y685363I-155J-369D01*
G02X445859Y684749I-1511J526D01*
G37*
G36*
G01X391845Y688034D02*
G02X394606Y687826I1455J880D01*
G02X391845Y688034I-1455J-880D01*
G37*
G36*
G01X445985Y695276D02*
G03X445415I-285J-281D01*
G02Y697524I-1140J1124D01*
G03X445985I285J281D01*
G02Y695276I1140J-1123D01*
G37*
G36*
G01X430685Y714376D02*
G03X430115I-285J-281D01*
G02X429049Y717098I-1139J1123D01*
G03X429434Y717658I18J400D01*
G02X432297Y717519I1466J642D01*
G03X432482Y716959I349J-195D01*
G02X430685Y714376I-657J-1459D01*
G37*
G36*
G01X429285Y724177D02*
G03X428715I-285J-281D01*
G02Y726424I-1140J1123D01*
G03X429285I285J281D01*
G02Y724177I1140J-1124D01*
G37*
G36*
G01X405230Y727490D02*
G03X405030Y726890I132J-377D01*
G02X403170Y727510I-1330J-890D01*
G03X403370Y728110I-132J377D01*
G02X405230Y727490I1330J890D01*
G37*
G36*
G01X392090Y729269D02*
G02X394613I1262J984D01*
G02X392090I-1262J-984D01*
G37*
G36*
G01X404240Y732608D02*
G03X403800Y732212I-40J-398D01*
G02X402360Y733814I-1600J9D01*
G03X402800Y734209I40J398D01*
G02X403103Y735138I1600J-9D01*
G02X405597Y735262I1197J1062D01*
G02X404240Y732608I-1197J-1062D01*
G37*
G36*
G01X424260Y736576D02*
G03X423691I-285J-281D01*
G02Y738824I-1139J1123D01*
G03X424260I285J281D01*
G02Y736576I1140J-1124D01*
G37*
G36*
G01X413464Y739758D02*
G02X411536Y738537I-364J-1558D01*
G02X413464Y739758I364J1558D01*
G37*
G36*
G01X260267Y753655D02*
G03X260117Y754205I-346J201D01*
G02X262283Y754795I783J1395D01*
G03X262433Y754245I346J-201D01*
G02X260267Y753655I-783J-1395D01*
G37*
G36*
G01X408785Y765267D02*
G02X409595Y762171I398J-1550D01*
G02X407639Y763295I-1544J-422D01*
G02X407583Y763742I1544J422D01*
G03X407083Y764136I-400J6D01*
G02X405086Y765698I-398J1550D01*
G03X404599Y766092I-400J3D01*
G02X405855Y767642I-345J1563D01*
G03X406341Y767248I400J-3D01*
G02X408286Y765661I345J-1563D01*
G03X408785Y765267I400J-6D01*
G37*
G36*
G01X273314Y769486D02*
G02X273300Y769700I1586J214D01*
G02X271930Y772127I0J1600D01*
G02X271530Y774227I970J1273D01*
G02X271763Y776920I970J1273D01*
G03X271863Y777154I-92J178D01*
G02Y778046I1537J446D01*
G03X271763Y778280I-192J56D01*
G02X274037Y779254I737J1421D01*
G03X274137Y779020I192J-56D01*
G02Y776180I-737J-1421D01*
G03X274037Y775946I92J-178D01*
G02X273870Y774673I-1537J-446D01*
G02X274270Y772573I-970J-1273D01*
G02X274900Y771300I-970J-1273D01*
G02X275241Y768137I0J-1600D01*
G03X275086Y767914I43J-195D01*
G02X273159Y769263I-1586J-214D01*
G03X273314Y769486I-43J195D01*
G37*
G36*
G01X405671Y777893D02*
G03X405197Y777499I-74J-393D01*
G02X403892Y779070I-1600J-2D01*
G03X404365Y779463I74J393D01*
G02X405671Y777893I1600J2D01*
G37*
G36*
G01X283466Y788696D02*
G03X283732Y788674I146J137D01*
G02X283534Y786304I968J-1274D01*
G03X283268Y786326I-146J-137D01*
G02X283466Y788696I-968J1274D01*
G37*
G36*
G01X343457Y796714D02*
G02X340090Y796316I-1699J-72D01*
G02X339777Y799690I-300J1674D01*
G02X342499Y800259I1523J-490D01*
G03X342763Y800227I150J132D01*
G02X345062Y799879I964J-1400D01*
G02X344565Y797348I838J-1479D01*
G02X343832Y797130I-838J1479D01*
G03X343457Y796714I25J-399D01*
G37*
G36*
G01X280142Y799617D02*
G03X280401Y799540I172J102D01*
G02X279724Y797283I699J-1439D01*
G03X279465Y797360I-172J-102D01*
G02X280142Y799617I-699J1439D01*
G37*
G36*
G01X304080Y808763D02*
G03X303846Y808863I-178J-92D01*
G02X304820Y811137I-446J1537D01*
G03X305054Y811037I178J92D01*
G02X304080Y808763I446J-1537D01*
G37*
G36*
G01X294406Y813442D02*
G02X296031Y810698I3494J215D01*
G02X294406Y813442I-931J1302D01*
G37*
G54D26*
X455300Y704400D03*
X438900Y777700D03*
X431600Y592600D03*
X408100Y788100D03*
G54D24*
X469500Y658200D03*
X448400Y874900D03*
Y845000D03*
Y815200D03*
X466100Y664700D03*
X456200Y675800D03*
X459000Y672400D03*
X461700Y669400D03*
X424400Y854500D03*
X436500Y812600D03*
X418300Y770500D03*
X435700Y758600D03*
X425700Y677900D03*
X419100Y684600D03*
X428300Y684200D03*
X422500Y686600D03*
X429200Y658200D03*
X427200Y664700D03*
X439100Y654500D03*
X438000Y661300D03*
X436500Y666300D03*
X429676Y671676D03*
X430600Y650500D03*
X422800Y639000D03*
X425300Y608200D03*
X431700Y603100D03*
X435900Y612600D03*
X435700Y621600D03*
X425600Y597600D03*
X400800Y864800D03*
X402050Y836950D03*
X408600Y814200D03*
X406850Y823350D03*
X409600Y804800D03*
X404780Y759780D03*
X404600Y714500D03*
X411200Y678300D03*
X391000Y655700D03*
X407200Y666600D03*
X409500Y661400D03*
X401000Y656600D03*
X406200Y600900D03*
X396200D03*
X383350Y836850D03*
X385000Y810000D03*
X378150Y823350D03*
X376400Y801500D03*
X381128Y788028D03*
X378200Y600900D03*
X368200D03*
X370900Y590700D03*
X365200Y584300D03*
X365000Y596900D03*
X339700Y861600D03*
X361900Y854800D03*
X341300Y812200D03*
X346400Y812100D03*
X343900Y818500D03*
X353000Y825500D03*
X337800Y782800D03*
X339900Y656300D03*
Y643300D03*
X342200Y601400D03*
X314400Y866600D03*
X321200Y810200D03*
X328000Y811400D03*
Y799200D03*
X311900Y807800D03*
X309900Y635600D03*
X335600Y642200D03*
X322200Y640100D03*
X317400Y627800D03*
X320800Y590100D03*
X325900Y589700D03*
X331800Y595200D03*
X296800Y848700D03*
X284500Y809400D03*
X290800Y816300D03*
X305500Y822200D03*
X300600Y827900D03*
X286700Y627400D03*
X288400Y599700D03*
X288000Y624000D03*
X287900Y615500D03*
X288200Y605600D03*
X278900Y814500D03*
X282500Y818000D03*
X282800Y667600D03*
X270500Y605600D03*
X279900Y615600D03*
X263600Y584500D03*
X262000Y596200D03*
X280800Y596300D03*
X281300Y585000D03*
X270500Y598100D03*
X252900Y866700D03*
X239500Y825500D03*
X243500Y793100D03*
X255200Y792700D03*
X249700Y780400D03*
X245900Y774800D03*
X241700Y768800D03*
X247400Y761800D03*
X234500Y638500D03*
X236600Y607700D03*
X239700Y584100D03*
X250600Y583900D03*
X220800Y761300D03*
X227100Y697200D03*
X224000Y630800D03*
X211800Y646100D03*
X215000Y637200D03*
X227200Y598800D03*
X227400Y585000D03*
X182200Y879100D03*
X181000Y854200D03*
X193700Y812500D03*
X182400Y770800D03*
X197000Y692700D03*
X192300Y702400D03*
X187000Y664800D03*
X185600Y651200D03*
X204643Y648158D03*
X184958Y628958D03*
X183258Y611300D03*
X184300Y590500D03*
X169000Y878900D03*
X175900Y826800D03*
X169840Y680060D03*
X166100Y679800D03*
X153270Y669530D03*
X159800Y668600D03*
X159900Y676200D03*
X161000Y658500D03*
X171000D03*
X172500Y626800D03*
X126800Y876600D03*
X132000Y859200D03*
X132500Y809900D03*
X129200Y701200D03*
X145000Y658500D03*
X149000D03*
X113800Y876900D03*
X120700Y882500D03*
X121800Y824700D03*
X123200Y770800D03*
X120900Y653000D03*
X121100Y639600D03*
X121500Y619800D03*
X111700Y585100D03*
X121800Y588500D03*
G54D34*
X419900Y886342D03*
Y866658D03*
Y832342D03*
Y812658D03*
Y778342D03*
Y724342D03*
Y704658D03*
Y650658D03*
Y616342D03*
Y596658D03*
X358900Y886342D03*
Y866658D03*
Y833342D03*
Y813658D03*
Y778342D03*
Y724342D03*
Y704658D03*
Y616342D03*
Y596658D03*
X297900Y886342D03*
Y866658D03*
Y833342D03*
Y778342D03*
Y596658D03*
X236900Y886342D03*
Y866658D03*
Y833342D03*
Y813658D03*
Y778342D03*
Y758658D03*
Y650658D03*
Y616342D03*
X175900Y886342D03*
Y866658D03*
Y832342D03*
Y812658D03*
Y778342D03*
Y758658D03*
Y704658D03*
Y670342D03*
Y616342D03*
Y596658D03*
X114900Y886342D03*
Y866658D03*
Y832342D03*
Y812658D03*
Y778342D03*
Y758658D03*
Y724342D03*
Y704658D03*
Y650658D03*
Y616342D03*
Y596658D03*
G54D28*
X389002Y788302D03*
X403691Y771591D03*
X393151Y781434D03*
Y773560D03*
Y769623D03*
X393825Y700725D03*
X404500Y679072D03*
X403751Y671198D03*
X385065Y797365D03*
Y665565D03*
X361443Y796900D03*
X351601Y797199D03*
X349632Y787000D03*
X353569Y787100D03*
X335853Y796953D03*
X331916Y797284D03*
X327979Y788321D03*
X324042Y797058D03*
X316168Y797132D03*
X312231Y797169D03*
X320105Y797007D03*
X315962Y787375D03*
X310262Y657538D03*
X304357Y788757D03*
X292546Y788346D03*
X288609Y788609D03*
X308294Y798151D03*
X301896D03*
X288609Y666291D03*
X260700Y783600D03*
G54D32*
X333200Y885600D03*
X200800Y776200D03*
%LPD*%
G75*
G54D10*
X19600Y19100D03*
Y505500D03*
Y963200D03*
X571000Y19100D03*
Y505500D03*
Y963200D03*
G54D11*
X3200Y138200D03*
X4300Y161500D03*
X11400Y138400D03*
X19400D03*
X12300Y161500D03*
X19800Y161800D03*
X63700Y71900D03*
X63900Y76900D03*
X51400Y116000D03*
X51700Y127800D03*
X51200Y124100D03*
X61100Y127900D03*
X56000Y127800D03*
X58500Y477600D03*
X57900Y481800D03*
X57500Y484600D03*
X52600Y484500D03*
X82700Y81700D03*
X69500Y79800D03*
X75100Y84400D03*
X79800Y85400D03*
X70100Y85300D03*
X70900Y115500D03*
X69800Y123800D03*
X70500Y127900D03*
X66400Y128000D03*
X83700Y173600D03*
X76300Y173400D03*
X80900Y176200D03*
X81000Y178900D03*
X81100Y181400D03*
X83600Y244300D03*
X76900Y244600D03*
X73700Y242600D03*
X80400Y242400D03*
Y246300D03*
Y249700D03*
X79300Y289900D03*
X79200Y295300D03*
X75000Y302900D03*
X81800Y303200D03*
X77700Y307900D03*
X77500Y312500D03*
X74600Y396600D03*
X82800Y401400D03*
X75500Y401100D03*
X81600Y405500D03*
X76900Y405400D03*
X75600Y467000D03*
X72700Y466900D03*
X67100D03*
X75800Y471300D03*
X84800Y72600D03*
X86900Y289800D03*
X87100Y302900D03*
X85200Y308200D03*
X84100Y312400D03*
X87200Y390200D03*
X87000Y393500D03*
Y396600D03*
X88200Y401100D03*
X88500Y405700D03*
X526100Y724100D03*
X523200D03*
X515800Y721200D03*
X515900Y729100D03*
X531900Y410100D03*
X527900Y418200D03*
G54D20*
X219800Y899700D03*
X433500Y634300D03*
Y899700D03*
G54D21*
G01X19600Y19100D02*
Y35800D01*
G01Y19100D02*
X36300D01*
G01X21300Y61200D02*
Y67400D01*
G01D02*
Y73600D01*
G01X15100Y67400D02*
X21300D01*
G01D02*
X27500D01*
G01X21300Y108000D02*
Y114200D01*
G01X16716Y109616D02*
X21300Y114200D01*
G01X19600Y946500D02*
Y963200D01*
G01D02*
X36300D01*
G01X61300Y14881D02*
Y19126D01*
G01D02*
Y23371D01*
G01X57055Y19126D02*
X61300D01*
G01D02*
X65545D01*
G01X55824Y487609D02*
Y489809D01*
G01D02*
Y492009D01*
G01X53624Y489809D02*
X55824D01*
G01X80824Y552569D02*
Y554769D01*
G01D02*
Y556969D01*
G01X273700Y14881D02*
Y19126D01*
G01D02*
Y23371D01*
G01X269455Y19126D02*
X273700D01*
G01D02*
X277945D01*
G01X312300Y14881D02*
Y19126D01*
G01D02*
Y23371D01*
G01X308055Y19126D02*
X312300D01*
G01D02*
X316545D01*
G01X524700Y14881D02*
Y19126D01*
G01D02*
Y23371D01*
G01X520455Y19126D02*
X524700D01*
G01D02*
X528945D01*
G01X554300Y19100D02*
X571000D01*
G01X554300Y963200D02*
X571000D01*
G01Y19100D02*
Y35800D01*
G01Y946500D02*
Y963200D01*
X236777Y412377D03*
X240921Y315621D03*
X274300Y378100D03*
X278800Y265600D03*
X279400Y315100D03*
X277400Y427400D03*
X311500Y314300D03*
X319100Y273500D03*
X316777Y429400D03*
X353400Y365900D03*
X358500Y258800D03*
X358100Y427500D03*
G54D12*
X6300Y206400D03*
X16400Y123400D03*
X21200Y177800D03*
Y193800D03*
Y185800D03*
X22800Y211400D03*
X13800Y210300D03*
X7000Y217300D03*
X14800Y233500D03*
X22800Y227400D03*
Y219400D03*
X6700Y231000D03*
X14700Y223900D03*
X22600Y252700D03*
Y244700D03*
X14800Y249500D03*
Y241500D03*
X22600Y260700D03*
X7600Y268600D03*
X24100Y291900D03*
Y283900D03*
X9600Y280600D03*
X23700Y314700D03*
Y306700D03*
X24100Y299900D03*
X11700Y331800D03*
Y323800D03*
Y315800D03*
X23300Y332500D03*
X23700Y322700D03*
X23300Y348500D03*
Y340500D03*
X24500Y392400D03*
Y384400D03*
Y400400D03*
X24400Y410300D03*
Y426300D03*
Y418300D03*
X20600Y469600D03*
Y465600D03*
Y461600D03*
Y457600D03*
Y473600D03*
X16300Y666300D03*
Y696200D03*
Y726000D03*
Y755900D03*
Y785800D03*
Y815600D03*
Y845500D03*
Y875300D03*
Y905200D03*
Y935000D03*
X34700Y120800D03*
X34600Y116300D03*
X41100Y125200D03*
X27100Y123000D03*
X34800Y125400D03*
X30800Y163000D03*
X35900Y167500D03*
X30300Y172900D03*
X38500Y177800D03*
X31100Y190100D03*
X28500Y180300D03*
X38500Y185800D03*
Y193800D03*
X26400Y201000D03*
X27600Y233900D03*
X28500Y224000D03*
X27600Y245900D03*
Y241900D03*
X27200Y253300D03*
Y269300D03*
Y261300D03*
X29900Y349200D03*
Y341200D03*
Y357200D03*
X30700Y390300D03*
Y382300D03*
X32500Y403300D03*
X29900Y410800D03*
X30700Y398300D03*
X32700Y412800D03*
X29900Y426800D03*
Y418800D03*
X43300Y436800D03*
Y439800D03*
Y442800D03*
X41200Y457200D03*
Y453200D03*
X40200Y467500D03*
Y463500D03*
Y479500D03*
Y475500D03*
Y471500D03*
X43000Y595100D03*
X41000Y623600D03*
Y605600D03*
X41300Y637300D03*
X41800Y646300D03*
X61700Y64200D03*
X50600Y138800D03*
X50400Y156100D03*
X50500Y143800D03*
Y151100D03*
X61600Y153300D03*
X59700Y183800D03*
X61600Y209500D03*
X63000Y213300D03*
X61200Y224100D03*
X56200D03*
X57100Y252100D03*
X63900Y294800D03*
X56900Y294700D03*
X61600Y278400D03*
X53400Y318800D03*
X63600D03*
Y328100D03*
X57000Y346100D03*
X63400Y342700D03*
X49800Y368400D03*
X54300D03*
X58800D03*
X58400Y354100D03*
X59100Y385600D03*
X55900Y409700D03*
X58100Y433300D03*
Y436300D03*
Y439300D03*
X47200Y433500D03*
X50200D03*
X53200D03*
X63500Y442100D03*
X60500D03*
X64300Y432700D03*
X55000Y461400D03*
X59000D03*
X47600Y461300D03*
X51600D03*
X58600Y457200D03*
Y453200D03*
X51100Y495200D03*
X62500Y610300D03*
X50741Y631559D03*
X50700Y629000D03*
X52500Y646600D03*
X46100Y666300D03*
Y696200D03*
Y726000D03*
Y755900D03*
Y785800D03*
Y815600D03*
Y845500D03*
Y875300D03*
Y905200D03*
Y935000D03*
X76800Y9200D03*
X68800D03*
X77800Y17500D03*
X69800D03*
X74500Y63900D03*
X68500Y58600D03*
X80000Y145600D03*
X76000D03*
X72000D03*
X68000D03*
X77600Y153300D03*
X73600D03*
X69600D03*
X65600D03*
X71600Y159700D03*
X65700Y159600D03*
X68900Y193100D03*
X79100Y187100D03*
X80000Y191700D03*
X75800Y196200D03*
X81800D03*
X78500Y183800D03*
X68900D03*
X75300Y213400D03*
X81300D03*
X67600Y209500D03*
X72600Y210000D03*
X78600D03*
X69000Y213300D03*
X80400Y200000D03*
X83600Y203800D03*
X77600D03*
X68400Y207800D03*
X81800Y223500D03*
X72100Y230700D03*
X77100D03*
X82100D03*
X66200Y224100D03*
X75800Y252100D03*
X66500D03*
X78400Y255200D03*
X83400D03*
X66500Y261200D03*
X75400Y274600D03*
X83000Y268400D03*
Y273400D03*
X68500Y276600D03*
X73500D03*
X83500Y276400D03*
X73300Y263300D03*
X78300D03*
X81000Y259200D03*
X76000D03*
X66400Y273300D03*
X66600Y278400D03*
X73500Y318800D03*
X72900Y333800D03*
X74100Y331400D03*
X82800Y322500D03*
X79900D03*
X75600D03*
X76300Y325600D03*
X72600D03*
X75700Y327600D03*
X73000Y327700D03*
X70600D03*
X73100Y337200D03*
X70900Y342400D03*
X75300Y342700D03*
X81300Y342400D03*
X71500Y346000D03*
X71800Y353900D03*
X74280Y379480D03*
X64900Y385700D03*
X74100Y409700D03*
X65000Y409600D03*
Y419100D03*
X71100Y419300D03*
X74100D03*
X77100D03*
X77400Y414000D03*
X80400D03*
X83400D03*
X73700Y423300D03*
Y426300D03*
Y429300D03*
X67300Y435200D03*
X70300D03*
X73300D03*
X66500Y442100D03*
X81000Y495200D03*
X66100D03*
X80900Y543500D03*
X83300Y563900D03*
X76200Y595600D03*
X68000Y610200D03*
X78300Y623500D03*
X76300Y605000D03*
X75900Y613700D03*
X78300Y634400D03*
X65159Y631559D03*
X76900Y644800D03*
X67800Y645900D03*
X75900Y666300D03*
Y696200D03*
Y726000D03*
Y755900D03*
Y785800D03*
Y815600D03*
Y845500D03*
Y875300D03*
Y905200D03*
Y935000D03*
X84800Y9200D03*
X101100Y9000D03*
X93100D03*
X100200Y17200D03*
X92200D03*
X85800Y17500D03*
X100100Y83100D03*
Y75700D03*
Y72000D03*
X95000Y70100D03*
X94100Y93800D03*
X100100Y90400D03*
X84000Y145600D03*
X85100Y187100D03*
X86000Y191700D03*
X101300Y181900D03*
Y186900D03*
Y191900D03*
X99000Y189500D03*
Y194500D03*
X86400Y200000D03*
X99000Y199500D03*
X99900Y202400D03*
X101000Y234700D03*
X102200Y219200D03*
Y224200D03*
Y229200D03*
X86800Y223500D03*
X91800D03*
X96800Y238200D03*
Y245600D03*
Y253100D03*
X101000Y242100D03*
Y249600D03*
Y257100D03*
X88500Y276400D03*
X86700Y267800D03*
X91700D03*
X83900Y263400D03*
X88900D03*
X102800Y309300D03*
X102100Y303600D03*
X92200Y323800D03*
X96700D03*
X101200D03*
X89300Y329600D03*
X102100Y341100D03*
X97600D03*
X93100D03*
X101900Y347200D03*
Y351700D03*
X89300Y335700D03*
X101900Y356200D03*
X95400Y358900D03*
Y363400D03*
Y367900D03*
X98700Y393200D03*
X98600Y400900D03*
Y412200D03*
X98200Y420500D03*
X88900Y429100D03*
X88500Y433300D03*
X94700Y495200D03*
X95700Y529600D03*
X101500Y545200D03*
X96500D03*
X101200Y540100D03*
X96200D03*
X109100Y9000D03*
X114400Y12300D03*
X108200Y17200D03*
X120400Y38600D03*
Y41600D03*
X117900Y40100D03*
X107600Y40400D03*
X112600D03*
X110100Y41900D03*
Y38900D03*
X109900Y202400D03*
X104900D03*
X110100Y216300D03*
Y211300D03*
Y206300D03*
X108500Y234700D03*
X113200Y256700D03*
Y249300D03*
Y238100D03*
X108500Y242100D03*
Y249600D03*
Y257100D03*
X109900Y265000D03*
X114400D03*
X115300Y286700D03*
Y282200D03*
Y277700D03*
X109500Y287000D03*
Y282500D03*
Y278000D03*
X110400Y294500D03*
Y290000D03*
X107300Y309300D03*
X111800D03*
X110400Y299000D03*
X111100Y303600D03*
X106600D03*
X105300Y370600D03*
Y366100D03*
X113600Y389500D03*
X105300Y375100D03*
X113600Y397000D03*
Y404400D03*
X106100Y408100D03*
Y400700D03*
Y393200D03*
Y415600D03*
X122200Y486000D03*
X118100Y529600D03*
X110700D03*
X103200D03*
X111500Y545200D03*
X106500D03*
X106200Y540100D03*
X111200D03*
X122200Y534500D03*
X121600Y552700D03*
X122100Y569400D03*
X111700Y585100D03*
X121800Y588500D03*
X121600Y607900D03*
X121500Y619800D03*
X121100Y639600D03*
X120900Y653000D03*
X120300Y666600D03*
X121800Y824700D03*
X120700Y882500D03*
X113800Y876900D03*
X105800Y935000D03*
X139700Y23200D03*
X129900Y23600D03*
X141400Y7100D03*
X140700Y16600D03*
X132700D03*
X122400Y12300D03*
X130400D03*
X137500Y42400D03*
X136800Y40100D03*
X131900Y37300D03*
X128000Y42000D03*
X132200Y39800D03*
X127200D03*
X122900Y40100D03*
X122600Y370500D03*
X123200Y394900D03*
X123300Y424900D03*
X122700Y457700D03*
X122300Y508700D03*
X131300Y553300D03*
X138000Y559200D03*
X133970Y669530D03*
X129200Y701200D03*
X123200Y770800D03*
X132500Y809900D03*
X132000Y859200D03*
X126800Y876600D03*
X135600Y935000D03*
X150000Y23100D03*
X149400Y7100D03*
X157400D03*
X153800Y13000D03*
X148700Y16600D03*
X158900Y39200D03*
Y42200D03*
X156400Y40700D03*
X142100Y37200D03*
X141800Y40100D03*
X147900Y34700D03*
X158900Y188500D03*
Y192500D03*
Y196500D03*
X156000Y210900D03*
X160300Y214900D03*
X156000Y218900D03*
X160700Y227300D03*
X158600Y235300D03*
X158300Y255500D03*
X155600Y261600D03*
X154600Y268400D03*
X153800Y275400D03*
X154900Y333400D03*
X155700Y329800D03*
X155600Y326100D03*
X155000Y352800D03*
Y345300D03*
Y337800D03*
Y367700D03*
X155900Y360600D03*
X159100Y391900D03*
X160000Y399200D03*
X160200Y423400D03*
Y445800D03*
Y468200D03*
Y483100D03*
X142900Y553300D03*
X155800Y553400D03*
X149000Y658500D03*
X145000D03*
X159900Y676200D03*
X159800Y668600D03*
X153270Y669530D03*
X170400Y23700D03*
X161800Y13000D03*
X169800D03*
X175700Y36100D03*
X161400Y40700D03*
X162500Y104500D03*
X162000Y122700D03*
Y130700D03*
X171200Y210600D03*
X170400Y225200D03*
X173300Y219400D03*
X178400Y225200D03*
X164900Y233100D03*
X171900Y237300D03*
X172900Y233100D03*
X163100Y238500D03*
X178700Y274600D03*
X174700Y268700D03*
X174500Y260300D03*
X165200Y269000D03*
X164900Y275600D03*
X161300Y279800D03*
X161000Y321500D03*
X168200Y333900D03*
X161100Y329900D03*
X166800Y329800D03*
X173100Y329900D03*
X178200Y330000D03*
X178100Y326400D03*
X173300Y326500D03*
X167000Y326400D03*
X161100Y326200D03*
X174700Y348800D03*
X168200Y345300D03*
X162100Y339400D03*
X174500Y354800D03*
X177200Y368500D03*
X163200Y369900D03*
X175300Y361200D03*
X165600Y375800D03*
X178500Y391900D03*
X174800D03*
X171000D03*
X167300D03*
X163600D03*
X166900Y529300D03*
X178100D03*
X178900Y535900D03*
X173900D03*
X179300Y545000D03*
X174300D03*
X162800Y560100D03*
X170500Y553900D03*
X172500Y626800D03*
X179600Y657700D03*
X171000Y658500D03*
X161000D03*
X169840Y680060D03*
X166100Y679800D03*
X175900Y826800D03*
X169000Y878900D03*
X165400Y935000D03*
X180400Y23200D03*
X198500Y9500D03*
X190500D03*
X192800Y16600D03*
X184800D03*
X190350Y23250D03*
X195000Y35400D03*
X185000Y35000D03*
X198600Y40300D03*
X195600D03*
X197100Y42800D03*
Y37800D03*
X198600Y177500D03*
X186800Y196100D03*
X188700Y209000D03*
X194200Y215700D03*
X188700Y217000D03*
X183400Y218600D03*
Y226600D03*
X183700Y254100D03*
X185800Y268800D03*
X196200Y273200D03*
X195150Y333350D03*
X185400Y326000D03*
X190200Y331700D03*
X196700Y325900D03*
X198900Y320600D03*
X188200Y343300D03*
X193800Y357200D03*
X196600Y359200D03*
X185700Y382700D03*
X195300Y392300D03*
X185900Y391900D03*
X182200D03*
X197800Y411200D03*
Y403700D03*
Y396300D03*
Y426100D03*
Y418600D03*
Y433600D03*
X194200Y466100D03*
X189300Y529300D03*
X188900Y535900D03*
X183900D03*
X189300Y545000D03*
X184300D03*
X188300Y553700D03*
X195700Y559600D03*
X184300Y590500D03*
X183258Y611300D03*
X184958Y628958D03*
X185600Y651200D03*
X196500Y664000D03*
Y676400D03*
X187000Y664800D03*
X197000Y692700D03*
X192300Y702400D03*
X182400Y770800D03*
X193700Y812500D03*
X181000Y854200D03*
X182200Y879100D03*
X195400Y935000D03*
X200200Y23600D03*
X210000Y24200D03*
X206500Y9500D03*
X211700Y10600D03*
X200800Y16600D03*
X210400Y38700D03*
X207400D03*
X208900Y41200D03*
Y36200D03*
X218700Y37600D03*
Y53700D03*
X210000Y48900D03*
X215700Y53800D03*
X209700D03*
X205700D03*
Y196300D03*
Y200300D03*
Y204300D03*
X211200Y201900D03*
X204600Y226900D03*
X207300Y229100D03*
X208400Y231700D03*
Y234700D03*
Y237700D03*
X204100Y237600D03*
X217000Y229600D03*
X212000Y261900D03*
X211600Y275200D03*
X212100Y269500D03*
X202300Y281700D03*
X203700Y333400D03*
X211700Y325500D03*
X204600Y326000D03*
X210800Y333100D03*
X203100Y316600D03*
X200300Y347700D03*
X216300Y352600D03*
X212900Y348700D03*
X217400Y354800D03*
X207600Y369300D03*
X218700Y368200D03*
X202800Y392300D03*
X210800Y385200D03*
X211200Y380700D03*
X208800Y374100D03*
X213000Y398800D03*
X202500Y402800D03*
Y410200D03*
X200500Y398800D03*
X213400Y424000D03*
X202500Y417700D03*
Y430300D03*
X216100Y504900D03*
X200500Y529300D03*
X211700D03*
X215700Y540300D03*
X210700D03*
X205700D03*
X200700D03*
X203600Y554000D03*
X215000Y637200D03*
X211800Y646100D03*
X204643Y648158D03*
X229600Y6000D03*
X221600D03*
X237600D03*
X229950Y22950D03*
X233300Y16900D03*
X225300D03*
X219700Y10600D03*
X227700D03*
X235400Y35700D03*
X225300Y35500D03*
X221700Y37600D03*
X220200Y40100D03*
Y35100D03*
X223200Y159900D03*
X228300Y212000D03*
X230700Y205100D03*
X232300Y211900D03*
X234300Y206400D03*
X237600Y239800D03*
X228100Y243400D03*
X231100Y255300D03*
X228700Y240600D03*
X236600Y255500D03*
X223900Y261900D03*
X222900Y275200D03*
X223500Y269500D03*
X231400Y259900D03*
X223700Y273300D03*
X236800Y274100D03*
X219300Y291000D03*
X236900Y291500D03*
X224500Y299300D03*
X225500Y296500D03*
X224300Y332700D03*
X236600Y344600D03*
X225300Y348400D03*
Y364100D03*
X225900Y365800D03*
X222200Y362000D03*
X222800Y385200D03*
X226200Y378600D03*
X220700Y373700D03*
X229500Y404900D03*
X235600Y394500D03*
X220400Y404800D03*
X224100Y466100D03*
X219100Y529300D03*
X227400Y540300D03*
Y562700D03*
Y585000D03*
X227200Y598800D03*
X235400Y600700D03*
X236600Y607700D03*
X224000Y630800D03*
X234500Y638500D03*
X237000Y700800D03*
X227100Y697200D03*
X220600Y706000D03*
X220800Y761300D03*
X225200Y935000D03*
X240750Y22450D03*
X249900Y23300D03*
X251000Y16700D03*
X256000Y11300D03*
X248000D03*
X241300Y16900D03*
X254500Y37900D03*
X254100Y42100D03*
X249600Y41400D03*
X250000Y37700D03*
X241600Y40500D03*
X238600D03*
X240100Y43000D03*
Y38000D03*
X241700Y149500D03*
X254000Y196100D03*
X251300Y204900D03*
X252440Y224800D03*
X254600Y237100D03*
X239500Y238200D03*
X248800Y251700D03*
X240000Y252400D03*
X243600Y249600D03*
X245400Y251750D03*
X244900Y274600D03*
X250100Y271900D03*
X254300D03*
X250300Y268900D03*
X239400Y273700D03*
X240500Y262900D03*
X249500Y264100D03*
X254600Y266100D03*
X252100Y289700D03*
X239400Y292800D03*
X249700Y303700D03*
X252600Y313173D03*
X249400Y299700D03*
X245200Y300700D03*
X250500Y311400D03*
X245800Y309700D03*
X242900Y296700D03*
X250300Y325150D03*
X252100Y320400D03*
Y331800D03*
X252000Y318000D03*
X238300Y340900D03*
X239300Y338600D03*
X239900Y348000D03*
X249900Y334700D03*
X240200Y342700D03*
X250600Y336600D03*
X249600Y350500D03*
X246400Y354600D03*
X239700Y354500D03*
X239200Y360200D03*
X240900Y356600D03*
X240300Y379100D03*
X250000Y383400D03*
X244200Y383500D03*
X252100Y381000D03*
X246800Y377200D03*
X257000Y379500D03*
X249900Y377000D03*
X242400Y395800D03*
X248300Y395600D03*
X244600Y407700D03*
X250000Y407500D03*
X255200Y409600D03*
X244600Y395800D03*
X255200Y397300D03*
X240300Y412800D03*
X256900Y429500D03*
X242300Y427600D03*
X255400Y412800D03*
X248100Y438900D03*
X250900Y447900D03*
X246500Y466100D03*
X250600Y583900D03*
X239700Y584100D03*
X253700Y600700D03*
X255600Y598100D03*
X248700Y604800D03*
X246300Y608200D03*
X253900Y622900D03*
X255600Y609300D03*
X247400Y660000D03*
X250200Y645100D03*
X247600Y679000D03*
X248000Y666700D03*
X247900Y673200D03*
X241200Y665500D03*
X257200Y692200D03*
X240600Y690800D03*
X247800Y702800D03*
X250000Y728200D03*
X247900Y722500D03*
X247400Y761800D03*
X245900Y774800D03*
X241700Y768800D03*
X243500Y793100D03*
X255200Y792700D03*
X249700Y780400D03*
X243300Y787100D03*
X239500Y825500D03*
X252900Y866700D03*
X255000Y935000D03*
X260100Y23600D03*
X259000Y16700D03*
X267000D03*
X264000Y11300D03*
X265500Y37100D03*
X268600Y36600D03*
X265700Y41100D03*
X261100Y43000D03*
X269800Y133300D03*
X259200Y173900D03*
X275800Y196600D03*
X257800Y182700D03*
X275900Y183700D03*
X274800Y208200D03*
X260600Y214200D03*
X275200Y227000D03*
X274600Y237900D03*
X259700Y252600D03*
X260800Y239900D03*
X270800Y238500D03*
X267300Y239100D03*
X258800Y242600D03*
X259500Y269600D03*
X261900Y267300D03*
X268300Y379800D03*
X266000Y378300D03*
X263800Y410600D03*
X262600Y396000D03*
X274900Y399000D03*
X260200Y408200D03*
X265900D03*
X271300Y408400D03*
X274700Y409900D03*
X270300Y416000D03*
X268800Y432700D03*
X275100Y438000D03*
X263100Y439800D03*
X276300Y466100D03*
X275700Y504900D03*
X263600Y584500D03*
X270500Y598100D03*
X262000Y596200D03*
X270500Y621100D03*
Y605600D03*
X268500Y632700D03*
X270200Y624200D03*
X262200Y640100D03*
X272900Y653700D03*
X273100Y648100D03*
X259700Y660000D03*
X260600Y679000D03*
X273400Y720400D03*
X272900Y718200D03*
X273900Y722200D03*
X261700Y732100D03*
X261300Y734200D03*
X262300Y724300D03*
X272700Y730100D03*
X260200Y722500D03*
X273800Y757800D03*
X261650Y752850D03*
X261000Y742100D03*
X274700Y752100D03*
X260900Y755600D03*
X272900Y744000D03*
X273000Y746000D03*
X273400Y777600D03*
Y759700D03*
X272500Y775500D03*
X273500Y767700D03*
X274900Y769700D03*
X272900Y773400D03*
X273300Y771300D03*
X258100Y774800D03*
X272500Y779700D03*
X292100Y53600D03*
X288900Y46500D03*
X278100Y174600D03*
X285900Y187600D03*
X294100Y192900D03*
X292000Y213300D03*
X285200Y213100D03*
X291800Y209100D03*
X292100Y237800D03*
X292300Y221200D03*
X283200Y240300D03*
X288000Y253100D03*
X291950Y253150D03*
X276900Y239000D03*
X286200Y241000D03*
X294200Y240600D03*
X282200Y263200D03*
X290100Y271900D03*
X291000Y268200D03*
X278800Y302600D03*
X289100Y312600D03*
X286000Y377700D03*
X293200Y378200D03*
X288700Y380100D03*
X286500Y410600D03*
X284000Y408100D03*
X292200Y407400D03*
X278200Y411500D03*
X286800Y426900D03*
X290200Y416500D03*
X294200Y426800D03*
X279800Y434400D03*
X293400Y564100D03*
X293100Y582400D03*
X281300Y585000D03*
X280800Y596300D03*
X288400Y599700D03*
X288200Y605600D03*
X287900Y615500D03*
X279900Y615600D03*
X285500Y641000D03*
X288000Y624000D03*
X286700Y627400D03*
X293600Y643700D03*
X285100Y654400D03*
X284800Y649500D03*
X282800Y667600D03*
X284700Y787400D03*
X282300Y787600D03*
X278766Y798800D03*
X281100Y798100D03*
X284500Y809400D03*
X290800Y816300D03*
X295100Y812000D03*
X278900Y814500D03*
X291000Y804500D03*
X277200Y801700D03*
X282500Y818000D03*
X284900Y935000D03*
X304100Y53500D03*
X314600Y46200D03*
X301500Y46400D03*
X311800Y65200D03*
X308200Y161100D03*
X306950Y183550D03*
X310600Y213200D03*
X298100Y209300D03*
X299200Y213500D03*
X312800Y213900D03*
X301200Y228800D03*
X301000Y232700D03*
X301100Y236900D03*
X298300Y238300D03*
X304800Y238400D03*
X307800D03*
X311800D03*
X299000Y267200D03*
X303500Y303200D03*
X302400Y315100D03*
X302200Y331200D03*
X303200Y342500D03*
X301600Y372700D03*
X314500Y379200D03*
X301821Y377500D03*
X309200Y377000D03*
X314100Y409200D03*
X303900D03*
X309500D03*
Y397000D03*
X299400Y399100D03*
X310000Y412700D03*
X301500Y413900D03*
X309000Y443900D03*
X303700Y443800D03*
X298700Y466100D03*
X309900Y564100D03*
X302700Y555000D03*
X302100Y574300D03*
X301600Y610600D03*
X309900Y635600D03*
X305700Y626400D03*
X306325Y656475D03*
X310300Y644700D03*
X305000Y647200D03*
X306900Y644400D03*
X303400Y810400D03*
X311900Y807800D03*
X305500Y809500D03*
Y822200D03*
X300600Y827900D03*
X296800Y848700D03*
X314400Y866600D03*
X314700Y935000D03*
X332276Y22600D03*
X329000Y9200D03*
X321000D03*
X325424Y37800D03*
X322576D03*
X315500Y53500D03*
X324100Y75000D03*
X332600Y166300D03*
X327400Y181600D03*
X334200Y182000D03*
X315700Y187900D03*
X333500Y199300D03*
X325700Y200500D03*
X331200Y201900D03*
Y207600D03*
X327900Y200200D03*
X319900Y211200D03*
X319400Y203400D03*
X317200Y227300D03*
X331500Y233900D03*
X331250Y231150D03*
X315300Y222100D03*
X315800Y238400D03*
X333600Y239300D03*
X326700Y240100D03*
X330400Y272100D03*
X325400Y309000D03*
X332000Y297500D03*
X331200Y302300D03*
X325500Y311800D03*
X331700Y317100D03*
X319300Y379500D03*
X323900Y379900D03*
X334000Y379500D03*
X329900Y379300D03*
X316777Y377123D03*
X327700Y404500D03*
X329400Y414300D03*
X324600Y413100D03*
X328500Y443400D03*
X317700Y448100D03*
X331900Y442100D03*
X323500Y444200D03*
X328600Y466100D03*
X320500Y504900D03*
X330400Y563700D03*
X322600Y553600D03*
X321100Y574200D03*
X330400Y582200D03*
X331800Y595200D03*
X324600Y601600D03*
X325900Y589700D03*
X320800Y590100D03*
X327200Y601400D03*
X331100Y641500D03*
X317400Y640800D03*
X316400Y642800D03*
X317400Y627800D03*
X334500Y633100D03*
X326100Y641600D03*
X322200Y640100D03*
X324042Y656842D03*
X327979Y667300D03*
X321200Y810200D03*
X328000Y811400D03*
Y799200D03*
X351976Y22200D03*
X335124Y22600D03*
X337000Y9200D03*
X345224Y36076D03*
X342376D03*
X350700Y99400D03*
X336500Y86000D03*
X346400Y194500D03*
X345200Y181000D03*
X343000Y190900D03*
X341900Y200300D03*
X340000Y208500D03*
X335400Y227300D03*
X345100Y240600D03*
X340400Y273100D03*
X337500Y270700D03*
X341600Y269500D03*
X336800Y267500D03*
X341000Y292600D03*
X344900Y292800D03*
X350400Y293000D03*
X353800Y315100D03*
X344800Y309000D03*
X341100Y309700D03*
X345000Y302000D03*
X344800Y297500D03*
X350100Y302100D03*
X350300Y297400D03*
X347250Y327250D03*
X349300Y322800D03*
X337400Y331400D03*
X339000Y338200D03*
X341900Y352543D03*
X334700Y350575D03*
X349200Y334827D03*
X340400Y367900D03*
X351800Y354512D03*
X348214Y362386D03*
X340054Y364354D03*
X342000Y358449D03*
X337200Y360417D03*
X345200Y356480D03*
X349200Y376300D03*
X344000Y411200D03*
X337100Y407000D03*
X347500Y408500D03*
X340300Y410400D03*
X351600Y411900D03*
X337400Y420000D03*
X346777Y435123D03*
X351400Y433400D03*
X339300Y435400D03*
X351000Y466100D03*
X342200Y601400D03*
X348400Y605200D03*
X349800Y631900D03*
X349400Y636100D03*
X335600Y642200D03*
X350500Y644500D03*
X339900Y643300D03*
Y656300D03*
X337800Y782800D03*
X341300Y812200D03*
X346400Y812100D03*
X341300Y799200D03*
X353000Y825500D03*
X343900Y818500D03*
X339700Y861600D03*
X344500Y935000D03*
X370650Y24250D03*
X354824Y22200D03*
X365800Y9200D03*
X364624Y34676D03*
X361776D03*
X365600Y112500D03*
X372600Y126900D03*
X372000Y189700D03*
X357900Y196500D03*
X369700Y207800D03*
X368200Y239900D03*
X365800Y253600D03*
X370400Y257700D03*
X370300Y263700D03*
X367091Y279709D03*
X369900Y279900D03*
X355105Y311205D03*
X354300Y332858D03*
X371336Y338764D03*
X369700Y342700D03*
X368702Y380102D03*
X359000Y391800D03*
X366700Y393800D03*
X365250Y405450D03*
X369800Y437500D03*
X362700Y441900D03*
X370400Y431300D03*
X371400Y466300D03*
X365300Y504900D03*
X365800Y531600D03*
X364500Y544900D03*
X363100Y561200D03*
X365200Y584300D03*
X365000Y596900D03*
X370900Y590700D03*
X368200Y600900D03*
X363800Y631200D03*
X356700Y634400D03*
X356800Y640400D03*
X359500Y656300D03*
X369400Y644100D03*
X363300Y644200D03*
X354900Y643900D03*
X365000Y807600D03*
X365500Y825400D03*
X371600Y822400D03*
X361900Y854800D03*
X359600Y935000D03*
X391100Y23600D03*
X381050Y23550D03*
X373800Y9200D03*
X381800D03*
X373700Y145000D03*
X374300Y167300D03*
X376900Y196900D03*
X375200Y184900D03*
X383200Y216400D03*
X384300Y204700D03*
Y234400D03*
X375400Y218800D03*
X384100Y239700D03*
X373700Y240300D03*
X383100Y255400D03*
X376700Y269900D03*
X378300Y263100D03*
X376450Y273350D03*
X375200Y285700D03*
X378800Y279200D03*
X376000Y279700D03*
X389700Y304324D03*
Y301476D03*
X386500Y312976D03*
X384700Y320400D03*
X385500Y327600D03*
Y324751D03*
X386500Y315824D03*
X382300Y331200D03*
X376768Y340732D03*
X391000Y335100D03*
X388650Y337050D03*
X386800Y335100D03*
X383200Y368400D03*
X390500Y402200D03*
X382400Y399400D03*
X380800Y393800D03*
X387100Y394400D03*
X374700Y435200D03*
X378200Y600900D03*
X388200D03*
X374700Y655500D03*
X391000Y655700D03*
X381900Y644100D03*
X374900Y644200D03*
X381128Y788028D03*
X385000Y810000D03*
X373300Y810300D03*
X376400Y801500D03*
X378150Y823350D03*
X374300Y818100D03*
X383350Y836850D03*
X389400Y935000D03*
X411050Y24150D03*
X410500Y9200D03*
X405350Y292350D03*
X396200Y311900D03*
Y309000D03*
X402000Y330900D03*
X402900Y320900D03*
Y318051D03*
X393500Y337100D03*
X406900Y352543D03*
X404700Y350575D03*
X408400Y346638D03*
X395600Y342500D03*
X392800Y368900D03*
X396600Y371500D03*
X398100Y378200D03*
X397100Y375400D03*
X393600Y407800D03*
X395100Y401500D03*
X395000Y413800D03*
X394900Y424400D03*
X395100Y434000D03*
X410300Y506200D03*
Y498200D03*
Y514200D03*
X396200Y600900D03*
X406200D03*
X393800Y637300D03*
X403400Y646500D03*
X401000Y656600D03*
X409500Y661400D03*
X398700Y667000D03*
X400700Y666400D03*
X407200Y666600D03*
X411200Y678300D03*
X404600Y714500D03*
X404400Y734200D03*
X404300Y736200D03*
X403700Y726000D03*
X393351Y730253D03*
X404700Y729000D03*
X393351Y728284D03*
X402200Y732221D03*
X410357Y755843D03*
X411012Y757812D03*
X404780Y759780D03*
X403597Y777497D03*
X406686Y765686D03*
X404254Y767654D03*
X408051Y761749D03*
X409183Y763717D03*
X405965Y779465D03*
X409600Y804800D03*
X408600Y814200D03*
X406850Y823350D03*
X402050Y836950D03*
X400800Y864800D03*
X420650Y23950D03*
X418500Y9200D03*
X426500D03*
X413000Y37300D03*
X426500Y41000D03*
X424200Y38800D03*
X431000Y35800D03*
X427900Y273900D03*
X427600Y279000D03*
X427500Y331900D03*
X428400Y320100D03*
X414350Y350150D03*
X421200Y353500D03*
X419600Y346200D03*
X424700Y357600D03*
X413850Y356050D03*
X421400Y358449D03*
X426900Y360417D03*
X416300Y458800D03*
Y466800D03*
Y450800D03*
X426100Y463000D03*
Y471000D03*
Y479000D03*
Y507800D03*
Y515800D03*
Y523800D03*
X421136Y547178D03*
X420393Y566034D03*
X414736Y560378D03*
X426793Y552834D03*
X426050Y571691D03*
X425600Y597600D03*
X425300Y608200D03*
X412900Y613000D03*
X422800Y639000D03*
X429200Y658200D03*
X430600Y650500D03*
X425700Y677900D03*
X424100Y671400D03*
X427200Y664700D03*
X429676Y671676D03*
X417600Y672100D03*
X419100Y684600D03*
X428300Y684200D03*
X422500Y686600D03*
X428976Y715500D03*
X430900Y718300D03*
X413100Y738200D03*
X422551Y737700D03*
X425400D03*
X427576Y725300D03*
X430424D03*
X411900Y740095D03*
X413425Y753875D03*
X428500Y765300D03*
X418300Y770500D03*
X424400Y854500D03*
X419300Y935000D03*
X419200D03*
X436100Y23200D03*
X446000Y23400D03*
X434000Y38300D03*
X433500Y35900D03*
X448300Y303300D03*
X432100Y317000D03*
X441600Y333900D03*
X439100Y349300D03*
X445300Y356100D03*
X431914Y362386D03*
X438054Y364354D03*
X435400Y360700D03*
X432450Y558491D03*
X431700Y603100D03*
X435700Y621600D03*
X435900Y612600D03*
X435700Y625300D03*
X439100Y654500D03*
X438000Y661300D03*
X436776Y676876D03*
Y679724D03*
X434100Y673651D03*
Y676500D03*
X440300Y681176D03*
X436500Y666300D03*
X447400Y687076D03*
X444276Y696400D03*
X447400Y689924D03*
X447124Y696400D03*
X444736Y683040D03*
Y685889D03*
X440300Y684024D03*
X431824Y715500D03*
X440551Y703200D03*
X443400D03*
X440600Y706700D03*
X435700Y758600D03*
X448400Y815200D03*
X436500Y812600D03*
X448400Y845000D03*
Y874900D03*
X449100Y935000D03*
X450850Y24150D03*
X463300Y9200D03*
X455300D03*
X460400Y23500D03*
X457900Y39600D03*
X465000Y39400D03*
X462800Y36600D03*
X457500D03*
X454000Y36700D03*
X457200Y97500D03*
X468800Y109500D03*
X460300Y256100D03*
X460600Y286900D03*
X451900Y288100D03*
X467100Y293900D03*
X463300Y302900D03*
X453724Y307076D03*
X464700Y330100D03*
X453100Y332100D03*
X461300Y362600D03*
X461000Y367900D03*
Y371700D03*
X460800Y355900D03*
X469500Y658200D03*
X459000Y672400D03*
X461700Y669400D03*
X456200Y675800D03*
X466100Y664700D03*
X471300Y9200D03*
X481100Y23700D03*
X476900Y40300D03*
X482800Y40200D03*
X479000Y37400D03*
X474000D03*
X487019Y65202D03*
X483900Y131300D03*
X472400Y132800D03*
X483900Y161100D03*
X472700Y165800D03*
X483900Y191000D03*
X472700Y195600D03*
X483900Y220800D03*
X472700Y225500D03*
X483600Y254000D03*
X472700Y255400D03*
X486100Y270100D03*
X481100Y266100D03*
X486000Y281900D03*
X476200Y283600D03*
X474000Y288400D03*
X487700Y303400D03*
X479500Y306800D03*
X469700Y297700D03*
X476000Y332500D03*
X477400Y353000D03*
X486300Y346200D03*
X481900Y350700D03*
X471100Y369400D03*
X485100Y368900D03*
X479300Y365200D03*
X481500Y386500D03*
X480100Y407200D03*
Y423200D03*
Y415200D03*
Y445100D03*
Y437100D03*
X481700Y466200D03*
X480100Y453100D03*
X481700Y482200D03*
Y474200D03*
X486400Y600600D03*
Y592600D03*
Y608600D03*
X472700Y650500D03*
X487000Y657300D03*
Y673300D03*
Y665300D03*
X477300Y851700D03*
Y886200D03*
X478900Y935000D03*
X508100Y9200D03*
X500100D03*
X491800Y23400D03*
X496100Y40100D03*
X492800Y36600D03*
X497176Y58559D03*
X502833Y64215D03*
X491519Y52902D03*
X492676Y70859D03*
X498333Y76515D03*
X505900Y285600D03*
X497500Y277300D03*
X506100Y300800D03*
X496300Y327400D03*
X501400Y341200D03*
X497000Y372700D03*
Y361300D03*
X497200Y364600D03*
X491900Y386100D03*
Y378700D03*
X496900Y641700D03*
Y657700D03*
Y649700D03*
X498129Y735688D03*
X503786Y730031D03*
X506600Y724900D03*
X498372Y749645D03*
X504029Y743988D03*
X492472Y741345D03*
X501700Y757800D03*
X507800Y755000D03*
X501900Y778100D03*
X501700Y766400D03*
X490600Y766500D03*
X501800Y788400D03*
X507100Y788800D03*
X491300Y806800D03*
X507100Y851700D03*
Y886200D03*
X493900Y935000D03*
X516100Y9200D03*
X525119Y147202D03*
X522500Y278200D03*
X524300Y313900D03*
X510600Y330400D03*
X519900Y328900D03*
Y321400D03*
X524400Y341000D03*
X510600Y335900D03*
Y341600D03*
X527000Y359900D03*
X527100Y354900D03*
X521900Y398800D03*
Y395400D03*
X525900Y401100D03*
X521900Y401800D03*
X525200Y427900D03*
X527300Y429900D03*
X521900Y419600D03*
X522400Y424900D03*
X525000Y425200D03*
X515900Y680500D03*
Y672500D03*
Y664500D03*
X522800Y716000D03*
X509686Y738331D03*
X520200Y736500D03*
X518300Y731900D03*
X526200Y755500D03*
X525900Y750500D03*
X517800Y777600D03*
X521000Y760000D03*
X514700Y765300D03*
X517500Y763000D03*
X512200Y788600D03*
X517600Y788500D03*
X517800Y781700D03*
X526300Y788400D03*
X521200Y806800D03*
X522700Y827900D03*
Y872700D03*
Y902500D03*
X523700Y935000D03*
X528319Y98302D03*
X533976Y103959D03*
X539633Y109615D03*
X530776Y152859D03*
X536433Y158515D03*
X529600Y193800D03*
Y185800D03*
Y215700D03*
Y201800D03*
Y223700D03*
Y231700D03*
Y268500D03*
Y276500D03*
Y260500D03*
X528600Y287500D03*
X533700Y282300D03*
X530200Y315100D03*
X536900Y314200D03*
X529800Y304600D03*
X528800Y322500D03*
X536100Y347700D03*
X531750Y340550D03*
X527900Y367900D03*
X536300Y364900D03*
X534300Y387600D03*
X527600Y377600D03*
X527700Y373200D03*
X536200Y381600D03*
X540100Y407800D03*
X544100Y401200D03*
X534700Y419500D03*
X534840Y415740D03*
X536800Y421600D03*
X546600Y429700D03*
X530900Y430000D03*
X540000Y416000D03*
X544100Y411800D03*
X533470Y413770D03*
X533600Y411800D03*
X544200Y423100D03*
X546070Y421470D03*
X542130Y423630D03*
X542400Y693900D03*
X534800Y698500D03*
X533100Y711800D03*
X531600Y713900D03*
X542200Y701700D03*
X542800Y705600D03*
X534300D03*
X532400Y734200D03*
X528100Y732100D03*
X534300Y735600D03*
X532100Y732300D03*
X530700Y728800D03*
X537200Y721000D03*
X537400Y728200D03*
X545500Y728500D03*
X544900Y720900D03*
X541400Y725000D03*
X531470Y726970D03*
X531600Y725000D03*
X541300Y735900D03*
X543500D03*
X539400Y735800D03*
X538300Y745400D03*
X540700Y740800D03*
X542100Y745700D03*
X535500Y750700D03*
X531500Y750300D03*
X544400Y741900D03*
X531800Y755500D03*
X534000Y766400D03*
X536400Y762700D03*
X535100Y781300D03*
X534200Y788300D03*
X536900Y851700D03*
Y886200D03*
X561600Y314600D03*
X555600D03*
X561200Y318700D03*
X561000Y324500D03*
X556500Y328200D03*
X556200Y333400D03*
X560600Y336300D03*
X561600Y342400D03*
X555500Y347700D03*
X559100Y364900D03*
X554600Y367300D03*
X561200Y368800D03*
X561800Y356600D03*
X555300Y362900D03*
X561600Y373700D03*
X547500Y387400D03*
X563800Y391300D03*
X554230Y409830D03*
X554500Y396700D03*
X564200Y402200D03*
X547600Y399600D03*
X548100Y407900D03*
X548040Y401660D03*
X549600Y421900D03*
X556200Y420500D03*
X553800Y420400D03*
X554200Y411800D03*
X559300Y421300D03*
X563900Y421100D03*
X559300Y430300D03*
X548200Y416000D03*
X554460Y415740D03*
X547000Y435300D03*
X556900Y433300D03*
X558100Y436500D03*
X552200Y437100D03*
X555700Y694100D03*
Y699000D03*
X547100Y714300D03*
Y709000D03*
Y712000D03*
X551100Y713300D03*
X555700Y713200D03*
X554100Y705200D03*
X546950Y732450D03*
X551000Y725000D03*
X550100Y734400D03*
X549800Y736300D03*
X564700Y724600D03*
X551600Y732700D03*
X548800Y750000D03*
X565600Y741100D03*
X547400Y757300D03*
X561900Y757400D03*
X555800Y751700D03*
X558800Y771800D03*
X547200Y761800D03*
X561800Y764400D03*
X555600Y768000D03*
X551250Y760150D03*
X566000Y791900D03*
X551000Y806800D03*
X552500Y827900D03*
Y872700D03*
Y902500D03*
X553500Y935000D03*
X578700Y45000D03*
Y53000D03*
Y61000D03*
Y97800D03*
Y89800D03*
Y105800D03*
Y134500D03*
Y142500D03*
Y150500D03*
Y179900D03*
Y187900D03*
Y195900D03*
Y232700D03*
Y224700D03*
Y240700D03*
Y269500D03*
Y277500D03*
Y285500D03*
Y314300D03*
Y322300D03*
Y330300D03*
Y367700D03*
Y359700D03*
Y375700D03*
X571300Y402300D03*
X571500Y409400D03*
X571100Y421500D03*
X570900Y415100D03*
X566800Y718500D03*
X575000Y733600D03*
X584600Y741600D03*
X568900Y757100D03*
X575100Y752300D03*
X569200Y763000D03*
X582600Y760300D03*
X574700Y766700D03*
X582300Y827900D03*
Y872700D03*
Y902500D03*
G54D22*
G01X0Y0D02*
X590550D01*
Y984250D01*
X0D01*
Y0D01*
G54D13*
X21300Y67400D03*
Y83000D03*
Y98600D03*
Y114200D03*
G54D23*
G01X261000Y742100D02*
X250200D01*
X245100Y737000D01*
X174200D01*
X120300Y683100D01*
Y666600D01*
G01X261300Y734200D02*
X246100D01*
X243700Y731800D01*
X179500D01*
X129100Y681400D01*
Y615400D01*
X121600Y607900D01*
G01X179600Y657700D02*
X190200D01*
X196500Y664000D01*
G01Y676400D02*
Y677104D01*
X251496Y732100D01*
X261700D01*
G01X200300Y347700D02*
X202200Y349600D01*
X207900D01*
X210900Y352600D01*
X216300D01*
G01X285900Y187600D02*
X277900D01*
X225900Y239600D01*
Y289600D01*
X223400Y292100D01*
Y298200D01*
X224500Y299300D01*
G01X239400Y292800D02*
Y289800D01*
X229400Y279800D01*
Y245400D01*
X260600Y214200D01*
G01X236600Y255500D02*
Y243900D01*
X287600Y192900D01*
X294100D01*
G01X236600Y344600D02*
X267200D01*
X278500Y355900D01*
X309000D01*
X321400Y368300D01*
X337904D01*
X360700Y391096D01*
Y391100D01*
X363400Y393800D01*
X366700D01*
G01X225300Y364100D02*
X248200D01*
X278368Y394268D01*
Y396368D01*
X291100Y409100D01*
X293200D01*
X317700Y433600D01*
Y448100D01*
G01X225900Y365800D02*
X245788D01*
X274300Y394312D01*
Y395800D01*
X284700Y406200D01*
X284704D01*
X285700Y407196D01*
Y407200D01*
X294200Y415700D01*
Y426800D01*
G01X331900Y442100D02*
Y441255D01*
X285905Y395260D01*
Y394106D01*
X253699Y361900D01*
X222300D01*
X222200Y362000D01*
G01X240000Y252400D02*
Y249200D01*
X278000Y211200D01*
X319900D01*
G01X319400Y203400D02*
X281900D01*
X276500Y208800D01*
Y208904D01*
X275504Y209900D01*
X275404D01*
X240404Y244900D01*
X240400D01*
X238200Y247100D01*
Y253500D01*
X240500Y255800D01*
Y262900D01*
G01X243600Y249600D02*
X245000D01*
X278800Y215800D01*
X295500D01*
X297000Y217300D01*
X373900D01*
X375400Y218800D01*
G01X245400Y251750D02*
X245450D01*
X276000Y221200D01*
X292300D01*
G01X427900Y273900D02*
X409600D01*
X398900Y284600D01*
X376600D01*
X373846Y281846D01*
X363154D01*
X361600Y283400D01*
X265700D01*
X249400Y299700D01*
G01X245200Y300700D02*
Y300400D01*
X266060Y279540D01*
X359460D01*
X361500Y277500D01*
X382000D01*
X383700Y279200D01*
X392900D01*
X402000Y270100D01*
X486100D01*
G01X252100Y289700D02*
X266000Y275800D01*
X382546D01*
X392246Y266100D01*
X481100D01*
G01X242900Y296700D02*
Y295500D01*
X269000Y269400D01*
Y252000D01*
X293900Y227100D01*
X310300D01*
X315300Y222100D01*
G01X427600Y279000D02*
X411000D01*
X401300Y288700D01*
X365600D01*
X364200Y287300D01*
X266100D01*
X249700Y303700D01*
G01X252600Y313173D02*
X253127D01*
X266524Y299776D01*
X467624D01*
X469700Y297700D01*
G01X250500Y311400D02*
X251500D01*
X267275Y295625D01*
X465375D01*
X467100Y293900D01*
G01X474000Y288400D02*
X471800Y290600D01*
X267200D01*
X248100Y309700D01*
X245800D01*
G01X432100Y317000D02*
X410600D01*
X404549Y323051D01*
X379649D01*
X377550Y325150D01*
X250300D01*
G01X384700Y320400D02*
X252100D01*
G01X477400Y353000D02*
X451900D01*
X439400Y340500D01*
X401200D01*
X396900Y344800D01*
X330700D01*
X319500Y333600D01*
X251000D01*
X249900Y334700D01*
G01X428400Y320100D02*
X411600D01*
X406300Y325400D01*
X390104D01*
X386204Y329300D01*
X374300D01*
X372121Y327121D01*
X361179D01*
X359350Y328950D01*
X346546D01*
X346496Y328900D01*
X255000D01*
X252100Y331800D01*
G01X252000Y318000D02*
X253000D01*
X264300Y306700D01*
X392600D01*
X396000Y303300D01*
X448300D01*
G01X421200Y353500D02*
X408348D01*
X405548Y356300D01*
X350100D01*
X348580Y354780D01*
X322680D01*
X320100Y352200D01*
X294300D01*
X283000Y340900D01*
X238300D01*
G01X419600Y346200D02*
X412800D01*
X410125Y348875D01*
X402125D01*
X398500Y352500D01*
X347100D01*
X343475Y348875D01*
X298375D01*
X288100Y338600D01*
X239300D01*
G01X239900Y348000D02*
X264300D01*
X274800Y358500D01*
X303000D01*
X315500Y371000D01*
X331697D01*
X359100Y398403D01*
Y401704D01*
X374700Y417304D01*
Y435200D01*
G01X240200Y342700D02*
X273800D01*
X285200Y354100D01*
X315100D01*
X327054Y366054D01*
X342354D01*
X349900Y373600D01*
X432100D01*
X443100Y362600D01*
X461300D01*
G01X439100Y349300D02*
X433400Y343600D01*
X402000D01*
X398300Y347300D01*
X311900D01*
X301200Y336600D01*
X250600D01*
G01X351600Y411900D02*
Y405196D01*
X321504Y375100D01*
X309700D01*
X295000Y360400D01*
X273600D01*
X267800Y354600D01*
X246400D01*
G01X239700Y354500D02*
X242200D01*
X244300Y356600D01*
X267000D01*
X273700Y363300D01*
X281473D01*
X337400Y419227D01*
Y420000D01*
G01X239200Y360200D02*
X239400Y360000D01*
X259673D01*
X293779Y394106D01*
Y396379D01*
X301600Y404200D01*
X309100D01*
X314100Y409200D01*
G01X351400Y433400D02*
X341100D01*
X309300Y401600D01*
X307993D01*
X293793Y387400D01*
X291500D01*
X262000Y357900D01*
X242200D01*
X240900Y356600D01*
G01X240300Y379100D02*
X252596D01*
X252796Y379300D01*
X252804D01*
X253800Y380296D01*
Y380304D01*
X289996Y416500D01*
X290200D01*
G01X250000Y383400D02*
Y389000D01*
X269100Y408100D01*
Y409300D01*
X275100Y415300D01*
Y438000D01*
G01X270300Y416000D02*
X265500D01*
X246500Y397000D01*
Y385800D01*
X244200Y383500D01*
G01X248700Y604800D02*
Y644196D01*
X248500Y644396D01*
Y649000D01*
X250300Y650800D01*
Y715700D01*
X258900Y724300D01*
X262300D01*
G01X241200Y665500D02*
X242300Y666600D01*
Y719400D01*
X248000Y725100D01*
X254800D01*
X259800Y730100D01*
X272700D01*
G01X272900Y718200D02*
X268300Y713600D01*
Y632900D01*
X268500Y632700D01*
G01X273400Y720400D02*
X276350Y717450D01*
Y698350D01*
X300588Y674112D01*
Y611612D01*
X301600Y610600D01*
G01X348400Y605200D02*
Y613900D01*
X329100Y633200D01*
Y654188D01*
X294900Y688388D01*
Y703800D01*
X276600Y722100D01*
X274000D01*
X273900Y722200D01*
G01X403400Y646500D02*
X389700D01*
X381551Y654649D01*
X380454D01*
X379400Y655703D01*
Y656800D01*
X278400Y757800D01*
X273800D01*
G01X349800Y631900D02*
X345600Y636100D01*
Y671300D01*
X272900Y744000D01*
G01X412900Y613000D02*
X410596D01*
X336700Y686896D01*
Y689800D01*
X280500Y746000D01*
X273000D01*
G01X273400Y759700D02*
X278700D01*
X286600Y751800D01*
X418000D01*
X428500Y762300D01*
Y765300D01*
G01X292100Y237800D02*
Y249000D01*
X288000Y253100D01*
G01X291950Y253150D02*
X298300Y246800D01*
Y238300D01*
G01X297900Y650658D02*
X295158D01*
X285500Y641000D01*
G01X427500Y331900D02*
X423100Y336300D01*
X398400D01*
X392000Y342700D01*
X369700D01*
G01X366800Y638500D02*
Y649000D01*
X359500Y656300D01*
G01X358900Y650658D02*
Y636100D01*
X363800Y631200D01*
G01X358900Y758658D02*
Y759000D01*
X368300Y768400D01*
Y786989D01*
X367517Y787772D01*
Y789263D01*
X368300Y790046D01*
Y822600D01*
X365500Y825400D01*
G01X376450Y273350D02*
X389300Y260500D01*
X504800D01*
X522500Y278200D01*
G01X497500Y277300D02*
X492400Y272200D01*
X405900D01*
X397100Y281000D01*
X377300D01*
X376000Y279700D01*
G01X496300Y327400D02*
X494700Y325800D01*
X411200D01*
X409200Y327800D01*
X398900D01*
X391600Y335100D01*
X391000D01*
G01X464700Y330100D02*
X464100Y329500D01*
X411100D01*
X409700Y330900D01*
X402000D01*
G01X392800Y368900D02*
X413400D01*
X424700Y357600D01*
G01X396600Y371500D02*
X429900D01*
X436354Y365046D01*
Y363650D01*
X443904Y356100D01*
X445300D01*
G01X397100Y375400D02*
X472800D01*
X479300Y368900D01*
X485100D01*
G54D14*
X14200Y299200D03*
X76900Y76100D03*
X97000Y143800D03*
X151800Y225300D03*
X185400Y458500D03*
X200800Y776200D03*
X220800Y188400D03*
X236300Y47300D03*
X237600Y144200D03*
X251700Y47700D03*
X242600Y56200D03*
X258100Y541900D03*
X275500Y45000D03*
X295200Y636900D03*
X329300Y224200D03*
X333200Y885600D03*
X344000Y93300D03*
X339200Y222400D03*
X366800Y638500D03*
X390400Y386800D03*
X385400Y606400D03*
X378700Y637400D03*
X401800Y396700D03*
X407000Y450500D03*
X401800Y611900D03*
X408100Y788100D03*
X431600Y592600D03*
X438900Y777700D03*
X471100Y153600D03*
X472000Y240500D03*
X469100Y692900D03*
X455300Y704400D03*
X490700Y357000D03*
X484800Y533000D03*
X494300Y454400D03*
X508100Y499200D03*
X526000Y707900D03*
X527500Y806000D03*
G54D15*
X61300Y19126D03*
X273700D03*
X312300D03*
X524700D03*
G54D16*
X59600Y74900D03*
X59800Y67000D03*
X61900Y89000D03*
G54D17*
X55824Y489809D03*
X60824D03*
X65824D03*
X70824D03*
X75824D03*
X80824D03*
Y554769D03*
X75824D03*
X85824Y489809D03*
X90824D03*
X95824D03*
X100824D03*
Y554769D03*
X95824D03*
X90824D03*
X85824D03*
X114900Y596658D03*
Y616342D03*
Y650658D03*
Y670342D03*
Y704658D03*
Y724342D03*
Y758658D03*
Y778342D03*
Y812658D03*
Y832342D03*
Y866658D03*
Y886342D03*
X175900Y596658D03*
Y616342D03*
Y650658D03*
Y670342D03*
Y704658D03*
Y724342D03*
Y758658D03*
Y778342D03*
Y812658D03*
Y832342D03*
Y866658D03*
Y886342D03*
X236900Y596658D03*
Y616342D03*
Y650658D03*
Y670342D03*
Y704658D03*
Y724342D03*
Y758658D03*
Y778342D03*
Y813658D03*
Y833342D03*
Y866658D03*
Y886342D03*
X297900Y596658D03*
Y616342D03*
Y650658D03*
Y670342D03*
Y704658D03*
Y724342D03*
Y758658D03*
Y778342D03*
Y813658D03*
Y833342D03*
Y866658D03*
Y886342D03*
X358900Y596658D03*
Y616342D03*
Y650658D03*
Y670342D03*
Y704658D03*
Y724342D03*
Y758658D03*
Y778342D03*
Y813658D03*
Y833342D03*
Y866658D03*
Y886342D03*
X419900Y596658D03*
Y616342D03*
Y650658D03*
Y670342D03*
Y704658D03*
Y724342D03*
Y758658D03*
Y778342D03*
Y812658D03*
Y832342D03*
Y866658D03*
Y886342D03*
G54D18*
X113600Y737300D03*
Y744800D03*
X128500Y737300D03*
Y744800D03*
Y767200D03*
Y782100D03*
Y797000D03*
Y819400D03*
Y834400D03*
Y849300D03*
X156400Y595600D03*
X155800Y615900D03*
X150800Y687200D03*
X160200Y701700D03*
X143400Y737300D03*
X158300D03*
Y744800D03*
X143400D03*
Y767200D03*
X158300Y782100D03*
X143400D03*
Y804500D03*
X158300D03*
X143400Y834400D03*
Y819400D03*
Y849300D03*
X165800Y687200D03*
Y767200D03*
X173300Y782100D03*
Y804500D03*
X196100Y594700D03*
X195900Y619700D03*
X188200Y728800D03*
Y722400D03*
X195600Y767200D03*
X188200Y782100D03*
Y804500D03*
X190500Y826700D03*
X188800Y883700D03*
X218000Y676200D03*
X211300Y680900D03*
X204600Y694400D03*
X211000Y701300D03*
X203100Y728800D03*
Y722400D03*
X210600Y767200D03*
Y782100D03*
X218000Y804500D03*
X202700D03*
X202300Y816100D03*
X218300Y816400D03*
X218400Y826700D03*
X201700D03*
X211200Y859000D03*
X231349Y263200D03*
X223800Y323016D03*
X225500Y327000D03*
X237400Y380102D03*
X224400Y380000D03*
X220000Y593600D03*
X220800Y622400D03*
X233000Y676200D03*
X226300Y680900D03*
X227300Y717100D03*
X225500Y767200D03*
Y782100D03*
X250640Y253149D03*
X239000Y367800D03*
X250509Y394848D03*
X255300Y833400D03*
X247800Y840900D03*
X255300D03*
X251400Y845600D03*
X244000D03*
X248500Y883700D03*
X262451Y252900D03*
X274262Y253100D03*
X260483Y394851D03*
X272294D03*
X266400Y395600D03*
X271902Y671198D03*
X276100Y671900D03*
X262666Y673166D03*
X262929Y669229D03*
X276100Y686800D03*
X271716Y726316D03*
X262584Y728284D03*
X260700Y783600D03*
X262429Y785371D03*
X262534Y781434D03*
X270200Y833400D03*
X262700D03*
Y840900D03*
X270200D03*
X273800Y845600D03*
X266300D03*
X258800D03*
X270900Y859000D03*
X284105Y394851D03*
X291979D03*
X286640Y657160D03*
X288609Y666291D03*
X294514Y665814D03*
X291300Y671900D03*
X292000Y686700D03*
X286000Y717800D03*
X295500Y748900D03*
X280500Y763900D03*
X295500D03*
X292546Y788346D03*
X288609Y788609D03*
X286640Y798100D03*
X277700Y833400D03*
Y840900D03*
X285100D03*
X288700Y845600D03*
X281200D03*
X297884Y252700D03*
X308700Y379800D03*
X314100Y400200D03*
X303790Y394851D03*
X307727Y395273D03*
X310262Y657538D03*
X298451Y657549D03*
X302388Y667049D03*
X306300Y671900D03*
X304900Y686900D03*
X303900Y702800D03*
X298100Y733900D03*
X310400Y763900D03*
X312231Y797169D03*
X304357Y788757D03*
X309500Y778900D03*
X296300Y798151D03*
X301896D03*
X308294D03*
X308600Y832800D03*
X309000Y842900D03*
X299600Y843000D03*
X308200Y883700D03*
X321506Y253149D03*
X325443D03*
X333317D03*
X317000Y380000D03*
X329700Y394851D03*
X333317D03*
X317300Y395600D03*
X325443Y395300D03*
X329700Y587600D03*
X319500Y608800D03*
X326300Y609600D03*
X333400Y620100D03*
X319300Y620400D03*
X333884Y657184D03*
X322073Y665527D03*
X329947Y665747D03*
X321200Y671900D03*
X319800Y686900D03*
X318600Y702400D03*
X328300Y703300D03*
X323700Y721600D03*
X317900Y734000D03*
X332800D03*
X317900Y748900D03*
X325300Y763900D03*
X315962Y787375D03*
X331916Y797284D03*
X324042Y797058D03*
X316168Y797132D03*
X324400Y778900D03*
X320105Y797007D03*
X327979Y788321D03*
X329700Y823100D03*
X319700Y842800D03*
X330600Y859000D03*
X345128Y253149D03*
X336700Y342900D03*
X352600Y343000D03*
X346100D03*
X337900Y381900D03*
X343800Y379400D03*
X353002Y394851D03*
X337254D03*
X349065D03*
X339500Y636900D03*
Y629500D03*
X349632Y666632D03*
X351601Y666899D03*
X353569Y665669D03*
X336100Y671900D03*
X346500Y704200D03*
X337200Y714300D03*
X347700Y734000D03*
X340200Y748900D03*
Y763900D03*
X351601Y797199D03*
X341758Y796642D03*
X349632Y787000D03*
X353569Y787100D03*
X335853Y796953D03*
X346800Y778900D03*
X339300D03*
X339790Y797990D03*
X334800Y805700D03*
X345900Y798400D03*
X343727Y798827D03*
X345000Y832400D03*
X369898Y267898D03*
X369600Y271100D03*
X368450Y273850D03*
X367751Y313149D03*
X356400Y313300D03*
X368000Y315383D03*
X356300Y327100D03*
X370620Y328921D03*
X369395Y370273D03*
X370091Y368291D03*
X368000Y366323D03*
X354000Y380200D03*
X356900Y379400D03*
X357506Y657306D03*
X361443Y657557D03*
X369317Y657517D03*
X365380Y666200D03*
X373254Y665654D03*
X357100Y686900D03*
X359000Y714100D03*
X362600Y734000D03*
Y748900D03*
X355200Y763900D03*
X369317Y788517D03*
X365380Y788720D03*
X373254Y796946D03*
X361443Y796900D03*
X367900Y883700D03*
X390200Y273200D03*
X388700Y267100D03*
X390700Y286900D03*
X390400Y282800D03*
X389700Y293000D03*
X390100Y277400D03*
X374650Y326950D03*
X374450Y322850D03*
X379000Y584900D03*
Y616500D03*
X381200Y656449D03*
X392300Y674500D03*
X377191Y665691D03*
X385065Y665565D03*
X373400Y671900D03*
X373900Y684200D03*
Y699200D03*
Y714100D03*
X377600Y734000D03*
Y748900D03*
Y763900D03*
X389002Y788302D03*
X376600Y778900D03*
X385065Y797365D03*
X381100Y850600D03*
X408800Y585900D03*
X397800Y586400D03*
X397300Y619500D03*
X411400Y631400D03*
X394040Y681040D03*
X393200Y672321D03*
X403751Y671198D03*
X404500Y679072D03*
X392800Y677700D03*
X393825Y700725D03*
X393151Y686946D03*
X393300Y688914D03*
X393100Y683009D03*
X393151Y773560D03*
X403691Y771591D03*
X393151Y769623D03*
Y781434D03*
X407500Y797600D03*
X401300Y803900D03*
X408700Y850600D03*
X393900D03*
X405200Y859000D03*
X422300Y584300D03*
X427200Y624500D03*
X426200Y797700D03*
X417700Y797600D03*
X429700Y805700D03*
X413300Y825000D03*
X412700Y840300D03*
X412800Y883700D03*
X436600Y583700D03*
X438400Y589200D03*
X447600Y734800D03*
X432800Y788700D03*
X433600Y797700D03*
X431900Y818900D03*
X431500Y840500D03*
X461600Y676800D03*
Y683800D03*
X461200Y697200D03*
X465600Y717000D03*
X455800Y726800D03*
X467400Y778100D03*
X451900Y777900D03*
X451500Y788800D03*
X466900D03*
X465800Y803800D03*
X452000Y803700D03*
X467100Y830600D03*
X451800Y828500D03*
X468300Y865500D03*
X450700Y865200D03*
X457600Y883700D03*
X470500Y620100D03*
Y642500D03*
Y627600D03*
X470700Y670200D03*
X470300Y682600D03*
G54D19*
X139700Y494300D03*
X139800Y513000D03*
X164500Y494300D03*
X164600Y513000D03*
M02*
