G04 ================== begin FILE IDENTIFICATION RECORD ==================*
G04 Layout Name:  E:/Work_File/CEPC/Schematic-amd-PCB-of-DET_V1/FEB_DET_1V0.brd*
G04 Film Name:    drill*
G04 File Format:  Gerber RS274X*
G04 File Origin:  Cadence Allegro 16.6-2015-S066*
G04 Origin Date:  Thu Aug 24 20:47:34 2017*
G04 *
G04 Layer:  MANUFACTURING/NCDRILL_LEGEND*
G04 Layer:  MANUFACTURING/NCDRILL_FIGURE*
G04 Layer:  MANUFACTURING/NCLEGEND-1-8*
G04 Layer:  BOARD GEOMETRY/OUTLINE*
G04 Layer:  BOARD GEOMETRY/DIMENSION*
G04 *
G04 Offset:    (0.000 0.000)*
G04 Mirror:    No*
G04 Mode:      Positive*
G04 Rotation:  0*
G04 FullContactRelief:  No*
G04 UndefLineWidth:     5.000*
G04 ================== end FILE IDENTIFICATION RECORD ====================*
%FSLAX25Y25*MOIN*%
%IR0*IPPOS*OFA0.00000B0.00000*MIA0B0*SFA1.00000B1.00000*%
%AMMACRO20*
1,1,.005,.006,.006*
20,1,.005,.006,.006,.006,-.006,0.0*
1,1,.005,.006,-.006*
20,1,.005,.006,-.006,-.006,-.006,0.0*
1,1,.005,-.006,-.006*
20,1,.005,-.006,-.006,-.006,.006,0.0*
1,1,.005,-.006,.006*
20,1,.005,-.006,.006,.006,.006,0.0*
1,1,.005,.006,.006*
%
%ADD20MACRO20*%
%AMMACRO16*
1,1,.005,.0125,0.0*
20,1,.005,.0125,0.0,-.0125,0.0,0.0*
1,1,.005,-.0125,0.0*
1,1,.005,0.0,.0125*
20,1,.005,0.0,.0125,0.0,-.0125,0.0*
1,1,.005,0.0,-.0125*
%
%ADD16MACRO16*%
%AMMACRO10*
1,1,.005,.02,0.0*
20,1,.005,.02,0.0,.019696,-.003473,0.0*
1,1,.005,.019696,-.003473*
20,1,.005,.019696,-.003473,.018794,-.00684,0.0*
1,1,.005,.018794,-.00684*
20,1,.005,.018794,-.00684,.017321,-.01,0.0*
1,1,.005,.017321,-.01*
20,1,.005,.017321,-.01,.015321,-.012856,0.0*
1,1,.005,.015321,-.012856*
20,1,.005,.015321,-.012856,.012856,-.015321,0.0*
1,1,.005,.012856,-.015321*
20,1,.005,.012856,-.015321,.01,-.017321,0.0*
1,1,.005,.01,-.017321*
20,1,.005,.01,-.017321,.00684,-.018794,0.0*
1,1,.005,.00684,-.018794*
20,1,.005,.00684,-.018794,.003473,-.019696,0.0*
1,1,.005,.003473,-.019696*
20,1,.005,.003473,-.019696,0.0,-.02,0.0*
1,1,.005,0.0,-.02*
20,1,.005,0.0,-.02,-.003473,-.019696,0.0*
1,1,.005,-.003473,-.019696*
20,1,.005,-.003473,-.019696,-.00684,-.018794,0.0*
1,1,.005,-.00684,-.018794*
20,1,.005,-.00684,-.018794,-.01,-.017321,0.0*
1,1,.005,-.01,-.017321*
20,1,.005,-.01,-.017321,-.012856,-.015321,0.0*
1,1,.005,-.012856,-.015321*
20,1,.005,-.012856,-.015321,-.015321,-.012856,0.0*
1,1,.005,-.015321,-.012856*
20,1,.005,-.015321,-.012856,-.017321,-.01,0.0*
1,1,.005,-.017321,-.01*
20,1,.005,-.017321,-.01,-.018794,-.00684,0.0*
1,1,.005,-.018794,-.00684*
20,1,.005,-.018794,-.00684,-.019696,-.003473,0.0*
1,1,.005,-.019696,-.003473*
20,1,.005,-.019696,-.003473,-.02,0.0,0.0*
1,1,.005,-.02,0.0*
20,1,.005,-.02,0.0,-.019696,.003473,0.0*
1,1,.005,-.019696,.003473*
20,1,.005,-.019696,.003473,-.018794,.00684,0.0*
1,1,.005,-.018794,.00684*
20,1,.005,-.018794,.00684,-.017321,.01,0.0*
1,1,.005,-.017321,.01*
20,1,.005,-.017321,.01,-.015321,.012856,0.0*
1,1,.005,-.015321,.012856*
20,1,.005,-.015321,.012856,-.012856,.015321,0.0*
1,1,.005,-.012856,.015321*
20,1,.005,-.012856,.015321,-.01,.017321,0.0*
1,1,.005,-.01,.017321*
20,1,.005,-.01,.017321,-.00684,.018794,0.0*
1,1,.005,-.00684,.018794*
20,1,.005,-.00684,.018794,-.003473,.019696,0.0*
1,1,.005,-.003473,.019696*
20,1,.005,-.003473,.019696,0.0,.02,0.0*
1,1,.005,0.0,.02*
20,1,.005,0.0,.02,.003473,.019696,0.0*
1,1,.005,.003473,.019696*
20,1,.005,.003473,.019696,.00684,.018794,0.0*
1,1,.005,.00684,.018794*
20,1,.005,.00684,.018794,.01,.017321,0.0*
1,1,.005,.01,.017321*
20,1,.005,.01,.017321,.012856,.015321,0.0*
1,1,.005,.012856,.015321*
20,1,.005,.012856,.015321,.015321,.012856,0.0*
1,1,.005,.015321,.012856*
20,1,.005,.015321,.012856,.017321,.01,0.0*
1,1,.005,.017321,.01*
20,1,.005,.017321,.01,.018794,.00684,0.0*
1,1,.005,.018794,.00684*
20,1,.005,.018794,.00684,.019696,.003473,0.0*
1,1,.005,.019696,.003473*
20,1,.005,.019696,.003473,.02,0.0,0.0*
1,1,.005,.02,0.0*
1,1,.005,.01,0.0*
20,1,.005,.01,0.0,-.01,0.0,0.0*
1,1,.005,-.01,0.0*
1,1,.005,0.0,.01*
20,1,.005,0.0,.01,0.0,-.01,0.0*
1,1,.005,0.0,-.01*
%
%ADD10MACRO10*%
%AMMACRO11*
1,1,.005,.025,0.0*
20,1,.005,.025,0.0,.02462,-.004341,0.0*
1,1,.005,.02462,-.004341*
20,1,.005,.02462,-.004341,.023492,-.008551,0.0*
1,1,.005,.023492,-.008551*
20,1,.005,.023492,-.008551,.021651,-.0125,0.0*
1,1,.005,.021651,-.0125*
20,1,.005,.021651,-.0125,.019151,-.01607,0.0*
1,1,.005,.019151,-.01607*
20,1,.005,.019151,-.01607,.01607,-.019151,0.0*
1,1,.005,.01607,-.019151*
20,1,.005,.01607,-.019151,.0125,-.021651,0.0*
1,1,.005,.0125,-.021651*
20,1,.005,.0125,-.021651,.008551,-.023492,0.0*
1,1,.005,.008551,-.023492*
20,1,.005,.008551,-.023492,.004341,-.02462,0.0*
1,1,.005,.004341,-.02462*
20,1,.005,.004341,-.02462,0.0,-.025,0.0*
1,1,.005,0.0,-.025*
20,1,.005,0.0,-.025,-.004341,-.02462,0.0*
1,1,.005,-.004341,-.02462*
20,1,.005,-.004341,-.02462,-.008551,-.023492,0.0*
1,1,.005,-.008551,-.023492*
20,1,.005,-.008551,-.023492,-.0125,-.021651,0.0*
1,1,.005,-.0125,-.021651*
20,1,.005,-.0125,-.021651,-.01607,-.019151,0.0*
1,1,.005,-.01607,-.019151*
20,1,.005,-.01607,-.019151,-.019151,-.01607,0.0*
1,1,.005,-.019151,-.01607*
20,1,.005,-.019151,-.01607,-.021651,-.0125,0.0*
1,1,.005,-.021651,-.0125*
20,1,.005,-.021651,-.0125,-.023492,-.008551,0.0*
1,1,.005,-.023492,-.008551*
20,1,.005,-.023492,-.008551,-.02462,-.004341,0.0*
1,1,.005,-.02462,-.004341*
20,1,.005,-.02462,-.004341,-.025,0.0,0.0*
1,1,.005,-.025,0.0*
20,1,.005,-.025,0.0,-.02462,.004341,0.0*
1,1,.005,-.02462,.004341*
20,1,.005,-.02462,.004341,-.023492,.008551,0.0*
1,1,.005,-.023492,.008551*
20,1,.005,-.023492,.008551,-.021651,.0125,0.0*
1,1,.005,-.021651,.0125*
20,1,.005,-.021651,.0125,-.019151,.01607,0.0*
1,1,.005,-.019151,.01607*
20,1,.005,-.019151,.01607,-.01607,.019151,0.0*
1,1,.005,-.01607,.019151*
20,1,.005,-.01607,.019151,-.0125,.021651,0.0*
1,1,.005,-.0125,.021651*
20,1,.005,-.0125,.021651,-.008551,.023492,0.0*
1,1,.005,-.008551,.023492*
20,1,.005,-.008551,.023492,-.004341,.02462,0.0*
1,1,.005,-.004341,.02462*
20,1,.005,-.004341,.02462,0.0,.025,0.0*
1,1,.005,0.0,.025*
20,1,.005,0.0,.025,.004341,.02462,0.0*
1,1,.005,.004341,.02462*
20,1,.005,.004341,.02462,.008551,.023492,0.0*
1,1,.005,.008551,.023492*
20,1,.005,.008551,.023492,.0125,.021651,0.0*
1,1,.005,.0125,.021651*
20,1,.005,.0125,.021651,.01607,.019151,0.0*
1,1,.005,.01607,.019151*
20,1,.005,.01607,.019151,.019151,.01607,0.0*
1,1,.005,.019151,.01607*
20,1,.005,.019151,.01607,.021651,.0125,0.0*
1,1,.005,.021651,.0125*
20,1,.005,.021651,.0125,.023492,.008551,0.0*
1,1,.005,.023492,.008551*
20,1,.005,.023492,.008551,.02462,.004341,0.0*
1,1,.005,.02462,.004341*
20,1,.005,.02462,.004341,.025,0.0,0.0*
1,1,.005,.025,0.0*
1,1,.005,.0125,0.0*
20,1,.005,.0125,0.0,-.0125,0.0,0.0*
1,1,.005,-.0125,0.0*
1,1,.005,0.0,.0125*
20,1,.005,0.0,.0125,0.0,-.0125,0.0*
1,1,.005,0.0,-.0125*
%
%ADD11MACRO11*%
%AMMACRO18*
1,1,.005,.05,0.0*
20,1,.005,.05,0.0,-.05,0.0,0.0*
1,1,.005,-.05,0.0*
1,1,.005,0.0,.05*
20,1,.005,0.0,.05,0.0,-.05,0.0*
1,1,.005,0.0,-.05*
1,1,.005,.009999,0.0*
20,1,.005,.009999,0.0,.009999,.05,0.0*
1,1,.005,.009999,.05*
1,1,.005,.009999,.024999*
20,1,.005,.009999,.024999,.014167,.03,0.0*
1,1,.005,.014167,.03*
20,1,.005,.014167,.03,.019167,.032499,0.0*
1,1,.005,.019167,.032499*
20,1,.005,.019167,.032499,.024166,.033332,0.0*
1,1,.005,.024166,.033332*
20,1,.005,.024166,.033332,.031666,.031666,0.0*
1,1,.005,.031666,.031666*
20,1,.005,.031666,.031666,.036666,.028333,0.0*
1,1,.005,.036666,.028333*
20,1,.005,.036666,.028333,.040001,.0225,0.0*
1,1,.005,.040001,.0225*
20,1,.005,.040001,.0225,.040001,.015833,0.0*
1,1,.005,.040001,.015833*
20,1,.005,.040001,.015833,.038333,.009166,0.0*
1,1,.005,.038333,.009166*
20,1,.005,.038333,.009166,.035,.004166,0.0*
1,1,.005,.035,.004166*
20,1,.005,.035,.004166,.029167,.000833,0.0*
1,1,.005,.029167,.000833*
20,1,.005,.029167,.000833,.024166,0.0,0.0*
1,1,.005,.024166,0.0*
20,1,.005,.024166,0.0,.019167,.000833,0.0*
1,1,.005,.019167,.000833*
20,1,.005,.019167,.000833,.014167,.003333,0.0*
1,1,.005,.014167,.003333*
20,1,.005,.014167,.003333,.009999,.007498,0.0*
1,1,.005,.009999,.007498*
%
%ADD18MACRO18*%
%AMMACRO15*
1,1,.005,.05,0.0*
20,1,.005,.05,0.0,-.05,0.0,0.0*
1,1,.005,-.05,0.0*
1,1,.005,0.0,.05*
20,1,.005,0.0,.05,0.0,-.05,0.0*
1,1,.005,0.0,-.05*
1,1,.005,.040001,.05*
20,1,.005,.040001,.05,.040001,0.0,0.0*
1,1,.005,.040001,0.0*
1,1,.005,.040001,.007498*
20,1,.005,.040001,.007498,.036666,.003333,0.0*
1,1,.005,.036666,.003333*
20,1,.005,.036666,.003333,.031666,.000833,0.0*
1,1,.005,.031666,.000833*
20,1,.005,.031666,.000833,.025834,0.0,0.0*
1,1,.005,.025834,0.0*
20,1,.005,.025834,0.0,.019167,.001666,0.0*
1,1,.005,.019167,.001666*
20,1,.005,.019167,.001666,.014167,.005832,0.0*
1,1,.005,.014167,.005832*
20,1,.005,.014167,.005832,.010833,.010833,0.0*
1,1,.005,.010833,.010833*
20,1,.005,.010833,.010833,.009999,.016666,0.0*
1,1,.005,.009999,.016666*
20,1,.005,.009999,.016666,.010833,.0225,0.0*
1,1,.005,.010833,.0225*
20,1,.005,.010833,.0225,.014167,.0275,0.0*
1,1,.005,.014167,.0275*
20,1,.005,.014167,.0275,.019167,.031666,0.0*
1,1,.005,.019167,.031666*
20,1,.005,.019167,.031666,.025834,.033332,0.0*
1,1,.005,.025834,.033332*
20,1,.005,.025834,.033332,.031666,.032499,0.0*
1,1,.005,.031666,.032499*
20,1,.005,.031666,.032499,.035833,.030833,0.0*
1,1,.005,.035833,.030833*
20,1,.005,.035833,.030833,.040001,.0275,0.0*
1,1,.005,.040001,.0275*
%
%ADD15MACRO15*%
%AMMACRO17*
1,1,.005,.05,0.0*
20,1,.005,.05,0.0,-.05,0.0,0.0*
1,1,.005,-.05,0.0*
1,1,.005,0.0,.05*
20,1,.005,0.0,.05,0.0,-.05,0.0*
1,1,.005,0.0,-.05*
1,1,.005,.011666,-.0125*
20,1,.005,.011666,-.0125,.017499,-.015833,0.0*
1,1,.005,.017499,-.015833*
20,1,.005,.017499,-.015833,.0225,-.016666,0.0*
1,1,.005,.0225,-.016666*
20,1,.005,.0225,-.016666,.029167,-.015,0.0*
1,1,.005,.029167,-.015*
20,1,.005,.029167,-.015,.034167,-.010834,0.0*
1,1,.005,.034167,-.010834*
20,1,.005,.034167,-.010834,.036666,-.003333,0.0*
1,1,.005,.036666,-.003333*
20,1,.005,.036666,-.003333,.036666,.033332,0.0*
1,1,.005,.036666,.033332*
1,1,.005,.036666,.046666*
20,1,.005,.036666,.046666,.035,.047499,0.0*
1,1,.005,.035,.047499*
20,1,.005,.035,.047499,.035,.049167,0.0*
1,1,.005,.035,.049167*
20,1,.005,.035,.049167,.036666,.05,0.0*
1,1,.005,.036666,.05*
20,1,.005,.036666,.05,.038333,.049167,0.0*
1,1,.005,.038333,.049167*
20,1,.005,.038333,.049167,.038333,.047499,0.0*
1,1,.005,.038333,.047499*
20,1,.005,.038333,.047499,.036666,.046666,0.0*
1,1,.005,.036666,.046666*
%
%ADD17MACRO17*%
%AMMACRO13*
1,1,.005,.05,0.0*
20,1,.005,.05,0.0,-.05,0.0,0.0*
1,1,.005,-.05,0.0*
1,1,.005,0.0,.05*
20,1,.005,0.0,.05,0.0,-.05,0.0*
1,1,.005,0.0,-.05*
1,1,.005,.010833,0.0*
20,1,.005,.010833,0.0,.010833,.05,0.0*
1,1,.005,.010833,.05*
1,1,.005,.0375,.033332*
20,1,.005,.0375,.033332,.010833,.014167,0.0*
1,1,.005,.010833,.014167*
1,1,.005,.021667,.021667*
20,1,.005,.021667,.021667,.039167,0.0,0.0*
1,1,.005,.039167,0.0*
%
%ADD13MACRO13*%
%AMMACRO19*
1,1,.005,0.0,.017715*
20,1,.005,0.0,.017715,-.015342,.008858,0.0*
1,1,.005,-.015342,.008858*
20,1,.005,-.015342,.008858,-.015342,-.008857,0.0*
1,1,.005,-.015342,-.008857*
20,1,.005,-.015342,-.008857,0.0,-.017715,0.0*
1,1,.005,0.0,-.017715*
20,1,.005,0.0,-.017715,.015342,-.008858,0.0*
1,1,.005,.015342,-.008858*
20,1,.005,.015342,-.008858,.015342,.008857,0.0*
1,1,.005,.015342,.008857*
20,1,.005,.015342,.008857,0.0,.017715,0.0*
1,1,.005,0.0,.017715*
%
%ADD19MACRO19*%
%AMMACRO14*
1,1,.005,.035451,0.0*
20,1,.005,.035451,0.0,-.035451,0.0,0.0*
1,1,.005,-.035451,0.0*
1,1,.005,0.0,.035451*
20,1,.005,0.0,.035451,0.0,-.035451,0.0*
1,1,.005,0.0,-.035451*
1,1,.005,.005908,0.0*
20,1,.005,.005908,0.0,.005908,.035451,0.0*
1,1,.005,.005908,.035451*
20,1,.005,.005908,.035451,.020089,.035451,0.0*
1,1,.005,.020089,.035451*
20,1,.005,.020089,.035451,.024816,.033678,0.0*
1,1,.005,.024816,.033678*
20,1,.005,.024816,.033678,.028361,.029543,0.0*
1,1,.005,.028361,.029543*
20,1,.005,.028361,.029543,.029543,.024816,0.0*
1,1,.005,.029543,.024816*
20,1,.005,.029543,.024816,.028361,.020089,0.0*
1,1,.005,.028361,.020089*
20,1,.005,.028361,.020089,.025407,.016544,0.0*
1,1,.005,.025407,.016544*
20,1,.005,.025407,.016544,.020089,.01477,0.0*
1,1,.005,.020089,.01477*
20,1,.005,.020089,.01477,.005908,.01477,0.0*
1,1,.005,.005908,.01477*
%
%ADD14MACRO14*%
%AMMACRO12*
1,1,.005,.021001,-.058333*
20,1,.005,.021001,-.058333,.021001,.011665,0.0*
1,1,.005,.021001,.011665*
1,1,.005,.021001,.001167*
20,1,.005,.021001,.001167,.015167,.007,0.0*
1,1,.005,.015167,.007*
20,1,.005,.015167,.007,.008166,.010499,0.0*
1,1,.005,.008166,.010499*
20,1,.005,.008166,.010499,-.000001,.011665,0.0*
1,1,.005,-.000001,.011665*
20,1,.005,-.000001,.011665,-.007,.010499,0.0*
1,1,.005,-.007,.010499*
20,1,.005,-.007,.010499,-.015167,.004667,0.0*
1,1,.005,-.015167,.004667*
20,1,.005,-.015167,.004667,-.019834,-.0035,0.0*
1,1,.005,-.019834,-.0035*
20,1,.005,-.019834,-.0035,-.021001,-.011667,0.0*
1,1,.005,-.021001,-.011667*
20,1,.005,-.021001,-.011667,-.019834,-.019834,0.0*
1,1,.005,-.019834,-.019834*
20,1,.005,-.019834,-.019834,-.015167,-.028001,0.0*
1,1,.005,-.015167,-.028001*
20,1,.005,-.015167,-.028001,-.007,-.033834,0.0*
1,1,.005,-.007,-.033834*
20,1,.005,-.007,-.033834,-.000001,-.035,0.0*
1,1,.005,-.000001,-.035*
20,1,.005,-.000001,-.035,.008166,-.033834,0.0*
1,1,.005,.008166,-.033834*
20,1,.005,.008166,-.033834,.015167,-.030334,0.0*
1,1,.005,.015167,-.030334*
20,1,.005,.015167,-.030334,.021001,-.024502,0.0*
1,1,.005,.021001,-.024502*
%
%ADD12MACRO12*%
%ADD21C,.003*%
%ADD22C,.005*%
G75*
%LPD*%
G75*
G54D10*
X3200Y138200D03*
X4300Y161500D03*
X11400Y138400D03*
X19400D03*
X12300Y161500D03*
X19800Y161800D03*
X63700Y71900D03*
X63900Y76900D03*
X51400Y116000D03*
X51700Y127800D03*
X51200Y124100D03*
X61100Y127900D03*
X56000Y127800D03*
X58500Y477600D03*
X57900Y481800D03*
X57500Y484600D03*
X52600Y484500D03*
X82700Y81700D03*
X69500Y79800D03*
X75100Y84400D03*
X79800Y85400D03*
X70100Y85300D03*
X70900Y115500D03*
X69800Y123800D03*
X70500Y127900D03*
X66400Y128000D03*
X83700Y173600D03*
X76300Y173400D03*
X80900Y176200D03*
X81000Y178900D03*
X81100Y181400D03*
X83600Y244300D03*
X76900Y244600D03*
X73700Y242600D03*
X80400Y242400D03*
Y246300D03*
Y249700D03*
X79300Y289900D03*
X79200Y295300D03*
X75000Y302900D03*
X81800Y303200D03*
X77700Y307900D03*
X77500Y312500D03*
X74600Y396600D03*
X82800Y401400D03*
X75500Y401100D03*
X81600Y405500D03*
X76900Y405400D03*
X75600Y467000D03*
X72700Y466900D03*
X67100D03*
X75800Y471300D03*
X84800Y72600D03*
X86900Y289800D03*
X87100Y302900D03*
X85200Y308200D03*
X84100Y312400D03*
X87200Y390200D03*
X87000Y393500D03*
Y396600D03*
X88200Y401100D03*
X88500Y405700D03*
X526100Y724100D03*
X523200D03*
X515800Y721200D03*
X515900Y729100D03*
X531900Y410100D03*
X527900Y418200D03*
X702150Y340900D03*
G54D11*
X6300Y206400D03*
X16400Y123400D03*
X21200Y177800D03*
Y193800D03*
Y185800D03*
X22800Y211400D03*
X13800Y210300D03*
X7000Y217300D03*
X14800Y233500D03*
X22800Y227400D03*
Y219400D03*
X6700Y231000D03*
X14700Y223900D03*
X22600Y252700D03*
Y244700D03*
X14800Y249500D03*
Y241500D03*
X22600Y260700D03*
X7600Y268600D03*
X24100Y291900D03*
Y283900D03*
X9600Y280600D03*
X23700Y314700D03*
Y306700D03*
X24100Y299900D03*
X11700Y331800D03*
Y323800D03*
Y315800D03*
X23300Y332500D03*
X23700Y322700D03*
X23300Y348500D03*
Y340500D03*
X24500Y392400D03*
Y384400D03*
Y400400D03*
X24400Y410300D03*
Y426300D03*
Y418300D03*
X20600Y469600D03*
Y465600D03*
Y461600D03*
Y457600D03*
Y473600D03*
X16300Y666300D03*
Y696200D03*
Y726000D03*
Y755900D03*
Y785800D03*
Y815600D03*
Y845500D03*
Y875300D03*
Y905200D03*
Y935000D03*
X34700Y120800D03*
X34600Y116300D03*
X41100Y125200D03*
X27100Y123000D03*
X34800Y125400D03*
X30800Y163000D03*
X35900Y167500D03*
X30300Y172900D03*
X38500Y177800D03*
X31100Y190100D03*
X28500Y180300D03*
X38500Y185800D03*
Y193800D03*
X26400Y201000D03*
X27600Y233900D03*
X28500Y224000D03*
X27600Y245900D03*
Y241900D03*
X27200Y253300D03*
Y269300D03*
Y261300D03*
X29900Y349200D03*
Y341200D03*
Y357200D03*
X30700Y390300D03*
Y382300D03*
X32500Y403300D03*
X29900Y410800D03*
X30700Y398300D03*
X32700Y412800D03*
X29900Y426800D03*
Y418800D03*
X43300Y436800D03*
Y439800D03*
Y442800D03*
X41200Y457200D03*
Y453200D03*
X40200Y467500D03*
Y463500D03*
Y479500D03*
Y475500D03*
Y471500D03*
X43000Y595100D03*
X41000Y623600D03*
Y605600D03*
X41300Y637300D03*
X41800Y646300D03*
X61700Y64200D03*
X50600Y138800D03*
X50400Y156100D03*
X50500Y143800D03*
Y151100D03*
X61600Y153300D03*
X59700Y183800D03*
X61600Y209500D03*
X63000Y213300D03*
X61200Y224100D03*
X56200D03*
X57100Y252100D03*
X63900Y294800D03*
X56900Y294700D03*
X61600Y278400D03*
X53400Y318800D03*
X63600D03*
Y328100D03*
X57000Y346100D03*
X63400Y342700D03*
X49800Y368400D03*
X54300D03*
X58800D03*
X58400Y354100D03*
X59100Y385600D03*
X55900Y409700D03*
X58100Y433300D03*
Y436300D03*
Y439300D03*
X47200Y433500D03*
X50200D03*
X53200D03*
X63500Y442100D03*
X60500D03*
X64300Y432700D03*
X55000Y461400D03*
X59000D03*
X47600Y461300D03*
X51600D03*
X58600Y457200D03*
Y453200D03*
X51100Y495200D03*
X62500Y610300D03*
X50741Y631559D03*
X50700Y629000D03*
X52500Y646600D03*
X46100Y666300D03*
Y696200D03*
Y726000D03*
Y755900D03*
Y785800D03*
Y815600D03*
Y845500D03*
Y875300D03*
Y905200D03*
Y935000D03*
X76800Y9200D03*
X68800D03*
X77800Y17500D03*
X69800D03*
X74500Y63900D03*
X68500Y58600D03*
X80000Y145600D03*
X76000D03*
X72000D03*
X68000D03*
X77600Y153300D03*
X73600D03*
X69600D03*
X65600D03*
X71600Y159700D03*
X65700Y159600D03*
X68900Y193100D03*
X79100Y187100D03*
X80000Y191700D03*
X75800Y196200D03*
X81800D03*
X78500Y183800D03*
X68900D03*
X75300Y213400D03*
X81300D03*
X67600Y209500D03*
X72600Y210000D03*
X78600D03*
X69000Y213300D03*
X80400Y200000D03*
X83600Y203800D03*
X77600D03*
X68400Y207800D03*
X81800Y223500D03*
X72100Y230700D03*
X77100D03*
X82100D03*
X66200Y224100D03*
X75800Y252100D03*
X66500D03*
X78400Y255200D03*
X83400D03*
X66500Y261200D03*
X75400Y274600D03*
X83000Y268400D03*
Y273400D03*
X68500Y276600D03*
X73500D03*
X83500Y276400D03*
X73300Y263300D03*
X78300D03*
X81000Y259200D03*
X76000D03*
X66400Y273300D03*
X66600Y278400D03*
X73500Y318800D03*
X72900Y333800D03*
X74100Y331400D03*
X82800Y322500D03*
X79900D03*
X75600D03*
X76300Y325600D03*
X72600D03*
X75700Y327600D03*
X73000Y327700D03*
X70600D03*
X73100Y337200D03*
X70900Y342400D03*
X75300Y342700D03*
X81300Y342400D03*
X71500Y346000D03*
X71800Y353900D03*
X74280Y379480D03*
X64900Y385700D03*
X74100Y409700D03*
X65000Y409600D03*
Y419100D03*
X71100Y419300D03*
X74100D03*
X77100D03*
X77400Y414000D03*
X80400D03*
X83400D03*
X73700Y423300D03*
Y426300D03*
Y429300D03*
X67300Y435200D03*
X70300D03*
X73300D03*
X66500Y442100D03*
X81000Y495200D03*
X66100D03*
X80900Y543500D03*
X83300Y563900D03*
X76200Y595600D03*
X68000Y610200D03*
X78300Y623500D03*
X76300Y605000D03*
X75900Y613700D03*
X78300Y634400D03*
X65159Y631559D03*
X76900Y644800D03*
X67800Y645900D03*
X75900Y666300D03*
Y696200D03*
Y726000D03*
Y755900D03*
Y785800D03*
Y815600D03*
Y845500D03*
Y875300D03*
Y905200D03*
Y935000D03*
X84800Y9200D03*
X101100Y9000D03*
X93100D03*
X100200Y17200D03*
X92200D03*
X85800Y17500D03*
X100100Y83100D03*
Y75700D03*
Y72000D03*
X95000Y70100D03*
X94100Y93800D03*
X100100Y90400D03*
X84000Y145600D03*
X85100Y187100D03*
X86000Y191700D03*
X101300Y181900D03*
Y186900D03*
Y191900D03*
X99000Y189500D03*
Y194500D03*
X86400Y200000D03*
X99000Y199500D03*
X99900Y202400D03*
X101000Y234700D03*
X102200Y219200D03*
Y224200D03*
Y229200D03*
X86800Y223500D03*
X91800D03*
X96800Y238200D03*
Y245600D03*
Y253100D03*
X101000Y242100D03*
Y249600D03*
Y257100D03*
X88500Y276400D03*
X86700Y267800D03*
X91700D03*
X83900Y263400D03*
X88900D03*
X102800Y309300D03*
X102100Y303600D03*
X92200Y323800D03*
X96700D03*
X101200D03*
X89300Y329600D03*
X102100Y341100D03*
X97600D03*
X93100D03*
X101900Y347200D03*
Y351700D03*
X89300Y335700D03*
X101900Y356200D03*
X95400Y358900D03*
Y363400D03*
Y367900D03*
X98700Y393200D03*
X98600Y400900D03*
Y412200D03*
X98200Y420500D03*
X88900Y429100D03*
X88500Y433300D03*
X94700Y495200D03*
X95700Y529600D03*
X101500Y545200D03*
X96500D03*
X101200Y540100D03*
X96200D03*
X109100Y9000D03*
X114400Y12300D03*
X108200Y17200D03*
X120400Y38600D03*
Y41600D03*
X117900Y40100D03*
X107600Y40400D03*
X112600D03*
X110100Y41900D03*
Y38900D03*
X109900Y202400D03*
X104900D03*
X110100Y216300D03*
Y211300D03*
Y206300D03*
X108500Y234700D03*
X113200Y256700D03*
Y249300D03*
Y238100D03*
X108500Y242100D03*
Y249600D03*
Y257100D03*
X109900Y265000D03*
X114400D03*
X115300Y286700D03*
Y282200D03*
Y277700D03*
X109500Y287000D03*
Y282500D03*
Y278000D03*
X110400Y294500D03*
Y290000D03*
X107300Y309300D03*
X111800D03*
X110400Y299000D03*
X111100Y303600D03*
X106600D03*
X105300Y370600D03*
Y366100D03*
X113600Y389500D03*
X105300Y375100D03*
X113600Y397000D03*
Y404400D03*
X106100Y408100D03*
Y400700D03*
Y393200D03*
Y415600D03*
X122200Y486000D03*
X118100Y529600D03*
X110700D03*
X103200D03*
X111500Y545200D03*
X106500D03*
X106200Y540100D03*
X111200D03*
X122200Y534500D03*
X121600Y552700D03*
X122100Y569400D03*
X111700Y585100D03*
X121800Y588500D03*
X121600Y607900D03*
X121500Y619800D03*
X121100Y639600D03*
X120900Y653000D03*
X120300Y666600D03*
X121800Y824700D03*
X120700Y882500D03*
X113800Y876900D03*
X105800Y935000D03*
X139700Y23200D03*
X129900Y23600D03*
X141400Y7100D03*
X140700Y16600D03*
X132700D03*
X122400Y12300D03*
X130400D03*
X137500Y42400D03*
X136800Y40100D03*
X131900Y37300D03*
X128000Y42000D03*
X132200Y39800D03*
X127200D03*
X122900Y40100D03*
X122600Y370500D03*
X123200Y394900D03*
X123300Y424900D03*
X122700Y457700D03*
X122300Y508700D03*
X131300Y553300D03*
X138000Y559200D03*
X133970Y669530D03*
X129200Y701200D03*
X123200Y770800D03*
X132500Y809900D03*
X132000Y859200D03*
X126800Y876600D03*
X135600Y935000D03*
X150000Y23100D03*
X149400Y7100D03*
X157400D03*
X153800Y13000D03*
X148700Y16600D03*
X158900Y39200D03*
Y42200D03*
X156400Y40700D03*
X142100Y37200D03*
X141800Y40100D03*
X147900Y34700D03*
X158900Y188500D03*
Y192500D03*
Y196500D03*
X156000Y210900D03*
X160300Y214900D03*
X156000Y218900D03*
X160700Y227300D03*
X158600Y235300D03*
X158300Y255500D03*
X155600Y261600D03*
X154600Y268400D03*
X153800Y275400D03*
X154900Y333400D03*
X155700Y329800D03*
X155600Y326100D03*
X155000Y352800D03*
Y345300D03*
Y337800D03*
Y367700D03*
X155900Y360600D03*
X159100Y391900D03*
X160000Y399200D03*
X160200Y423400D03*
Y445800D03*
Y468200D03*
Y483100D03*
X142900Y553300D03*
X155800Y553400D03*
X149000Y658500D03*
X145000D03*
X159900Y676200D03*
X159800Y668600D03*
X153270Y669530D03*
X170400Y23700D03*
X161800Y13000D03*
X169800D03*
X175700Y36100D03*
X161400Y40700D03*
X162500Y104500D03*
X162000Y122700D03*
Y130700D03*
X171200Y210600D03*
X170400Y225200D03*
X173300Y219400D03*
X178400Y225200D03*
X164900Y233100D03*
X171900Y237300D03*
X172900Y233100D03*
X163100Y238500D03*
X178700Y274600D03*
X174700Y268700D03*
X174500Y260300D03*
X165200Y269000D03*
X164900Y275600D03*
X161300Y279800D03*
X161000Y321500D03*
X168200Y333900D03*
X161100Y329900D03*
X166800Y329800D03*
X173100Y329900D03*
X178200Y330000D03*
X178100Y326400D03*
X173300Y326500D03*
X167000Y326400D03*
X161100Y326200D03*
X174700Y348800D03*
X168200Y345300D03*
X162100Y339400D03*
X174500Y354800D03*
X177200Y368500D03*
X163200Y369900D03*
X175300Y361200D03*
X165600Y375800D03*
X178500Y391900D03*
X174800D03*
X171000D03*
X167300D03*
X163600D03*
X166900Y529300D03*
X178100D03*
X178900Y535900D03*
X173900D03*
X179300Y545000D03*
X174300D03*
X162800Y560100D03*
X170500Y553900D03*
X172500Y626800D03*
X179600Y657700D03*
X171000Y658500D03*
X161000D03*
X169840Y680060D03*
X166100Y679800D03*
X175900Y826800D03*
X169000Y878900D03*
X165400Y935000D03*
X180400Y23200D03*
X198500Y9500D03*
X190500D03*
X192800Y16600D03*
X184800D03*
X190350Y23250D03*
X195000Y35400D03*
X185000Y35000D03*
X198600Y40300D03*
X195600D03*
X197100Y42800D03*
Y37800D03*
X198600Y177500D03*
X186800Y196100D03*
X188700Y209000D03*
X194200Y215700D03*
X188700Y217000D03*
X183400Y218600D03*
Y226600D03*
X183700Y254100D03*
X185800Y268800D03*
X196200Y273200D03*
X195150Y333350D03*
X185400Y326000D03*
X190200Y331700D03*
X196700Y325900D03*
X198900Y320600D03*
X188200Y343300D03*
X193800Y357200D03*
X196600Y359200D03*
X185700Y382700D03*
X195300Y392300D03*
X185900Y391900D03*
X182200D03*
X197800Y411200D03*
Y403700D03*
Y396300D03*
Y426100D03*
Y418600D03*
Y433600D03*
X194200Y466100D03*
X189300Y529300D03*
X188900Y535900D03*
X183900D03*
X189300Y545000D03*
X184300D03*
X188300Y553700D03*
X195700Y559600D03*
X184300Y590500D03*
X183258Y611300D03*
X184958Y628958D03*
X185600Y651200D03*
X196500Y664000D03*
Y676400D03*
X187000Y664800D03*
X197000Y692700D03*
X192300Y702400D03*
X182400Y770800D03*
X193700Y812500D03*
X181000Y854200D03*
X182200Y879100D03*
X195400Y935000D03*
X200200Y23600D03*
X210000Y24200D03*
X206500Y9500D03*
X211700Y10600D03*
X200800Y16600D03*
X210400Y38700D03*
X207400D03*
X208900Y41200D03*
Y36200D03*
X218700Y37600D03*
Y53700D03*
X210000Y48900D03*
X215700Y53800D03*
X209700D03*
X205700D03*
Y196300D03*
Y200300D03*
Y204300D03*
X211200Y201900D03*
X204600Y226900D03*
X207300Y229100D03*
X208400Y231700D03*
Y234700D03*
Y237700D03*
X204100Y237600D03*
X217000Y229600D03*
X212000Y261900D03*
X211600Y275200D03*
X212100Y269500D03*
X202300Y281700D03*
X203700Y333400D03*
X211700Y325500D03*
X204600Y326000D03*
X210800Y333100D03*
X203100Y316600D03*
X200300Y347700D03*
X216300Y352600D03*
X212900Y348700D03*
X217400Y354800D03*
X207600Y369300D03*
X218700Y368200D03*
X202800Y392300D03*
X210800Y385200D03*
X211200Y380700D03*
X208800Y374100D03*
X213000Y398800D03*
X202500Y402800D03*
Y410200D03*
X200500Y398800D03*
X213400Y424000D03*
X202500Y417700D03*
Y430300D03*
X216100Y504900D03*
X200500Y529300D03*
X211700D03*
X215700Y540300D03*
X210700D03*
X205700D03*
X200700D03*
X203600Y554000D03*
X215000Y637200D03*
X211800Y646100D03*
X204643Y648158D03*
X219800Y899700D03*
X229600Y6000D03*
X221600D03*
X237600D03*
X229950Y22950D03*
X233300Y16900D03*
X225300D03*
X219700Y10600D03*
X227700D03*
X235400Y35700D03*
X225300Y35500D03*
X221700Y37600D03*
X220200Y40100D03*
Y35100D03*
X223200Y159900D03*
X228300Y212000D03*
X230700Y205100D03*
X232300Y211900D03*
X234300Y206400D03*
X237600Y239800D03*
X228100Y243400D03*
X231100Y255300D03*
X228700Y240600D03*
X236600Y255500D03*
X223900Y261900D03*
X222900Y275200D03*
X223500Y269500D03*
X231400Y259900D03*
X223700Y273300D03*
X236800Y274100D03*
X219300Y291000D03*
X236900Y291500D03*
X224500Y299300D03*
X225500Y296500D03*
X224300Y332700D03*
X236600Y344600D03*
X225300Y348400D03*
Y364100D03*
X225900Y365800D03*
X222200Y362000D03*
X222800Y385200D03*
X226200Y378600D03*
X220700Y373700D03*
X229500Y404900D03*
X235600Y394500D03*
X220400Y404800D03*
X224100Y466100D03*
X219100Y529300D03*
X227400Y540300D03*
Y562700D03*
Y585000D03*
X227200Y598800D03*
X235400Y600700D03*
X236600Y607700D03*
X224000Y630800D03*
X234500Y638500D03*
X237000Y700800D03*
X227100Y697200D03*
X220600Y706000D03*
X220800Y761300D03*
X225200Y935000D03*
X240750Y22450D03*
X249900Y23300D03*
X251000Y16700D03*
X256000Y11300D03*
X248000D03*
X241300Y16900D03*
X254500Y37900D03*
X254100Y42100D03*
X249600Y41400D03*
X250000Y37700D03*
X241600Y40500D03*
X238600D03*
X240100Y43000D03*
Y38000D03*
X241700Y149500D03*
X254000Y196100D03*
X251300Y204900D03*
X252440Y224800D03*
X254600Y237100D03*
X239500Y238200D03*
X248800Y251700D03*
X240000Y252400D03*
X243600Y249600D03*
X245400Y251750D03*
X244900Y274600D03*
X250100Y271900D03*
X254300D03*
X250300Y268900D03*
X239400Y273700D03*
X240500Y262900D03*
X249500Y264100D03*
X254600Y266100D03*
X252100Y289700D03*
X239400Y292800D03*
X249700Y303700D03*
X252600Y313173D03*
X249400Y299700D03*
X245200Y300700D03*
X250500Y311400D03*
X245800Y309700D03*
X242900Y296700D03*
X250300Y325150D03*
X252100Y320400D03*
Y331800D03*
X252000Y318000D03*
X238300Y340900D03*
X239300Y338600D03*
X239900Y348000D03*
X249900Y334700D03*
X240200Y342700D03*
X250600Y336600D03*
X249600Y350500D03*
X246400Y354600D03*
X239700Y354500D03*
X239200Y360200D03*
X240900Y356600D03*
X240300Y379100D03*
X250000Y383400D03*
X244200Y383500D03*
X252100Y381000D03*
X246800Y377200D03*
X257000Y379500D03*
X249900Y377000D03*
X242400Y395800D03*
X248300Y395600D03*
X244600Y407700D03*
X250000Y407500D03*
X255200Y409600D03*
X244600Y395800D03*
X255200Y397300D03*
X240300Y412800D03*
X256900Y429500D03*
X242300Y427600D03*
X255400Y412800D03*
X248100Y438900D03*
X250900Y447900D03*
X246500Y466100D03*
X250600Y583900D03*
X239700Y584100D03*
X253700Y600700D03*
X255600Y598100D03*
X248700Y604800D03*
X246300Y608200D03*
X253900Y622900D03*
X255600Y609300D03*
X247400Y660000D03*
X250200Y645100D03*
X247600Y679000D03*
X248000Y666700D03*
X247900Y673200D03*
X241200Y665500D03*
X257200Y692200D03*
X240600Y690800D03*
X247800Y702800D03*
X250000Y728200D03*
X247900Y722500D03*
X247400Y761800D03*
X245900Y774800D03*
X241700Y768800D03*
X243500Y793100D03*
X255200Y792700D03*
X249700Y780400D03*
X243300Y787100D03*
X239500Y825500D03*
X252900Y866700D03*
X255000Y935000D03*
X260100Y23600D03*
X259000Y16700D03*
X267000D03*
X264000Y11300D03*
X265500Y37100D03*
X268600Y36600D03*
X265700Y41100D03*
X261100Y43000D03*
X269800Y133300D03*
X259200Y173900D03*
X275800Y196600D03*
X257800Y182700D03*
X275900Y183700D03*
X274800Y208200D03*
X260600Y214200D03*
X275200Y227000D03*
X274600Y237900D03*
X259700Y252600D03*
X260800Y239900D03*
X270800Y238500D03*
X267300Y239100D03*
X258800Y242600D03*
X259500Y269600D03*
X261900Y267300D03*
X268300Y379800D03*
X266000Y378300D03*
X263800Y410600D03*
X262600Y396000D03*
X274900Y399000D03*
X260200Y408200D03*
X265900D03*
X271300Y408400D03*
X274700Y409900D03*
X270300Y416000D03*
X268800Y432700D03*
X275100Y438000D03*
X263100Y439800D03*
X276300Y466100D03*
X275700Y504900D03*
X263600Y584500D03*
X270500Y598100D03*
X262000Y596200D03*
X270500Y621100D03*
Y605600D03*
X268500Y632700D03*
X270200Y624200D03*
X262200Y640100D03*
X272900Y653700D03*
X273100Y648100D03*
X259700Y660000D03*
X260600Y679000D03*
X273400Y720400D03*
X272900Y718200D03*
X273900Y722200D03*
X261700Y732100D03*
X261300Y734200D03*
X262300Y724300D03*
X272700Y730100D03*
X260200Y722500D03*
X273800Y757800D03*
X261650Y752850D03*
X261000Y742100D03*
X274700Y752100D03*
X260900Y755600D03*
X272900Y744000D03*
X273000Y746000D03*
X273400Y777600D03*
Y759700D03*
X272500Y775500D03*
X273500Y767700D03*
X274900Y769700D03*
X272900Y773400D03*
X273300Y771300D03*
X258100Y774800D03*
X272500Y779700D03*
X292100Y53600D03*
X288900Y46500D03*
X278100Y174600D03*
X285900Y187600D03*
X294100Y192900D03*
X292000Y213300D03*
X285200Y213100D03*
X291800Y209100D03*
X292100Y237800D03*
X292300Y221200D03*
X283200Y240300D03*
X288000Y253100D03*
X291950Y253150D03*
X276900Y239000D03*
X286200Y241000D03*
X294200Y240600D03*
X282200Y263200D03*
X290100Y271900D03*
X291000Y268200D03*
X278800Y302600D03*
X289100Y312600D03*
X286000Y377700D03*
X293200Y378200D03*
X288700Y380100D03*
X286500Y410600D03*
X284000Y408100D03*
X292200Y407400D03*
X278200Y411500D03*
X286800Y426900D03*
X290200Y416500D03*
X294200Y426800D03*
X279800Y434400D03*
X293400Y564100D03*
X293100Y582400D03*
X281300Y585000D03*
X280800Y596300D03*
X288400Y599700D03*
X288200Y605600D03*
X287900Y615500D03*
X279900Y615600D03*
X285500Y641000D03*
X288000Y624000D03*
X286700Y627400D03*
X293600Y643700D03*
X285100Y654400D03*
X284800Y649500D03*
X282800Y667600D03*
X284700Y787400D03*
X282300Y787600D03*
X278766Y798800D03*
X281100Y798100D03*
X284500Y809400D03*
X290800Y816300D03*
X295100Y812000D03*
X278900Y814500D03*
X291000Y804500D03*
X277200Y801700D03*
X282500Y818000D03*
X284900Y935000D03*
X304100Y53500D03*
X314600Y46200D03*
X301500Y46400D03*
X311800Y65200D03*
X308200Y161100D03*
X306950Y183550D03*
X310600Y213200D03*
X298100Y209300D03*
X299200Y213500D03*
X312800Y213900D03*
X301200Y228800D03*
X301000Y232700D03*
X301100Y236900D03*
X298300Y238300D03*
X304800Y238400D03*
X307800D03*
X311800D03*
X299000Y267200D03*
X303500Y303200D03*
X302400Y315100D03*
X302200Y331200D03*
X303200Y342500D03*
X301600Y372700D03*
X314500Y379200D03*
X301821Y377500D03*
X309200Y377000D03*
X314100Y409200D03*
X303900D03*
X309500D03*
Y397000D03*
X299400Y399100D03*
X310000Y412700D03*
X301500Y413900D03*
X309000Y443900D03*
X303700Y443800D03*
X298700Y466100D03*
X309900Y564100D03*
X302700Y555000D03*
X302100Y574300D03*
X301600Y610600D03*
X309900Y635600D03*
X305700Y626400D03*
X306325Y656475D03*
X310300Y644700D03*
X305000Y647200D03*
X306900Y644400D03*
X303400Y810400D03*
X311900Y807800D03*
X305500Y809500D03*
Y822200D03*
X300600Y827900D03*
X296800Y848700D03*
X314400Y866600D03*
X314700Y935000D03*
X332276Y22600D03*
X329000Y9200D03*
X321000D03*
X325424Y37800D03*
X322576D03*
X315500Y53500D03*
X324100Y75000D03*
X332600Y166300D03*
X327400Y181600D03*
X334200Y182000D03*
X315700Y187900D03*
X333500Y199300D03*
X325700Y200500D03*
X331200Y201900D03*
Y207600D03*
X327900Y200200D03*
X319900Y211200D03*
X319400Y203400D03*
X317200Y227300D03*
X331500Y233900D03*
X331250Y231150D03*
X315300Y222100D03*
X315800Y238400D03*
X333600Y239300D03*
X326700Y240100D03*
X330400Y272100D03*
X325400Y309000D03*
X332000Y297500D03*
X331200Y302300D03*
X325500Y311800D03*
X331700Y317100D03*
X319300Y379500D03*
X323900Y379900D03*
X334000Y379500D03*
X329900Y379300D03*
X316777Y377123D03*
X327700Y404500D03*
X329400Y414300D03*
X324600Y413100D03*
X328500Y443400D03*
X317700Y448100D03*
X331900Y442100D03*
X323500Y444200D03*
X328600Y466100D03*
X320500Y504900D03*
X330400Y563700D03*
X322600Y553600D03*
X321100Y574200D03*
X330400Y582200D03*
X331800Y595200D03*
X324600Y601600D03*
X325900Y589700D03*
X320800Y590100D03*
X327200Y601400D03*
X331100Y641500D03*
X317400Y640800D03*
X316400Y642800D03*
X317400Y627800D03*
X334500Y633100D03*
X326100Y641600D03*
X322200Y640100D03*
X324042Y656842D03*
X327979Y667300D03*
X321200Y810200D03*
X328000Y811400D03*
Y799200D03*
X351976Y22200D03*
X335124Y22600D03*
X337000Y9200D03*
X345224Y36076D03*
X342376D03*
X350700Y99400D03*
X336500Y86000D03*
X346400Y194500D03*
X345200Y181000D03*
X343000Y190900D03*
X341900Y200300D03*
X340000Y208500D03*
X335400Y227300D03*
X345100Y240600D03*
X340400Y273100D03*
X337500Y270700D03*
X341600Y269500D03*
X336800Y267500D03*
X341000Y292600D03*
X344900Y292800D03*
X350400Y293000D03*
X353800Y315100D03*
X344800Y309000D03*
X341100Y309700D03*
X345000Y302000D03*
X344800Y297500D03*
X350100Y302100D03*
X350300Y297400D03*
X347250Y327250D03*
X349300Y322800D03*
X337400Y331400D03*
X339000Y338200D03*
X341900Y352543D03*
X334700Y350575D03*
X349200Y334827D03*
X340400Y367900D03*
X351800Y354512D03*
X348214Y362386D03*
X340054Y364354D03*
X342000Y358449D03*
X337200Y360417D03*
X345200Y356480D03*
X349200Y376300D03*
X344000Y411200D03*
X337100Y407000D03*
X347500Y408500D03*
X340300Y410400D03*
X351600Y411900D03*
X337400Y420000D03*
X346777Y435123D03*
X351400Y433400D03*
X339300Y435400D03*
X351000Y466100D03*
X342200Y601400D03*
X348400Y605200D03*
X349800Y631900D03*
X349400Y636100D03*
X335600Y642200D03*
X350500Y644500D03*
X339900Y643300D03*
Y656300D03*
X337800Y782800D03*
X341300Y812200D03*
X346400Y812100D03*
X341300Y799200D03*
X353000Y825500D03*
X343900Y818500D03*
X339700Y861600D03*
X344500Y935000D03*
X370650Y24250D03*
X354824Y22200D03*
X365800Y9200D03*
X364624Y34676D03*
X361776D03*
X365600Y112500D03*
X372600Y126900D03*
X372000Y189700D03*
X357900Y196500D03*
X369700Y207800D03*
X368200Y239900D03*
X365800Y253600D03*
X370400Y257700D03*
X370300Y263700D03*
X367091Y279709D03*
X369900Y279900D03*
X355105Y311205D03*
X354300Y332858D03*
X371336Y338764D03*
X369700Y342700D03*
X368702Y380102D03*
X359000Y391800D03*
X366700Y393800D03*
X365250Y405450D03*
X369800Y437500D03*
X362700Y441900D03*
X370400Y431300D03*
X371400Y466300D03*
X365300Y504900D03*
X365800Y531600D03*
X364500Y544900D03*
X363100Y561200D03*
X365200Y584300D03*
X365000Y596900D03*
X370900Y590700D03*
X368200Y600900D03*
X363800Y631200D03*
X356700Y634400D03*
X356800Y640400D03*
X359500Y656300D03*
X369400Y644100D03*
X363300Y644200D03*
X354900Y643900D03*
X365000Y807600D03*
X365500Y825400D03*
X371600Y822400D03*
X361900Y854800D03*
X359600Y935000D03*
X391100Y23600D03*
X381050Y23550D03*
X373800Y9200D03*
X381800D03*
X373700Y145000D03*
X374300Y167300D03*
X376900Y196900D03*
X375200Y184900D03*
X383200Y216400D03*
X384300Y204700D03*
Y234400D03*
X375400Y218800D03*
X384100Y239700D03*
X373700Y240300D03*
X383100Y255400D03*
X376700Y269900D03*
X378300Y263100D03*
X376450Y273350D03*
X375200Y285700D03*
X378800Y279200D03*
X376000Y279700D03*
X389700Y304324D03*
Y301476D03*
X386500Y312976D03*
X384700Y320400D03*
X385500Y327600D03*
Y324751D03*
X386500Y315824D03*
X382300Y331200D03*
X376768Y340732D03*
X391000Y335100D03*
X388650Y337050D03*
X386800Y335100D03*
X383200Y368400D03*
X390500Y402200D03*
X382400Y399400D03*
X380800Y393800D03*
X387100Y394400D03*
X374700Y435200D03*
X378200Y600900D03*
X388200D03*
X374700Y655500D03*
X391000Y655700D03*
X381900Y644100D03*
X374900Y644200D03*
X381128Y788028D03*
X385000Y810000D03*
X373300Y810300D03*
X376400Y801500D03*
X378150Y823350D03*
X374300Y818100D03*
X383350Y836850D03*
X389400Y935000D03*
X411050Y24150D03*
X410500Y9200D03*
X405350Y292350D03*
X396200Y311900D03*
Y309000D03*
X402000Y330900D03*
X402900Y320900D03*
Y318051D03*
X393500Y337100D03*
X406900Y352543D03*
X404700Y350575D03*
X408400Y346638D03*
X395600Y342500D03*
X392800Y368900D03*
X396600Y371500D03*
X398100Y378200D03*
X397100Y375400D03*
X393600Y407800D03*
X395100Y401500D03*
X395000Y413800D03*
X394900Y424400D03*
X395100Y434000D03*
X410300Y506200D03*
Y498200D03*
Y514200D03*
X396200Y600900D03*
X406200D03*
X393800Y637300D03*
X403400Y646500D03*
X401000Y656600D03*
X409500Y661400D03*
X398700Y667000D03*
X400700Y666400D03*
X407200Y666600D03*
X411200Y678300D03*
X404600Y714500D03*
X404400Y734200D03*
X404300Y736200D03*
X403700Y726000D03*
X393351Y730253D03*
X404700Y729000D03*
X393351Y728284D03*
X402200Y732221D03*
X410357Y755843D03*
X411012Y757812D03*
X404780Y759780D03*
X403597Y777497D03*
X406686Y765686D03*
X404254Y767654D03*
X408051Y761749D03*
X409183Y763717D03*
X405965Y779465D03*
X409600Y804800D03*
X408600Y814200D03*
X406850Y823350D03*
X402050Y836950D03*
X400800Y864800D03*
X420650Y23950D03*
X418500Y9200D03*
X426500D03*
X413000Y37300D03*
X426500Y41000D03*
X424200Y38800D03*
X431000Y35800D03*
X427900Y273900D03*
X427600Y279000D03*
X427500Y331900D03*
X428400Y320100D03*
X414350Y350150D03*
X421200Y353500D03*
X419600Y346200D03*
X424700Y357600D03*
X413850Y356050D03*
X421400Y358449D03*
X426900Y360417D03*
X416300Y458800D03*
Y466800D03*
Y450800D03*
X426100Y463000D03*
Y471000D03*
Y479000D03*
Y507800D03*
Y515800D03*
Y523800D03*
X421136Y547178D03*
X420393Y566034D03*
X414736Y560378D03*
X426793Y552834D03*
X426050Y571691D03*
X425600Y597600D03*
X425300Y608200D03*
X412900Y613000D03*
X433500Y634300D03*
X422800Y639000D03*
X429200Y658200D03*
X430600Y650500D03*
X425700Y677900D03*
X424100Y671400D03*
X427200Y664700D03*
X429676Y671676D03*
X417600Y672100D03*
X419100Y684600D03*
X428300Y684200D03*
X422500Y686600D03*
X428976Y715500D03*
X430900Y718300D03*
X413100Y738200D03*
X422551Y737700D03*
X425400D03*
X427576Y725300D03*
X430424D03*
X411900Y740095D03*
X413425Y753875D03*
X428500Y765300D03*
X418300Y770500D03*
X424400Y854500D03*
X433500Y899700D03*
X419300Y935000D03*
X419200D03*
X436100Y23200D03*
X446000Y23400D03*
X434000Y38300D03*
X433500Y35900D03*
X448300Y303300D03*
X432100Y317000D03*
X441600Y333900D03*
X439100Y349300D03*
X445300Y356100D03*
X431914Y362386D03*
X438054Y364354D03*
X435400Y360700D03*
X432450Y558491D03*
X431700Y603100D03*
X435700Y621600D03*
X435900Y612600D03*
X435700Y625300D03*
X439100Y654500D03*
X438000Y661300D03*
X436776Y676876D03*
Y679724D03*
X434100Y673651D03*
Y676500D03*
X440300Y681176D03*
X436500Y666300D03*
X447400Y687076D03*
X444276Y696400D03*
X447400Y689924D03*
X447124Y696400D03*
X444736Y683040D03*
Y685889D03*
X440300Y684024D03*
X431824Y715500D03*
X440551Y703200D03*
X443400D03*
X440600Y706700D03*
X435700Y758600D03*
X448400Y815200D03*
X436500Y812600D03*
X448400Y845000D03*
Y874900D03*
X449100Y935000D03*
X450850Y24150D03*
X463300Y9200D03*
X455300D03*
X460400Y23500D03*
X457900Y39600D03*
X465000Y39400D03*
X462800Y36600D03*
X457500D03*
X454000Y36700D03*
X457200Y97500D03*
X468800Y109500D03*
X460300Y256100D03*
X460600Y286900D03*
X451900Y288100D03*
X467100Y293900D03*
X463300Y302900D03*
X453724Y307076D03*
X464700Y330100D03*
X453100Y332100D03*
X461300Y362600D03*
X461000Y367900D03*
Y371700D03*
X460800Y355900D03*
X469500Y658200D03*
X459000Y672400D03*
X461700Y669400D03*
X456200Y675800D03*
X466100Y664700D03*
X471300Y9200D03*
X481100Y23700D03*
X476900Y40300D03*
X482800Y40200D03*
X479000Y37400D03*
X474000D03*
X487019Y65202D03*
X483900Y131300D03*
X472400Y132800D03*
X483900Y161100D03*
X472700Y165800D03*
X483900Y191000D03*
X472700Y195600D03*
X483900Y220800D03*
X472700Y225500D03*
X483600Y254000D03*
X472700Y255400D03*
X486100Y270100D03*
X481100Y266100D03*
X486000Y281900D03*
X476200Y283600D03*
X474000Y288400D03*
X487700Y303400D03*
X479500Y306800D03*
X469700Y297700D03*
X476000Y332500D03*
X477400Y353000D03*
X486300Y346200D03*
X481900Y350700D03*
X471100Y369400D03*
X485100Y368900D03*
X479300Y365200D03*
X481500Y386500D03*
X480100Y407200D03*
Y423200D03*
Y415200D03*
Y445100D03*
Y437100D03*
X481700Y466200D03*
X480100Y453100D03*
X481700Y482200D03*
Y474200D03*
X486400Y600600D03*
Y592600D03*
Y608600D03*
X472700Y650500D03*
X487000Y657300D03*
Y673300D03*
Y665300D03*
X477300Y851700D03*
Y886200D03*
X478900Y935000D03*
X508100Y9200D03*
X500100D03*
X491800Y23400D03*
X496100Y40100D03*
X492800Y36600D03*
X497176Y58559D03*
X502833Y64215D03*
X491519Y52902D03*
X492676Y70859D03*
X498333Y76515D03*
X505900Y285600D03*
X497500Y277300D03*
X506100Y300800D03*
X496300Y327400D03*
X501400Y341200D03*
X497000Y372700D03*
Y361300D03*
X497200Y364600D03*
X491900Y386100D03*
Y378700D03*
X496900Y641700D03*
Y657700D03*
Y649700D03*
X498129Y735688D03*
X503786Y730031D03*
X506600Y724900D03*
X498372Y749645D03*
X504029Y743988D03*
X492472Y741345D03*
X501700Y757800D03*
X507800Y755000D03*
X501900Y778100D03*
X501700Y766400D03*
X490600Y766500D03*
X501800Y788400D03*
X507100Y788800D03*
X491300Y806800D03*
X507100Y851700D03*
Y886200D03*
X493900Y935000D03*
X516100Y9200D03*
X525119Y147202D03*
X522500Y278200D03*
X524300Y313900D03*
X510600Y330400D03*
X519900Y328900D03*
Y321400D03*
X524400Y341000D03*
X510600Y335900D03*
Y341600D03*
X527000Y359900D03*
X527100Y354900D03*
X521900Y398800D03*
Y395400D03*
X525900Y401100D03*
X521900Y401800D03*
X525200Y427900D03*
X527300Y429900D03*
X521900Y419600D03*
X522400Y424900D03*
X525000Y425200D03*
X515900Y680500D03*
Y672500D03*
Y664500D03*
X522800Y716000D03*
X509686Y738331D03*
X520200Y736500D03*
X518300Y731900D03*
X526200Y755500D03*
X525900Y750500D03*
X517800Y777600D03*
X521000Y760000D03*
X514700Y765300D03*
X517500Y763000D03*
X512200Y788600D03*
X517600Y788500D03*
X517800Y781700D03*
X526300Y788400D03*
X521200Y806800D03*
X522700Y827900D03*
Y872700D03*
Y902500D03*
X523700Y935000D03*
X528319Y98302D03*
X533976Y103959D03*
X539633Y109615D03*
X530776Y152859D03*
X536433Y158515D03*
X529600Y193800D03*
Y185800D03*
Y215700D03*
Y201800D03*
Y223700D03*
Y231700D03*
Y268500D03*
Y276500D03*
Y260500D03*
X528600Y287500D03*
X533700Y282300D03*
X530200Y315100D03*
X536900Y314200D03*
X529800Y304600D03*
X528800Y322500D03*
X536100Y347700D03*
X531750Y340550D03*
X527900Y367900D03*
X536300Y364900D03*
X534300Y387600D03*
X527600Y377600D03*
X527700Y373200D03*
X536200Y381600D03*
X540100Y407800D03*
X544100Y401200D03*
X534700Y419500D03*
X534840Y415740D03*
X536800Y421600D03*
X546600Y429700D03*
X530900Y430000D03*
X540000Y416000D03*
X544100Y411800D03*
X533470Y413770D03*
X533600Y411800D03*
X544200Y423100D03*
X546070Y421470D03*
X542130Y423630D03*
X542400Y693900D03*
X534800Y698500D03*
X533100Y711800D03*
X531600Y713900D03*
X542200Y701700D03*
X542800Y705600D03*
X534300D03*
X532400Y734200D03*
X528100Y732100D03*
X534300Y735600D03*
X532100Y732300D03*
X530700Y728800D03*
X537200Y721000D03*
X537400Y728200D03*
X545500Y728500D03*
X544900Y720900D03*
X541400Y725000D03*
X531470Y726970D03*
X531600Y725000D03*
X541300Y735900D03*
X543500D03*
X539400Y735800D03*
X538300Y745400D03*
X540700Y740800D03*
X542100Y745700D03*
X535500Y750700D03*
X531500Y750300D03*
X544400Y741900D03*
X531800Y755500D03*
X534000Y766400D03*
X536400Y762700D03*
X535100Y781300D03*
X534200Y788300D03*
X536900Y851700D03*
Y886200D03*
X561600Y314600D03*
X555600D03*
X561200Y318700D03*
X561000Y324500D03*
X556500Y328200D03*
X556200Y333400D03*
X560600Y336300D03*
X561600Y342400D03*
X555500Y347700D03*
X559100Y364900D03*
X554600Y367300D03*
X561200Y368800D03*
X561800Y356600D03*
X555300Y362900D03*
X561600Y373700D03*
X547500Y387400D03*
X563800Y391300D03*
X554230Y409830D03*
X554500Y396700D03*
X564200Y402200D03*
X547600Y399600D03*
X548100Y407900D03*
X548040Y401660D03*
X549600Y421900D03*
X556200Y420500D03*
X553800Y420400D03*
X554200Y411800D03*
X559300Y421300D03*
X563900Y421100D03*
X559300Y430300D03*
X548200Y416000D03*
X554460Y415740D03*
X547000Y435300D03*
X556900Y433300D03*
X558100Y436500D03*
X552200Y437100D03*
X555700Y694100D03*
Y699000D03*
X547100Y714300D03*
Y709000D03*
Y712000D03*
X551100Y713300D03*
X555700Y713200D03*
X554100Y705200D03*
X546950Y732450D03*
X551000Y725000D03*
X550100Y734400D03*
X549800Y736300D03*
X564700Y724600D03*
X551600Y732700D03*
X548800Y750000D03*
X565600Y741100D03*
X547400Y757300D03*
X561900Y757400D03*
X555800Y751700D03*
X558800Y771800D03*
X547200Y761800D03*
X561800Y764400D03*
X555600Y768000D03*
X551250Y760150D03*
X566000Y791900D03*
X551000Y806800D03*
X552500Y827900D03*
Y872700D03*
Y902500D03*
X553500Y935000D03*
X578700Y45000D03*
Y53000D03*
Y61000D03*
Y97800D03*
Y89800D03*
Y105800D03*
Y134500D03*
Y142500D03*
Y150500D03*
Y179900D03*
Y187900D03*
Y195900D03*
Y232700D03*
Y224700D03*
Y240700D03*
Y269500D03*
Y277500D03*
Y285500D03*
Y314300D03*
Y322300D03*
Y330300D03*
Y367700D03*
Y359700D03*
Y375700D03*
X571300Y402300D03*
X571500Y409400D03*
X571100Y421500D03*
X570900Y415100D03*
X566800Y718500D03*
X575000Y733600D03*
X584600Y741600D03*
X568900Y757100D03*
X575100Y752300D03*
X569200Y763000D03*
X582600Y760300D03*
X574700Y766700D03*
X582300Y827900D03*
Y872700D03*
Y902500D03*
X702150Y15900D03*
Y315900D03*
G54D20*
X236777Y412377D03*
X240921Y315621D03*
X274300Y378100D03*
X278800Y265600D03*
X279400Y315100D03*
X277400Y427400D03*
X311500Y314300D03*
X319100Y273500D03*
X316777Y429400D03*
X353400Y365900D03*
X358500Y258800D03*
X358100Y427500D03*
X702150Y265900D03*
G54D21*
G01X0Y0D02*
X590550D01*
Y984250D01*
X0D01*
Y0D01*
G01X198100Y663743D02*
X197517Y663363D01*
X197183Y662857D01*
X197100Y662287D01*
X197183Y661780D01*
X197600Y661273D01*
X198100Y660957D01*
X198600Y660893D01*
X199183Y661020D01*
X199600Y661463D01*
X199767Y661907D01*
Y662477D01*
G01Y661907D02*
X200017Y661527D01*
X200433Y661210D01*
X200933Y661083D01*
X201433Y661210D01*
X201850Y661527D01*
X202100Y662097D01*
X202017Y662667D01*
X201683Y663237D01*
G01X202100Y657250D02*
X201933Y657757D01*
X201517Y658137D01*
X201017Y658390D01*
X200350Y658580D01*
X199600Y658643D01*
X198850Y658580D01*
X198183Y658390D01*
X197683Y658137D01*
X197267Y657757D01*
X197100Y657250D01*
X197267Y656743D01*
X197683Y656363D01*
X198183Y656110D01*
X198850Y655920D01*
X199600Y655857D01*
X200350Y655920D01*
X201017Y656110D01*
X201517Y656363D01*
X201933Y656743D01*
X202100Y657250D01*
G01X198600Y653500D02*
X203600D01*
X202600Y654260D01*
G01X198600D02*
Y652740D01*
G01Y647640D02*
X203600D01*
X200017Y649983D01*
Y646817D01*
G01X198600Y671200D02*
X203600D01*
X202600Y671960D01*
G01X198600D02*
Y670440D01*
G01Y665340D02*
X203600D01*
X200017Y667683D01*
Y664517D01*
G01X201767Y690103D02*
X202267Y689723D01*
X202517Y689280D01*
X202600Y688773D01*
X202433Y688140D01*
X202017Y687697D01*
X201517Y687570D01*
X201017Y687633D01*
X200600Y687887D01*
X199767Y689153D01*
X199183Y689723D01*
X198350Y690103D01*
X197600Y690230D01*
Y687570D01*
G01X202600Y683800D02*
X202433Y684307D01*
X202017Y684687D01*
X201517Y684940D01*
X200850Y685130D01*
X200100Y685193D01*
X199350Y685130D01*
X198683Y684940D01*
X198183Y684687D01*
X197767Y684307D01*
X197600Y683800D01*
X197767Y683293D01*
X198183Y682913D01*
X198683Y682660D01*
X199350Y682470D01*
X200100Y682407D01*
X200850Y682470D01*
X201517Y682660D01*
X202017Y682913D01*
X202433Y683293D01*
X202600Y683800D01*
G01X217347Y-141000D02*
Y-133500D01*
X219213D01*
X219960Y-133875D01*
X220520Y-134375D01*
X220987Y-135125D01*
X221360Y-136000D01*
X221453Y-137250D01*
X221360Y-138500D01*
X220987Y-139375D01*
X220520Y-140125D01*
X219960Y-140625D01*
X219213Y-141000D01*
X217347D01*
G01X226900Y-136000D02*
Y-141000D01*
G01Y-134000D02*
X226713Y-133875D01*
Y-133625D01*
X226900Y-133500D01*
X227087Y-133625D01*
Y-133875D01*
X226900Y-134000D01*
G01X233840Y-141000D02*
Y-134625D01*
X234027Y-134000D01*
X234400Y-133625D01*
X234960Y-133500D01*
X235520Y-133750D01*
X235800Y-134375D01*
G01X234680Y-136500D02*
X232813D01*
G01X241340Y-141000D02*
Y-134625D01*
X241527Y-134000D01*
X241900Y-133625D01*
X242460Y-133500D01*
X243020Y-133750D01*
X243300Y-134375D01*
G01X242180Y-136500D02*
X240313D01*
G01X248000Y-137625D02*
X250987D01*
X250707Y-136750D01*
X250240Y-136250D01*
X249587Y-136000D01*
X248933Y-136125D01*
X248373Y-136500D01*
X248000Y-137375D01*
X247813Y-138125D01*
Y-138875D01*
X248000Y-139625D01*
X248467Y-140375D01*
X249027Y-140875D01*
X249680Y-141000D01*
X250333Y-140750D01*
X250987Y-140000D01*
G01X255593Y-141000D02*
Y-136000D01*
G01Y-137000D02*
X256060Y-136500D01*
X256527Y-136125D01*
X257180Y-136000D01*
X257647Y-136125D01*
X258207Y-136500D01*
G01X263000Y-137625D02*
X265987D01*
X265707Y-136750D01*
X265240Y-136250D01*
X264587Y-136000D01*
X263933Y-136125D01*
X263373Y-136500D01*
X263000Y-137375D01*
X262813Y-138125D01*
Y-138875D01*
X263000Y-139625D01*
X263467Y-140375D01*
X264027Y-140875D01*
X264680Y-141000D01*
X265333Y-140750D01*
X265987Y-140000D01*
G01X270313Y-141000D02*
Y-136000D01*
G01Y-137250D02*
X270687Y-136625D01*
X271247Y-136125D01*
X271993Y-136000D01*
X272647Y-136125D01*
X273207Y-136625D01*
X273487Y-137500D01*
Y-141000D01*
G01X279400Y-133500D02*
Y-141000D01*
G01X278093Y-136000D02*
X280707D01*
G01X286900D02*
Y-141000D01*
G01Y-134000D02*
X286713Y-133875D01*
Y-133625D01*
X286900Y-133500D01*
X287087Y-133625D01*
Y-133875D01*
X286900Y-134000D01*
G01X296080Y-141000D02*
Y-136000D01*
G01Y-136875D02*
X295707Y-136375D01*
X295147Y-136125D01*
X294493Y-136000D01*
X293840Y-136250D01*
X293280Y-136750D01*
X292907Y-137500D01*
X292720Y-138500D01*
X292907Y-139500D01*
X293280Y-140250D01*
X293840Y-140750D01*
X294493Y-141000D01*
X295147Y-140875D01*
X295707Y-140500D01*
X296080Y-140000D01*
G01X301900Y-141000D02*
Y-133500D01*
G01X315033Y-141000D02*
Y-133500D01*
X317273D01*
X318020Y-133875D01*
X318580Y-134750D01*
X318767Y-135750D01*
X318580Y-136750D01*
X318113Y-137500D01*
X317273Y-137875D01*
X315033D01*
G01X326080Y-141000D02*
Y-136000D01*
G01Y-136875D02*
X325707Y-136375D01*
X325147Y-136125D01*
X324493Y-136000D01*
X323840Y-136250D01*
X323280Y-136750D01*
X322907Y-137500D01*
X322720Y-138500D01*
X322907Y-139500D01*
X323280Y-140250D01*
X323840Y-140750D01*
X324493Y-141000D01*
X325147Y-140875D01*
X325707Y-140500D01*
X326080Y-140000D01*
G01X331900Y-136000D02*
Y-141000D01*
G01Y-134000D02*
X331713Y-133875D01*
Y-133625D01*
X331900Y-133500D01*
X332087Y-133625D01*
Y-133875D01*
X331900Y-134000D01*
G01X338093Y-141000D02*
Y-136000D01*
G01Y-137000D02*
X338560Y-136500D01*
X339027Y-136125D01*
X339680Y-136000D01*
X340147Y-136125D01*
X340707Y-136500D01*
G01X345500Y-140125D02*
X345967Y-140625D01*
X346620Y-141000D01*
X347180D01*
X347740Y-140750D01*
X348113Y-140375D01*
X348300Y-139875D01*
X348207Y-139125D01*
X347833Y-138750D01*
X346153Y-138000D01*
X345780Y-137125D01*
X345967Y-136500D01*
X346340Y-136125D01*
X346900Y-136000D01*
X347460Y-136125D01*
X348020Y-136500D01*
G01X216933Y700067D02*
X217767Y700700D01*
X218600Y701017D01*
X221933D01*
X222767Y700700D01*
X223600Y700067D01*
G01X222767Y695853D02*
X223267Y695473D01*
X223517Y695030D01*
X223600Y694523D01*
X223433Y693890D01*
X223017Y693447D01*
X222517Y693320D01*
X222017Y693383D01*
X221600Y693637D01*
X220767Y694903D01*
X220183Y695473D01*
X219350Y695853D01*
X218600Y695980D01*
Y693320D01*
G01X221933Y690500D02*
X218600Y688600D01*
G01X221933D02*
X218600Y690500D01*
G01X219266Y680680D02*
X218850Y680173D01*
X218600Y679603D01*
Y679097D01*
X218850Y678590D01*
X219266Y678210D01*
X219850Y678020D01*
X220433Y678147D01*
X220933Y678463D01*
X221267Y679033D01*
X221433Y679793D01*
X221767Y680237D01*
X222350Y680427D01*
X222933Y680300D01*
X223350Y679983D01*
X223600Y679540D01*
Y679097D01*
X223433Y678653D01*
X223017Y678273D01*
G01X221517Y673237D02*
X221850Y673680D01*
X221933Y674060D01*
X221767Y674567D01*
X221433Y674947D01*
X220850Y675200D01*
X220267Y675263D01*
X219683Y675200D01*
X219183Y674947D01*
X218767Y674567D01*
X218600Y674060D01*
X218767Y673617D01*
X219100Y673237D01*
G01X218600Y668010D02*
X221933D01*
G01X221350D02*
X221683Y668263D01*
X221850Y668643D01*
X221933Y669087D01*
X221767Y669530D01*
X221433Y669910D01*
X220933Y670163D01*
X220267Y670290D01*
X219600Y670163D01*
X219100Y669910D01*
X218767Y669530D01*
X218600Y669087D01*
X218683Y668643D01*
X218933Y668263D01*
X219266Y668010D01*
G01X218600Y664050D02*
X223600D01*
G01X220850Y659900D02*
Y657873D01*
X221433Y658063D01*
X221767Y658380D01*
X221933Y658823D01*
X221850Y659267D01*
X221600Y659647D01*
X221017Y659900D01*
X220517Y660027D01*
X220017D01*
X219517Y659900D01*
X219017Y659583D01*
X218683Y659203D01*
X218600Y658760D01*
X218767Y658317D01*
X219266Y657873D01*
G01X216933Y653533D02*
X217767Y652900D01*
X218600Y652583D01*
X221933D01*
X222767Y652900D01*
X223600Y653533D01*
G01X206767Y690003D02*
X207267Y689623D01*
X207517Y689180D01*
X207600Y688673D01*
X207433Y688040D01*
X207017Y687597D01*
X206517Y687470D01*
X206016Y687533D01*
X205600Y687787D01*
X204767Y689053D01*
X204183Y689623D01*
X203350Y690003D01*
X202600Y690130D01*
Y687470D01*
G01X206767Y684903D02*
X207267Y684523D01*
X207517Y684080D01*
X207600Y683573D01*
X207433Y682940D01*
X207017Y682497D01*
X206517Y682370D01*
X206016Y682433D01*
X205600Y682687D01*
X204767Y683953D01*
X204183Y684523D01*
X203350Y684903D01*
X202600Y685030D01*
Y682370D01*
G01X485817Y388533D02*
X484983Y387900D01*
X484150Y387583D01*
X480817D01*
X479983Y387900D01*
X479150Y388533D01*
G01X479983Y392747D02*
X479483Y393127D01*
X479233Y393570D01*
X479150Y394077D01*
X479317Y394710D01*
X479733Y395153D01*
X480233Y395280D01*
X480734Y395217D01*
X481150Y394963D01*
X481983Y393697D01*
X482567Y393127D01*
X483400Y392747D01*
X484150Y392620D01*
Y395280D01*
G01X480817Y398100D02*
X484150Y400000D01*
G01X480817D02*
X484150Y398100D01*
G01X483484Y407920D02*
X483900Y408427D01*
X484150Y408997D01*
Y409503D01*
X483900Y410010D01*
X483484Y410390D01*
X482900Y410580D01*
X482317Y410453D01*
X481817Y410137D01*
X481483Y409567D01*
X481317Y408807D01*
X480983Y408363D01*
X480400Y408173D01*
X479817Y408300D01*
X479400Y408617D01*
X479150Y409060D01*
Y409503D01*
X479317Y409947D01*
X479733Y410327D01*
G01X481233Y415363D02*
X480900Y414920D01*
X480817Y414540D01*
X480983Y414033D01*
X481317Y413653D01*
X481900Y413400D01*
X482483Y413337D01*
X483067Y413400D01*
X483567Y413653D01*
X483983Y414033D01*
X484150Y414540D01*
X483983Y414983D01*
X483650Y415363D01*
G01X484150Y420590D02*
X480817D01*
G01X481400D02*
X481067Y420337D01*
X480900Y419957D01*
X480817Y419513D01*
X480983Y419070D01*
X481317Y418690D01*
X481817Y418437D01*
X482483Y418310D01*
X483150Y418437D01*
X483650Y418690D01*
X483983Y419070D01*
X484150Y419513D01*
X484067Y419957D01*
X483817Y420337D01*
X483484Y420590D01*
G01X484150Y424550D02*
X479150D01*
G01X481900Y428700D02*
Y430727D01*
X481317Y430537D01*
X480983Y430220D01*
X480817Y429777D01*
X480900Y429333D01*
X481150Y428953D01*
X481733Y428700D01*
X482233Y428573D01*
X482733D01*
X483233Y428700D01*
X483733Y429017D01*
X484067Y429397D01*
X484150Y429840D01*
X483983Y430283D01*
X483484Y430727D01*
G01X485817Y435067D02*
X484983Y435700D01*
X484150Y436017D01*
X480817D01*
X479983Y435700D01*
X479150Y435067D01*
G01X483117Y701733D02*
X482283Y701100D01*
X481450Y700783D01*
X478117D01*
X477283Y701100D01*
X476450Y701733D01*
G01X477283Y705947D02*
X476783Y706327D01*
X476533Y706770D01*
X476450Y707277D01*
X476617Y707910D01*
X477033Y708353D01*
X477533Y708480D01*
X478034Y708417D01*
X478450Y708163D01*
X479283Y706897D01*
X479867Y706327D01*
X480700Y705947D01*
X481450Y705820D01*
Y708480D01*
G01X478117Y711300D02*
X481450Y713200D01*
G01X478117D02*
X481450Y711300D01*
G01X480784Y721120D02*
X481200Y721627D01*
X481450Y722197D01*
Y722703D01*
X481200Y723210D01*
X480784Y723590D01*
X480200Y723780D01*
X479617Y723653D01*
X479117Y723337D01*
X478783Y722767D01*
X478617Y722007D01*
X478283Y721563D01*
X477700Y721373D01*
X477117Y721500D01*
X476700Y721817D01*
X476450Y722260D01*
Y722703D01*
X476617Y723147D01*
X477033Y723527D01*
G01X478533Y728563D02*
X478200Y728120D01*
X478117Y727740D01*
X478283Y727233D01*
X478617Y726853D01*
X479200Y726600D01*
X479783Y726537D01*
X480367Y726600D01*
X480867Y726853D01*
X481283Y727233D01*
X481450Y727740D01*
X481283Y728183D01*
X480950Y728563D01*
G01X481450Y733790D02*
X478117D01*
G01X478700D02*
X478367Y733537D01*
X478200Y733157D01*
X478117Y732713D01*
X478283Y732270D01*
X478617Y731890D01*
X479117Y731637D01*
X479783Y731510D01*
X480450Y731637D01*
X480950Y731890D01*
X481283Y732270D01*
X481450Y732713D01*
X481367Y733157D01*
X481117Y733537D01*
X480784Y733790D01*
G01X481450Y737750D02*
X476450D01*
G01X479200Y741900D02*
Y743927D01*
X478617Y743737D01*
X478283Y743420D01*
X478117Y742977D01*
X478200Y742533D01*
X478450Y742153D01*
X479033Y741900D01*
X479533Y741773D01*
X480033D01*
X480533Y741900D01*
X481033Y742217D01*
X481367Y742597D01*
X481450Y743040D01*
X481283Y743483D01*
X480784Y743927D01*
G01X483117Y748267D02*
X482283Y748900D01*
X481450Y749217D01*
X478117D01*
X477283Y748900D01*
X476450Y748267D01*
G01X499150Y401700D02*
X494150D01*
X495150Y400940D01*
G01X499150D02*
Y402460D01*
G01X494983Y405597D02*
X494483Y405977D01*
X494233Y406420D01*
X494150Y406927D01*
X494317Y407560D01*
X494733Y408003D01*
X495233Y408130D01*
X495734Y408067D01*
X496150Y407813D01*
X496983Y406547D01*
X497567Y405977D01*
X498400Y405597D01*
X499150Y405470D01*
Y408130D01*
G01X505650Y401700D02*
X500650D01*
X501650Y400940D01*
G01X505650D02*
Y402460D01*
G01X501483Y405597D02*
X500983Y405977D01*
X500733Y406420D01*
X500650Y406927D01*
X500817Y407560D01*
X501233Y408003D01*
X501733Y408130D01*
X502234Y408067D01*
X502650Y407813D01*
X503483Y406547D01*
X504067Y405977D01*
X504900Y405597D01*
X505650Y405470D01*
Y408130D01*
G01X503650Y417400D02*
X498650D01*
X499650Y416640D01*
G01X503650D02*
Y418160D01*
G01X499483Y421297D02*
X498983Y421677D01*
X498733Y422120D01*
X498650Y422627D01*
X498817Y423260D01*
X499233Y423703D01*
X499733Y423830D01*
X500234Y423767D01*
X500650Y423513D01*
X501483Y422247D01*
X502067Y421677D01*
X502900Y421297D01*
X503650Y421170D01*
Y423830D01*
G01X501483Y425047D02*
X500983Y425427D01*
X500733Y425870D01*
X500650Y426377D01*
X500817Y427010D01*
X501233Y427453D01*
X501733Y427580D01*
X502234Y427517D01*
X502650Y427263D01*
X503483Y425997D01*
X504067Y425427D01*
X504900Y425047D01*
X505650Y424920D01*
Y427580D01*
G01X500650Y431350D02*
X500817Y430843D01*
X501233Y430463D01*
X501733Y430210D01*
X502400Y430020D01*
X503150Y429957D01*
X503900Y430020D01*
X504567Y430210D01*
X505067Y430463D01*
X505483Y430843D01*
X505650Y431350D01*
X505483Y431857D01*
X505067Y432237D01*
X504567Y432490D01*
X503900Y432680D01*
X503150Y432743D01*
X502400Y432680D01*
X501733Y432490D01*
X501233Y432237D01*
X500817Y431857D01*
X500650Y431350D01*
G01X498650Y432700D02*
X498817Y432193D01*
X499233Y431813D01*
X499733Y431560D01*
X500400Y431370D01*
X501150Y431307D01*
X501900Y431370D01*
X502567Y431560D01*
X503067Y431813D01*
X503483Y432193D01*
X503650Y432700D01*
X503483Y433207D01*
X503067Y433587D01*
X502567Y433840D01*
X501900Y434030D01*
X501150Y434093D01*
X500400Y434030D01*
X499733Y433840D01*
X499233Y433587D01*
X498817Y433207D01*
X498650Y432700D01*
G01X496450Y714900D02*
X491450D01*
X492450Y714140D01*
G01X496450D02*
Y715660D01*
G01X492283Y718797D02*
X491783Y719177D01*
X491533Y719620D01*
X491450Y720127D01*
X491617Y720760D01*
X492033Y721203D01*
X492533Y721330D01*
X493034Y721267D01*
X493450Y721013D01*
X494283Y719747D01*
X494867Y719177D01*
X495700Y718797D01*
X496450Y718670D01*
Y721330D01*
G01X502950Y714900D02*
X497950D01*
X498950Y714140D01*
G01X502950D02*
Y715660D01*
G01X498783Y718797D02*
X498283Y719177D01*
X498033Y719620D01*
X497950Y720127D01*
X498117Y720760D01*
X498533Y721203D01*
X499033Y721330D01*
X499534Y721267D01*
X499950Y721013D01*
X500783Y719747D01*
X501367Y719177D01*
X502200Y718797D01*
X502950Y718670D01*
Y721330D01*
G01X500950Y730600D02*
X495950D01*
X496950Y729840D01*
G01X500950D02*
Y731360D01*
G01X496783Y734497D02*
X496283Y734877D01*
X496033Y735320D01*
X495950Y735827D01*
X496117Y736460D01*
X496533Y736903D01*
X497033Y737030D01*
X497534Y736967D01*
X497950Y736713D01*
X498783Y735447D01*
X499367Y734877D01*
X500200Y734497D01*
X500950Y734370D01*
Y737030D01*
G01X498783Y738247D02*
X498283Y738627D01*
X498033Y739070D01*
X497950Y739577D01*
X498117Y740210D01*
X498533Y740653D01*
X499033Y740780D01*
X499534Y740717D01*
X499950Y740463D01*
X500783Y739197D01*
X501367Y738627D01*
X502200Y738247D01*
X502950Y738120D01*
Y740780D01*
G01X497950Y744550D02*
X498117Y744043D01*
X498533Y743663D01*
X499033Y743410D01*
X499700Y743220D01*
X500450Y743157D01*
X501200Y743220D01*
X501867Y743410D01*
X502367Y743663D01*
X502783Y744043D01*
X502950Y744550D01*
X502783Y745057D01*
X502367Y745437D01*
X501867Y745690D01*
X501200Y745880D01*
X500450Y745943D01*
X499700Y745880D01*
X499033Y745690D01*
X498533Y745437D01*
X498117Y745057D01*
X497950Y744550D01*
G01X495950Y745900D02*
X496117Y745393D01*
X496533Y745013D01*
X497033Y744760D01*
X497700Y744570D01*
X498450Y744507D01*
X499200Y744570D01*
X499867Y744760D01*
X500367Y745013D01*
X500783Y745393D01*
X500950Y745900D01*
X500783Y746407D01*
X500367Y746787D01*
X499867Y747040D01*
X499200Y747230D01*
X498450Y747293D01*
X497700Y747230D01*
X497033Y747040D01*
X496533Y746787D01*
X496117Y746407D01*
X495950Y745900D01*
G54D12*
X21300Y67400D03*
Y83000D03*
Y98600D03*
Y114200D03*
X702150Y65900D03*
G54D22*
G01X-144145Y524567D02*
X-143215Y525816D01*
X-142130Y526442D01*
X-140890Y526650D01*
X-139340Y526233D01*
X-138255Y525192D01*
X-137945Y523942D01*
X-138100Y522691D01*
X-138720Y521650D01*
X-141820Y519567D01*
X-143215Y518108D01*
X-144145Y516025D01*
X-144455Y514150D01*
X-137945D01*
G01X-132210Y516650D02*
X-131280Y515191D01*
X-130040Y514358D01*
X-128645Y514150D01*
X-127405Y514358D01*
X-126165Y515400D01*
X-125390Y516650D01*
X-125235Y517900D01*
X-125545Y519358D01*
X-126630Y520400D01*
X-127715Y520817D01*
X-129110D01*
G01X-127715D02*
X-126785Y521442D01*
X-126010Y522483D01*
X-125700Y523733D01*
X-126010Y524983D01*
X-126785Y526025D01*
X-128180Y526650D01*
X-129575Y526442D01*
X-130970Y525608D01*
G01X-119035Y515608D02*
X-117950Y514567D01*
X-116710Y514150D01*
X-115470Y514567D01*
X-114385Y515816D01*
X-113610Y517692D01*
X-113300Y519567D01*
Y521858D01*
X-113610Y523733D01*
X-114385Y525400D01*
X-115315Y526233D01*
X-116400Y526650D01*
X-117640Y526233D01*
X-118570Y525400D01*
X-119190Y524150D01*
X-119500Y522483D01*
X-119190Y521025D01*
X-118415Y519567D01*
X-117485Y518733D01*
X-116400Y518525D01*
X-115160Y518941D01*
X-114230Y519983D01*
X-113300Y521858D01*
G01X-104000Y513733D02*
X-104310Y513942D01*
Y514358D01*
X-104000Y514567D01*
X-103690Y514358D01*
Y513942D01*
X-104000Y513733D01*
G01X-91600Y514150D02*
X-90515Y514358D01*
X-89275Y514983D01*
X-88500Y516025D01*
X-88190Y517483D01*
X-88500Y518941D01*
X-89430Y520192D01*
X-90825Y520817D01*
X-92375D01*
X-93305Y521233D01*
X-94080Y522275D01*
X-94390Y523733D01*
X-93925Y525192D01*
X-92840Y526233D01*
X-91600Y526650D01*
X-90360Y526233D01*
X-89275Y525192D01*
X-88810Y523733D01*
X-89120Y522275D01*
X-89895Y521233D01*
X-90825Y520817D01*
X-92375D01*
X-93770Y520192D01*
X-94700Y518941D01*
X-95010Y517483D01*
X-94700Y516025D01*
X-93925Y514983D01*
X-92685Y514358D01*
X-91600Y514150D01*
G01X9600Y19100D02*
X-126400D01*
G01X-116400Y504775D02*
Y19100D01*
G01X-118900Y34100D02*
X-116400Y19100D01*
X-113900Y34100D01*
X-118900D01*
G01X-116400Y536025D02*
Y963200D01*
G01X-113900Y948200D02*
X-116400Y963200D01*
X-118900Y948200D01*
X-113900D01*
G01X9600Y963200D02*
X-126400D01*
G01X-79000Y682050D02*
Y694550D01*
X-80860Y692050D01*
G01Y682050D02*
X-77140D01*
G01X-66600D02*
Y694550D01*
X-68460Y692050D01*
G01Y682050D02*
X-64740D01*
G01X-57145Y687258D02*
X-56060Y688717D01*
X-55130Y689550D01*
X-53890Y689966D01*
X-52805Y689550D01*
X-52030Y688717D01*
X-51410Y687467D01*
X-51255Y686008D01*
X-51410Y684758D01*
X-52030Y683508D01*
X-52960Y682467D01*
X-54045Y682050D01*
X-55285Y682467D01*
X-56370Y683716D01*
X-56990Y685592D01*
X-57145Y687675D01*
X-56835Y690383D01*
X-56370Y691842D01*
X-55595Y693300D01*
X-54510Y694342D01*
X-53425Y694550D01*
X-52340Y694133D01*
X-51565Y693092D01*
G01X-41800Y681633D02*
X-42110Y681842D01*
Y682258D01*
X-41800Y682467D01*
X-41490Y682258D01*
Y681842D01*
X-41800Y681633D01*
G01X-32345Y692467D02*
X-31415Y693716D01*
X-30330Y694342D01*
X-29090Y694550D01*
X-27540Y694133D01*
X-26455Y693092D01*
X-26145Y691842D01*
X-26300Y690591D01*
X-26920Y689550D01*
X-30020Y687467D01*
X-31415Y686008D01*
X-32345Y683925D01*
X-32655Y682050D01*
X-26145D01*
G01X-19945Y687258D02*
X-18860Y688717D01*
X-17930Y689550D01*
X-16690Y689966D01*
X-15605Y689550D01*
X-14830Y688717D01*
X-14210Y687467D01*
X-14055Y686008D01*
X-14210Y684758D01*
X-14830Y683508D01*
X-15760Y682467D01*
X-16845Y682050D01*
X-18085Y682467D01*
X-19170Y683716D01*
X-19790Y685592D01*
X-19945Y687675D01*
X-19635Y690383D01*
X-19170Y691842D01*
X-18395Y693300D01*
X-17310Y694342D01*
X-16225Y694550D01*
X-15140Y694133D01*
X-14365Y693092D01*
G01X9600Y505500D02*
X-58000D01*
G01X9600Y963200D02*
X-58000D01*
G01X-48000Y672675D02*
Y505500D01*
G01X-50500Y520500D02*
X-48000Y505500D01*
X-45500Y520500D01*
X-50500D01*
G01X-48000Y703925D02*
Y963200D01*
G01X-45500Y948200D02*
X-48000Y963200D01*
X-50500Y948200D01*
X-45500D01*
G01X0Y994250D02*
Y1022600D01*
G01X258575Y1012600D02*
X0D01*
G01X15000Y1015100D02*
X0Y1012600D01*
X15000Y1010100D01*
Y1015100D01*
G01X19600Y973200D02*
Y1046600D01*
G01X253375Y1036600D02*
X19600D01*
G01X34600Y1039100D02*
X19600Y1036600D01*
X34600Y1034100D01*
Y1039100D01*
G01X208400Y635500D02*
X222000Y632400D01*
X225100Y636800D01*
X234900Y633500D01*
G01X231100Y635200D02*
Y645200D01*
X221100Y650200D01*
X211100Y645200D01*
Y635200D01*
G01X202600Y662800D02*
X203100Y661800D01*
X202100D01*
X202600Y662800D01*
Y656800D01*
X203100Y657800D01*
X202100D01*
X202600Y656800D01*
G01X204600D02*
X205100Y655800D01*
X204100D01*
X204600Y656800D01*
Y654000D01*
X205100Y655000D01*
X204100D01*
X204600Y654000D01*
G01X206100D02*
X204100D01*
G01X206100Y656800D02*
X202100D01*
G01X207100Y654000D02*
Y665600D01*
X206100D01*
Y654000D01*
X207100D01*
G01X221100Y650200D02*
Y655200D01*
X209100Y658200D01*
Y662800D01*
X207100D01*
Y656800D01*
X219100Y653800D01*
Y649200D01*
G01X204600Y665600D02*
X204100Y664600D01*
X205100D01*
X204600Y665600D01*
Y662800D01*
X204100Y663800D01*
X205100D01*
X204600Y662800D01*
G01X206100D02*
X202100D01*
G01X206100Y665600D02*
X204100D01*
G01X202600Y691800D02*
Y694800D01*
X203100Y693800D01*
X202100D01*
X202600Y694800D01*
G01Y701800D02*
Y698800D01*
X203100Y699800D01*
X202100D01*
X202600Y698800D01*
G01X202100Y694800D02*
X206100D01*
G01X202100Y698800D02*
X206100D01*
G01X204600Y691700D02*
Y694700D01*
X205100Y693700D01*
X204100D01*
X204600Y694700D01*
G01Y701900D02*
Y698900D01*
X205100Y699900D01*
X204100D01*
X204600Y698900D01*
G01X204100Y694700D02*
X207100D01*
Y698900D01*
X206100D01*
Y694700D01*
G01X204100Y698900D02*
X206100D01*
G01X234100Y700800D02*
X224100Y703800D01*
X218100Y699800D01*
X208200Y702500D01*
G01X234100Y690800D02*
X224100Y693800D01*
X218100Y689800D01*
X208200Y692500D01*
G01X211100Y694800D02*
Y691800D01*
G01Y698800D02*
Y701800D01*
G01X209100Y698800D02*
Y694800D01*
G01X221100D02*
X207100D01*
Y698800D01*
X221100D01*
G01X231100Y701800D02*
Y691800D01*
G01X221100Y701800D02*
Y691800D01*
G01X219800Y909700D02*
Y1097600D01*
G01X234800Y1090100D02*
X219800Y1087600D01*
X234800Y1085100D01*
Y1090100D01*
G01X284475Y1087600D02*
X219800D01*
G01X450800Y545200D02*
X269200Y-137600D01*
G01X273700Y9126D02*
Y-25500D01*
G01X347875Y-15500D02*
X273700D01*
G01X288700Y-13000D02*
X273700Y-15500D01*
X288700Y-18000D01*
Y-13000D01*
G01X272600Y1006350D02*
Y1018850D01*
X270740Y1016350D01*
G01Y1006350D02*
X274460D01*
G01X281590Y1008225D02*
X282520Y1007183D01*
X283605Y1006558D01*
X285000Y1006350D01*
X286395Y1006767D01*
X287480Y1007600D01*
X288255Y1009058D01*
X288410Y1010725D01*
X288100Y1012392D01*
X287325Y1013433D01*
X286240Y1014267D01*
X285155Y1014475D01*
X284070Y1014267D01*
X282675Y1013433D01*
X283140Y1018850D01*
X287325D01*
G01X297400D02*
X296160Y1018433D01*
X295230Y1017392D01*
X294610Y1016142D01*
X294145Y1014475D01*
X293990Y1012600D01*
X294145Y1010725D01*
X294610Y1009058D01*
X295230Y1007808D01*
X296160Y1006767D01*
X297400Y1006350D01*
X298640Y1006767D01*
X299570Y1007808D01*
X300190Y1009058D01*
X300655Y1010725D01*
X300810Y1012600D01*
X300655Y1014475D01*
X300190Y1016142D01*
X299570Y1017392D01*
X298640Y1018433D01*
X297400Y1018850D01*
G01X267400Y1030350D02*
Y1042850D01*
X265540Y1040350D01*
G01Y1030350D02*
X269260D01*
G01X281660D02*
Y1042850D01*
X275925Y1033892D01*
X283675D01*
G01X292200Y1042850D02*
X290960Y1042433D01*
X290030Y1041392D01*
X289410Y1040142D01*
X288945Y1038475D01*
X288790Y1036600D01*
X288945Y1034725D01*
X289410Y1033058D01*
X290030Y1031808D01*
X290960Y1030767D01*
X292200Y1030350D01*
X293440Y1030767D01*
X294370Y1031808D01*
X294990Y1033058D01*
X295455Y1034725D01*
X295610Y1036600D01*
X295455Y1038475D01*
X294990Y1040142D01*
X294370Y1041392D01*
X293440Y1042433D01*
X292200Y1042850D01*
G01X304600Y1029933D02*
X304290Y1030142D01*
Y1030558D01*
X304600Y1030767D01*
X304910Y1030558D01*
Y1030142D01*
X304600Y1029933D01*
G01X317000Y1042850D02*
X315760Y1042433D01*
X314830Y1041392D01*
X314210Y1040142D01*
X313745Y1038475D01*
X313590Y1036600D01*
X313745Y1034725D01*
X314210Y1033058D01*
X314830Y1031808D01*
X315760Y1030767D01*
X317000Y1030350D01*
X318240Y1030767D01*
X319170Y1031808D01*
X319790Y1033058D01*
X320255Y1034725D01*
X320410Y1036600D01*
X320255Y1038475D01*
X319790Y1040142D01*
X319170Y1041392D01*
X318240Y1042433D01*
X317000Y1042850D01*
G01X326455Y1035558D02*
X327540Y1037017D01*
X328470Y1037850D01*
X329710Y1038267D01*
X330795Y1037850D01*
X331570Y1037017D01*
X332190Y1035767D01*
X332345Y1034308D01*
X332190Y1033058D01*
X331570Y1031808D01*
X330640Y1030767D01*
X329555Y1030350D01*
X328315Y1030767D01*
X327230Y1032016D01*
X326610Y1033892D01*
X326455Y1035975D01*
X326765Y1038683D01*
X327230Y1040142D01*
X328005Y1041600D01*
X329090Y1042642D01*
X330175Y1042850D01*
X331260Y1042433D01*
X332035Y1041392D01*
G01X447600Y546900D02*
X281600Y-132600D01*
G01X453800Y543200D02*
X281600Y-131300D01*
G01X323700Y49800D02*
X276900Y-124800D01*
G01X334800Y48100D02*
X276600Y-125700D01*
G01X360300Y55500D02*
X276600Y-126100D01*
G01X374900Y61100D02*
X277500Y-125100D01*
G01X383900Y59600D02*
X278200Y-124800D01*
G01X442700Y547500D02*
X276600Y-125100D01*
G01X444800Y546900D02*
X282800Y-127600D01*
G01X295090Y1083225D02*
X296020Y1082183D01*
X297105Y1081558D01*
X298500Y1081350D01*
X299895Y1081767D01*
X300980Y1082600D01*
X301755Y1084058D01*
X301910Y1085725D01*
X301600Y1087392D01*
X300825Y1088433D01*
X299740Y1089266D01*
X298655Y1089475D01*
X297570Y1089266D01*
X296175Y1088433D01*
X296640Y1093850D01*
X300825D01*
G01X312760Y1081350D02*
Y1093850D01*
X307025Y1084892D01*
X314775D01*
G01X323300Y1080933D02*
X322990Y1081142D01*
Y1081558D01*
X323300Y1081767D01*
X323610Y1081558D01*
Y1081142D01*
X323300Y1080933D01*
G01X332755Y1091767D02*
X333685Y1093016D01*
X334770Y1093642D01*
X336010Y1093850D01*
X337560Y1093433D01*
X338645Y1092392D01*
X338955Y1091142D01*
X338800Y1089891D01*
X338180Y1088850D01*
X335080Y1086767D01*
X333685Y1085308D01*
X332755Y1083225D01*
X332445Y1081350D01*
X338955D01*
G01X348100D02*
X349185Y1081558D01*
X350425Y1082183D01*
X351200Y1083225D01*
X351510Y1084683D01*
X351200Y1086141D01*
X350270Y1087392D01*
X348875Y1088017D01*
X347325D01*
X346395Y1088433D01*
X345620Y1089475D01*
X345310Y1090933D01*
X345775Y1092392D01*
X346860Y1093433D01*
X348100Y1093850D01*
X349340Y1093433D01*
X350425Y1092392D01*
X350890Y1090933D01*
X350580Y1089475D01*
X349805Y1088433D01*
X348875Y1088017D01*
X347325D01*
X345930Y1087392D01*
X345000Y1086141D01*
X344690Y1084683D01*
X345000Y1083225D01*
X345775Y1082183D01*
X347015Y1081558D01*
X348100Y1081350D01*
G01X311425Y1012600D02*
X590550D01*
G01X322231Y34664D02*
X323700Y49800D01*
X317402Y35959D01*
X322231Y34664D01*
G01X332408Y33082D02*
X334800Y48100D01*
X327666Y34670D01*
X332408Y33082D01*
G01X356292Y40831D02*
X360300Y55500D01*
X351751Y42924D01*
X356292Y40831D01*
G01X343425Y1036600D02*
X571000D01*
G01X358955Y-16542D02*
X360040Y-15083D01*
X360970Y-14250D01*
X362210Y-13834D01*
X363295Y-14250D01*
X364070Y-15083D01*
X364690Y-16333D01*
X364845Y-17792D01*
X364690Y-19042D01*
X364070Y-20292D01*
X363140Y-21333D01*
X362055Y-21750D01*
X360815Y-21333D01*
X359730Y-20084D01*
X359110Y-18208D01*
X358955Y-16125D01*
X359265Y-13417D01*
X359730Y-11958D01*
X360505Y-10500D01*
X361590Y-9458D01*
X362675Y-9250D01*
X363760Y-9667D01*
X364535Y-10708D01*
G01X370890Y-19250D02*
X371820Y-20709D01*
X373060Y-21542D01*
X374455Y-21750D01*
X375695Y-21542D01*
X376935Y-20500D01*
X377710Y-19250D01*
X377865Y-18000D01*
X377555Y-16542D01*
X376470Y-15500D01*
X375385Y-15083D01*
X373990D01*
G01X375385D02*
X376315Y-14458D01*
X377090Y-13417D01*
X377400Y-12167D01*
X377090Y-10917D01*
X376315Y-9875D01*
X374920Y-9250D01*
X373525Y-9458D01*
X372130Y-10292D01*
G01X386700Y-22167D02*
X386390Y-21958D01*
Y-21542D01*
X386700Y-21333D01*
X387010Y-21542D01*
Y-21958D01*
X386700Y-22167D01*
G01X398790Y-21750D02*
X399100Y-19042D01*
X399565Y-16750D01*
X400185Y-14667D01*
X400960Y-12375D01*
X402200Y-9250D01*
X396000D01*
G01X408090Y-19875D02*
X409020Y-20917D01*
X410105Y-21542D01*
X411500Y-21750D01*
X412895Y-21333D01*
X413980Y-20500D01*
X414755Y-19042D01*
X414910Y-17375D01*
X414600Y-15708D01*
X413825Y-14667D01*
X412740Y-13834D01*
X411655Y-13625D01*
X410570Y-13834D01*
X409175Y-14667D01*
X409640Y-9250D01*
X413825D01*
G01X370162Y46650D02*
X374900Y61100D01*
X365732Y48967D01*
X370162Y46650D01*
G01X362125Y1087600D02*
X433500D01*
G01X378609Y45343D02*
X383900Y59600D01*
X374272Y47830D01*
X378609Y45343D01*
G01X425525Y-15500D02*
X524700D01*
G01X418500Y1085100D02*
X433500Y1087600D01*
X418500Y1090100D01*
Y1085100D01*
G01X441531Y532338D02*
X442700Y547500D01*
X436677Y533537D01*
X441531Y532338D01*
G01X443728Y531731D02*
X444800Y546900D01*
X438866Y532899D01*
X443728Y531731D01*
G01X446469Y531735D02*
X447600Y546900D01*
X441612Y532922D01*
X446469Y531735D01*
G01X449360Y530061D02*
X450800Y545200D01*
X444528Y531346D01*
X449360Y530061D01*
G01X452512Y528048D02*
X453800Y543200D01*
X447667Y529285D01*
X452512Y528048D01*
G01X443500Y634300D02*
X702700D01*
G01X443500Y899700D02*
X702700D01*
G01X433500Y909700D02*
Y1097600D01*
G01X486650Y396800D02*
Y394400D01*
X495650D01*
Y396800D01*
X486650D01*
G01Y447800D02*
X494150Y445300D01*
Y428300D01*
X474150D01*
Y448300D01*
X485150Y445300D01*
X487650Y449300D01*
G01X486650Y428300D02*
Y426800D01*
X495650D01*
Y430800D01*
X494150D01*
G01X485150Y445300D02*
X483650Y442800D01*
G01X483950Y710000D02*
Y707600D01*
X492950D01*
Y710000D01*
X483950D01*
G01Y761000D02*
X491450Y758500D01*
Y741500D01*
X471450D01*
Y761500D01*
X482450Y758500D01*
X484950Y762500D01*
G01X483950Y741500D02*
Y740000D01*
X492950D01*
Y744000D01*
X491450D01*
G01X482450Y758500D02*
X480950Y756000D01*
G01X498150Y394400D02*
X498650Y393400D01*
X497650D01*
X498150Y394400D01*
Y391400D01*
G01Y396800D02*
X498650Y397800D01*
X497650D01*
X498150Y396800D01*
Y399800D01*
G01X500150Y394400D02*
X499650Y393400D01*
X500650D01*
X500150Y394400D01*
Y391400D01*
G01Y396800D02*
X500650Y397800D01*
X499650D01*
X500150Y396800D01*
Y399800D01*
G01X496650Y394400D02*
X500650D01*
G01Y396800D02*
X496650D01*
Y394400D01*
X495650D01*
Y396800D01*
X498650D01*
G01X500150Y430800D02*
X500650Y429800D01*
X499650D01*
X500150Y430800D01*
Y426800D01*
X499650Y427800D01*
X500650D01*
X500150Y426800D01*
G01X498150Y433800D02*
Y430800D01*
X498650Y431800D01*
X497650D01*
X498150Y430800D01*
X497650Y429800D01*
X498650D01*
X498150Y430800D01*
Y427800D01*
G01Y426800D02*
X497650Y425800D01*
X498650D01*
X498150Y426800D01*
Y424400D01*
X497650Y425400D01*
X498650D01*
X498150Y424400D01*
G01X496650Y426800D02*
X500650D01*
G01X496650Y424400D02*
X498650D01*
G01X495650Y430800D02*
X496650D01*
Y424400D01*
X495650D01*
Y434800D01*
G01X496650Y430800D02*
X500650D01*
G01X496650D02*
X498650D01*
G01X495450Y707600D02*
X495950Y706600D01*
X494950D01*
X495450Y707600D01*
Y704600D01*
G01Y710000D02*
X495950Y711000D01*
X494950D01*
X495450Y710000D01*
Y713000D01*
G01X497450Y707600D02*
X496950Y706600D01*
X497950D01*
X497450Y707600D01*
Y704600D01*
G01Y710000D02*
X497950Y711000D01*
X496950D01*
X497450Y710000D01*
Y713000D01*
G01X493950Y707600D02*
X497950D01*
G01Y710000D02*
X493950D01*
Y707600D01*
X492950D01*
Y710000D01*
X495950D01*
G01X495450Y740000D02*
X494950Y739000D01*
X495950D01*
X495450Y740000D01*
Y737600D01*
X494950Y738600D01*
X495950D01*
X495450Y737600D01*
G01X493950D02*
X495950D01*
G01X492950Y744000D02*
X493950D01*
Y737600D01*
X492950D01*
Y748000D01*
G01X497450Y744000D02*
X497950Y743000D01*
X496950D01*
X497450Y744000D01*
Y740000D01*
X496950Y741000D01*
X497950D01*
X497450Y740000D01*
G01X495450Y747000D02*
Y744000D01*
X495950Y745000D01*
X494950D01*
X495450Y744000D01*
X494950Y743000D01*
X495950D01*
X495450Y744000D01*
Y741000D01*
G01X493950Y744000D02*
X497950D01*
G01X493950D02*
X495950D01*
G01X493950Y740000D02*
X497950D01*
G01X524700Y9126D02*
Y-25500D01*
G01X509700Y-18000D02*
X524700Y-15500D01*
X509700Y-13000D01*
Y-18000D01*
G01X556000Y1034100D02*
X571000Y1036600D01*
X556000Y1039100D01*
Y1034100D01*
G01X571000Y973200D02*
Y1046600D01*
G01X575550Y1010100D02*
X590550Y1012600D01*
X575550Y1015100D01*
Y1010100D01*
G01X600550Y0D02*
X639900D01*
G01X600550Y984250D02*
X639900D01*
G01X590550Y994250D02*
Y1022600D01*
G01X614555Y446167D02*
X615485Y447416D01*
X616570Y448042D01*
X617810Y448250D01*
X619360Y447833D01*
X620445Y446792D01*
X620755Y445542D01*
X620600Y444291D01*
X619980Y443250D01*
X616880Y441167D01*
X615485Y439708D01*
X614555Y437625D01*
X614245Y435750D01*
X620755D01*
G01X626490Y437625D02*
X627420Y436583D01*
X628505Y435958D01*
X629900Y435750D01*
X631295Y436167D01*
X632380Y437000D01*
X633155Y438458D01*
X633310Y440125D01*
X633000Y441792D01*
X632225Y442833D01*
X631140Y443666D01*
X630055Y443875D01*
X628970Y443666D01*
X627575Y442833D01*
X628040Y448250D01*
X632225D01*
G01X642300D02*
X641060Y447833D01*
X640130Y446792D01*
X639510Y445542D01*
X639045Y443875D01*
X638890Y442000D01*
X639045Y440125D01*
X639510Y438458D01*
X640130Y437208D01*
X641060Y436167D01*
X642300Y435750D01*
X643540Y436167D01*
X644470Y437208D01*
X645090Y438458D01*
X645555Y440125D01*
X645710Y442000D01*
X645555Y443875D01*
X645090Y445542D01*
X644470Y446792D01*
X643540Y447833D01*
X642300Y448250D01*
G01X629900Y426375D02*
Y0D01*
G01X627400Y15000D02*
X629900Y0D01*
X632400Y15000D01*
X627400D01*
G01X629900Y457625D02*
Y984250D01*
G01X632400Y969250D02*
X629900Y984250D01*
X627400Y969250D01*
X632400D01*
G01X657200Y3400D02*
Y428400D01*
X1140800D01*
Y3400D01*
X657200D01*
G01Y28400D02*
X1140800D01*
G01X657200Y53400D02*
X1140800D01*
G01X657200Y78400D02*
X1140800D01*
G01X657200Y103400D02*
X1140800D01*
G01X657200Y128400D02*
X1140800D01*
G01X657200Y153400D02*
X1140800D01*
G01X657200Y178400D02*
X1140800D01*
G01X657200Y203400D02*
X1140800D01*
G01X657200Y228400D02*
X1140800D01*
G01X657200Y253400D02*
X1140800D01*
G01X657200Y278400D02*
X1140800D01*
G01X657200Y303400D02*
X1140800D01*
G01X657200Y328400D02*
X1140800D01*
G01X657200Y353400D02*
X1140800D01*
G01X657200Y378400D02*
X1140800D01*
G01X657200Y403400D02*
X1140800D01*
G01X668205Y359650D02*
Y372150D01*
X674095D01*
G01X671925Y366108D02*
X668205D01*
G01X681690Y372150D02*
X685410D01*
G01X683550D02*
Y359650D01*
G01X681690D02*
X685410D01*
G01X696880Y365900D02*
X699980D01*
Y362150D01*
X699050Y360900D01*
X697965Y360067D01*
X696415Y359650D01*
X694865Y360067D01*
X693780Y360900D01*
X692850Y362150D01*
X692230Y363608D01*
X691920Y365275D01*
Y366733D01*
X692230Y367983D01*
X692850Y369442D01*
X693780Y370692D01*
X694710Y371525D01*
X695950Y372150D01*
X697035D01*
X698275Y371733D01*
X699205Y370900D01*
G01X704940Y372150D02*
Y363192D01*
X705560Y361316D01*
X706800Y360067D01*
X708350Y359650D01*
X709900Y360067D01*
X711140Y361316D01*
X711760Y363192D01*
Y372150D01*
G01X717650Y359650D02*
Y372150D01*
X721525D01*
X722765Y371525D01*
X723540Y370692D01*
X723850Y369025D01*
X723540Y367358D01*
X722610Y366317D01*
X721525Y365692D01*
X717650D01*
G01X721525D02*
X723850Y359650D01*
G01X736250D02*
X730050D01*
Y372150D01*
X736250D01*
G01X733770Y366108D02*
X730050D01*
G01X664955Y759358D02*
X666040Y760817D01*
X666970Y761650D01*
X668210Y762066D01*
X669295Y761650D01*
X670070Y760817D01*
X670690Y759567D01*
X670845Y758108D01*
X670690Y756858D01*
X670070Y755608D01*
X669140Y754567D01*
X668055Y754150D01*
X666815Y754567D01*
X665730Y755816D01*
X665110Y757692D01*
X664955Y759775D01*
X665265Y762483D01*
X665730Y763942D01*
X666505Y765400D01*
X667590Y766442D01*
X668675Y766650D01*
X669760Y766233D01*
X670535Y765192D01*
G01X679990Y754150D02*
X680300Y756858D01*
X680765Y759150D01*
X681385Y761233D01*
X682160Y763525D01*
X683400Y766650D01*
X677200D01*
G01X692700Y753733D02*
X692390Y753942D01*
Y754358D01*
X692700Y754567D01*
X693010Y754358D01*
Y753942D01*
X692700Y753733D01*
G01X706960Y754150D02*
Y766650D01*
X701225Y757692D01*
X708975D01*
G01X717500Y754150D02*
Y766650D01*
X715640Y764150D01*
G01Y754150D02*
X719360D01*
G01X692700Y744775D02*
Y634300D01*
G01X690200Y649300D02*
X692700Y634300D01*
X695200Y649300D01*
X690200D01*
G01X692700Y776025D02*
Y899700D01*
G01X695200Y884700D02*
X692700Y899700D01*
X690200Y884700D01*
X695200D01*
G01X747100Y378400D02*
Y3400D01*
G01X740590Y409650D02*
Y422150D01*
X743690D01*
X744930Y421525D01*
X745860Y420692D01*
X746635Y419442D01*
X747255Y417983D01*
X747410Y415900D01*
X747255Y413816D01*
X746635Y412358D01*
X745860Y411108D01*
X744930Y410275D01*
X743690Y409650D01*
X740590D01*
G01X753300D02*
Y422150D01*
X757175D01*
X758415Y421525D01*
X759190Y420692D01*
X759500Y419025D01*
X759190Y417358D01*
X758260Y416317D01*
X757175Y415691D01*
X753300D01*
G01X757175D02*
X759500Y409650D01*
G01X766940Y422150D02*
X770660D01*
G01X768800D02*
Y409650D01*
G01X766940D02*
X770660D01*
G01X778100Y422150D02*
Y409650D01*
X784300D01*
G01X790500Y422150D02*
Y409650D01*
X796700D01*
G01X821810Y421108D02*
X820880Y421733D01*
X819795Y422150D01*
X818555D01*
X817160Y421525D01*
X816075Y420483D01*
X815300Y419233D01*
X814680Y417150D01*
X814525Y415275D01*
X814835Y413400D01*
X815300Y412150D01*
X816230Y410900D01*
X817315Y410067D01*
X818400Y409650D01*
X819485D01*
X820570Y410067D01*
X821500Y410691D01*
X822275Y411525D01*
G01X827545Y409650D02*
Y422150D01*
G01X834055D02*
Y409650D01*
G01Y415900D02*
X827545D01*
G01X839325Y409650D02*
X843200Y422150D01*
X847075Y409650D01*
G01X845680Y414025D02*
X840720D01*
G01X852500Y409650D02*
Y422150D01*
X856375D01*
X857615Y421525D01*
X858390Y420692D01*
X858700Y419025D01*
X858390Y417358D01*
X857460Y416317D01*
X856375Y415691D01*
X852500D01*
G01X856375D02*
X858700Y409650D01*
G01X868000Y422150D02*
Y409650D01*
G01X864435Y422150D02*
X871565D01*
G01X880400Y409233D02*
X880090Y409442D01*
Y409858D01*
X880400Y410067D01*
X880710Y409858D01*
Y409442D01*
X880400Y409233D01*
G01Y414858D02*
X880090Y415067D01*
Y415483D01*
X880400Y415691D01*
X880710Y415483D01*
Y415067D01*
X880400Y414858D01*
G01X905200Y422150D02*
Y409650D01*
G01X901635Y422150D02*
X908765D01*
G01X917600Y409650D02*
X916360Y409858D01*
X915275Y410691D01*
X914345Y411942D01*
X913725Y413400D01*
X913415Y415067D01*
Y416733D01*
X913725Y418400D01*
X914345Y419858D01*
X915275Y421108D01*
X916360Y421942D01*
X917600Y422150D01*
X918840Y421942D01*
X919925Y421108D01*
X920855Y419858D01*
X921475Y418400D01*
X921785Y416733D01*
Y415067D01*
X921475Y413400D01*
X920855Y411942D01*
X919925Y410691D01*
X918840Y409858D01*
X917600Y409650D01*
G01X926900D02*
Y422150D01*
X930620D01*
X931860Y421525D01*
X932790Y420067D01*
X933100Y418400D01*
X932790Y416733D01*
X932015Y415483D01*
X930620Y414858D01*
X926900D01*
G01X954800Y422150D02*
Y409650D01*
G01X952630Y417983D02*
X956970D01*
G01X967200Y409650D02*
X966270Y409858D01*
X965340Y410691D01*
X964720Y412150D01*
X964410Y413816D01*
X964720Y415483D01*
X965340Y416942D01*
X966270Y417775D01*
X967200Y417983D01*
X968130Y417775D01*
X969060Y416942D01*
X969680Y415483D01*
X969835Y413816D01*
X969680Y412150D01*
X969060Y410691D01*
X968130Y409858D01*
X967200Y409650D01*
G01X993240Y416317D02*
X993860Y416942D01*
X994325Y417983D01*
X994635Y419442D01*
X994325Y420692D01*
X993705Y421525D01*
X992620Y422150D01*
X988435D01*
Y409650D01*
X993550D01*
X994635Y410483D01*
X995255Y411733D01*
X995565Y413192D01*
X995255Y414650D01*
X994325Y415900D01*
X993240Y416317D01*
X988435D01*
G01X1004400Y409650D02*
X1003160Y409858D01*
X1002075Y410691D01*
X1001145Y411942D01*
X1000525Y413400D01*
X1000215Y415067D01*
Y416733D01*
X1000525Y418400D01*
X1001145Y419858D01*
X1002075Y421108D01*
X1003160Y421942D01*
X1004400Y422150D01*
X1005640Y421942D01*
X1006725Y421108D01*
X1007655Y419858D01*
X1008275Y418400D01*
X1008585Y416733D01*
Y415067D01*
X1008275Y413400D01*
X1007655Y411942D01*
X1006725Y410691D01*
X1005640Y409858D01*
X1004400Y409650D01*
G01X1016800Y422150D02*
Y409650D01*
G01X1013235Y422150D02*
X1020365D01*
G01X1029200D02*
Y409650D01*
G01X1025635Y422150D02*
X1032765D01*
G01X1041600Y409650D02*
X1040360Y409858D01*
X1039275Y410691D01*
X1038345Y411942D01*
X1037725Y413400D01*
X1037415Y415067D01*
Y416733D01*
X1037725Y418400D01*
X1038345Y419858D01*
X1039275Y421108D01*
X1040360Y421942D01*
X1041600Y422150D01*
X1042840Y421942D01*
X1043925Y421108D01*
X1044855Y419858D01*
X1045475Y418400D01*
X1045785Y416733D01*
Y415067D01*
X1045475Y413400D01*
X1044855Y411942D01*
X1043925Y410691D01*
X1042840Y409858D01*
X1041600Y409650D01*
G01X1049970D02*
Y422150D01*
X1054000Y411733D01*
X1058030Y422150D01*
Y409650D01*
G01X771125Y384650D02*
X775000Y397150D01*
X778875Y384650D01*
G01X777480Y389025D02*
X772520D01*
G01X784300Y397150D02*
Y384650D01*
X790500D01*
G01X796700Y397150D02*
Y384650D01*
X802900D01*
G01X821190Y397150D02*
Y388192D01*
X821810Y386316D01*
X823050Y385067D01*
X824600Y384650D01*
X826150Y385067D01*
X827390Y386316D01*
X828010Y388192D01*
Y397150D01*
G01X833435Y384650D02*
Y397150D01*
X840565Y384650D01*
Y397150D01*
G01X847540D02*
X851260D01*
G01X849400D02*
Y384650D01*
G01X847540D02*
X851260D01*
G01X861800Y397150D02*
Y384650D01*
G01X858235Y397150D02*
X865365D01*
G01X870945Y386316D02*
X872185Y385275D01*
X873580Y384650D01*
X874820D01*
X876060Y385275D01*
X876990Y386316D01*
X877455Y387775D01*
X877145Y389233D01*
X876370Y390483D01*
X874975Y391317D01*
X873115Y391733D01*
X872030Y392566D01*
X871565Y394025D01*
X871875Y395483D01*
X872650Y396525D01*
X873735Y397150D01*
X874820D01*
X875905Y396733D01*
X876835Y395692D01*
G01X895125Y384650D02*
X899000Y397150D01*
X902875Y384650D01*
G01X901480Y389025D02*
X896520D01*
G01X908300Y384650D02*
Y397150D01*
X912175D01*
X913415Y396525D01*
X914190Y395692D01*
X914500Y394025D01*
X914190Y392358D01*
X913260Y391317D01*
X912175Y390692D01*
X908300D01*
G01X912175D02*
X914500Y384650D01*
G01X926900D02*
X920700D01*
Y397150D01*
X926900D01*
G01X924420Y391108D02*
X920700D01*
G01X946740Y397150D02*
X950460D01*
G01X948600D02*
Y384650D01*
G01X946740D02*
X950460D01*
G01X957435D02*
Y397150D01*
X964565Y384650D01*
Y397150D01*
G01X981770Y384650D02*
Y397150D01*
X985800Y386733D01*
X989830Y397150D01*
Y384650D01*
G01X996340Y397150D02*
X1000060D01*
G01X998200D02*
Y384650D01*
G01X996340D02*
X1000060D01*
G01X1007500Y397150D02*
Y384650D01*
X1013700D01*
G01X1019745Y386316D02*
X1020985Y385275D01*
X1022380Y384650D01*
X1023620D01*
X1024860Y385275D01*
X1025790Y386316D01*
X1026255Y387775D01*
X1025945Y389233D01*
X1025170Y390483D01*
X1023775Y391317D01*
X1021915Y391733D01*
X1020830Y392566D01*
X1020365Y394025D01*
X1020675Y395483D01*
X1021450Y396525D01*
X1022535Y397150D01*
X1023620D01*
X1024705Y396733D01*
X1025635Y395692D01*
G01X816850Y9650D02*
Y22150D01*
X814990Y19650D01*
G01Y9650D02*
X818710D01*
G01X826305Y20067D02*
X827235Y21316D01*
X828320Y21942D01*
X829560Y22150D01*
X831110Y21733D01*
X832195Y20692D01*
X832505Y19442D01*
X832350Y18191D01*
X831730Y17150D01*
X828630Y15067D01*
X827235Y13608D01*
X826305Y11525D01*
X825995Y9650D01*
X832505D01*
G01X838705Y14858D02*
X839790Y16317D01*
X840720Y17150D01*
X841960Y17566D01*
X843045Y17150D01*
X843820Y16317D01*
X844440Y15067D01*
X844595Y13608D01*
X844440Y12358D01*
X843820Y11108D01*
X842890Y10067D01*
X841805Y9650D01*
X840565Y10067D01*
X839480Y11316D01*
X838860Y13192D01*
X838705Y15275D01*
X839015Y17983D01*
X839480Y19442D01*
X840255Y20900D01*
X841340Y21942D01*
X842425Y22150D01*
X843510Y21733D01*
X844285Y20692D01*
G01X854050Y9233D02*
X853740Y9442D01*
Y9858D01*
X854050Y10067D01*
X854360Y9858D01*
Y9442D01*
X854050Y9233D01*
G01X866450Y22150D02*
X865210Y21733D01*
X864280Y20692D01*
X863660Y19442D01*
X863195Y17775D01*
X863040Y15900D01*
X863195Y14025D01*
X863660Y12358D01*
X864280Y11108D01*
X865210Y10067D01*
X866450Y9650D01*
X867690Y10067D01*
X868620Y11108D01*
X869240Y12358D01*
X869705Y14025D01*
X869860Y15900D01*
X869705Y17775D01*
X869240Y19442D01*
X868620Y20692D01*
X867690Y21733D01*
X866450Y22150D01*
G01X816850Y34650D02*
Y47150D01*
X814990Y44650D01*
G01Y34650D02*
X818710D01*
G01X826305Y45067D02*
X827235Y46317D01*
X828320Y46942D01*
X829560Y47150D01*
X831110Y46733D01*
X832195Y45692D01*
X832505Y44442D01*
X832350Y43191D01*
X831730Y42150D01*
X828630Y40067D01*
X827235Y38608D01*
X826305Y36525D01*
X825995Y34650D01*
X832505D01*
G01X838705Y39858D02*
X839790Y41317D01*
X840720Y42150D01*
X841960Y42566D01*
X843045Y42150D01*
X843820Y41317D01*
X844440Y40067D01*
X844595Y38608D01*
X844440Y37358D01*
X843820Y36108D01*
X842890Y35067D01*
X841805Y34650D01*
X840565Y35067D01*
X839480Y36316D01*
X838860Y38192D01*
X838705Y40275D01*
X839015Y42983D01*
X839480Y44442D01*
X840255Y45900D01*
X841340Y46942D01*
X842425Y47150D01*
X843510Y46733D01*
X844285Y45692D01*
G01X854050Y34233D02*
X853740Y34442D01*
Y34858D01*
X854050Y35067D01*
X854360Y34858D01*
Y34442D01*
X854050Y34233D01*
G01X866450Y47150D02*
X865210Y46733D01*
X864280Y45692D01*
X863660Y44442D01*
X863195Y42775D01*
X863040Y40900D01*
X863195Y39025D01*
X863660Y37358D01*
X864280Y36108D01*
X865210Y35067D01*
X866450Y34650D01*
X867690Y35067D01*
X868620Y36108D01*
X869240Y37358D01*
X869705Y39025D01*
X869860Y40900D01*
X869705Y42775D01*
X869240Y44442D01*
X868620Y45692D01*
X867690Y46733D01*
X866450Y47150D01*
G01X813440Y162150D02*
X814370Y160691D01*
X815610Y159858D01*
X817005Y159650D01*
X818245Y159858D01*
X819485Y160900D01*
X820260Y162150D01*
X820415Y163400D01*
X820105Y164858D01*
X819020Y165900D01*
X817935Y166317D01*
X816540D01*
G01X817935D02*
X818865Y166942D01*
X819640Y167983D01*
X819950Y169233D01*
X819640Y170483D01*
X818865Y171525D01*
X817470Y172150D01*
X816075Y171942D01*
X814680Y171108D01*
G01X825840Y161525D02*
X826770Y160483D01*
X827855Y159858D01*
X829250Y159650D01*
X830645Y160067D01*
X831730Y160900D01*
X832505Y162358D01*
X832660Y164025D01*
X832350Y165692D01*
X831575Y166733D01*
X830490Y167566D01*
X829405Y167775D01*
X828320Y167566D01*
X826925Y166733D01*
X827390Y172150D01*
X831575D01*
G01X841650Y159233D02*
X841340Y159442D01*
Y159858D01*
X841650Y160067D01*
X841960Y159858D01*
Y159442D01*
X841650Y159233D01*
G01X855910Y159650D02*
Y172150D01*
X850175Y163192D01*
X857925D01*
G01X863040Y162150D02*
X863970Y160691D01*
X865210Y159858D01*
X866605Y159650D01*
X867845Y159858D01*
X869085Y160900D01*
X869860Y162150D01*
X870015Y163400D01*
X869705Y164858D01*
X868620Y165900D01*
X867535Y166317D01*
X866140D01*
G01X867535D02*
X868465Y166942D01*
X869240Y167983D01*
X869550Y169233D01*
X869240Y170483D01*
X868465Y171525D01*
X867070Y172150D01*
X865675Y171942D01*
X864280Y171108D01*
G01X807705Y220067D02*
X808635Y221316D01*
X809720Y221942D01*
X810960Y222150D01*
X812510Y221733D01*
X813595Y220692D01*
X813905Y219442D01*
X813750Y218191D01*
X813130Y217150D01*
X810030Y215067D01*
X808635Y213608D01*
X807705Y211525D01*
X807395Y209650D01*
X813905D01*
G01X819640Y212150D02*
X820570Y210691D01*
X821810Y209858D01*
X823205Y209650D01*
X824445Y209858D01*
X825685Y210900D01*
X826460Y212150D01*
X826615Y213400D01*
X826305Y214858D01*
X825220Y215900D01*
X824135Y216317D01*
X822740D01*
G01X824135D02*
X825065Y216942D01*
X825840Y217983D01*
X826150Y219233D01*
X825840Y220483D01*
X825065Y221525D01*
X823670Y222150D01*
X822275Y221942D01*
X820880Y221108D01*
G01X835450Y209233D02*
X835140Y209442D01*
Y209858D01*
X835450Y210067D01*
X835760Y209858D01*
Y209442D01*
X835450Y209233D01*
G01X844905Y214858D02*
X845990Y216317D01*
X846920Y217150D01*
X848160Y217566D01*
X849245Y217150D01*
X850020Y216317D01*
X850640Y215067D01*
X850795Y213608D01*
X850640Y212358D01*
X850020Y211108D01*
X849090Y210067D01*
X848005Y209650D01*
X846765Y210067D01*
X845680Y211316D01*
X845060Y213192D01*
X844905Y215275D01*
X845215Y217983D01*
X845680Y219442D01*
X846455Y220900D01*
X847540Y221942D01*
X848625Y222150D01*
X849710Y221733D01*
X850485Y220692D01*
G01X857305Y220067D02*
X858235Y221316D01*
X859320Y221942D01*
X860560Y222150D01*
X862110Y221733D01*
X863195Y220692D01*
X863505Y219442D01*
X863350Y218191D01*
X862730Y217150D01*
X859630Y215067D01*
X858235Y213608D01*
X857305Y211525D01*
X856995Y209650D01*
X863505D01*
G01X869705Y220067D02*
X870635Y221316D01*
X871720Y221942D01*
X872960Y222150D01*
X874510Y221733D01*
X875595Y220692D01*
X875905Y219442D01*
X875750Y218191D01*
X875130Y217150D01*
X872030Y215067D01*
X870635Y213608D01*
X869705Y211525D01*
X869395Y209650D01*
X875905D01*
G01X822740Y59650D02*
X823050Y62358D01*
X823515Y64650D01*
X824135Y66733D01*
X824910Y69025D01*
X826150Y72150D01*
X819950D01*
G01X835450D02*
X834210Y71733D01*
X833280Y70692D01*
X832660Y69442D01*
X832195Y67775D01*
X832040Y65900D01*
X832195Y64025D01*
X832660Y62358D01*
X833280Y61108D01*
X834210Y60067D01*
X835450Y59650D01*
X836690Y60067D01*
X837620Y61108D01*
X838240Y62358D01*
X838705Y64025D01*
X838860Y65900D01*
X838705Y67775D01*
X838240Y69442D01*
X837620Y70692D01*
X836690Y71733D01*
X835450Y72150D01*
G01X847850Y59233D02*
X847540Y59442D01*
Y59858D01*
X847850Y60067D01*
X848160Y59858D01*
Y59442D01*
X847850Y59233D01*
G01X860250Y72150D02*
X859010Y71733D01*
X858080Y70692D01*
X857460Y69442D01*
X856995Y67775D01*
X856840Y65900D01*
X856995Y64025D01*
X857460Y62358D01*
X858080Y61108D01*
X859010Y60067D01*
X860250Y59650D01*
X861490Y60067D01*
X862420Y61108D01*
X863040Y62358D01*
X863505Y64025D01*
X863660Y65900D01*
X863505Y67775D01*
X863040Y69442D01*
X862420Y70692D01*
X861490Y71733D01*
X860250Y72150D01*
G01X820105Y89858D02*
X821190Y91317D01*
X822120Y92150D01*
X823360Y92566D01*
X824445Y92150D01*
X825220Y91317D01*
X825840Y90067D01*
X825995Y88608D01*
X825840Y87358D01*
X825220Y86108D01*
X824290Y85067D01*
X823205Y84650D01*
X821965Y85067D01*
X820880Y86316D01*
X820260Y88192D01*
X820105Y90275D01*
X820415Y92983D01*
X820880Y94442D01*
X821655Y95900D01*
X822740Y96942D01*
X823825Y97150D01*
X824910Y96733D01*
X825685Y95692D01*
G01X832040Y87150D02*
X832970Y85691D01*
X834210Y84858D01*
X835605Y84650D01*
X836845Y84858D01*
X838085Y85900D01*
X838860Y87150D01*
X839015Y88400D01*
X838705Y89858D01*
X837620Y90900D01*
X836535Y91317D01*
X835140D01*
G01X836535D02*
X837465Y91942D01*
X838240Y92983D01*
X838550Y94233D01*
X838240Y95483D01*
X837465Y96525D01*
X836070Y97150D01*
X834675Y96942D01*
X833280Y96108D01*
G01X847850Y84233D02*
X847540Y84442D01*
Y84858D01*
X847850Y85067D01*
X848160Y84858D01*
Y84442D01*
X847850Y84233D01*
G01X860250Y97150D02*
X859010Y96733D01*
X858080Y95692D01*
X857460Y94442D01*
X856995Y92775D01*
X856840Y90900D01*
X856995Y89025D01*
X857460Y87358D01*
X858080Y86108D01*
X859010Y85067D01*
X860250Y84650D01*
X861490Y85067D01*
X862420Y86108D01*
X863040Y87358D01*
X863505Y89025D01*
X863660Y90900D01*
X863505Y92775D01*
X863040Y94442D01*
X862420Y95692D01*
X861490Y96733D01*
X860250Y97150D01*
G01X824910Y109650D02*
Y122150D01*
X819175Y113192D01*
X826925D01*
G01X835450Y122150D02*
X834210Y121733D01*
X833280Y120692D01*
X832660Y119442D01*
X832195Y117775D01*
X832040Y115900D01*
X832195Y114025D01*
X832660Y112358D01*
X833280Y111108D01*
X834210Y110067D01*
X835450Y109650D01*
X836690Y110067D01*
X837620Y111108D01*
X838240Y112358D01*
X838705Y114025D01*
X838860Y115900D01*
X838705Y117775D01*
X838240Y119442D01*
X837620Y120692D01*
X836690Y121733D01*
X835450Y122150D01*
G01X847850Y109233D02*
X847540Y109442D01*
Y109858D01*
X847850Y110067D01*
X848160Y109858D01*
Y109442D01*
X847850Y109233D01*
G01X860250Y122150D02*
X859010Y121733D01*
X858080Y120692D01*
X857460Y119442D01*
X856995Y117775D01*
X856840Y115900D01*
X856995Y114025D01*
X857460Y112358D01*
X858080Y111108D01*
X859010Y110067D01*
X860250Y109650D01*
X861490Y110067D01*
X862420Y111108D01*
X863040Y112358D01*
X863505Y114025D01*
X863660Y115900D01*
X863505Y117775D01*
X863040Y119442D01*
X862420Y120692D01*
X861490Y121733D01*
X860250Y122150D01*
G01X824910Y134650D02*
Y147150D01*
X819175Y138192D01*
X826925D01*
G01X835450Y147150D02*
X834210Y146733D01*
X833280Y145692D01*
X832660Y144442D01*
X832195Y142775D01*
X832040Y140900D01*
X832195Y139025D01*
X832660Y137358D01*
X833280Y136108D01*
X834210Y135067D01*
X835450Y134650D01*
X836690Y135067D01*
X837620Y136108D01*
X838240Y137358D01*
X838705Y139025D01*
X838860Y140900D01*
X838705Y142775D01*
X838240Y144442D01*
X837620Y145692D01*
X836690Y146733D01*
X835450Y147150D01*
G01X847850Y134233D02*
X847540Y134442D01*
Y134858D01*
X847850Y135067D01*
X848160Y134858D01*
Y134442D01*
X847850Y134233D01*
G01X860250Y147150D02*
X859010Y146733D01*
X858080Y145692D01*
X857460Y144442D01*
X856995Y142775D01*
X856840Y140900D01*
X856995Y139025D01*
X857460Y137358D01*
X858080Y136108D01*
X859010Y135067D01*
X860250Y134650D01*
X861490Y135067D01*
X862420Y136108D01*
X863040Y137358D01*
X863505Y139025D01*
X863660Y140900D01*
X863505Y142775D01*
X863040Y144442D01*
X862420Y145692D01*
X861490Y146733D01*
X860250Y147150D01*
G01X820105Y195067D02*
X821035Y196316D01*
X822120Y196942D01*
X823360Y197150D01*
X824910Y196733D01*
X825995Y195692D01*
X826305Y194442D01*
X826150Y193191D01*
X825530Y192150D01*
X822430Y190067D01*
X821035Y188608D01*
X820105Y186525D01*
X819795Y184650D01*
X826305D01*
G01X832040Y186525D02*
X832970Y185483D01*
X834055Y184858D01*
X835450Y184650D01*
X836845Y185067D01*
X837930Y185900D01*
X838705Y187358D01*
X838860Y189025D01*
X838550Y190692D01*
X837775Y191733D01*
X836690Y192566D01*
X835605Y192775D01*
X834520Y192566D01*
X833125Y191733D01*
X833590Y197150D01*
X837775D01*
G01X847850Y184233D02*
X847540Y184442D01*
Y184858D01*
X847850Y185067D01*
X848160Y184858D01*
Y184442D01*
X847850Y184233D01*
G01X860250Y197150D02*
X859010Y196733D01*
X858080Y195692D01*
X857460Y194442D01*
X856995Y192775D01*
X856840Y190900D01*
X856995Y189025D01*
X857460Y187358D01*
X858080Y186108D01*
X859010Y185067D01*
X860250Y184650D01*
X861490Y185067D01*
X862420Y186108D01*
X863040Y187358D01*
X863505Y189025D01*
X863660Y190900D01*
X863505Y192775D01*
X863040Y194442D01*
X862420Y195692D01*
X861490Y196733D01*
X860250Y197150D01*
G01X823050Y234650D02*
Y247150D01*
X821190Y244650D01*
G01Y234650D02*
X824910D01*
G01X832505Y239858D02*
X833590Y241317D01*
X834520Y242150D01*
X835760Y242566D01*
X836845Y242150D01*
X837620Y241317D01*
X838240Y240067D01*
X838395Y238608D01*
X838240Y237358D01*
X837620Y236108D01*
X836690Y235067D01*
X835605Y234650D01*
X834365Y235067D01*
X833280Y236316D01*
X832660Y238192D01*
X832505Y240275D01*
X832815Y242983D01*
X833280Y244442D01*
X834055Y245900D01*
X835140Y246942D01*
X836225Y247150D01*
X837310Y246733D01*
X838085Y245692D01*
G01X847850Y234233D02*
X847540Y234442D01*
Y234858D01*
X847850Y235067D01*
X848160Y234858D01*
Y234442D01*
X847850Y234233D01*
G01X860250Y247150D02*
X859010Y246733D01*
X858080Y245692D01*
X857460Y244442D01*
X856995Y242775D01*
X856840Y240900D01*
X856995Y239025D01*
X857460Y237358D01*
X858080Y236108D01*
X859010Y235067D01*
X860250Y234650D01*
X861490Y235067D01*
X862420Y236108D01*
X863040Y237358D01*
X863505Y239025D01*
X863660Y240900D01*
X863505Y242775D01*
X863040Y244442D01*
X862420Y245692D01*
X861490Y246733D01*
X860250Y247150D01*
G01X823050Y259650D02*
Y272150D01*
X821190Y269650D01*
G01Y259650D02*
X824910D01*
G01X832505Y270067D02*
X833435Y271316D01*
X834520Y271942D01*
X835760Y272150D01*
X837310Y271733D01*
X838395Y270692D01*
X838705Y269442D01*
X838550Y268191D01*
X837930Y267150D01*
X834830Y265067D01*
X833435Y263608D01*
X832505Y261525D01*
X832195Y259650D01*
X838705D01*
G01X847850Y259233D02*
X847540Y259442D01*
Y259858D01*
X847850Y260067D01*
X848160Y259858D01*
Y259442D01*
X847850Y259233D01*
G01X860250Y272150D02*
X859010Y271733D01*
X858080Y270692D01*
X857460Y269442D01*
X856995Y267775D01*
X856840Y265900D01*
X856995Y264025D01*
X857460Y262358D01*
X858080Y261108D01*
X859010Y260067D01*
X860250Y259650D01*
X861490Y260067D01*
X862420Y261108D01*
X863040Y262358D01*
X863505Y264025D01*
X863660Y265900D01*
X863505Y267775D01*
X863040Y269442D01*
X862420Y270692D01*
X861490Y271733D01*
X860250Y272150D01*
G01X829250Y284650D02*
X830335Y284858D01*
X831575Y285483D01*
X832350Y286525D01*
X832660Y287983D01*
X832350Y289441D01*
X831420Y290692D01*
X830025Y291317D01*
X828475D01*
X827545Y291733D01*
X826770Y292775D01*
X826460Y294233D01*
X826925Y295692D01*
X828010Y296733D01*
X829250Y297150D01*
X830490Y296733D01*
X831575Y295692D01*
X832040Y294233D01*
X831730Y292775D01*
X830955Y291733D01*
X830025Y291317D01*
X828475D01*
X827080Y290692D01*
X826150Y289441D01*
X825840Y287983D01*
X826150Y286525D01*
X826925Y285483D01*
X828165Y284858D01*
X829250Y284650D01*
G01X841650Y284233D02*
X841340Y284442D01*
Y284858D01*
X841650Y285067D01*
X841960Y284858D01*
Y284442D01*
X841650Y284233D01*
G01X854050Y297150D02*
X852810Y296733D01*
X851880Y295692D01*
X851260Y294442D01*
X850795Y292775D01*
X850640Y290900D01*
X850795Y289025D01*
X851260Y287358D01*
X851880Y286108D01*
X852810Y285067D01*
X854050Y284650D01*
X855290Y285067D01*
X856220Y286108D01*
X856840Y287358D01*
X857305Y289025D01*
X857460Y290900D01*
X857305Y292775D01*
X856840Y294442D01*
X856220Y295692D01*
X855290Y296733D01*
X854050Y297150D01*
G01X829250Y309650D02*
X830335Y309858D01*
X831575Y310483D01*
X832350Y311525D01*
X832660Y312983D01*
X832350Y314441D01*
X831420Y315692D01*
X830025Y316317D01*
X828475D01*
X827545Y316733D01*
X826770Y317775D01*
X826460Y319233D01*
X826925Y320692D01*
X828010Y321733D01*
X829250Y322150D01*
X830490Y321733D01*
X831575Y320692D01*
X832040Y319233D01*
X831730Y317775D01*
X830955Y316733D01*
X830025Y316317D01*
X828475D01*
X827080Y315692D01*
X826150Y314441D01*
X825840Y312983D01*
X826150Y311525D01*
X826925Y310483D01*
X828165Y309858D01*
X829250Y309650D01*
G01X841650Y309233D02*
X841340Y309442D01*
Y309858D01*
X841650Y310067D01*
X841960Y309858D01*
Y309442D01*
X841650Y309233D01*
G01X854050Y322150D02*
X852810Y321733D01*
X851880Y320692D01*
X851260Y319442D01*
X850795Y317775D01*
X850640Y315900D01*
X850795Y314025D01*
X851260Y312358D01*
X851880Y311108D01*
X852810Y310067D01*
X854050Y309650D01*
X855290Y310067D01*
X856220Y311108D01*
X856840Y312358D01*
X857305Y314025D01*
X857460Y315900D01*
X857305Y317775D01*
X856840Y319442D01*
X856220Y320692D01*
X855290Y321733D01*
X854050Y322150D01*
G01X829250Y334650D02*
X830335Y334858D01*
X831575Y335483D01*
X832350Y336525D01*
X832660Y337983D01*
X832350Y339441D01*
X831420Y340692D01*
X830025Y341317D01*
X828475D01*
X827545Y341733D01*
X826770Y342775D01*
X826460Y344233D01*
X826925Y345692D01*
X828010Y346733D01*
X829250Y347150D01*
X830490Y346733D01*
X831575Y345692D01*
X832040Y344233D01*
X831730Y342775D01*
X830955Y341733D01*
X830025Y341317D01*
X828475D01*
X827080Y340692D01*
X826150Y339441D01*
X825840Y337983D01*
X826150Y336525D01*
X826925Y335483D01*
X828165Y334858D01*
X829250Y334650D01*
G01X841650Y334233D02*
X841340Y334442D01*
Y334858D01*
X841650Y335067D01*
X841960Y334858D01*
Y334442D01*
X841650Y334233D01*
G01X854050Y347150D02*
X852810Y346733D01*
X851880Y345692D01*
X851260Y344442D01*
X850795Y342775D01*
X850640Y340900D01*
X850795Y339025D01*
X851260Y337358D01*
X851880Y336108D01*
X852810Y335067D01*
X854050Y334650D01*
X855290Y335067D01*
X856220Y336108D01*
X856840Y337358D01*
X857305Y339025D01*
X857460Y340900D01*
X857305Y342775D01*
X856840Y344442D01*
X856220Y345692D01*
X855290Y346733D01*
X854050Y347150D01*
G01X819795Y361316D02*
X821035Y360275D01*
X822430Y359650D01*
X823670D01*
X824910Y360275D01*
X825840Y361316D01*
X826305Y362775D01*
X825995Y364233D01*
X825220Y365483D01*
X823825Y366317D01*
X821965Y366733D01*
X820880Y367566D01*
X820415Y369025D01*
X820725Y370483D01*
X821500Y371525D01*
X822585Y372150D01*
X823670D01*
X824755Y371733D01*
X825685Y370692D01*
G01X833590Y372150D02*
X837310D01*
G01X835450D02*
Y359650D01*
G01X833590D02*
X837310D01*
G01X844905Y372150D02*
X850795D01*
X844905Y359650D01*
X850795D01*
G01X863350D02*
X857150D01*
Y372150D01*
X863350D01*
G01X860870Y366108D02*
X857150D01*
G01X936200Y378400D02*
Y3400D01*
G01X965650Y9650D02*
Y22150D01*
X969370D01*
X970610Y21525D01*
X971540Y20067D01*
X971850Y18400D01*
X971540Y16733D01*
X970765Y15483D01*
X969370Y14858D01*
X965650D01*
G01X978050Y22150D02*
Y9650D01*
X984250D01*
G01X989675D02*
X993550Y22150D01*
X997425Y9650D01*
G01X996030Y14025D02*
X991070D01*
G01X1005950Y22150D02*
Y9650D01*
G01X1002385Y22150D02*
X1009515D01*
G01X1021450Y9650D02*
X1015250D01*
Y22150D01*
X1021450D01*
G01X1018970Y16108D02*
X1015250D01*
G01X1027340Y9650D02*
Y22150D01*
X1030440D01*
X1031680Y21525D01*
X1032610Y20692D01*
X1033385Y19442D01*
X1034005Y17983D01*
X1034160Y15900D01*
X1034005Y13816D01*
X1033385Y12358D01*
X1032610Y11108D01*
X1031680Y10275D01*
X1030440Y9650D01*
X1027340D01*
G01X965650Y34650D02*
Y47150D01*
X969370D01*
X970610Y46525D01*
X971540Y45067D01*
X971850Y43400D01*
X971540Y41733D01*
X970765Y40483D01*
X969370Y39858D01*
X965650D01*
G01X978050Y47150D02*
Y34650D01*
X984250D01*
G01X989675D02*
X993550Y47150D01*
X997425Y34650D01*
G01X996030Y39025D02*
X991070D01*
G01X1005950Y47150D02*
Y34650D01*
G01X1002385Y47150D02*
X1009515D01*
G01X1021450Y34650D02*
X1015250D01*
Y47150D01*
X1021450D01*
G01X1018970Y41108D02*
X1015250D01*
G01X1027340Y34650D02*
Y47150D01*
X1030440D01*
X1031680Y46525D01*
X1032610Y45692D01*
X1033385Y44442D01*
X1034005Y42983D01*
X1034160Y40900D01*
X1034005Y38817D01*
X1033385Y37358D01*
X1032610Y36108D01*
X1031680Y35275D01*
X1030440Y34650D01*
X1027340D01*
G01X965650Y59650D02*
Y72150D01*
X969370D01*
X970610Y71525D01*
X971540Y70067D01*
X971850Y68400D01*
X971540Y66733D01*
X970765Y65483D01*
X969370Y64858D01*
X965650D01*
G01X978050Y72150D02*
Y59650D01*
X984250D01*
G01X989675D02*
X993550Y72150D01*
X997425Y59650D01*
G01X996030Y64025D02*
X991070D01*
G01X1005950Y72150D02*
Y59650D01*
G01X1002385Y72150D02*
X1009515D01*
G01X1021450Y59650D02*
X1015250D01*
Y72150D01*
X1021450D01*
G01X1018970Y66108D02*
X1015250D01*
G01X1027340Y59650D02*
Y72150D01*
X1030440D01*
X1031680Y71525D01*
X1032610Y70692D01*
X1033385Y69442D01*
X1034005Y67983D01*
X1034160Y65900D01*
X1034005Y63816D01*
X1033385Y62358D01*
X1032610Y61108D01*
X1031680Y60275D01*
X1030440Y59650D01*
X1027340D01*
G01X965650Y84650D02*
Y97150D01*
X969370D01*
X970610Y96525D01*
X971540Y95067D01*
X971850Y93400D01*
X971540Y91733D01*
X970765Y90483D01*
X969370Y89858D01*
X965650D01*
G01X978050Y97150D02*
Y84650D01*
X984250D01*
G01X989675D02*
X993550Y97150D01*
X997425Y84650D01*
G01X996030Y89025D02*
X991070D01*
G01X1005950Y97150D02*
Y84650D01*
G01X1002385Y97150D02*
X1009515D01*
G01X1021450Y84650D02*
X1015250D01*
Y97150D01*
X1021450D01*
G01X1018970Y91108D02*
X1015250D01*
G01X1027340Y84650D02*
Y97150D01*
X1030440D01*
X1031680Y96525D01*
X1032610Y95692D01*
X1033385Y94442D01*
X1034005Y92983D01*
X1034160Y90900D01*
X1034005Y88816D01*
X1033385Y87358D01*
X1032610Y86108D01*
X1031680Y85275D01*
X1030440Y84650D01*
X1027340D01*
G01X965650Y109650D02*
Y122150D01*
X969370D01*
X970610Y121525D01*
X971540Y120067D01*
X971850Y118400D01*
X971540Y116733D01*
X970765Y115483D01*
X969370Y114858D01*
X965650D01*
G01X978050Y122150D02*
Y109650D01*
X984250D01*
G01X989675D02*
X993550Y122150D01*
X997425Y109650D01*
G01X996030Y114025D02*
X991070D01*
G01X1005950Y122150D02*
Y109650D01*
G01X1002385Y122150D02*
X1009515D01*
G01X1021450Y109650D02*
X1015250D01*
Y122150D01*
X1021450D01*
G01X1018970Y116109D02*
X1015250D01*
G01X1027340Y109650D02*
Y122150D01*
X1030440D01*
X1031680Y121525D01*
X1032610Y120692D01*
X1033385Y119442D01*
X1034005Y117983D01*
X1034160Y115900D01*
X1034005Y113817D01*
X1033385Y112358D01*
X1032610Y111108D01*
X1031680Y110275D01*
X1030440Y109650D01*
X1027340D01*
G01X965650Y134650D02*
Y147150D01*
X969370D01*
X970610Y146525D01*
X971540Y145067D01*
X971850Y143400D01*
X971540Y141733D01*
X970765Y140483D01*
X969370Y139858D01*
X965650D01*
G01X978050Y147150D02*
Y134650D01*
X984250D01*
G01X989675D02*
X993550Y147150D01*
X997425Y134650D01*
G01X996030Y139025D02*
X991070D01*
G01X1005950Y147150D02*
Y134650D01*
G01X1002385Y147150D02*
X1009515D01*
G01X1021450Y134650D02*
X1015250D01*
Y147150D01*
X1021450D01*
G01X1018970Y141108D02*
X1015250D01*
G01X1027340Y134650D02*
Y147150D01*
X1030440D01*
X1031680Y146525D01*
X1032610Y145692D01*
X1033385Y144442D01*
X1034005Y142983D01*
X1034160Y140900D01*
X1034005Y138816D01*
X1033385Y137358D01*
X1032610Y136108D01*
X1031680Y135275D01*
X1030440Y134650D01*
X1027340D01*
G01X965650Y159650D02*
Y172150D01*
X969370D01*
X970610Y171525D01*
X971540Y170067D01*
X971850Y168400D01*
X971540Y166733D01*
X970765Y165483D01*
X969370Y164858D01*
X965650D01*
G01X978050Y172150D02*
Y159650D01*
X984250D01*
G01X989675D02*
X993550Y172150D01*
X997425Y159650D01*
G01X996030Y164025D02*
X991070D01*
G01X1005950Y172150D02*
Y159650D01*
G01X1002385Y172150D02*
X1009515D01*
G01X1021450Y159650D02*
X1015250D01*
Y172150D01*
X1021450D01*
G01X1018970Y166108D02*
X1015250D01*
G01X1027340Y159650D02*
Y172150D01*
X1030440D01*
X1031680Y171525D01*
X1032610Y170692D01*
X1033385Y169442D01*
X1034005Y167983D01*
X1034160Y165900D01*
X1034005Y163816D01*
X1033385Y162358D01*
X1032610Y161108D01*
X1031680Y160275D01*
X1030440Y159650D01*
X1027340D01*
G01X965650Y184650D02*
Y197150D01*
X969370D01*
X970610Y196525D01*
X971540Y195067D01*
X971850Y193400D01*
X971540Y191733D01*
X970765Y190483D01*
X969370Y189858D01*
X965650D01*
G01X978050Y197150D02*
Y184650D01*
X984250D01*
G01X989675D02*
X993550Y197150D01*
X997425Y184650D01*
G01X996030Y189025D02*
X991070D01*
G01X1005950Y197150D02*
Y184650D01*
G01X1002385Y197150D02*
X1009515D01*
G01X1021450Y184650D02*
X1015250D01*
Y197150D01*
X1021450D01*
G01X1018970Y191108D02*
X1015250D01*
G01X1027340Y184650D02*
Y197150D01*
X1030440D01*
X1031680Y196525D01*
X1032610Y195692D01*
X1033385Y194442D01*
X1034005Y192983D01*
X1034160Y190900D01*
X1034005Y188816D01*
X1033385Y187358D01*
X1032610Y186108D01*
X1031680Y185275D01*
X1030440Y184650D01*
X1027340D01*
G01X965650Y209650D02*
Y222150D01*
X969370D01*
X970610Y221525D01*
X971540Y220067D01*
X971850Y218400D01*
X971540Y216733D01*
X970765Y215483D01*
X969370Y214858D01*
X965650D01*
G01X978050Y222150D02*
Y209650D01*
X984250D01*
G01X989675D02*
X993550Y222150D01*
X997425Y209650D01*
G01X996030Y214025D02*
X991070D01*
G01X1005950Y222150D02*
Y209650D01*
G01X1002385Y222150D02*
X1009515D01*
G01X1021450Y209650D02*
X1015250D01*
Y222150D01*
X1021450D01*
G01X1018970Y216108D02*
X1015250D01*
G01X1027340Y209650D02*
Y222150D01*
X1030440D01*
X1031680Y221525D01*
X1032610Y220692D01*
X1033385Y219442D01*
X1034005Y217983D01*
X1034160Y215900D01*
X1034005Y213816D01*
X1033385Y212358D01*
X1032610Y211108D01*
X1031680Y210275D01*
X1030440Y209650D01*
X1027340D01*
G01X965650Y234650D02*
Y247150D01*
X969370D01*
X970610Y246525D01*
X971540Y245067D01*
X971850Y243400D01*
X971540Y241733D01*
X970765Y240483D01*
X969370Y239858D01*
X965650D01*
G01X978050Y247150D02*
Y234650D01*
X984250D01*
G01X989675D02*
X993550Y247150D01*
X997425Y234650D01*
G01X996030Y239025D02*
X991070D01*
G01X1005950Y247150D02*
Y234650D01*
G01X1002385Y247150D02*
X1009515D01*
G01X1021450Y234650D02*
X1015250D01*
Y247150D01*
X1021450D01*
G01X1018970Y241108D02*
X1015250D01*
G01X1027340Y234650D02*
Y247150D01*
X1030440D01*
X1031680Y246525D01*
X1032610Y245692D01*
X1033385Y244442D01*
X1034005Y242983D01*
X1034160Y240900D01*
X1034005Y238816D01*
X1033385Y237358D01*
X1032610Y236108D01*
X1031680Y235275D01*
X1030440Y234650D01*
X1027340D01*
G01X965650Y259650D02*
Y272150D01*
X969370D01*
X970610Y271525D01*
X971540Y270067D01*
X971850Y268400D01*
X971540Y266733D01*
X970765Y265483D01*
X969370Y264858D01*
X965650D01*
G01X978050Y272150D02*
Y259650D01*
X984250D01*
G01X989675D02*
X993550Y272150D01*
X997425Y259650D01*
G01X996030Y264025D02*
X991070D01*
G01X1005950Y272150D02*
Y259650D01*
G01X1002385Y272150D02*
X1009515D01*
G01X1021450Y259650D02*
X1015250D01*
Y272150D01*
X1021450D01*
G01X1018970Y266108D02*
X1015250D01*
G01X1027340Y259650D02*
Y272150D01*
X1030440D01*
X1031680Y271525D01*
X1032610Y270692D01*
X1033385Y269442D01*
X1034005Y267983D01*
X1034160Y265900D01*
X1034005Y263816D01*
X1033385Y262358D01*
X1032610Y261108D01*
X1031680Y260275D01*
X1030440Y259650D01*
X1027340D01*
G01X965650Y284650D02*
Y297150D01*
X969370D01*
X970610Y296525D01*
X971540Y295067D01*
X971850Y293400D01*
X971540Y291733D01*
X970765Y290483D01*
X969370Y289858D01*
X965650D01*
G01X978050Y297150D02*
Y284650D01*
X984250D01*
G01X989675D02*
X993550Y297150D01*
X997425Y284650D01*
G01X996030Y289025D02*
X991070D01*
G01X1005950Y297150D02*
Y284650D01*
G01X1002385Y297150D02*
X1009515D01*
G01X1021450Y284650D02*
X1015250D01*
Y297150D01*
X1021450D01*
G01X1018970Y291108D02*
X1015250D01*
G01X1027340Y284650D02*
Y297150D01*
X1030440D01*
X1031680Y296525D01*
X1032610Y295692D01*
X1033385Y294442D01*
X1034005Y292983D01*
X1034160Y290900D01*
X1034005Y288816D01*
X1033385Y287358D01*
X1032610Y286108D01*
X1031680Y285275D01*
X1030440Y284650D01*
X1027340D01*
G01X965650Y309650D02*
Y322150D01*
X969370D01*
X970610Y321525D01*
X971540Y320067D01*
X971850Y318400D01*
X971540Y316733D01*
X970765Y315483D01*
X969370Y314858D01*
X965650D01*
G01X978050Y322150D02*
Y309650D01*
X984250D01*
G01X989675D02*
X993550Y322150D01*
X997425Y309650D01*
G01X996030Y314025D02*
X991070D01*
G01X1005950Y322150D02*
Y309650D01*
G01X1002385Y322150D02*
X1009515D01*
G01X1021450Y309650D02*
X1015250D01*
Y322150D01*
X1021450D01*
G01X1018970Y316108D02*
X1015250D01*
G01X1027340Y309650D02*
Y322150D01*
X1030440D01*
X1031680Y321525D01*
X1032610Y320692D01*
X1033385Y319442D01*
X1034005Y317983D01*
X1034160Y315900D01*
X1034005Y313816D01*
X1033385Y312358D01*
X1032610Y311108D01*
X1031680Y310275D01*
X1030440Y309650D01*
X1027340D01*
G01X965650Y334650D02*
Y347150D01*
X969370D01*
X970610Y346525D01*
X971540Y345067D01*
X971850Y343400D01*
X971540Y341733D01*
X970765Y340483D01*
X969370Y339858D01*
X965650D01*
G01X978050Y347150D02*
Y334650D01*
X984250D01*
G01X989675D02*
X993550Y347150D01*
X997425Y334650D01*
G01X996030Y339025D02*
X991070D01*
G01X1005950Y347150D02*
Y334650D01*
G01X1002385Y347150D02*
X1009515D01*
G01X1021450Y334650D02*
X1015250D01*
Y347150D01*
X1021450D01*
G01X1018970Y341108D02*
X1015250D01*
G01X1027340Y334650D02*
Y347150D01*
X1030440D01*
X1031680Y346525D01*
X1032610Y345692D01*
X1033385Y344442D01*
X1034005Y342983D01*
X1034160Y340900D01*
X1034005Y338816D01*
X1033385Y337358D01*
X1032610Y336108D01*
X1031680Y335275D01*
X1030440Y334650D01*
X1027340D01*
G01X965650Y359650D02*
Y372150D01*
X969370D01*
X970610Y371525D01*
X971540Y370067D01*
X971850Y368400D01*
X971540Y366733D01*
X970765Y365483D01*
X969370Y364858D01*
X965650D01*
G01X978050Y372150D02*
Y359650D01*
X984250D01*
G01X989675D02*
X993550Y372150D01*
X997425Y359650D01*
G01X996030Y364025D02*
X991070D01*
G01X1005950Y372150D02*
Y359650D01*
G01X1002385Y372150D02*
X1009515D01*
G01X1021450Y359650D02*
X1015250D01*
Y372150D01*
X1021450D01*
G01X1018970Y366108D02*
X1015250D01*
G01X1027340Y359650D02*
Y372150D01*
X1030440D01*
X1031680Y371525D01*
X1032610Y370692D01*
X1033385Y369442D01*
X1034005Y367983D01*
X1034160Y365900D01*
X1034005Y363816D01*
X1033385Y362358D01*
X1032610Y361108D01*
X1031680Y360275D01*
X1030440Y359650D01*
X1027340D01*
G01X1063300Y378400D02*
Y3400D01*
G01X1086240Y287150D02*
X1087170Y285691D01*
X1088410Y284858D01*
X1089805Y284650D01*
X1091045Y284858D01*
X1092285Y285900D01*
X1093060Y287150D01*
X1093215Y288400D01*
X1092905Y289858D01*
X1091820Y290900D01*
X1090735Y291317D01*
X1089340D01*
G01X1090735D02*
X1091665Y291942D01*
X1092440Y292983D01*
X1092750Y294233D01*
X1092440Y295483D01*
X1091665Y296525D01*
X1090270Y297150D01*
X1088875Y296942D01*
X1087480Y296108D01*
G01X1102050Y284650D02*
Y297150D01*
X1100190Y294650D01*
G01Y284650D02*
X1103910D01*
G01X1114450D02*
X1115535Y284858D01*
X1116775Y285483D01*
X1117550Y286525D01*
X1117860Y287983D01*
X1117550Y289441D01*
X1116620Y290692D01*
X1115225Y291317D01*
X1113675D01*
X1112745Y291733D01*
X1111970Y292775D01*
X1111660Y294233D01*
X1112125Y295692D01*
X1113210Y296733D01*
X1114450Y297150D01*
X1115690Y296733D01*
X1116775Y295692D01*
X1117240Y294233D01*
X1116930Y292775D01*
X1116155Y291733D01*
X1115225Y291317D01*
X1113675D01*
X1112280Y290692D01*
X1111350Y289441D01*
X1111040Y287983D01*
X1111350Y286525D01*
X1112125Y285483D01*
X1113365Y284858D01*
X1114450Y284650D01*
G01X1083450Y309650D02*
Y322150D01*
X1081590Y319650D01*
G01Y309650D02*
X1085310D01*
G01X1095540D02*
X1095850Y312358D01*
X1096315Y314650D01*
X1096935Y316733D01*
X1097710Y319025D01*
X1098950Y322150D01*
X1092750D01*
G01X1104840Y311525D02*
X1105770Y310483D01*
X1106855Y309858D01*
X1108250Y309650D01*
X1109645Y310067D01*
X1110730Y310900D01*
X1111505Y312358D01*
X1111660Y314025D01*
X1111350Y315692D01*
X1110575Y316733D01*
X1109490Y317566D01*
X1108405Y317775D01*
X1107320Y317566D01*
X1105925Y316733D01*
X1106390Y322150D01*
X1110575D01*
G01X1118015Y311108D02*
X1119100Y310067D01*
X1120340Y309650D01*
X1121580Y310067D01*
X1122665Y311316D01*
X1123440Y313192D01*
X1123750Y315067D01*
Y317358D01*
X1123440Y319233D01*
X1122665Y320900D01*
X1121735Y321733D01*
X1120650Y322150D01*
X1119410Y321733D01*
X1118480Y320900D01*
X1117860Y319650D01*
X1117550Y317983D01*
X1117860Y316525D01*
X1118635Y315067D01*
X1119565Y314233D01*
X1120650Y314025D01*
X1121890Y314441D01*
X1122820Y315483D01*
X1123750Y317358D01*
G01X1089650Y359650D02*
X1088410Y359858D01*
X1087325Y360691D01*
X1086395Y361942D01*
X1085775Y363400D01*
X1085465Y365067D01*
Y366733D01*
X1085775Y368400D01*
X1086395Y369858D01*
X1087325Y371108D01*
X1088410Y371942D01*
X1089650Y372150D01*
X1090890Y371942D01*
X1091975Y371108D01*
X1092905Y369858D01*
X1093525Y368400D01*
X1093835Y366733D01*
Y365067D01*
X1093525Y363400D01*
X1092905Y361942D01*
X1091975Y360691D01*
X1090890Y359858D01*
X1089650Y359650D01*
G01X1090890Y362983D02*
X1092750Y359650D01*
G01X1102050Y372150D02*
Y359650D01*
G01X1098485Y372150D02*
X1105615D01*
G01X1114450Y359650D02*
Y365275D01*
X1111350Y372150D01*
G01X1117550D02*
X1114450Y365275D01*
G01X1098640Y12150D02*
X1099570Y10691D01*
X1100810Y9858D01*
X1102205Y9650D01*
X1103445Y9858D01*
X1104685Y10900D01*
X1105460Y12150D01*
X1105615Y13400D01*
X1105305Y14858D01*
X1104220Y15900D01*
X1103135Y16317D01*
X1101740D01*
G01X1103135D02*
X1104065Y16942D01*
X1104840Y17983D01*
X1105150Y19233D01*
X1104840Y20483D01*
X1104065Y21525D01*
X1102670Y22150D01*
X1101275Y21942D01*
X1099880Y21108D01*
G01X1099105Y39858D02*
X1100190Y41317D01*
X1101120Y42150D01*
X1102360Y42566D01*
X1103445Y42150D01*
X1104220Y41317D01*
X1104840Y40067D01*
X1104995Y38608D01*
X1104840Y37358D01*
X1104220Y36108D01*
X1103290Y35067D01*
X1102205Y34650D01*
X1100965Y35067D01*
X1099880Y36316D01*
X1099260Y38192D01*
X1099105Y40275D01*
X1099415Y42983D01*
X1099880Y44442D01*
X1100655Y45900D01*
X1101740Y46942D01*
X1102825Y47150D01*
X1103910Y46733D01*
X1104685Y45692D01*
G01X1103910Y59650D02*
Y72150D01*
X1098175Y63192D01*
X1105925D01*
G01X1103910Y84650D02*
Y97150D01*
X1098175Y88192D01*
X1105925D01*
G01X1095850Y109650D02*
Y122150D01*
X1093990Y119650D01*
G01Y109650D02*
X1097710D01*
G01X1108250D02*
Y122150D01*
X1106390Y119650D01*
G01Y109650D02*
X1110110D01*
G01X1092905Y145067D02*
X1093835Y146316D01*
X1094920Y146942D01*
X1096160Y147150D01*
X1097710Y146733D01*
X1098795Y145692D01*
X1099105Y144442D01*
X1098950Y143191D01*
X1098330Y142150D01*
X1095230Y140067D01*
X1093835Y138608D01*
X1092905Y136525D01*
X1092595Y134650D01*
X1099105D01*
G01X1107940D02*
X1108250Y137358D01*
X1108715Y139650D01*
X1109335Y141733D01*
X1110110Y144025D01*
X1111350Y147150D01*
X1105150D01*
G01X1103910Y159650D02*
Y172150D01*
X1098175Y163192D01*
X1105925D01*
G01X1095850Y184650D02*
Y197150D01*
X1093990Y194650D01*
G01Y184650D02*
X1097710D01*
G01X1105305Y189858D02*
X1106390Y191317D01*
X1107320Y192150D01*
X1108560Y192566D01*
X1109645Y192150D01*
X1110420Y191317D01*
X1111040Y190067D01*
X1111195Y188608D01*
X1111040Y187358D01*
X1110420Y186108D01*
X1109490Y185067D01*
X1108405Y184650D01*
X1107165Y185067D01*
X1106080Y186316D01*
X1105460Y188192D01*
X1105305Y190275D01*
X1105615Y192983D01*
X1106080Y194442D01*
X1106855Y195900D01*
X1107940Y196942D01*
X1109025Y197150D01*
X1110110Y196733D01*
X1110885Y195692D01*
G01X1095540Y209650D02*
X1095850Y212358D01*
X1096315Y214650D01*
X1096935Y216733D01*
X1097710Y219025D01*
X1098950Y222150D01*
X1092750D01*
G01X1105305Y220067D02*
X1106235Y221316D01*
X1107320Y221942D01*
X1108560Y222150D01*
X1110110Y221733D01*
X1111195Y220692D01*
X1111505Y219442D01*
X1111350Y218191D01*
X1110730Y217150D01*
X1107630Y215067D01*
X1106235Y213608D01*
X1105305Y211525D01*
X1104995Y209650D01*
X1111505D01*
G01X1098640Y237150D02*
X1099570Y235691D01*
X1100810Y234858D01*
X1102205Y234650D01*
X1103445Y234858D01*
X1104685Y235900D01*
X1105460Y237150D01*
X1105615Y238400D01*
X1105305Y239858D01*
X1104220Y240900D01*
X1103135Y241317D01*
X1101740D01*
G01X1103135D02*
X1104065Y241942D01*
X1104840Y242983D01*
X1105150Y244233D01*
X1104840Y245483D01*
X1104065Y246525D01*
X1102670Y247150D01*
X1101275Y246942D01*
X1099880Y246108D01*
G01X1095850Y259650D02*
Y272150D01*
X1093990Y269650D01*
G01Y259650D02*
X1097710D01*
G01X1105305Y270067D02*
X1106235Y271316D01*
X1107320Y271942D01*
X1108560Y272150D01*
X1110110Y271733D01*
X1111195Y270692D01*
X1111505Y269442D01*
X1111350Y268191D01*
X1110730Y267150D01*
X1107630Y265067D01*
X1106235Y263608D01*
X1105305Y261525D01*
X1104995Y259650D01*
X1111505D01*
G01X1092905Y339858D02*
X1093990Y341317D01*
X1094920Y342150D01*
X1096160Y342566D01*
X1097245Y342150D01*
X1098020Y341317D01*
X1098640Y340067D01*
X1098795Y338608D01*
X1098640Y337358D01*
X1098020Y336108D01*
X1097090Y335067D01*
X1096005Y334650D01*
X1094765Y335067D01*
X1093680Y336316D01*
X1093060Y338192D01*
X1092905Y340275D01*
X1093215Y342983D01*
X1093680Y344442D01*
X1094455Y345900D01*
X1095540Y346942D01*
X1096625Y347150D01*
X1097710Y346733D01*
X1098485Y345692D01*
G01X1108250Y334650D02*
X1109335Y334858D01*
X1110575Y335483D01*
X1111350Y336525D01*
X1111660Y337983D01*
X1111350Y339441D01*
X1110420Y340692D01*
X1109025Y341317D01*
X1107475D01*
X1106545Y341733D01*
X1105770Y342775D01*
X1105460Y344233D01*
X1105925Y345692D01*
X1107010Y346733D01*
X1108250Y347150D01*
X1109490Y346733D01*
X1110575Y345692D01*
X1111040Y344233D01*
X1110730Y342775D01*
X1109955Y341733D01*
X1109025Y341317D01*
X1107475D01*
X1106080Y340692D01*
X1105150Y339441D01*
X1104840Y337983D01*
X1105150Y336525D01*
X1105925Y335483D01*
X1107165Y334858D01*
X1108250Y334650D01*
G54D13*
X14200Y299200D03*
X97000Y143800D03*
X185400Y458500D03*
X200800Y776200D03*
X237600Y144200D03*
X258100Y541900D03*
X333200Y885600D03*
X344000Y93300D03*
X471100Y153600D03*
X472000Y240500D03*
X527500Y806000D03*
X702150Y115900D03*
G54D14*
X61300Y19126D03*
X273700D03*
X312300D03*
X524700D03*
X702150Y90900D03*
G54D15*
X59600Y74900D03*
X59800Y67000D03*
X61900Y89000D03*
X702150Y240900D03*
G54D16*
X55824Y489809D03*
X60824D03*
X65824D03*
X70824D03*
X75824D03*
X80824D03*
Y554769D03*
X75824D03*
X85824Y489809D03*
X90824D03*
X95824D03*
X100824D03*
Y554769D03*
X95824D03*
X90824D03*
X85824D03*
X702150Y190900D03*
G54D17*
X76900Y76100D03*
X151800Y225300D03*
X220800Y188400D03*
X236300Y47300D03*
X251700Y47700D03*
X242600Y56200D03*
X275500Y45000D03*
X295200Y636900D03*
X329300Y224200D03*
X339200Y222400D03*
X366800Y638500D03*
X390400Y386800D03*
X385400Y606400D03*
X378700Y637400D03*
X401800Y396700D03*
X407000Y450500D03*
X401800Y611900D03*
X408100Y788100D03*
X431600Y592600D03*
X438900Y777700D03*
X469100Y692900D03*
X455300Y704400D03*
X490700Y357000D03*
X484800Y533000D03*
X494300Y454400D03*
X508100Y499200D03*
X526000Y707900D03*
X702150Y140900D03*
G54D18*
X113600Y737300D03*
Y744800D03*
X128500Y737300D03*
Y744800D03*
Y767200D03*
Y782100D03*
Y797000D03*
Y819400D03*
Y834400D03*
Y849300D03*
X156400Y595600D03*
X155800Y615900D03*
X150800Y687200D03*
X160200Y701700D03*
X143400Y737300D03*
X158300D03*
Y744800D03*
X143400D03*
Y767200D03*
X158300Y782100D03*
X143400D03*
Y804500D03*
X158300D03*
X143400Y834400D03*
Y819400D03*
Y849300D03*
X165800Y687200D03*
Y767200D03*
X173300Y782100D03*
Y804500D03*
X196100Y594700D03*
X195900Y619700D03*
X188200Y728800D03*
Y722400D03*
X195600Y767200D03*
X188200Y782100D03*
Y804500D03*
X190500Y826700D03*
X188800Y883700D03*
X218000Y676200D03*
X211300Y680900D03*
X204600Y694400D03*
X211000Y701300D03*
X203100Y728800D03*
Y722400D03*
X210600Y767200D03*
Y782100D03*
X218000Y804500D03*
X202700D03*
X202300Y816100D03*
X218300Y816400D03*
X218400Y826700D03*
X201700D03*
X211200Y859000D03*
X231349Y263200D03*
X223800Y323016D03*
X225500Y327000D03*
X237400Y380102D03*
X224400Y380000D03*
X220000Y593600D03*
X220800Y622400D03*
X233000Y676200D03*
X226300Y680900D03*
X227300Y717100D03*
X225500Y767200D03*
Y782100D03*
X250640Y253149D03*
X239000Y367800D03*
X250509Y394848D03*
X255300Y833400D03*
X247800Y840900D03*
X255300D03*
X251400Y845600D03*
X244000D03*
X248500Y883700D03*
X262451Y252900D03*
X274262Y253100D03*
X260483Y394851D03*
X272294D03*
X266400Y395600D03*
X271902Y671198D03*
X276100Y671900D03*
X262666Y673166D03*
X262929Y669229D03*
X276100Y686800D03*
X271716Y726316D03*
X262584Y728284D03*
X260700Y783600D03*
X262429Y785371D03*
X262534Y781434D03*
X270200Y833400D03*
X262700D03*
Y840900D03*
X270200D03*
X273800Y845600D03*
X266300D03*
X258800D03*
X270900Y859000D03*
X284105Y394851D03*
X291979D03*
X286640Y657160D03*
X288609Y666291D03*
X294514Y665814D03*
X291300Y671900D03*
X292000Y686700D03*
X286000Y717800D03*
X295500Y748900D03*
X280500Y763900D03*
X295500D03*
X292546Y788346D03*
X288609Y788609D03*
X286640Y798100D03*
X277700Y833400D03*
Y840900D03*
X285100D03*
X288700Y845600D03*
X281200D03*
X297884Y252700D03*
X308700Y379800D03*
X314100Y400200D03*
X303790Y394851D03*
X307727Y395273D03*
X310262Y657538D03*
X298451Y657549D03*
X302388Y667049D03*
X306300Y671900D03*
X304900Y686900D03*
X303900Y702800D03*
X298100Y733900D03*
X310400Y763900D03*
X312231Y797169D03*
X304357Y788757D03*
X309500Y778900D03*
X296300Y798151D03*
X301896D03*
X308294D03*
X308600Y832800D03*
X309000Y842900D03*
X299600Y843000D03*
X308200Y883700D03*
X321506Y253149D03*
X325443D03*
X333317D03*
X317000Y380000D03*
X329700Y394851D03*
X333317D03*
X317300Y395600D03*
X325443Y395300D03*
X329700Y587600D03*
X319500Y608800D03*
X326300Y609600D03*
X333400Y620100D03*
X319300Y620400D03*
X333884Y657184D03*
X322073Y665527D03*
X329947Y665747D03*
X321200Y671900D03*
X319800Y686900D03*
X318600Y702400D03*
X328300Y703300D03*
X323700Y721600D03*
X317900Y734000D03*
X332800D03*
X317900Y748900D03*
X325300Y763900D03*
X315962Y787375D03*
X331916Y797284D03*
X324042Y797058D03*
X316168Y797132D03*
X324400Y778900D03*
X320105Y797007D03*
X327979Y788321D03*
X329700Y823100D03*
X319700Y842800D03*
X330600Y859000D03*
X345128Y253149D03*
X336700Y342900D03*
X352600Y343000D03*
X346100D03*
X337900Y381900D03*
X343800Y379400D03*
X353002Y394851D03*
X337254D03*
X349065D03*
X339500Y636900D03*
Y629500D03*
X349632Y666632D03*
X351601Y666899D03*
X353569Y665669D03*
X336100Y671900D03*
X346500Y704200D03*
X337200Y714300D03*
X347700Y734000D03*
X340200Y748900D03*
Y763900D03*
X351601Y797199D03*
X341758Y796642D03*
X349632Y787000D03*
X353569Y787100D03*
X335853Y796953D03*
X346800Y778900D03*
X339300D03*
X339790Y797990D03*
X334800Y805700D03*
X345900Y798400D03*
X343727Y798827D03*
X345000Y832400D03*
X369898Y267898D03*
X369600Y271100D03*
X368450Y273850D03*
X367751Y313149D03*
X356400Y313300D03*
X368000Y315383D03*
X356300Y327100D03*
X370620Y328921D03*
X369395Y370273D03*
X370091Y368291D03*
X368000Y366323D03*
X354000Y380200D03*
X356900Y379400D03*
X357506Y657306D03*
X361443Y657557D03*
X369317Y657517D03*
X365380Y666200D03*
X373254Y665654D03*
X357100Y686900D03*
X359000Y714100D03*
X362600Y734000D03*
Y748900D03*
X355200Y763900D03*
X369317Y788517D03*
X365380Y788720D03*
X373254Y796946D03*
X361443Y796900D03*
X367900Y883700D03*
X390200Y273200D03*
X388700Y267100D03*
X390700Y286900D03*
X390400Y282800D03*
X389700Y293000D03*
X390100Y277400D03*
X374650Y326950D03*
X374450Y322850D03*
X379000Y584900D03*
Y616500D03*
X381200Y656449D03*
X392300Y674500D03*
X377191Y665691D03*
X385065Y665565D03*
X373400Y671900D03*
X373900Y684200D03*
Y699200D03*
Y714100D03*
X377600Y734000D03*
Y748900D03*
Y763900D03*
X389002Y788302D03*
X376600Y778900D03*
X385065Y797365D03*
X381100Y850600D03*
X408800Y585900D03*
X397800Y586400D03*
X397300Y619500D03*
X411400Y631400D03*
X394040Y681040D03*
X393200Y672321D03*
X403751Y671198D03*
X404500Y679072D03*
X392800Y677700D03*
X393825Y700725D03*
X393151Y686946D03*
X393300Y688914D03*
X393100Y683009D03*
X393151Y773560D03*
X403691Y771591D03*
X393151Y769623D03*
Y781434D03*
X407500Y797600D03*
X401300Y803900D03*
X408700Y850600D03*
X393900D03*
X405200Y859000D03*
X422300Y584300D03*
X427200Y624500D03*
X426200Y797700D03*
X417700Y797600D03*
X429700Y805700D03*
X413300Y825000D03*
X412700Y840300D03*
X412800Y883700D03*
X436600Y583700D03*
X438400Y589200D03*
X447600Y734800D03*
X432800Y788700D03*
X433600Y797700D03*
X431900Y818900D03*
X431500Y840500D03*
X461600Y676800D03*
Y683800D03*
X461200Y697200D03*
X465600Y717000D03*
X455800Y726800D03*
X467400Y778100D03*
X451900Y777900D03*
X451500Y788800D03*
X466900D03*
X465800Y803800D03*
X452000Y803700D03*
X467100Y830600D03*
X451800Y828500D03*
X468300Y865500D03*
X450700Y865200D03*
X457600Y883700D03*
X470500Y620100D03*
Y642500D03*
Y627600D03*
X470700Y670200D03*
X470300Y682600D03*
X702150Y290900D03*
G54D19*
X139700Y494300D03*
X139800Y513000D03*
X164500Y494300D03*
X164600Y513000D03*
X702150Y165900D03*
M02*
