G04 ================== begin FILE IDENTIFICATION RECORD ==================*
G04 Layout Name:  E:/Work_File/CEPC/Schematic-amd-PCB-of-DET_V1/FEB_DET_1V0.brd*
G04 Film Name:    silkbottom*
G04 File Format:  Gerber RS274X*
G04 File Origin:  Cadence Allegro 16.6-2015-S066*
G04 Origin Date:  Thu Aug 24 20:47:34 2017*
G04 *
G04 Layer:  REF DES/SILKSCREEN_BOTTOM*
G04 Layer:  PACKAGE GEOMETRY/SILKSCREEN_BOTTOM*
G04 Layer:  BOARD GEOMETRY/OUTLINE*
G04 Layer:  BOARD GEOMETRY/SILKSCREEN_BOTTOM*
G04 *
G04 Offset:    (0.000 0.000)*
G04 Mirror:    Yes*
G04 Mode:      Positive*
G04 Rotation:  0*
G04 FullContactRelief:  No*
G04 UndefLineWidth:     5.000*
G04 ================== end FILE IDENTIFICATION RECORD ====================*
%FSLAX25Y25*MOIN*%
%IR0*IPPOS*OFA0.00000B0.00000*MIA1B0*SFA1.00000B1.00000*%
%ADD10C,.003*%
%ADD11C,.005*%
%ADD12C,.008*%
%ADD13C,.00591*%
%ADD14C,.005906*%
G75*
%LPD*%
G75*
G54D10*
G01X0Y0D02*
X590550D01*
Y984250D01*
X0D01*
Y0D01*
G01X33107Y136542D02*
X33337Y136697D01*
X33605Y136800D01*
X33912D01*
X34257Y136645D01*
X34525Y136387D01*
X34717Y136077D01*
X34870Y135560D01*
X34908Y135095D01*
X34832Y134630D01*
X34717Y134320D01*
X34487Y134010D01*
X34218Y133803D01*
X33950Y133700D01*
X33682D01*
X33413Y133803D01*
X33183Y133958D01*
X32992Y134165D01*
G01X31578Y136283D02*
X31348Y136593D01*
X31080Y136748D01*
X30773Y136800D01*
X30390Y136697D01*
X30122Y136438D01*
X30045Y136128D01*
X30083Y135818D01*
X30237Y135560D01*
X31003Y135043D01*
X31348Y134682D01*
X31578Y134165D01*
X31655Y133700D01*
X30045D01*
G01X27750Y136800D02*
X28057Y136697D01*
X28287Y136438D01*
X28440Y136128D01*
X28555Y135715D01*
X28593Y135250D01*
X28555Y134785D01*
X28440Y134372D01*
X28287Y134062D01*
X28057Y133803D01*
X27750Y133700D01*
X27443Y133803D01*
X27213Y134062D01*
X27060Y134372D01*
X26945Y134785D01*
X26907Y135250D01*
X26945Y135715D01*
X27060Y136128D01*
X27213Y136438D01*
X27443Y136697D01*
X27750Y136800D01*
G01X25493Y134165D02*
X25263Y133907D01*
X24995Y133752D01*
X24650Y133700D01*
X24305Y133803D01*
X24037Y134010D01*
X23845Y134372D01*
X23807Y134785D01*
X23883Y135198D01*
X24075Y135457D01*
X24343Y135663D01*
X24612Y135715D01*
X24880Y135663D01*
X25225Y135457D01*
X25110Y136800D01*
X24075D01*
G01X45907Y116242D02*
X46137Y116397D01*
X46405Y116500D01*
X46712D01*
X47057Y116345D01*
X47325Y116087D01*
X47517Y115777D01*
X47670Y115260D01*
X47708Y114795D01*
X47632Y114330D01*
X47517Y114020D01*
X47287Y113710D01*
X47018Y113503D01*
X46750Y113400D01*
X46482D01*
X46213Y113503D01*
X45983Y113658D01*
X45792Y113865D01*
G01X44378Y115983D02*
X44148Y116293D01*
X43880Y116448D01*
X43573Y116500D01*
X43190Y116397D01*
X42922Y116138D01*
X42845Y115828D01*
X42883Y115518D01*
X43037Y115260D01*
X43803Y114743D01*
X44148Y114382D01*
X44378Y113865D01*
X44455Y113400D01*
X42845D01*
G01X40550Y116500D02*
X40857Y116397D01*
X41087Y116138D01*
X41240Y115828D01*
X41355Y115415D01*
X41393Y114950D01*
X41355Y114485D01*
X41240Y114072D01*
X41087Y113762D01*
X40857Y113503D01*
X40550Y113400D01*
X40243Y113503D01*
X40013Y113762D01*
X39860Y114072D01*
X39745Y114485D01*
X39707Y114950D01*
X39745Y115415D01*
X39860Y115828D01*
X40013Y116138D01*
X40243Y116397D01*
X40550Y116500D01*
G01X38178Y114692D02*
X37910Y115053D01*
X37680Y115260D01*
X37373Y115363D01*
X37105Y115260D01*
X36913Y115053D01*
X36760Y114743D01*
X36722Y114382D01*
X36760Y114072D01*
X36913Y113762D01*
X37143Y113503D01*
X37412Y113400D01*
X37718Y113503D01*
X37987Y113813D01*
X38140Y114278D01*
X38178Y114795D01*
X38102Y115467D01*
X37987Y115828D01*
X37795Y116190D01*
X37527Y116448D01*
X37258Y116500D01*
X36990Y116397D01*
X36798Y116138D01*
G01X62707Y202042D02*
X62937Y202197D01*
X63205Y202300D01*
X63512D01*
X63857Y202145D01*
X64125Y201887D01*
X64317Y201577D01*
X64470Y201060D01*
X64508Y200595D01*
X64432Y200130D01*
X64317Y199820D01*
X64087Y199510D01*
X63818Y199303D01*
X63550Y199200D01*
X63282D01*
X63013Y199303D01*
X62783Y199458D01*
X62592Y199665D01*
G01X61178Y201783D02*
X60948Y202093D01*
X60680Y202248D01*
X60373Y202300D01*
X59990Y202197D01*
X59722Y201938D01*
X59645Y201628D01*
X59683Y201318D01*
X59837Y201060D01*
X60603Y200543D01*
X60948Y200182D01*
X61178Y199665D01*
X61255Y199200D01*
X59645D01*
G01X57350D02*
Y202300D01*
X57810Y201680D01*
G01Y199200D02*
X56890D01*
G01X54978Y200492D02*
X54710Y200853D01*
X54480Y201060D01*
X54173Y201163D01*
X53905Y201060D01*
X53713Y200853D01*
X53560Y200543D01*
X53522Y200182D01*
X53560Y199872D01*
X53713Y199562D01*
X53943Y199303D01*
X54212Y199200D01*
X54518Y199303D01*
X54787Y199613D01*
X54940Y200078D01*
X54978Y200595D01*
X54902Y201267D01*
X54787Y201628D01*
X54595Y201990D01*
X54327Y202248D01*
X54058Y202300D01*
X53790Y202197D01*
X53598Y201938D01*
G01X61207Y269142D02*
X61437Y269297D01*
X61705Y269400D01*
X62012D01*
X62357Y269245D01*
X62625Y268987D01*
X62817Y268677D01*
X62970Y268160D01*
X63008Y267695D01*
X62932Y267230D01*
X62817Y266920D01*
X62587Y266610D01*
X62318Y266403D01*
X62050Y266300D01*
X61782D01*
X61513Y266403D01*
X61283Y266558D01*
X61092Y266765D01*
G01X59678Y268883D02*
X59448Y269193D01*
X59180Y269348D01*
X58873Y269400D01*
X58490Y269297D01*
X58222Y269038D01*
X58145Y268728D01*
X58183Y268418D01*
X58337Y268160D01*
X59103Y267643D01*
X59448Y267282D01*
X59678Y266765D01*
X59755Y266300D01*
X58145D01*
G01X55850Y269400D02*
X56157Y269297D01*
X56387Y269038D01*
X56540Y268728D01*
X56655Y268315D01*
X56693Y267850D01*
X56655Y267385D01*
X56540Y266972D01*
X56387Y266662D01*
X56157Y266403D01*
X55850Y266300D01*
X55543Y266403D01*
X55313Y266662D01*
X55160Y266972D01*
X55045Y267385D01*
X55007Y267850D01*
X55045Y268315D01*
X55160Y268728D01*
X55313Y269038D01*
X55543Y269297D01*
X55850Y269400D01*
G01X53478Y268883D02*
X53248Y269193D01*
X52980Y269348D01*
X52673Y269400D01*
X52290Y269297D01*
X52022Y269038D01*
X51945Y268728D01*
X51983Y268418D01*
X52137Y268160D01*
X52903Y267643D01*
X53248Y267282D01*
X53478Y266765D01*
X53555Y266300D01*
X51945D01*
G01X57107Y337442D02*
X57337Y337597D01*
X57605Y337700D01*
X57912D01*
X58257Y337545D01*
X58525Y337287D01*
X58717Y336977D01*
X58870Y336460D01*
X58908Y335995D01*
X58832Y335530D01*
X58717Y335220D01*
X58487Y334910D01*
X58218Y334703D01*
X57950Y334600D01*
X57682D01*
X57413Y334703D01*
X57183Y334858D01*
X56992Y335065D01*
G01X55578Y337183D02*
X55348Y337493D01*
X55080Y337648D01*
X54773Y337700D01*
X54390Y337597D01*
X54122Y337338D01*
X54045Y337028D01*
X54083Y336718D01*
X54237Y336460D01*
X55003Y335943D01*
X55348Y335582D01*
X55578Y335065D01*
X55655Y334600D01*
X54045D01*
G01X51750D02*
Y337700D01*
X52210Y337080D01*
G01Y334600D02*
X51290D01*
G01X48650D02*
X48382Y334652D01*
X48075Y334807D01*
X47883Y335065D01*
X47807Y335427D01*
X47883Y335788D01*
X48113Y336098D01*
X48458Y336253D01*
X48842D01*
X49072Y336357D01*
X49263Y336615D01*
X49340Y336977D01*
X49225Y337338D01*
X48957Y337597D01*
X48650Y337700D01*
X48343Y337597D01*
X48075Y337338D01*
X47960Y336977D01*
X48037Y336615D01*
X48228Y336357D01*
X48458Y336253D01*
X48842D01*
X49187Y336098D01*
X49417Y335788D01*
X49493Y335427D01*
X49417Y335065D01*
X49225Y334807D01*
X48918Y334652D01*
X48650Y334600D01*
G01X56507Y426842D02*
X56737Y426997D01*
X57005Y427100D01*
X57312D01*
X57657Y426945D01*
X57925Y426687D01*
X58117Y426377D01*
X58270Y425860D01*
X58308Y425395D01*
X58232Y424930D01*
X58117Y424620D01*
X57887Y424310D01*
X57618Y424103D01*
X57350Y424000D01*
X57082D01*
X56813Y424103D01*
X56583Y424258D01*
X56392Y424465D01*
G01X54978Y426583D02*
X54748Y426893D01*
X54480Y427048D01*
X54173Y427100D01*
X53790Y426997D01*
X53522Y426738D01*
X53445Y426428D01*
X53483Y426118D01*
X53637Y425860D01*
X54403Y425343D01*
X54748Y424982D01*
X54978Y424465D01*
X55055Y424000D01*
X53445D01*
G01X51150Y427100D02*
X51457Y426997D01*
X51687Y426738D01*
X51840Y426428D01*
X51955Y426015D01*
X51993Y425550D01*
X51955Y425085D01*
X51840Y424672D01*
X51687Y424362D01*
X51457Y424103D01*
X51150Y424000D01*
X50843Y424103D01*
X50613Y424362D01*
X50460Y424672D01*
X50345Y425085D01*
X50307Y425550D01*
X50345Y426015D01*
X50460Y426428D01*
X50613Y426738D01*
X50843Y426997D01*
X51150Y427100D01*
G01X48050D02*
X48357Y426997D01*
X48587Y426738D01*
X48740Y426428D01*
X48855Y426015D01*
X48893Y425550D01*
X48855Y425085D01*
X48740Y424672D01*
X48587Y424362D01*
X48357Y424103D01*
X48050Y424000D01*
X47743Y424103D01*
X47513Y424362D01*
X47360Y424672D01*
X47245Y425085D01*
X47207Y425550D01*
X47245Y426015D01*
X47360Y426428D01*
X47513Y426738D01*
X47743Y426997D01*
X48050Y427100D01*
G01X86107Y126442D02*
X86337Y126597D01*
X86605Y126700D01*
X86912D01*
X87257Y126545D01*
X87525Y126287D01*
X87717Y125977D01*
X87870Y125460D01*
X87908Y124995D01*
X87832Y124530D01*
X87717Y124220D01*
X87487Y123910D01*
X87218Y123703D01*
X86950Y123600D01*
X86682D01*
X86413Y123703D01*
X86183Y123858D01*
X85992Y124065D01*
G01X84578Y126183D02*
X84348Y126493D01*
X84080Y126648D01*
X83773Y126700D01*
X83390Y126597D01*
X83122Y126338D01*
X83045Y126028D01*
X83083Y125718D01*
X83237Y125460D01*
X84003Y124943D01*
X84348Y124582D01*
X84578Y124065D01*
X84655Y123600D01*
X83045D01*
G01X80750Y126700D02*
X81057Y126597D01*
X81287Y126338D01*
X81440Y126028D01*
X81555Y125615D01*
X81593Y125150D01*
X81555Y124685D01*
X81440Y124272D01*
X81287Y123962D01*
X81057Y123703D01*
X80750Y123600D01*
X80443Y123703D01*
X80213Y123962D01*
X80060Y124272D01*
X79945Y124685D01*
X79907Y125150D01*
X79945Y125615D01*
X80060Y126028D01*
X80213Y126338D01*
X80443Y126597D01*
X80750Y126700D01*
G01X77727Y123600D02*
X77650Y124272D01*
X77535Y124840D01*
X77382Y125357D01*
X77190Y125925D01*
X76883Y126700D01*
X78417D01*
G01X108993Y482000D02*
Y479778D01*
X108840Y479313D01*
X108533Y479003D01*
X108150Y478900D01*
X107767Y479003D01*
X107460Y479313D01*
X107307Y479778D01*
Y482000D01*
G01X105893Y479365D02*
X105663Y479107D01*
X105395Y478952D01*
X105050Y478900D01*
X104705Y479003D01*
X104437Y479210D01*
X104245Y479572D01*
X104207Y479985D01*
X104283Y480398D01*
X104475Y480657D01*
X104743Y480863D01*
X105012Y480915D01*
X105280Y480863D01*
X105625Y480657D01*
X105510Y482000D01*
X104475D01*
G01X102793Y479365D02*
X102563Y479107D01*
X102295Y478952D01*
X101950Y478900D01*
X101605Y479003D01*
X101337Y479210D01*
X101145Y479572D01*
X101107Y479985D01*
X101183Y480398D01*
X101375Y480657D01*
X101643Y480863D01*
X101912Y480915D01*
X102180Y480863D01*
X102525Y480657D01*
X102410Y482000D01*
X101375D01*
G01X144517Y501700D02*
Y504800D01*
X143558D01*
X143252Y504645D01*
X143060Y504438D01*
X142983Y504025D01*
X143060Y503612D01*
X143290Y503353D01*
X143558Y503198D01*
X144517D01*
G01X143558D02*
X142983Y501700D01*
G01X140650D02*
Y504800D01*
X141110Y504180D01*
G01Y501700D02*
X140190D01*
G01X138393Y502165D02*
X138163Y501907D01*
X137895Y501752D01*
X137550Y501700D01*
X137205Y501803D01*
X136937Y502010D01*
X136745Y502372D01*
X136707Y502785D01*
X136783Y503198D01*
X136975Y503457D01*
X137243Y503663D01*
X137512Y503715D01*
X137780Y503663D01*
X138125Y503457D01*
X138010Y504800D01*
X136975D01*
G01X135102Y502062D02*
X134833Y501803D01*
X134527Y501700D01*
X134220Y501803D01*
X133952Y502113D01*
X133760Y502578D01*
X133683Y503043D01*
Y503612D01*
X133760Y504077D01*
X133952Y504490D01*
X134182Y504697D01*
X134450Y504800D01*
X134757Y504697D01*
X134987Y504490D01*
X135140Y504180D01*
X135217Y503767D01*
X135140Y503405D01*
X134948Y503043D01*
X134718Y502837D01*
X134450Y502785D01*
X134143Y502888D01*
X133913Y503147D01*
X133683Y503612D01*
G01X135093Y576500D02*
Y574278D01*
X134940Y573813D01*
X134633Y573503D01*
X134250Y573400D01*
X133867Y573503D01*
X133560Y573813D01*
X133407Y574278D01*
Y576500D01*
G01X131993Y573865D02*
X131763Y573607D01*
X131495Y573452D01*
X131150Y573400D01*
X130805Y573503D01*
X130537Y573710D01*
X130345Y574072D01*
X130307Y574485D01*
X130383Y574898D01*
X130575Y575157D01*
X130843Y575363D01*
X131112Y575415D01*
X131380Y575363D01*
X131725Y575157D01*
X131610Y576500D01*
X130575D01*
G01X128050D02*
X128357Y576397D01*
X128587Y576138D01*
X128740Y575828D01*
X128855Y575415D01*
X128893Y574950D01*
X128855Y574485D01*
X128740Y574072D01*
X128587Y573762D01*
X128357Y573503D01*
X128050Y573400D01*
X127743Y573503D01*
X127513Y573762D01*
X127360Y574072D01*
X127245Y574485D01*
X127207Y574950D01*
X127245Y575415D01*
X127360Y575828D01*
X127513Y576138D01*
X127743Y576397D01*
X128050Y576500D01*
G01X139493Y908100D02*
Y905878D01*
X139340Y905413D01*
X139033Y905103D01*
X138650Y905000D01*
X138267Y905103D01*
X137960Y905413D01*
X137807Y905878D01*
Y908100D01*
G01X136278Y907583D02*
X136048Y907893D01*
X135780Y908048D01*
X135473Y908100D01*
X135090Y907997D01*
X134822Y907738D01*
X134745Y907428D01*
X134783Y907118D01*
X134937Y906860D01*
X135703Y906343D01*
X136048Y905982D01*
X136278Y905465D01*
X136355Y905000D01*
X134745D01*
G01X132450Y908100D02*
X132757Y907997D01*
X132987Y907738D01*
X133140Y907428D01*
X133255Y907015D01*
X133293Y906550D01*
X133255Y906085D01*
X133140Y905672D01*
X132987Y905362D01*
X132757Y905103D01*
X132450Y905000D01*
X132143Y905103D01*
X131913Y905362D01*
X131760Y905672D01*
X131645Y906085D01*
X131607Y906550D01*
X131645Y907015D01*
X131760Y907428D01*
X131913Y907738D01*
X132143Y907997D01*
X132450Y908100D01*
G01X163567Y363400D02*
Y366500D01*
X162608D01*
X162302Y366345D01*
X162110Y366138D01*
X162033Y365725D01*
X162110Y365312D01*
X162340Y365053D01*
X162608Y364898D01*
X163567D01*
G01X162608D02*
X162033Y363400D01*
G01X160428Y364692D02*
X160160Y365053D01*
X159930Y365260D01*
X159623Y365363D01*
X159355Y365260D01*
X159163Y365053D01*
X159010Y364743D01*
X158972Y364382D01*
X159010Y364072D01*
X159163Y363762D01*
X159393Y363503D01*
X159662Y363400D01*
X159968Y363503D01*
X160237Y363813D01*
X160390Y364278D01*
X160428Y364795D01*
X160352Y365467D01*
X160237Y365828D01*
X160045Y366190D01*
X159777Y366448D01*
X159508Y366500D01*
X159240Y366397D01*
X159048Y366138D01*
G01X156600Y363400D02*
Y366500D01*
X157060Y365880D01*
G01Y363400D02*
X156140D01*
G01X154817Y532500D02*
Y535600D01*
X153858D01*
X153552Y535445D01*
X153360Y535238D01*
X153283Y534825D01*
X153360Y534412D01*
X153590Y534153D01*
X153858Y533998D01*
X154817D01*
G01X153858D02*
X153283Y532500D01*
G01X150950D02*
Y535600D01*
X151410Y534980D01*
G01Y532500D02*
X150490D01*
G01X148578Y533792D02*
X148310Y534153D01*
X148080Y534360D01*
X147773Y534463D01*
X147505Y534360D01*
X147313Y534153D01*
X147160Y533843D01*
X147122Y533482D01*
X147160Y533172D01*
X147313Y532862D01*
X147543Y532603D01*
X147812Y532500D01*
X148118Y532603D01*
X148387Y532913D01*
X148540Y533378D01*
X148578Y533895D01*
X148502Y534567D01*
X148387Y534928D01*
X148195Y535290D01*
X147927Y535548D01*
X147658Y535600D01*
X147390Y535497D01*
X147198Y535238D01*
G01X144750Y535600D02*
X145057Y535497D01*
X145287Y535238D01*
X145440Y534928D01*
X145555Y534515D01*
X145593Y534050D01*
X145555Y533585D01*
X145440Y533172D01*
X145287Y532862D01*
X145057Y532603D01*
X144750Y532500D01*
X144443Y532603D01*
X144213Y532862D01*
X144060Y533172D01*
X143945Y533585D01*
X143907Y534050D01*
X143945Y534515D01*
X144060Y534928D01*
X144213Y535238D01*
X144443Y535497D01*
X144750Y535600D01*
G01X153207Y555742D02*
X153437Y555897D01*
X153705Y556000D01*
X154012D01*
X154357Y555845D01*
X154625Y555587D01*
X154817Y555277D01*
X154970Y554760D01*
X155008Y554295D01*
X154932Y553830D01*
X154817Y553520D01*
X154587Y553210D01*
X154318Y553003D01*
X154050Y552900D01*
X153782D01*
X153513Y553003D01*
X153283Y553158D01*
X153092Y553365D01*
G01X151678Y555483D02*
X151448Y555793D01*
X151180Y555948D01*
X150873Y556000D01*
X150490Y555897D01*
X150222Y555638D01*
X150145Y555328D01*
X150183Y555018D01*
X150337Y554760D01*
X151103Y554243D01*
X151448Y553882D01*
X151678Y553365D01*
X151755Y552900D01*
X150145D01*
G01X148693Y553365D02*
X148463Y553107D01*
X148195Y552952D01*
X147850Y552900D01*
X147505Y553003D01*
X147237Y553210D01*
X147045Y553572D01*
X147007Y553985D01*
X147083Y554398D01*
X147275Y554657D01*
X147543Y554863D01*
X147812Y554915D01*
X148080Y554863D01*
X148425Y554657D01*
X148310Y556000D01*
X147275D01*
G01X145478Y554192D02*
X145210Y554553D01*
X144980Y554760D01*
X144673Y554863D01*
X144405Y554760D01*
X144213Y554553D01*
X144060Y554243D01*
X144022Y553882D01*
X144060Y553572D01*
X144213Y553262D01*
X144443Y553003D01*
X144712Y552900D01*
X145018Y553003D01*
X145287Y553313D01*
X145440Y553778D01*
X145478Y554295D01*
X145402Y554967D01*
X145287Y555328D01*
X145095Y555690D01*
X144827Y555948D01*
X144558Y556000D01*
X144290Y555897D01*
X144098Y555638D01*
G01X170607Y351242D02*
X170837Y351397D01*
X171105Y351500D01*
X171412D01*
X171757Y351345D01*
X172025Y351087D01*
X172217Y350777D01*
X172370Y350260D01*
X172408Y349795D01*
X172332Y349330D01*
X172217Y349020D01*
X171987Y348710D01*
X171718Y348503D01*
X171450Y348400D01*
X171182D01*
X170913Y348503D01*
X170683Y348658D01*
X170492Y348865D01*
G01X168350Y348400D02*
Y351500D01*
X168810Y350880D01*
G01Y348400D02*
X167890D01*
G01X166093Y349020D02*
X165863Y348658D01*
X165557Y348452D01*
X165212Y348400D01*
X164905Y348452D01*
X164598Y348710D01*
X164407Y349020D01*
X164368Y349330D01*
X164445Y349692D01*
X164713Y349950D01*
X164982Y350053D01*
X165327D01*
G01X164982D02*
X164752Y350208D01*
X164560Y350467D01*
X164483Y350777D01*
X164560Y351087D01*
X164752Y351345D01*
X165097Y351500D01*
X165442Y351448D01*
X165787Y351242D01*
G01X162993Y349020D02*
X162763Y348658D01*
X162457Y348452D01*
X162112Y348400D01*
X161805Y348452D01*
X161498Y348710D01*
X161307Y349020D01*
X161268Y349330D01*
X161345Y349692D01*
X161613Y349950D01*
X161882Y350053D01*
X162227D01*
G01X161882D02*
X161652Y350208D01*
X161460Y350467D01*
X161383Y350777D01*
X161460Y351087D01*
X161652Y351345D01*
X161997Y351500D01*
X162342Y351448D01*
X162687Y351242D01*
G01X177907Y555742D02*
X178137Y555897D01*
X178405Y556000D01*
X178712D01*
X179057Y555845D01*
X179325Y555587D01*
X179517Y555277D01*
X179670Y554760D01*
X179708Y554295D01*
X179632Y553830D01*
X179517Y553520D01*
X179287Y553210D01*
X179018Y553003D01*
X178750Y552900D01*
X178482D01*
X178213Y553003D01*
X177983Y553158D01*
X177792Y553365D01*
G01X176378Y555483D02*
X176148Y555793D01*
X175880Y555948D01*
X175573Y556000D01*
X175190Y555897D01*
X174922Y555638D01*
X174845Y555328D01*
X174883Y555018D01*
X175037Y554760D01*
X175803Y554243D01*
X176148Y553882D01*
X176378Y553365D01*
X176455Y552900D01*
X174845D01*
G01X173393Y553365D02*
X173163Y553107D01*
X172895Y552952D01*
X172550Y552900D01*
X172205Y553003D01*
X171937Y553210D01*
X171745Y553572D01*
X171707Y553985D01*
X171783Y554398D01*
X171975Y554657D01*
X172243Y554863D01*
X172512Y554915D01*
X172780Y554863D01*
X173125Y554657D01*
X173010Y556000D01*
X171975D01*
G01X170293Y553365D02*
X170063Y553107D01*
X169795Y552952D01*
X169450Y552900D01*
X169105Y553003D01*
X168837Y553210D01*
X168645Y553572D01*
X168607Y553985D01*
X168683Y554398D01*
X168875Y554657D01*
X169143Y554863D01*
X169412Y554915D01*
X169680Y554863D01*
X170025Y554657D01*
X169910Y556000D01*
X168875D01*
G01X195317Y191900D02*
Y195000D01*
X194358D01*
X194052Y194845D01*
X193860Y194638D01*
X193783Y194225D01*
X193860Y193812D01*
X194090Y193553D01*
X194358Y193398D01*
X195317D01*
G01X194358D02*
X193783Y191900D01*
G01X191450D02*
Y195000D01*
X191910Y194380D01*
G01Y191900D02*
X190990D01*
G01X188350D02*
X188082Y191952D01*
X187775Y192107D01*
X187583Y192365D01*
X187507Y192727D01*
X187583Y193088D01*
X187813Y193398D01*
X188158Y193553D01*
X188542D01*
X188772Y193657D01*
X188963Y193915D01*
X189040Y194277D01*
X188925Y194638D01*
X188657Y194897D01*
X188350Y195000D01*
X188043Y194897D01*
X187775Y194638D01*
X187660Y194277D01*
X187737Y193915D01*
X187928Y193657D01*
X188158Y193553D01*
X188542D01*
X188887Y193398D01*
X189117Y193088D01*
X189193Y192727D01*
X189117Y192365D01*
X188925Y192107D01*
X188618Y191952D01*
X188350Y191900D01*
G01X185327D02*
X185250Y192572D01*
X185135Y193140D01*
X184982Y193657D01*
X184790Y194225D01*
X184483Y195000D01*
X186017D01*
G01X200707Y210542D02*
X200937Y210697D01*
X201205Y210800D01*
X201512D01*
X201857Y210645D01*
X202125Y210387D01*
X202317Y210077D01*
X202470Y209560D01*
X202508Y209095D01*
X202432Y208630D01*
X202317Y208320D01*
X202087Y208010D01*
X201818Y207803D01*
X201550Y207700D01*
X201282D01*
X201013Y207803D01*
X200783Y207958D01*
X200592Y208165D01*
G01X199178Y210283D02*
X198948Y210593D01*
X198680Y210748D01*
X198373Y210800D01*
X197990Y210697D01*
X197722Y210438D01*
X197645Y210128D01*
X197683Y209818D01*
X197837Y209560D01*
X198603Y209043D01*
X198948Y208682D01*
X199178Y208165D01*
X199255Y207700D01*
X197645D01*
G01X196193Y208320D02*
X195963Y207958D01*
X195657Y207752D01*
X195312Y207700D01*
X195005Y207752D01*
X194698Y208010D01*
X194507Y208320D01*
X194468Y208630D01*
X194545Y208992D01*
X194813Y209250D01*
X195082Y209353D01*
X195427D01*
G01X195082D02*
X194852Y209508D01*
X194660Y209767D01*
X194583Y210077D01*
X194660Y210387D01*
X194852Y210645D01*
X195197Y210800D01*
X195542Y210748D01*
X195887Y210542D01*
G01X192902Y208062D02*
X192633Y207803D01*
X192327Y207700D01*
X192020Y207803D01*
X191752Y208113D01*
X191560Y208578D01*
X191483Y209043D01*
Y209612D01*
X191560Y210077D01*
X191752Y210490D01*
X191982Y210697D01*
X192250Y210800D01*
X192557Y210697D01*
X192787Y210490D01*
X192940Y210180D01*
X193017Y209767D01*
X192940Y209405D01*
X192748Y209043D01*
X192518Y208837D01*
X192250Y208785D01*
X191943Y208888D01*
X191713Y209147D01*
X191483Y209612D01*
G01X209117Y277500D02*
Y280600D01*
X208158D01*
X207852Y280445D01*
X207660Y280238D01*
X207583Y279825D01*
X207660Y279412D01*
X207890Y279153D01*
X208158Y278998D01*
X209117D01*
G01X208158D02*
X207583Y277500D01*
G01X205250D02*
Y280600D01*
X205710Y279980D01*
G01Y277500D02*
X204790D01*
G01X202227D02*
X202150Y278172D01*
X202035Y278740D01*
X201882Y279257D01*
X201690Y279825D01*
X201383Y280600D01*
X202917D01*
G01X199050Y277500D02*
X198782Y277552D01*
X198475Y277707D01*
X198283Y277965D01*
X198207Y278327D01*
X198283Y278688D01*
X198513Y278998D01*
X198858Y279153D01*
X199242D01*
X199472Y279257D01*
X199663Y279515D01*
X199740Y279877D01*
X199625Y280238D01*
X199357Y280497D01*
X199050Y280600D01*
X198743Y280497D01*
X198475Y280238D01*
X198360Y279877D01*
X198437Y279515D01*
X198628Y279257D01*
X198858Y279153D01*
X199242D01*
X199587Y278998D01*
X199817Y278688D01*
X199893Y278327D01*
X199817Y277965D01*
X199625Y277707D01*
X199318Y277552D01*
X199050Y277500D01*
G01X201007Y292342D02*
X201237Y292497D01*
X201505Y292600D01*
X201812D01*
X202157Y292445D01*
X202425Y292187D01*
X202617Y291877D01*
X202770Y291360D01*
X202808Y290895D01*
X202732Y290430D01*
X202617Y290120D01*
X202387Y289810D01*
X202118Y289603D01*
X201850Y289500D01*
X201582D01*
X201313Y289603D01*
X201083Y289758D01*
X200892Y289965D01*
G01X199478Y292083D02*
X199248Y292393D01*
X198980Y292548D01*
X198673Y292600D01*
X198290Y292497D01*
X198022Y292238D01*
X197945Y291928D01*
X197983Y291618D01*
X198137Y291360D01*
X198903Y290843D01*
X199248Y290482D01*
X199478Y289965D01*
X199555Y289500D01*
X197945D01*
G01X196493Y290120D02*
X196263Y289758D01*
X195957Y289552D01*
X195612Y289500D01*
X195305Y289552D01*
X194998Y289810D01*
X194807Y290120D01*
X194768Y290430D01*
X194845Y290792D01*
X195113Y291050D01*
X195382Y291153D01*
X195727D01*
G01X195382D02*
X195152Y291308D01*
X194960Y291567D01*
X194883Y291877D01*
X194960Y292187D01*
X195152Y292445D01*
X195497Y292600D01*
X195842Y292548D01*
X196187Y292342D01*
G01X192550Y292600D02*
X192857Y292497D01*
X193087Y292238D01*
X193240Y291928D01*
X193355Y291515D01*
X193393Y291050D01*
X193355Y290585D01*
X193240Y290172D01*
X193087Y289862D01*
X192857Y289603D01*
X192550Y289500D01*
X192243Y289603D01*
X192013Y289862D01*
X191860Y290172D01*
X191745Y290585D01*
X191707Y291050D01*
X191745Y291515D01*
X191860Y291928D01*
X192013Y292238D01*
X192243Y292497D01*
X192550Y292600D01*
G01X200407Y312442D02*
X200637Y312597D01*
X200905Y312700D01*
X201212D01*
X201557Y312545D01*
X201825Y312287D01*
X202017Y311977D01*
X202170Y311460D01*
X202208Y310995D01*
X202132Y310530D01*
X202017Y310220D01*
X201787Y309910D01*
X201518Y309703D01*
X201250Y309600D01*
X200982D01*
X200713Y309703D01*
X200483Y309858D01*
X200292Y310065D01*
G01X198878Y312183D02*
X198648Y312493D01*
X198380Y312648D01*
X198073Y312700D01*
X197690Y312597D01*
X197422Y312338D01*
X197345Y312028D01*
X197383Y311718D01*
X197537Y311460D01*
X198303Y310943D01*
X198648Y310582D01*
X198878Y310065D01*
X198955Y309600D01*
X197345D01*
G01X195778Y312183D02*
X195548Y312493D01*
X195280Y312648D01*
X194973Y312700D01*
X194590Y312597D01*
X194322Y312338D01*
X194245Y312028D01*
X194283Y311718D01*
X194437Y311460D01*
X195203Y310943D01*
X195548Y310582D01*
X195778Y310065D01*
X195855Y309600D01*
X194245D01*
G01X192602Y309962D02*
X192333Y309703D01*
X192027Y309600D01*
X191720Y309703D01*
X191452Y310013D01*
X191260Y310478D01*
X191183Y310943D01*
Y311512D01*
X191260Y311977D01*
X191452Y312390D01*
X191682Y312597D01*
X191950Y312700D01*
X192257Y312597D01*
X192487Y312390D01*
X192640Y312080D01*
X192717Y311667D01*
X192640Y311305D01*
X192448Y310943D01*
X192218Y310737D01*
X191950Y310685D01*
X191643Y310788D01*
X191413Y311047D01*
X191183Y311512D01*
G01X201817Y315500D02*
Y318600D01*
X200858D01*
X200552Y318445D01*
X200360Y318238D01*
X200283Y317825D01*
X200360Y317412D01*
X200590Y317153D01*
X200858Y316998D01*
X201817D01*
G01X200858D02*
X200283Y315500D01*
G01X197950D02*
Y318600D01*
X198410Y317980D01*
G01Y315500D02*
X197490D01*
G01X194927D02*
X194850Y316172D01*
X194735Y316740D01*
X194582Y317257D01*
X194390Y317825D01*
X194083Y318600D01*
X195617D01*
G01X191827Y315500D02*
X191750Y316172D01*
X191635Y316740D01*
X191482Y317257D01*
X191290Y317825D01*
X190983Y318600D01*
X192517D01*
G01X201967Y343400D02*
Y346500D01*
X201008D01*
X200702Y346345D01*
X200510Y346138D01*
X200433Y345725D01*
X200510Y345312D01*
X200740Y345053D01*
X201008Y344898D01*
X201967D01*
G01X201008D02*
X200433Y343400D01*
G01X198100D02*
X197832Y343452D01*
X197525Y343607D01*
X197333Y343865D01*
X197257Y344227D01*
X197333Y344588D01*
X197563Y344898D01*
X197908Y345053D01*
X198292D01*
X198522Y345157D01*
X198713Y345415D01*
X198790Y345777D01*
X198675Y346138D01*
X198407Y346397D01*
X198100Y346500D01*
X197793Y346397D01*
X197525Y346138D01*
X197410Y345777D01*
X197487Y345415D01*
X197678Y345157D01*
X197908Y345053D01*
X198292D01*
X198637Y344898D01*
X198867Y344588D01*
X198943Y344227D01*
X198867Y343865D01*
X198675Y343607D01*
X198368Y343452D01*
X198100Y343400D01*
G01X195728Y345983D02*
X195498Y346293D01*
X195230Y346448D01*
X194923Y346500D01*
X194540Y346397D01*
X194272Y346138D01*
X194195Y345828D01*
X194233Y345518D01*
X194387Y345260D01*
X195153Y344743D01*
X195498Y344382D01*
X195728Y343865D01*
X195805Y343400D01*
X194195D01*
G01X191707Y351642D02*
X191937Y351797D01*
X192205Y351900D01*
X192512D01*
X192857Y351745D01*
X193125Y351487D01*
X193317Y351177D01*
X193470Y350660D01*
X193508Y350195D01*
X193432Y349730D01*
X193317Y349420D01*
X193087Y349110D01*
X192818Y348903D01*
X192550Y348800D01*
X192282D01*
X192013Y348903D01*
X191783Y349058D01*
X191592Y349265D01*
G01X189450Y348800D02*
Y351900D01*
X189910Y351280D01*
G01Y348800D02*
X188990D01*
G01X185890D02*
Y351900D01*
X187308Y349678D01*
X185392D01*
G01X183250Y348800D02*
X182982Y348852D01*
X182675Y349007D01*
X182483Y349265D01*
X182407Y349627D01*
X182483Y349988D01*
X182713Y350298D01*
X183058Y350453D01*
X183442D01*
X183672Y350557D01*
X183863Y350815D01*
X183940Y351177D01*
X183825Y351538D01*
X183557Y351797D01*
X183250Y351900D01*
X182943Y351797D01*
X182675Y351538D01*
X182560Y351177D01*
X182637Y350815D01*
X182828Y350557D01*
X183058Y350453D01*
X183442D01*
X183787Y350298D01*
X184017Y349988D01*
X184093Y349627D01*
X184017Y349265D01*
X183825Y349007D01*
X183518Y348852D01*
X183250Y348800D01*
G01X203867Y363600D02*
Y366700D01*
X202908D01*
X202602Y366545D01*
X202410Y366338D01*
X202333Y365925D01*
X202410Y365512D01*
X202640Y365253D01*
X202908Y365098D01*
X203867D01*
G01X202908D02*
X202333Y363600D01*
G01X200077D02*
X200000Y364272D01*
X199885Y364840D01*
X199732Y365357D01*
X199540Y365925D01*
X199233Y366700D01*
X200767D01*
G01X197552Y363962D02*
X197283Y363703D01*
X196977Y363600D01*
X196670Y363703D01*
X196402Y364013D01*
X196210Y364478D01*
X196133Y364943D01*
Y365512D01*
X196210Y365977D01*
X196402Y366390D01*
X196632Y366597D01*
X196900Y366700D01*
X197207Y366597D01*
X197437Y366390D01*
X197590Y366080D01*
X197667Y365667D01*
X197590Y365305D01*
X197398Y364943D01*
X197168Y364737D01*
X196900Y364685D01*
X196593Y364788D01*
X196363Y365047D01*
X196133Y365512D01*
G01X187467Y364800D02*
Y367900D01*
X186508D01*
X186202Y367745D01*
X186010Y367538D01*
X185933Y367125D01*
X186010Y366712D01*
X186240Y366453D01*
X186508Y366298D01*
X187467D01*
G01X186508D02*
X185933Y364800D01*
G01X183677D02*
X183600Y365472D01*
X183485Y366040D01*
X183332Y366557D01*
X183140Y367125D01*
X182833Y367900D01*
X184367D01*
G01X181228Y366092D02*
X180960Y366453D01*
X180730Y366660D01*
X180423Y366763D01*
X180155Y366660D01*
X179963Y366453D01*
X179810Y366143D01*
X179772Y365782D01*
X179810Y365472D01*
X179963Y365162D01*
X180193Y364903D01*
X180462Y364800D01*
X180768Y364903D01*
X181037Y365213D01*
X181190Y365678D01*
X181228Y366195D01*
X181152Y366867D01*
X181037Y367228D01*
X180845Y367590D01*
X180577Y367848D01*
X180308Y367900D01*
X180040Y367797D01*
X179848Y367538D01*
G01X204193Y575600D02*
Y573378D01*
X204040Y572913D01*
X203733Y572603D01*
X203350Y572500D01*
X202967Y572603D01*
X202660Y572913D01*
X202507Y573378D01*
Y575600D01*
G01X199790Y572500D02*
Y575600D01*
X201208Y573378D01*
X199292D01*
G01X197802Y572862D02*
X197533Y572603D01*
X197227Y572500D01*
X196920Y572603D01*
X196652Y572913D01*
X196460Y573378D01*
X196383Y573843D01*
Y574412D01*
X196460Y574877D01*
X196652Y575290D01*
X196882Y575497D01*
X197150Y575600D01*
X197457Y575497D01*
X197687Y575290D01*
X197840Y574980D01*
X197917Y574567D01*
X197840Y574205D01*
X197648Y573843D01*
X197418Y573637D01*
X197150Y573585D01*
X196843Y573688D01*
X196613Y573947D01*
X196383Y574412D01*
G01X199993Y907000D02*
Y904778D01*
X199840Y904313D01*
X199533Y904003D01*
X199150Y903900D01*
X198767Y904003D01*
X198460Y904313D01*
X198307Y904778D01*
Y907000D01*
G01X196050Y903900D02*
Y907000D01*
X196510Y906380D01*
G01Y903900D02*
X195590D01*
G01X193602Y904262D02*
X193333Y904003D01*
X193027Y903900D01*
X192720Y904003D01*
X192452Y904313D01*
X192260Y904778D01*
X192183Y905243D01*
Y905812D01*
X192260Y906277D01*
X192452Y906690D01*
X192682Y906897D01*
X192950Y907000D01*
X193257Y906897D01*
X193487Y906690D01*
X193640Y906380D01*
X193717Y905967D01*
X193640Y905605D01*
X193448Y905243D01*
X193218Y905037D01*
X192950Y904985D01*
X192643Y905088D01*
X192413Y905347D01*
X192183Y905812D01*
G01X221817Y198100D02*
Y201200D01*
X220858D01*
X220552Y201045D01*
X220360Y200838D01*
X220283Y200425D01*
X220360Y200012D01*
X220590Y199753D01*
X220858Y199598D01*
X221817D01*
G01X220858D02*
X220283Y198100D01*
G01X217950D02*
Y201200D01*
X218410Y200580D01*
G01Y198100D02*
X217490D01*
G01X215502Y198462D02*
X215233Y198203D01*
X214927Y198100D01*
X214620Y198203D01*
X214352Y198513D01*
X214160Y198978D01*
X214083Y199443D01*
Y200012D01*
X214160Y200477D01*
X214352Y200890D01*
X214582Y201097D01*
X214850Y201200D01*
X215157Y201097D01*
X215387Y200890D01*
X215540Y200580D01*
X215617Y200167D01*
X215540Y199805D01*
X215348Y199443D01*
X215118Y199237D01*
X214850Y199185D01*
X214543Y199288D01*
X214313Y199547D01*
X214083Y200012D01*
G01X211750Y201200D02*
X212057Y201097D01*
X212287Y200838D01*
X212440Y200528D01*
X212555Y200115D01*
X212593Y199650D01*
X212555Y199185D01*
X212440Y198772D01*
X212287Y198462D01*
X212057Y198203D01*
X211750Y198100D01*
X211443Y198203D01*
X211213Y198462D01*
X211060Y198772D01*
X210945Y199185D01*
X210907Y199650D01*
X210945Y200115D01*
X211060Y200528D01*
X211213Y200838D01*
X211443Y201097D01*
X211750Y201200D01*
G01X225507Y217542D02*
X225737Y217697D01*
X226005Y217800D01*
X226312D01*
X226657Y217645D01*
X226925Y217387D01*
X227117Y217077D01*
X227270Y216560D01*
X227308Y216095D01*
X227232Y215630D01*
X227117Y215320D01*
X226887Y215010D01*
X226618Y214803D01*
X226350Y214700D01*
X226082D01*
X225813Y214803D01*
X225583Y214958D01*
X225392Y215165D01*
G01X223978Y217283D02*
X223748Y217593D01*
X223480Y217748D01*
X223173Y217800D01*
X222790Y217697D01*
X222522Y217438D01*
X222445Y217128D01*
X222483Y216818D01*
X222637Y216560D01*
X223403Y216043D01*
X223748Y215682D01*
X223978Y215165D01*
X224055Y214700D01*
X222445D01*
G01X219690D02*
Y217800D01*
X221108Y215578D01*
X219192D01*
G01X217778Y217283D02*
X217548Y217593D01*
X217280Y217748D01*
X216973Y217800D01*
X216590Y217697D01*
X216322Y217438D01*
X216245Y217128D01*
X216283Y216818D01*
X216437Y216560D01*
X217203Y216043D01*
X217548Y215682D01*
X217778Y215165D01*
X217855Y214700D01*
X216245D01*
G01X214507Y338442D02*
X214737Y338597D01*
X215005Y338700D01*
X215312D01*
X215657Y338545D01*
X215925Y338287D01*
X216117Y337977D01*
X216270Y337460D01*
X216308Y336995D01*
X216232Y336530D01*
X216117Y336220D01*
X215887Y335910D01*
X215618Y335703D01*
X215350Y335600D01*
X215082D01*
X214813Y335703D01*
X214583Y335858D01*
X214392Y336065D01*
G01X212250Y335600D02*
Y338700D01*
X212710Y338080D01*
G01Y335600D02*
X211790D01*
G01X209993Y336065D02*
X209763Y335807D01*
X209495Y335652D01*
X209150Y335600D01*
X208805Y335703D01*
X208537Y335910D01*
X208345Y336272D01*
X208307Y336685D01*
X208383Y337098D01*
X208575Y337357D01*
X208843Y337563D01*
X209112Y337615D01*
X209380Y337563D01*
X209725Y337357D01*
X209610Y338700D01*
X208575D01*
G01X205590Y335600D02*
Y338700D01*
X207008Y336478D01*
X205092D01*
G01X218707Y360542D02*
X218937Y360697D01*
X219205Y360800D01*
X219512D01*
X219857Y360645D01*
X220125Y360387D01*
X220317Y360077D01*
X220470Y359560D01*
X220508Y359095D01*
X220432Y358630D01*
X220317Y358320D01*
X220087Y358010D01*
X219818Y357803D01*
X219550Y357700D01*
X219282D01*
X219013Y357803D01*
X218783Y357958D01*
X218592Y358165D01*
G01X216450Y357700D02*
Y360800D01*
X216910Y360180D01*
G01Y357700D02*
X215990D01*
G01X214193Y358165D02*
X213963Y357907D01*
X213695Y357752D01*
X213350Y357700D01*
X213005Y357803D01*
X212737Y358010D01*
X212545Y358372D01*
X212507Y358785D01*
X212583Y359198D01*
X212775Y359457D01*
X213043Y359663D01*
X213312Y359715D01*
X213580Y359663D01*
X213925Y359457D01*
X213810Y360800D01*
X212775D01*
G01X210250Y357700D02*
Y360800D01*
X210710Y360180D01*
G01Y357700D02*
X209790D01*
G01X216307Y374542D02*
X216537Y374697D01*
X216805Y374800D01*
X217112D01*
X217457Y374645D01*
X217725Y374387D01*
X217917Y374077D01*
X218070Y373560D01*
X218108Y373095D01*
X218032Y372630D01*
X217917Y372320D01*
X217687Y372010D01*
X217418Y371803D01*
X217150Y371700D01*
X216882D01*
X216613Y371803D01*
X216383Y371958D01*
X216192Y372165D01*
G01X214050Y371700D02*
Y374800D01*
X214510Y374180D01*
G01Y371700D02*
X213590D01*
G01X210950Y374800D02*
X211257Y374697D01*
X211487Y374438D01*
X211640Y374128D01*
X211755Y373715D01*
X211793Y373250D01*
X211755Y372785D01*
X211640Y372372D01*
X211487Y372062D01*
X211257Y371803D01*
X210950Y371700D01*
X210643Y371803D01*
X210413Y372062D01*
X210260Y372372D01*
X210145Y372785D01*
X210107Y373250D01*
X210145Y373715D01*
X210260Y374128D01*
X210413Y374438D01*
X210643Y374697D01*
X210950Y374800D01*
G01X207850Y371700D02*
X207582Y371752D01*
X207275Y371907D01*
X207083Y372165D01*
X207007Y372527D01*
X207083Y372888D01*
X207313Y373198D01*
X207658Y373353D01*
X208042D01*
X208272Y373457D01*
X208463Y373715D01*
X208540Y374077D01*
X208425Y374438D01*
X208157Y374697D01*
X207850Y374800D01*
X207543Y374697D01*
X207275Y374438D01*
X207160Y374077D01*
X207237Y373715D01*
X207428Y373457D01*
X207658Y373353D01*
X208042D01*
X208387Y373198D01*
X208617Y372888D01*
X208693Y372527D01*
X208617Y372165D01*
X208425Y371907D01*
X208118Y371752D01*
X207850Y371700D01*
G01X210707Y554842D02*
X210937Y554997D01*
X211205Y555100D01*
X211512D01*
X211857Y554945D01*
X212125Y554687D01*
X212317Y554377D01*
X212470Y553860D01*
X212508Y553395D01*
X212432Y552930D01*
X212317Y552620D01*
X212087Y552310D01*
X211818Y552103D01*
X211550Y552000D01*
X211282D01*
X211013Y552103D01*
X210783Y552258D01*
X210592Y552465D01*
G01X209178Y554583D02*
X208948Y554893D01*
X208680Y555048D01*
X208373Y555100D01*
X207990Y554997D01*
X207722Y554738D01*
X207645Y554428D01*
X207683Y554118D01*
X207837Y553860D01*
X208603Y553343D01*
X208948Y552982D01*
X209178Y552465D01*
X209255Y552000D01*
X207645D01*
G01X206193Y552465D02*
X205963Y552207D01*
X205695Y552052D01*
X205350Y552000D01*
X205005Y552103D01*
X204737Y552310D01*
X204545Y552672D01*
X204507Y553085D01*
X204583Y553498D01*
X204775Y553757D01*
X205043Y553963D01*
X205312Y554015D01*
X205580Y553963D01*
X205925Y553757D01*
X205810Y555100D01*
X204775D01*
G01X202327Y552000D02*
X202250Y552672D01*
X202135Y553240D01*
X201982Y553757D01*
X201790Y554325D01*
X201483Y555100D01*
X203017D01*
G01X239893Y273800D02*
Y276900D01*
X239127D01*
X238820Y276745D01*
X238590Y276538D01*
X238398Y276228D01*
X238245Y275867D01*
X238207Y275350D01*
X238245Y274833D01*
X238398Y274472D01*
X238590Y274162D01*
X238820Y273955D01*
X239127Y273800D01*
X239893D01*
G01X235950D02*
Y276900D01*
X236410Y276280D01*
G01Y273800D02*
X235490D01*
G01X232927D02*
X232850Y274472D01*
X232735Y275040D01*
X232582Y275557D01*
X232390Y276125D01*
X232083Y276900D01*
X233617D01*
G01X241293Y327100D02*
Y330200D01*
X240527D01*
X240220Y330045D01*
X239990Y329838D01*
X239798Y329528D01*
X239645Y329167D01*
X239607Y328650D01*
X239645Y328133D01*
X239798Y327772D01*
X239990Y327462D01*
X240220Y327255D01*
X240527Y327100D01*
X241293D01*
G01X237350D02*
Y330200D01*
X237810Y329580D01*
G01Y327100D02*
X236890D01*
G01X235093Y327720D02*
X234863Y327358D01*
X234557Y327152D01*
X234212Y327100D01*
X233905Y327152D01*
X233598Y327410D01*
X233407Y327720D01*
X233368Y328030D01*
X233445Y328392D01*
X233713Y328650D01*
X233982Y328753D01*
X234327D01*
G01X233982D02*
X233752Y328908D01*
X233560Y329167D01*
X233483Y329477D01*
X233560Y329787D01*
X233752Y330045D01*
X234097Y330200D01*
X234442Y330148D01*
X234787Y329942D01*
G01X239793Y376300D02*
Y379400D01*
X239027D01*
X238720Y379245D01*
X238490Y379038D01*
X238298Y378728D01*
X238145Y378367D01*
X238107Y377850D01*
X238145Y377333D01*
X238298Y376972D01*
X238490Y376662D01*
X238720Y376455D01*
X239027Y376300D01*
X239793D01*
G01X235927D02*
X235850Y376972D01*
X235735Y377540D01*
X235582Y378057D01*
X235390Y378625D01*
X235083Y379400D01*
X236617D01*
G01X239493Y427300D02*
Y430400D01*
X238727D01*
X238420Y430245D01*
X238190Y430038D01*
X237998Y429728D01*
X237845Y429367D01*
X237807Y428850D01*
X237845Y428333D01*
X237998Y427972D01*
X238190Y427662D01*
X238420Y427455D01*
X238727Y427300D01*
X239493D01*
G01X235550D02*
Y430400D01*
X236010Y429780D01*
G01Y427300D02*
X235090D01*
G01X260593Y575700D02*
Y573478D01*
X260440Y573013D01*
X260133Y572703D01*
X259750Y572600D01*
X259367Y572703D01*
X259060Y573013D01*
X258907Y573478D01*
Y575700D01*
G01X256190Y572600D02*
Y575700D01*
X257608Y573478D01*
X255692D01*
G01X253550Y572600D02*
X253282Y572652D01*
X252975Y572807D01*
X252783Y573065D01*
X252707Y573427D01*
X252783Y573788D01*
X253013Y574098D01*
X253358Y574253D01*
X253742D01*
X253972Y574357D01*
X254163Y574615D01*
X254240Y574977D01*
X254125Y575338D01*
X253857Y575597D01*
X253550Y575700D01*
X253243Y575597D01*
X252975Y575338D01*
X252860Y574977D01*
X252937Y574615D01*
X253128Y574357D01*
X253358Y574253D01*
X253742D01*
X254087Y574098D01*
X254317Y573788D01*
X254393Y573427D01*
X254317Y573065D01*
X254125Y572807D01*
X253818Y572652D01*
X253550Y572600D01*
G01X263693Y906600D02*
Y904378D01*
X263540Y903913D01*
X263233Y903603D01*
X262850Y903500D01*
X262467Y903603D01*
X262160Y903913D01*
X262007Y904378D01*
Y906600D01*
G01X259750Y903500D02*
Y906600D01*
X260210Y905980D01*
G01Y903500D02*
X259290D01*
G01X256650D02*
X256382Y903552D01*
X256075Y903707D01*
X255883Y903965D01*
X255807Y904327D01*
X255883Y904688D01*
X256113Y904998D01*
X256458Y905153D01*
X256842D01*
X257072Y905257D01*
X257263Y905515D01*
X257340Y905877D01*
X257225Y906238D01*
X256957Y906497D01*
X256650Y906600D01*
X256343Y906497D01*
X256075Y906238D01*
X255960Y905877D01*
X256037Y905515D01*
X256228Y905257D01*
X256458Y905153D01*
X256842D01*
X257187Y904998D01*
X257417Y904688D01*
X257493Y904327D01*
X257417Y903965D01*
X257225Y903707D01*
X256918Y903552D01*
X256650Y903500D01*
G01X281093Y273800D02*
Y276900D01*
X280327D01*
X280020Y276745D01*
X279790Y276538D01*
X279598Y276228D01*
X279445Y275867D01*
X279407Y275350D01*
X279445Y274833D01*
X279598Y274472D01*
X279790Y274162D01*
X280020Y273955D01*
X280327Y273800D01*
X281093D01*
G01X277150D02*
Y276900D01*
X277610Y276280D01*
G01Y273800D02*
X276690D01*
G01X274050D02*
X273782Y273852D01*
X273475Y274007D01*
X273283Y274265D01*
X273207Y274627D01*
X273283Y274988D01*
X273513Y275298D01*
X273858Y275453D01*
X274242D01*
X274472Y275557D01*
X274663Y275815D01*
X274740Y276177D01*
X274625Y276538D01*
X274357Y276797D01*
X274050Y276900D01*
X273743Y276797D01*
X273475Y276538D01*
X273360Y276177D01*
X273437Y275815D01*
X273628Y275557D01*
X273858Y275453D01*
X274242D01*
X274587Y275298D01*
X274817Y274988D01*
X274893Y274627D01*
X274817Y274265D01*
X274625Y274007D01*
X274318Y273852D01*
X274050Y273800D01*
G01X281393Y327600D02*
Y330700D01*
X280627D01*
X280320Y330545D01*
X280090Y330338D01*
X279898Y330028D01*
X279745Y329667D01*
X279707Y329150D01*
X279745Y328633D01*
X279898Y328272D01*
X280090Y327962D01*
X280320Y327755D01*
X280627Y327600D01*
X281393D01*
G01X277450D02*
Y330700D01*
X277910Y330080D01*
G01Y327600D02*
X276990D01*
G01X273890D02*
Y330700D01*
X275308Y328478D01*
X273392D01*
G01X280193Y376400D02*
Y379500D01*
X279427D01*
X279120Y379345D01*
X278890Y379138D01*
X278698Y378828D01*
X278545Y378467D01*
X278507Y377950D01*
X278545Y377433D01*
X278698Y377072D01*
X278890Y376762D01*
X279120Y376555D01*
X279427Y376400D01*
X280193D01*
G01X276250D02*
X275982Y376452D01*
X275675Y376607D01*
X275483Y376865D01*
X275407Y377227D01*
X275483Y377588D01*
X275713Y377898D01*
X276058Y378053D01*
X276442D01*
X276672Y378157D01*
X276863Y378415D01*
X276940Y378777D01*
X276825Y379138D01*
X276557Y379397D01*
X276250Y379500D01*
X275943Y379397D01*
X275675Y379138D01*
X275560Y378777D01*
X275637Y378415D01*
X275828Y378157D01*
X276058Y378053D01*
X276442D01*
X276787Y377898D01*
X277017Y377588D01*
X277093Y377227D01*
X277017Y376865D01*
X276825Y376607D01*
X276518Y376452D01*
X276250Y376400D01*
G01X279093Y428200D02*
Y431300D01*
X278327D01*
X278020Y431145D01*
X277790Y430938D01*
X277598Y430628D01*
X277445Y430267D01*
X277407Y429750D01*
X277445Y429233D01*
X277598Y428872D01*
X277790Y428562D01*
X278020Y428355D01*
X278327Y428200D01*
X279093D01*
G01X275878Y430783D02*
X275648Y431093D01*
X275380Y431248D01*
X275073Y431300D01*
X274690Y431197D01*
X274422Y430938D01*
X274345Y430628D01*
X274383Y430318D01*
X274537Y430060D01*
X275303Y429543D01*
X275648Y429182D01*
X275878Y428665D01*
X275955Y428200D01*
X274345D01*
G01X301917Y184800D02*
Y187900D01*
X300958D01*
X300652Y187745D01*
X300460Y187538D01*
X300383Y187125D01*
X300460Y186712D01*
X300690Y186453D01*
X300958Y186298D01*
X301917D01*
G01X300958D02*
X300383Y184800D01*
G01X298050D02*
Y187900D01*
X298510Y187280D01*
G01Y184800D02*
X297590D01*
G01X295602Y185162D02*
X295333Y184903D01*
X295027Y184800D01*
X294720Y184903D01*
X294452Y185213D01*
X294260Y185678D01*
X294183Y186143D01*
Y186712D01*
X294260Y187177D01*
X294452Y187590D01*
X294682Y187797D01*
X294950Y187900D01*
X295257Y187797D01*
X295487Y187590D01*
X295640Y187280D01*
X295717Y186867D01*
X295640Y186505D01*
X295448Y186143D01*
X295218Y185937D01*
X294950Y185885D01*
X294643Y185988D01*
X294413Y186247D01*
X294183Y186712D01*
G01X292693Y185265D02*
X292463Y185007D01*
X292195Y184852D01*
X291850Y184800D01*
X291505Y184903D01*
X291237Y185110D01*
X291045Y185472D01*
X291007Y185885D01*
X291083Y186298D01*
X291275Y186557D01*
X291543Y186763D01*
X291812Y186815D01*
X292080Y186763D01*
X292425Y186557D01*
X292310Y187900D01*
X291275D01*
G01X294407Y194342D02*
X294637Y194497D01*
X294905Y194600D01*
X295212D01*
X295557Y194445D01*
X295825Y194187D01*
X296017Y193877D01*
X296170Y193360D01*
X296208Y192895D01*
X296132Y192430D01*
X296017Y192120D01*
X295787Y191810D01*
X295518Y191603D01*
X295250Y191500D01*
X294982D01*
X294713Y191603D01*
X294483Y191758D01*
X294292Y191965D01*
G01X292878Y194083D02*
X292648Y194393D01*
X292380Y194548D01*
X292073Y194600D01*
X291690Y194497D01*
X291422Y194238D01*
X291345Y193928D01*
X291383Y193618D01*
X291537Y193360D01*
X292303Y192843D01*
X292648Y192482D01*
X292878Y191965D01*
X292955Y191500D01*
X291345D01*
G01X288590D02*
Y194600D01*
X290008Y192378D01*
X288092D01*
G01X286027Y191500D02*
X285950Y192172D01*
X285835Y192740D01*
X285682Y193257D01*
X285490Y193825D01*
X285183Y194600D01*
X286717D01*
G01X301817Y214000D02*
Y217100D01*
X300858D01*
X300552Y216945D01*
X300360Y216738D01*
X300283Y216325D01*
X300360Y215912D01*
X300590Y215653D01*
X300858Y215498D01*
X301817D01*
G01X300858D02*
X300283Y214000D01*
G01X297950D02*
Y217100D01*
X298410Y216480D01*
G01Y214000D02*
X297490D01*
G01X295502Y214362D02*
X295233Y214103D01*
X294927Y214000D01*
X294620Y214103D01*
X294352Y214413D01*
X294160Y214878D01*
X294083Y215343D01*
Y215912D01*
X294160Y216377D01*
X294352Y216790D01*
X294582Y216997D01*
X294850Y217100D01*
X295157Y216997D01*
X295387Y216790D01*
X295540Y216480D01*
X295617Y216067D01*
X295540Y215705D01*
X295348Y215343D01*
X295118Y215137D01*
X294850Y215085D01*
X294543Y215188D01*
X294313Y215447D01*
X294083Y215912D01*
G01X292478Y215292D02*
X292210Y215653D01*
X291980Y215860D01*
X291673Y215963D01*
X291405Y215860D01*
X291213Y215653D01*
X291060Y215343D01*
X291022Y214982D01*
X291060Y214672D01*
X291213Y214362D01*
X291443Y214103D01*
X291712Y214000D01*
X292018Y214103D01*
X292287Y214413D01*
X292440Y214878D01*
X292478Y215395D01*
X292402Y216067D01*
X292287Y216428D01*
X292095Y216790D01*
X291827Y217048D01*
X291558Y217100D01*
X291290Y216997D01*
X291098Y216738D01*
G01X293707Y223042D02*
X293937Y223197D01*
X294205Y223300D01*
X294512D01*
X294857Y223145D01*
X295125Y222887D01*
X295317Y222577D01*
X295470Y222060D01*
X295508Y221595D01*
X295432Y221130D01*
X295317Y220820D01*
X295087Y220510D01*
X294818Y220303D01*
X294550Y220200D01*
X294282D01*
X294013Y220303D01*
X293783Y220458D01*
X293592Y220665D01*
G01X292178Y222783D02*
X291948Y223093D01*
X291680Y223248D01*
X291373Y223300D01*
X290990Y223197D01*
X290722Y222938D01*
X290645Y222628D01*
X290683Y222318D01*
X290837Y222060D01*
X291603Y221543D01*
X291948Y221182D01*
X292178Y220665D01*
X292255Y220200D01*
X290645D01*
G01X287890D02*
Y223300D01*
X289308Y221078D01*
X287392D01*
G01X285250Y220200D02*
X284982Y220252D01*
X284675Y220407D01*
X284483Y220665D01*
X284407Y221027D01*
X284483Y221388D01*
X284713Y221698D01*
X285058Y221853D01*
X285442D01*
X285672Y221957D01*
X285863Y222215D01*
X285940Y222577D01*
X285825Y222938D01*
X285557Y223197D01*
X285250Y223300D01*
X284943Y223197D01*
X284675Y222938D01*
X284560Y222577D01*
X284637Y222215D01*
X284828Y221957D01*
X285058Y221853D01*
X285442D01*
X285787Y221698D01*
X286017Y221388D01*
X286093Y221027D01*
X286017Y220665D01*
X285825Y220407D01*
X285518Y220252D01*
X285250Y220200D01*
G01X323407Y197242D02*
X323637Y197397D01*
X323905Y197500D01*
X324212D01*
X324557Y197345D01*
X324825Y197087D01*
X325017Y196777D01*
X325170Y196260D01*
X325208Y195795D01*
X325132Y195330D01*
X325017Y195020D01*
X324787Y194710D01*
X324518Y194503D01*
X324250Y194400D01*
X323982D01*
X323713Y194503D01*
X323483Y194658D01*
X323292Y194865D01*
G01X321878Y196983D02*
X321648Y197293D01*
X321380Y197448D01*
X321073Y197500D01*
X320690Y197397D01*
X320422Y197138D01*
X320345Y196828D01*
X320383Y196518D01*
X320537Y196260D01*
X321303Y195743D01*
X321648Y195382D01*
X321878Y194865D01*
X321955Y194400D01*
X320345D01*
G01X318893Y194865D02*
X318663Y194607D01*
X318395Y194452D01*
X318050Y194400D01*
X317705Y194503D01*
X317437Y194710D01*
X317245Y195072D01*
X317207Y195485D01*
X317283Y195898D01*
X317475Y196157D01*
X317743Y196363D01*
X318012Y196415D01*
X318280Y196363D01*
X318625Y196157D01*
X318510Y197500D01*
X317475D01*
G01X314950D02*
X315257Y197397D01*
X315487Y197138D01*
X315640Y196828D01*
X315755Y196415D01*
X315793Y195950D01*
X315755Y195485D01*
X315640Y195072D01*
X315487Y194762D01*
X315257Y194503D01*
X314950Y194400D01*
X314643Y194503D01*
X314413Y194762D01*
X314260Y195072D01*
X314145Y195485D01*
X314107Y195950D01*
X314145Y196415D01*
X314260Y196828D01*
X314413Y197138D01*
X314643Y197397D01*
X314950Y197500D01*
G01X321693Y274800D02*
Y277900D01*
X320927D01*
X320620Y277745D01*
X320390Y277538D01*
X320198Y277228D01*
X320045Y276867D01*
X320007Y276350D01*
X320045Y275833D01*
X320198Y275472D01*
X320390Y275162D01*
X320620Y274955D01*
X320927Y274800D01*
X321693D01*
G01X317750D02*
Y277900D01*
X318210Y277280D01*
G01Y274800D02*
X317290D01*
G01X315302Y275162D02*
X315033Y274903D01*
X314727Y274800D01*
X314420Y274903D01*
X314152Y275213D01*
X313960Y275678D01*
X313883Y276143D01*
Y276712D01*
X313960Y277177D01*
X314152Y277590D01*
X314382Y277797D01*
X314650Y277900D01*
X314957Y277797D01*
X315187Y277590D01*
X315340Y277280D01*
X315417Y276867D01*
X315340Y276505D01*
X315148Y276143D01*
X314918Y275937D01*
X314650Y275885D01*
X314343Y275988D01*
X314113Y276247D01*
X313883Y276712D01*
G01X320593Y326700D02*
Y329800D01*
X319827D01*
X319520Y329645D01*
X319290Y329438D01*
X319098Y329128D01*
X318945Y328767D01*
X318907Y328250D01*
X318945Y327733D01*
X319098Y327372D01*
X319290Y327062D01*
X319520Y326855D01*
X319827Y326700D01*
X320593D01*
G01X316650D02*
Y329800D01*
X317110Y329180D01*
G01Y326700D02*
X316190D01*
G01X314393Y327165D02*
X314163Y326907D01*
X313895Y326752D01*
X313550Y326700D01*
X313205Y326803D01*
X312937Y327010D01*
X312745Y327372D01*
X312707Y327785D01*
X312783Y328198D01*
X312975Y328457D01*
X313243Y328663D01*
X313512Y328715D01*
X313780Y328663D01*
X314125Y328457D01*
X314010Y329800D01*
X312975D01*
G01X331117Y188100D02*
Y191200D01*
X330158D01*
X329852Y191045D01*
X329660Y190838D01*
X329583Y190425D01*
X329660Y190012D01*
X329890Y189753D01*
X330158Y189598D01*
X331117D01*
G01X330158D02*
X329583Y188100D01*
G01X327250D02*
Y191200D01*
X327710Y190580D01*
G01Y188100D02*
X326790D01*
G01X324802Y188462D02*
X324533Y188203D01*
X324227Y188100D01*
X323920Y188203D01*
X323652Y188513D01*
X323460Y188978D01*
X323383Y189443D01*
Y190012D01*
X323460Y190477D01*
X323652Y190890D01*
X323882Y191097D01*
X324150Y191200D01*
X324457Y191097D01*
X324687Y190890D01*
X324840Y190580D01*
X324917Y190167D01*
X324840Y189805D01*
X324648Y189443D01*
X324418Y189237D01*
X324150Y189185D01*
X323843Y189288D01*
X323613Y189547D01*
X323383Y190012D01*
G01X321050Y188100D02*
X320782Y188152D01*
X320475Y188307D01*
X320283Y188565D01*
X320207Y188927D01*
X320283Y189288D01*
X320513Y189598D01*
X320858Y189753D01*
X321242D01*
X321472Y189857D01*
X321663Y190115D01*
X321740Y190477D01*
X321625Y190838D01*
X321357Y191097D01*
X321050Y191200D01*
X320743Y191097D01*
X320475Y190838D01*
X320360Y190477D01*
X320437Y190115D01*
X320628Y189857D01*
X320858Y189753D01*
X321242D01*
X321587Y189598D01*
X321817Y189288D01*
X321893Y188927D01*
X321817Y188565D01*
X321625Y188307D01*
X321318Y188152D01*
X321050Y188100D01*
G01X319493Y376600D02*
Y379700D01*
X318727D01*
X318420Y379545D01*
X318190Y379338D01*
X317998Y379028D01*
X317845Y378667D01*
X317807Y378150D01*
X317845Y377633D01*
X317998Y377272D01*
X318190Y376962D01*
X318420Y376755D01*
X318727Y376600D01*
X319493D01*
G01X316202Y376962D02*
X315933Y376703D01*
X315627Y376600D01*
X315320Y376703D01*
X315052Y377013D01*
X314860Y377478D01*
X314783Y377943D01*
Y378512D01*
X314860Y378977D01*
X315052Y379390D01*
X315282Y379597D01*
X315550Y379700D01*
X315857Y379597D01*
X316087Y379390D01*
X316240Y379080D01*
X316317Y378667D01*
X316240Y378305D01*
X316048Y377943D01*
X315818Y377737D01*
X315550Y377685D01*
X315243Y377788D01*
X315013Y378047D01*
X314783Y378512D01*
G01X324193Y427300D02*
Y430400D01*
X323427D01*
X323120Y430245D01*
X322890Y430038D01*
X322698Y429728D01*
X322545Y429367D01*
X322507Y428850D01*
X322545Y428333D01*
X322698Y427972D01*
X322890Y427662D01*
X323120Y427455D01*
X323427Y427300D01*
X324193D01*
G01X321093Y427920D02*
X320863Y427558D01*
X320557Y427352D01*
X320212Y427300D01*
X319905Y427352D01*
X319598Y427610D01*
X319407Y427920D01*
X319368Y428230D01*
X319445Y428592D01*
X319713Y428850D01*
X319982Y428953D01*
X320327D01*
G01X319982D02*
X319752Y429108D01*
X319560Y429367D01*
X319483Y429677D01*
X319560Y429987D01*
X319752Y430245D01*
X320097Y430400D01*
X320442Y430348D01*
X320787Y430142D01*
G01X328993Y577000D02*
Y574778D01*
X328840Y574313D01*
X328533Y574003D01*
X328150Y573900D01*
X327767Y574003D01*
X327460Y574313D01*
X327307Y574778D01*
Y577000D01*
G01X324590Y573900D02*
Y577000D01*
X326008Y574778D01*
X324092D01*
G01X322027Y573900D02*
X321950Y574572D01*
X321835Y575140D01*
X321682Y575657D01*
X321490Y576225D01*
X321183Y577000D01*
X322717D01*
G01X324993Y909200D02*
Y906978D01*
X324840Y906513D01*
X324533Y906203D01*
X324150Y906100D01*
X323767Y906203D01*
X323460Y906513D01*
X323307Y906978D01*
Y909200D01*
G01X321050Y906100D02*
Y909200D01*
X321510Y908580D01*
G01Y906100D02*
X320590D01*
G01X318027D02*
X317950Y906772D01*
X317835Y907340D01*
X317682Y907857D01*
X317490Y908425D01*
X317183Y909200D01*
X318717D01*
G01X353717Y209500D02*
Y212600D01*
X352758D01*
X352452Y212445D01*
X352260Y212238D01*
X352183Y211825D01*
X352260Y211412D01*
X352490Y211153D01*
X352758Y210998D01*
X353717D01*
G01X352758D02*
X352183Y209500D01*
G01X349850D02*
Y212600D01*
X350310Y211980D01*
G01Y209500D02*
X349390D01*
G01X347402Y209862D02*
X347133Y209603D01*
X346827Y209500D01*
X346520Y209603D01*
X346252Y209913D01*
X346060Y210378D01*
X345983Y210843D01*
Y211412D01*
X346060Y211877D01*
X346252Y212290D01*
X346482Y212497D01*
X346750Y212600D01*
X347057Y212497D01*
X347287Y212290D01*
X347440Y211980D01*
X347517Y211567D01*
X347440Y211205D01*
X347248Y210843D01*
X347018Y210637D01*
X346750Y210585D01*
X346443Y210688D01*
X346213Y210947D01*
X345983Y211412D01*
G01X343727Y209500D02*
X343650Y210172D01*
X343535Y210740D01*
X343382Y211257D01*
X343190Y211825D01*
X342883Y212600D01*
X344417D01*
G01X344407Y218342D02*
X344637Y218497D01*
X344905Y218600D01*
X345212D01*
X345557Y218445D01*
X345825Y218187D01*
X346017Y217877D01*
X346170Y217360D01*
X346208Y216895D01*
X346132Y216430D01*
X346017Y216120D01*
X345787Y215810D01*
X345518Y215603D01*
X345250Y215500D01*
X344982D01*
X344713Y215603D01*
X344483Y215758D01*
X344292Y215965D01*
G01X342878Y218083D02*
X342648Y218393D01*
X342380Y218548D01*
X342073Y218600D01*
X341690Y218497D01*
X341422Y218238D01*
X341345Y217928D01*
X341383Y217618D01*
X341537Y217360D01*
X342303Y216843D01*
X342648Y216482D01*
X342878Y215965D01*
X342955Y215500D01*
X341345D01*
G01X338590D02*
Y218600D01*
X340008Y216378D01*
X338092D01*
G01X336602Y215862D02*
X336333Y215603D01*
X336027Y215500D01*
X335720Y215603D01*
X335452Y215913D01*
X335260Y216378D01*
X335183Y216843D01*
Y217412D01*
X335260Y217877D01*
X335452Y218290D01*
X335682Y218497D01*
X335950Y218600D01*
X336257Y218497D01*
X336487Y218290D01*
X336640Y217980D01*
X336717Y217567D01*
X336640Y217205D01*
X336448Y216843D01*
X336218Y216637D01*
X335950Y216585D01*
X335643Y216688D01*
X335413Y216947D01*
X335183Y217412D01*
G01X372217Y198000D02*
Y201100D01*
X371258D01*
X370952Y200945D01*
X370760Y200738D01*
X370683Y200325D01*
X370760Y199912D01*
X370990Y199653D01*
X371258Y199498D01*
X372217D01*
G01X371258D02*
X370683Y198000D01*
G01X369078Y200583D02*
X368848Y200893D01*
X368580Y201048D01*
X368273Y201100D01*
X367890Y200997D01*
X367622Y200738D01*
X367545Y200428D01*
X367583Y200118D01*
X367737Y199860D01*
X368503Y199343D01*
X368848Y198982D01*
X369078Y198465D01*
X369155Y198000D01*
X367545D01*
G01X365250Y201100D02*
X365557Y200997D01*
X365787Y200738D01*
X365940Y200428D01*
X366055Y200015D01*
X366093Y199550D01*
X366055Y199085D01*
X365940Y198672D01*
X365787Y198362D01*
X365557Y198103D01*
X365250Y198000D01*
X364943Y198103D01*
X364713Y198362D01*
X364560Y198672D01*
X364445Y199085D01*
X364407Y199550D01*
X364445Y200015D01*
X364560Y200428D01*
X364713Y200738D01*
X364943Y200997D01*
X365250Y201100D01*
G01X362150D02*
X362457Y200997D01*
X362687Y200738D01*
X362840Y200428D01*
X362955Y200015D01*
X362993Y199550D01*
X362955Y199085D01*
X362840Y198672D01*
X362687Y198362D01*
X362457Y198103D01*
X362150Y198000D01*
X361843Y198103D01*
X361613Y198362D01*
X361460Y198672D01*
X361345Y199085D01*
X361307Y199550D01*
X361345Y200015D01*
X361460Y200428D01*
X361613Y200738D01*
X361843Y200997D01*
X362150Y201100D01*
G01X376507Y185142D02*
X376737Y185297D01*
X377005Y185400D01*
X377312D01*
X377657Y185245D01*
X377925Y184987D01*
X378117Y184677D01*
X378270Y184160D01*
X378308Y183695D01*
X378232Y183230D01*
X378117Y182920D01*
X377887Y182610D01*
X377618Y182403D01*
X377350Y182300D01*
X377082D01*
X376813Y182403D01*
X376583Y182558D01*
X376392Y182765D01*
G01X374978Y184883D02*
X374748Y185193D01*
X374480Y185348D01*
X374173Y185400D01*
X373790Y185297D01*
X373522Y185038D01*
X373445Y184728D01*
X373483Y184418D01*
X373637Y184160D01*
X374403Y183643D01*
X374748Y183282D01*
X374978Y182765D01*
X375055Y182300D01*
X373445D01*
G01X371993Y182765D02*
X371763Y182507D01*
X371495Y182352D01*
X371150Y182300D01*
X370805Y182403D01*
X370537Y182610D01*
X370345Y182972D01*
X370307Y183385D01*
X370383Y183798D01*
X370575Y184057D01*
X370843Y184263D01*
X371112Y184315D01*
X371380Y184263D01*
X371725Y184057D01*
X371610Y185400D01*
X370575D01*
G01X368050Y182300D02*
Y185400D01*
X368510Y184780D01*
G01Y182300D02*
X367590D01*
G01X363907Y206742D02*
X364137Y206897D01*
X364405Y207000D01*
X364712D01*
X365057Y206845D01*
X365325Y206587D01*
X365517Y206277D01*
X365670Y205760D01*
X365708Y205295D01*
X365632Y204830D01*
X365517Y204520D01*
X365287Y204210D01*
X365018Y204003D01*
X364750Y203900D01*
X364482D01*
X364213Y204003D01*
X363983Y204158D01*
X363792Y204365D01*
G01X362378Y206483D02*
X362148Y206793D01*
X361880Y206948D01*
X361573Y207000D01*
X361190Y206897D01*
X360922Y206638D01*
X360845Y206328D01*
X360883Y206018D01*
X361037Y205760D01*
X361803Y205243D01*
X362148Y204882D01*
X362378Y204365D01*
X362455Y203900D01*
X360845D01*
G01X359393Y204365D02*
X359163Y204107D01*
X358895Y203952D01*
X358550Y203900D01*
X358205Y204003D01*
X357937Y204210D01*
X357745Y204572D01*
X357707Y204985D01*
X357783Y205398D01*
X357975Y205657D01*
X358243Y205863D01*
X358512Y205915D01*
X358780Y205863D01*
X359125Y205657D01*
X359010Y207000D01*
X357975D01*
G01X356178Y206483D02*
X355948Y206793D01*
X355680Y206948D01*
X355373Y207000D01*
X354990Y206897D01*
X354722Y206638D01*
X354645Y206328D01*
X354683Y206018D01*
X354837Y205760D01*
X355603Y205243D01*
X355948Y204882D01*
X356178Y204365D01*
X356255Y203900D01*
X354645D01*
G01X360993Y274400D02*
Y277500D01*
X360227D01*
X359920Y277345D01*
X359690Y277138D01*
X359498Y276828D01*
X359345Y276467D01*
X359307Y275950D01*
X359345Y275433D01*
X359498Y275072D01*
X359690Y274762D01*
X359920Y274555D01*
X360227Y274400D01*
X360993D01*
G01X357778Y276983D02*
X357548Y277293D01*
X357280Y277448D01*
X356973Y277500D01*
X356590Y277397D01*
X356322Y277138D01*
X356245Y276828D01*
X356283Y276518D01*
X356437Y276260D01*
X357203Y275743D01*
X357548Y275382D01*
X357778Y274865D01*
X357855Y274400D01*
X356245D01*
G01X353950Y277500D02*
X354257Y277397D01*
X354487Y277138D01*
X354640Y276828D01*
X354755Y276415D01*
X354793Y275950D01*
X354755Y275485D01*
X354640Y275072D01*
X354487Y274762D01*
X354257Y274503D01*
X353950Y274400D01*
X353643Y274503D01*
X353413Y274762D01*
X353260Y275072D01*
X353145Y275485D01*
X353107Y275950D01*
X353145Y276415D01*
X353260Y276828D01*
X353413Y277138D01*
X353643Y277397D01*
X353950Y277500D01*
G01X361193Y327000D02*
Y330100D01*
X360427D01*
X360120Y329945D01*
X359890Y329738D01*
X359698Y329428D01*
X359545Y329067D01*
X359507Y328550D01*
X359545Y328033D01*
X359698Y327672D01*
X359890Y327362D01*
X360120Y327155D01*
X360427Y327000D01*
X361193D01*
G01X357250D02*
Y330100D01*
X357710Y329480D01*
G01Y327000D02*
X356790D01*
G01X354878Y328292D02*
X354610Y328653D01*
X354380Y328860D01*
X354073Y328963D01*
X353805Y328860D01*
X353613Y328653D01*
X353460Y328343D01*
X353422Y327982D01*
X353460Y327672D01*
X353613Y327362D01*
X353843Y327103D01*
X354112Y327000D01*
X354418Y327103D01*
X354687Y327413D01*
X354840Y327878D01*
X354878Y328395D01*
X354802Y329067D01*
X354687Y329428D01*
X354495Y329790D01*
X354227Y330048D01*
X353958Y330100D01*
X353690Y329997D01*
X353498Y329738D01*
G01X363493Y376600D02*
Y379700D01*
X362727D01*
X362420Y379545D01*
X362190Y379338D01*
X361998Y379028D01*
X361845Y378667D01*
X361807Y378150D01*
X361845Y377633D01*
X361998Y377272D01*
X362190Y376962D01*
X362420Y376755D01*
X362727Y376600D01*
X363493D01*
G01X359550D02*
Y379700D01*
X360010Y379080D01*
G01Y376600D02*
X359090D01*
G01X356450Y379700D02*
X356757Y379597D01*
X356987Y379338D01*
X357140Y379028D01*
X357255Y378615D01*
X357293Y378150D01*
X357255Y377685D01*
X357140Y377272D01*
X356987Y376962D01*
X356757Y376703D01*
X356450Y376600D01*
X356143Y376703D01*
X355913Y376962D01*
X355760Y377272D01*
X355645Y377685D01*
X355607Y378150D01*
X355645Y378615D01*
X355760Y379028D01*
X355913Y379338D01*
X356143Y379597D01*
X356450Y379700D01*
G01X366593Y426500D02*
Y429600D01*
X365827D01*
X365520Y429445D01*
X365290Y429238D01*
X365098Y428928D01*
X364945Y428567D01*
X364907Y428050D01*
X364945Y427533D01*
X365098Y427172D01*
X365290Y426862D01*
X365520Y426655D01*
X365827Y426500D01*
X366593D01*
G01X362190D02*
Y429600D01*
X363608Y427378D01*
X361692D01*
G01X384417Y189100D02*
Y192200D01*
X383458D01*
X383152Y192045D01*
X382960Y191838D01*
X382883Y191425D01*
X382960Y191012D01*
X383190Y190753D01*
X383458Y190598D01*
X384417D01*
G01X383458D02*
X382883Y189100D01*
G01X380550D02*
Y192200D01*
X381010Y191580D01*
G01Y189100D02*
X380090D01*
G01X378102Y189462D02*
X377833Y189203D01*
X377527Y189100D01*
X377220Y189203D01*
X376952Y189513D01*
X376760Y189978D01*
X376683Y190443D01*
Y191012D01*
X376760Y191477D01*
X376952Y191890D01*
X377182Y192097D01*
X377450Y192200D01*
X377757Y192097D01*
X377987Y191890D01*
X378140Y191580D01*
X378217Y191167D01*
X378140Y190805D01*
X377948Y190443D01*
X377718Y190237D01*
X377450Y190185D01*
X377143Y190288D01*
X376913Y190547D01*
X376683Y191012D01*
G01X375002Y189462D02*
X374733Y189203D01*
X374427Y189100D01*
X374120Y189203D01*
X373852Y189513D01*
X373660Y189978D01*
X373583Y190443D01*
Y191012D01*
X373660Y191477D01*
X373852Y191890D01*
X374082Y192097D01*
X374350Y192200D01*
X374657Y192097D01*
X374887Y191890D01*
X375040Y191580D01*
X375117Y191167D01*
X375040Y190805D01*
X374848Y190443D01*
X374618Y190237D01*
X374350Y190185D01*
X374043Y190288D01*
X373813Y190547D01*
X373583Y191012D01*
G01X395917Y204200D02*
Y207300D01*
X394958D01*
X394652Y207145D01*
X394460Y206938D01*
X394383Y206525D01*
X394460Y206112D01*
X394690Y205853D01*
X394958Y205698D01*
X395917D01*
G01X394958D02*
X394383Y204200D01*
G01X392778Y206783D02*
X392548Y207093D01*
X392280Y207248D01*
X391973Y207300D01*
X391590Y207197D01*
X391322Y206938D01*
X391245Y206628D01*
X391283Y206318D01*
X391437Y206060D01*
X392203Y205543D01*
X392548Y205182D01*
X392778Y204665D01*
X392855Y204200D01*
X391245D01*
G01X388950Y207300D02*
X389257Y207197D01*
X389487Y206938D01*
X389640Y206628D01*
X389755Y206215D01*
X389793Y205750D01*
X389755Y205285D01*
X389640Y204872D01*
X389487Y204562D01*
X389257Y204303D01*
X388950Y204200D01*
X388643Y204303D01*
X388413Y204562D01*
X388260Y204872D01*
X388145Y205285D01*
X388107Y205750D01*
X388145Y206215D01*
X388260Y206628D01*
X388413Y206938D01*
X388643Y207197D01*
X388950Y207300D01*
G01X386578Y206783D02*
X386348Y207093D01*
X386080Y207248D01*
X385773Y207300D01*
X385390Y207197D01*
X385122Y206938D01*
X385045Y206628D01*
X385083Y206318D01*
X385237Y206060D01*
X386003Y205543D01*
X386348Y205182D01*
X386578Y204665D01*
X386655Y204200D01*
X385045D01*
G01X388707Y213142D02*
X388937Y213297D01*
X389205Y213400D01*
X389512D01*
X389857Y213245D01*
X390125Y212987D01*
X390317Y212677D01*
X390470Y212160D01*
X390508Y211695D01*
X390432Y211230D01*
X390317Y210920D01*
X390087Y210610D01*
X389818Y210403D01*
X389550Y210300D01*
X389282D01*
X389013Y210403D01*
X388783Y210558D01*
X388592Y210765D01*
G01X387178Y212883D02*
X386948Y213193D01*
X386680Y213348D01*
X386373Y213400D01*
X385990Y213297D01*
X385722Y213038D01*
X385645Y212728D01*
X385683Y212418D01*
X385837Y212160D01*
X386603Y211643D01*
X386948Y211282D01*
X387178Y210765D01*
X387255Y210300D01*
X385645D01*
G01X384193Y210765D02*
X383963Y210507D01*
X383695Y210352D01*
X383350Y210300D01*
X383005Y210403D01*
X382737Y210610D01*
X382545Y210972D01*
X382507Y211385D01*
X382583Y211798D01*
X382775Y212057D01*
X383043Y212263D01*
X383312Y212315D01*
X383580Y212263D01*
X383925Y212057D01*
X383810Y213400D01*
X382775D01*
G01X379790Y210300D02*
Y213400D01*
X381208Y211178D01*
X379292D01*
G01X398217Y230500D02*
Y233600D01*
X397258D01*
X396952Y233445D01*
X396760Y233238D01*
X396683Y232825D01*
X396760Y232412D01*
X396990Y232153D01*
X397258Y231998D01*
X398217D01*
G01X397258D02*
X396683Y230500D01*
G01X395078Y233083D02*
X394848Y233393D01*
X394580Y233548D01*
X394273Y233600D01*
X393890Y233497D01*
X393622Y233238D01*
X393545Y232928D01*
X393583Y232618D01*
X393737Y232360D01*
X394503Y231843D01*
X394848Y231482D01*
X395078Y230965D01*
X395155Y230500D01*
X393545D01*
G01X391250Y233600D02*
X391557Y233497D01*
X391787Y233238D01*
X391940Y232928D01*
X392055Y232515D01*
X392093Y232050D01*
X392055Y231585D01*
X391940Y231172D01*
X391787Y230862D01*
X391557Y230603D01*
X391250Y230500D01*
X390943Y230603D01*
X390713Y230862D01*
X390560Y231172D01*
X390445Y231585D01*
X390407Y232050D01*
X390445Y232515D01*
X390560Y232928D01*
X390713Y233238D01*
X390943Y233497D01*
X391250Y233600D01*
G01X388150Y230500D02*
Y233600D01*
X388610Y232980D01*
G01Y230500D02*
X387690D01*
G01X395507Y227942D02*
X395737Y228097D01*
X396005Y228200D01*
X396312D01*
X396657Y228045D01*
X396925Y227787D01*
X397117Y227477D01*
X397270Y226960D01*
X397308Y226495D01*
X397232Y226030D01*
X397117Y225720D01*
X396887Y225410D01*
X396618Y225203D01*
X396350Y225100D01*
X396082D01*
X395813Y225203D01*
X395583Y225358D01*
X395392Y225565D01*
G01X393978Y227683D02*
X393748Y227993D01*
X393480Y228148D01*
X393173Y228200D01*
X392790Y228097D01*
X392522Y227838D01*
X392445Y227528D01*
X392483Y227218D01*
X392637Y226960D01*
X393403Y226443D01*
X393748Y226082D01*
X393978Y225565D01*
X394055Y225100D01*
X392445D01*
G01X390993Y225565D02*
X390763Y225307D01*
X390495Y225152D01*
X390150Y225100D01*
X389805Y225203D01*
X389537Y225410D01*
X389345Y225772D01*
X389307Y226185D01*
X389383Y226598D01*
X389575Y226857D01*
X389843Y227063D01*
X390112Y227115D01*
X390380Y227063D01*
X390725Y226857D01*
X390610Y228200D01*
X389575D01*
G01X387893Y225720D02*
X387663Y225358D01*
X387357Y225152D01*
X387012Y225100D01*
X386705Y225152D01*
X386398Y225410D01*
X386207Y225720D01*
X386168Y226030D01*
X386245Y226392D01*
X386513Y226650D01*
X386782Y226753D01*
X387127D01*
G01X386782D02*
X386552Y226908D01*
X386360Y227167D01*
X386283Y227477D01*
X386360Y227787D01*
X386552Y228045D01*
X386897Y228200D01*
X387242Y228148D01*
X387587Y227942D01*
G01X398817Y265100D02*
Y268200D01*
X397858D01*
X397552Y268045D01*
X397360Y267838D01*
X397283Y267425D01*
X397360Y267012D01*
X397590Y266753D01*
X397858Y266598D01*
X398817D01*
G01X397858D02*
X397283Y265100D01*
G01X394950D02*
Y268200D01*
X395410Y267580D01*
G01Y265100D02*
X394490D01*
G01X391850D02*
X391582Y265152D01*
X391275Y265307D01*
X391083Y265565D01*
X391007Y265927D01*
X391083Y266288D01*
X391313Y266598D01*
X391658Y266753D01*
X392042D01*
X392272Y266857D01*
X392463Y267115D01*
X392540Y267477D01*
X392425Y267838D01*
X392157Y268097D01*
X391850Y268200D01*
X391543Y268097D01*
X391275Y267838D01*
X391160Y267477D01*
X391237Y267115D01*
X391428Y266857D01*
X391658Y266753D01*
X392042D01*
X392387Y266598D01*
X392617Y266288D01*
X392693Y265927D01*
X392617Y265565D01*
X392425Y265307D01*
X392118Y265152D01*
X391850Y265100D01*
G01X385717Y293100D02*
Y296200D01*
X384758D01*
X384452Y296045D01*
X384260Y295838D01*
X384183Y295425D01*
X384260Y295012D01*
X384490Y294753D01*
X384758Y294598D01*
X385717D01*
G01X384758D02*
X384183Y293100D01*
G01X381850D02*
Y296200D01*
X382310Y295580D01*
G01Y293100D02*
X381390D01*
G01X379402Y293462D02*
X379133Y293203D01*
X378827Y293100D01*
X378520Y293203D01*
X378252Y293513D01*
X378060Y293978D01*
X377983Y294443D01*
Y295012D01*
X378060Y295477D01*
X378252Y295890D01*
X378482Y296097D01*
X378750Y296200D01*
X379057Y296097D01*
X379287Y295890D01*
X379440Y295580D01*
X379517Y295167D01*
X379440Y294805D01*
X379248Y294443D01*
X379018Y294237D01*
X378750Y294185D01*
X378443Y294288D01*
X378213Y294547D01*
X377983Y295012D01*
G01X382617Y306500D02*
Y309600D01*
X381658D01*
X381352Y309445D01*
X381160Y309238D01*
X381083Y308825D01*
X381160Y308412D01*
X381390Y308153D01*
X381658Y307998D01*
X382617D01*
G01X381658D02*
X381083Y306500D01*
G01X379478Y309083D02*
X379248Y309393D01*
X378980Y309548D01*
X378673Y309600D01*
X378290Y309497D01*
X378022Y309238D01*
X377945Y308928D01*
X377983Y308618D01*
X378137Y308360D01*
X378903Y307843D01*
X379248Y307482D01*
X379478Y306965D01*
X379555Y306500D01*
X377945D01*
G01X375650D02*
Y309600D01*
X376110Y308980D01*
G01Y306500D02*
X375190D01*
G01X390117Y327500D02*
Y330600D01*
X389158D01*
X388852Y330445D01*
X388660Y330238D01*
X388583Y329825D01*
X388660Y329412D01*
X388890Y329153D01*
X389158Y328998D01*
X390117D01*
G01X389158D02*
X388583Y327500D01*
G01X386978Y330083D02*
X386748Y330393D01*
X386480Y330548D01*
X386173Y330600D01*
X385790Y330497D01*
X385522Y330238D01*
X385445Y329928D01*
X385483Y329618D01*
X385637Y329360D01*
X386403Y328843D01*
X386748Y328482D01*
X386978Y327965D01*
X387055Y327500D01*
X385445D01*
G01X383993Y328120D02*
X383763Y327758D01*
X383457Y327552D01*
X383112Y327500D01*
X382805Y327552D01*
X382498Y327810D01*
X382307Y328120D01*
X382268Y328430D01*
X382345Y328792D01*
X382613Y329050D01*
X382882Y329153D01*
X383227D01*
G01X382882D02*
X382652Y329308D01*
X382460Y329567D01*
X382383Y329877D01*
X382460Y330187D01*
X382652Y330445D01*
X382997Y330600D01*
X383342Y330548D01*
X383687Y330342D01*
G01X384867Y385800D02*
Y388900D01*
X383908D01*
X383602Y388745D01*
X383410Y388538D01*
X383333Y388125D01*
X383410Y387712D01*
X383640Y387453D01*
X383908Y387298D01*
X384867D01*
G01X383908D02*
X383333Y385800D01*
G01X381843Y386265D02*
X381613Y386007D01*
X381345Y385852D01*
X381000Y385800D01*
X380655Y385903D01*
X380387Y386110D01*
X380195Y386472D01*
X380157Y386885D01*
X380233Y387298D01*
X380425Y387557D01*
X380693Y387763D01*
X380962Y387815D01*
X381230Y387763D01*
X381575Y387557D01*
X381460Y388900D01*
X380425D01*
G01X377900Y385800D02*
X377632Y385852D01*
X377325Y386007D01*
X377133Y386265D01*
X377057Y386627D01*
X377133Y386988D01*
X377363Y387298D01*
X377708Y387453D01*
X378092D01*
X378322Y387557D01*
X378513Y387815D01*
X378590Y388177D01*
X378475Y388538D01*
X378207Y388797D01*
X377900Y388900D01*
X377593Y388797D01*
X377325Y388538D01*
X377210Y388177D01*
X377287Y387815D01*
X377478Y387557D01*
X377708Y387453D01*
X378092D01*
X378437Y387298D01*
X378667Y386988D01*
X378743Y386627D01*
X378667Y386265D01*
X378475Y386007D01*
X378168Y385852D01*
X377900Y385800D01*
G01X385507Y409942D02*
X385737Y410097D01*
X386005Y410200D01*
X386312D01*
X386657Y410045D01*
X386925Y409787D01*
X387117Y409477D01*
X387270Y408960D01*
X387308Y408495D01*
X387232Y408030D01*
X387117Y407720D01*
X386887Y407410D01*
X386618Y407203D01*
X386350Y407100D01*
X386082D01*
X385813Y407203D01*
X385583Y407358D01*
X385392Y407565D01*
G01X383250Y407100D02*
Y410200D01*
X383710Y409580D01*
G01Y407100D02*
X382790D01*
G01X380993Y407720D02*
X380763Y407358D01*
X380457Y407152D01*
X380112Y407100D01*
X379805Y407152D01*
X379498Y407410D01*
X379307Y407720D01*
X379268Y408030D01*
X379345Y408392D01*
X379613Y408650D01*
X379882Y408753D01*
X380227D01*
G01X379882D02*
X379652Y408908D01*
X379460Y409167D01*
X379383Y409477D01*
X379460Y409787D01*
X379652Y410045D01*
X379997Y410200D01*
X380342Y410148D01*
X380687Y409942D01*
G01X377050Y410200D02*
X377357Y410097D01*
X377587Y409838D01*
X377740Y409528D01*
X377855Y409115D01*
X377893Y408650D01*
X377855Y408185D01*
X377740Y407772D01*
X377587Y407462D01*
X377357Y407203D01*
X377050Y407100D01*
X376743Y407203D01*
X376513Y407462D01*
X376360Y407772D01*
X376245Y408185D01*
X376207Y408650D01*
X376245Y409115D01*
X376360Y409528D01*
X376513Y409838D01*
X376743Y410097D01*
X377050Y410200D01*
G01X384693Y577000D02*
Y574778D01*
X384540Y574313D01*
X384233Y574003D01*
X383850Y573900D01*
X383467Y574003D01*
X383160Y574313D01*
X383007Y574778D01*
Y577000D01*
G01X380290Y573900D02*
Y577000D01*
X381708Y574778D01*
X379792D01*
G01X378378Y575192D02*
X378110Y575553D01*
X377880Y575760D01*
X377573Y575863D01*
X377305Y575760D01*
X377113Y575553D01*
X376960Y575243D01*
X376922Y574882D01*
X376960Y574572D01*
X377113Y574262D01*
X377343Y574003D01*
X377612Y573900D01*
X377918Y574003D01*
X378187Y574313D01*
X378340Y574778D01*
X378378Y575295D01*
X378302Y575967D01*
X378187Y576328D01*
X377995Y576690D01*
X377727Y576948D01*
X377458Y577000D01*
X377190Y576897D01*
X376998Y576638D01*
G01X387193Y908400D02*
Y906178D01*
X387040Y905713D01*
X386733Y905403D01*
X386350Y905300D01*
X385967Y905403D01*
X385660Y905713D01*
X385507Y906178D01*
Y908400D01*
G01X383250Y905300D02*
Y908400D01*
X383710Y907780D01*
G01Y905300D02*
X382790D01*
G01X380878Y906592D02*
X380610Y906953D01*
X380380Y907160D01*
X380073Y907263D01*
X379805Y907160D01*
X379613Y906953D01*
X379460Y906643D01*
X379422Y906282D01*
X379460Y905972D01*
X379613Y905662D01*
X379843Y905403D01*
X380112Y905300D01*
X380418Y905403D01*
X380687Y905713D01*
X380840Y906178D01*
X380878Y906695D01*
X380802Y907367D01*
X380687Y907728D01*
X380495Y908090D01*
X380227Y908348D01*
X379958Y908400D01*
X379690Y908297D01*
X379498Y908038D01*
G01X400117Y270500D02*
Y273600D01*
X399158D01*
X398852Y273445D01*
X398660Y273238D01*
X398583Y272825D01*
X398660Y272412D01*
X398890Y272153D01*
X399158Y271998D01*
X400117D01*
G01X399158D02*
X398583Y270500D01*
G01X396250D02*
Y273600D01*
X396710Y272980D01*
G01Y270500D02*
X395790D01*
G01X393993Y271120D02*
X393763Y270758D01*
X393457Y270552D01*
X393112Y270500D01*
X392805Y270552D01*
X392498Y270810D01*
X392307Y271120D01*
X392268Y271430D01*
X392345Y271792D01*
X392613Y272050D01*
X392882Y272153D01*
X393227D01*
G01X392882D02*
X392652Y272308D01*
X392460Y272567D01*
X392383Y272877D01*
X392460Y273187D01*
X392652Y273445D01*
X392997Y273600D01*
X393342Y273548D01*
X393687Y273342D01*
G01X399617Y277000D02*
Y280100D01*
X398658D01*
X398352Y279945D01*
X398160Y279738D01*
X398083Y279325D01*
X398160Y278912D01*
X398390Y278653D01*
X398658Y278498D01*
X399617D01*
G01X398658D02*
X398083Y277000D01*
G01X395750D02*
Y280100D01*
X396210Y279480D01*
G01Y277000D02*
X395290D01*
G01X392190D02*
Y280100D01*
X393608Y277878D01*
X391692D01*
G01X400617Y283200D02*
Y286300D01*
X399658D01*
X399352Y286145D01*
X399160Y285938D01*
X399083Y285525D01*
X399160Y285112D01*
X399390Y284853D01*
X399658Y284698D01*
X400617D01*
G01X399658D02*
X399083Y283200D01*
G01X396750D02*
Y286300D01*
X397210Y285680D01*
G01Y283200D02*
X396290D01*
G01X394378Y284492D02*
X394110Y284853D01*
X393880Y285060D01*
X393573Y285163D01*
X393305Y285060D01*
X393113Y284853D01*
X392960Y284543D01*
X392922Y284182D01*
X392960Y283872D01*
X393113Y283562D01*
X393343Y283303D01*
X393612Y283200D01*
X393918Y283303D01*
X394187Y283613D01*
X394340Y284078D01*
X394378Y284595D01*
X394302Y285267D01*
X394187Y285628D01*
X393995Y285990D01*
X393727Y286248D01*
X393458Y286300D01*
X393190Y286197D01*
X392998Y285938D01*
G01X412417Y292900D02*
Y296000D01*
X411458D01*
X411152Y295845D01*
X410960Y295638D01*
X410883Y295225D01*
X410960Y294812D01*
X411190Y294553D01*
X411458Y294398D01*
X412417D01*
G01X411458D02*
X410883Y292900D01*
G01X409278Y295483D02*
X409048Y295793D01*
X408780Y295948D01*
X408473Y296000D01*
X408090Y295897D01*
X407822Y295638D01*
X407745Y295328D01*
X407783Y295018D01*
X407937Y294760D01*
X408703Y294243D01*
X409048Y293882D01*
X409278Y293365D01*
X409355Y292900D01*
X407745D01*
G01X406178Y295483D02*
X405948Y295793D01*
X405680Y295948D01*
X405373Y296000D01*
X404990Y295897D01*
X404722Y295638D01*
X404645Y295328D01*
X404683Y295018D01*
X404837Y294760D01*
X405603Y294243D01*
X405948Y293882D01*
X406178Y293365D01*
X406255Y292900D01*
X404645D01*
G01X417907Y352742D02*
X418137Y352897D01*
X418405Y353000D01*
X418712D01*
X419057Y352845D01*
X419325Y352587D01*
X419517Y352277D01*
X419670Y351760D01*
X419708Y351295D01*
X419632Y350830D01*
X419517Y350520D01*
X419287Y350210D01*
X419018Y350003D01*
X418750Y349900D01*
X418482D01*
X418213Y350003D01*
X417983Y350158D01*
X417792Y350365D01*
G01X415650Y349900D02*
Y353000D01*
X416110Y352380D01*
G01Y349900D02*
X415190D01*
G01X413278Y352483D02*
X413048Y352793D01*
X412780Y352948D01*
X412473Y353000D01*
X412090Y352897D01*
X411822Y352638D01*
X411745Y352328D01*
X411783Y352018D01*
X411937Y351760D01*
X412703Y351243D01*
X413048Y350882D01*
X413278Y350365D01*
X413355Y349900D01*
X411745D01*
G01X410293Y350365D02*
X410063Y350107D01*
X409795Y349952D01*
X409450Y349900D01*
X409105Y350003D01*
X408837Y350210D01*
X408645Y350572D01*
X408607Y350985D01*
X408683Y351398D01*
X408875Y351657D01*
X409143Y351863D01*
X409412Y351915D01*
X409680Y351863D01*
X410025Y351657D01*
X409910Y353000D01*
X408875D01*
G01X426867Y331400D02*
Y334500D01*
X425908D01*
X425602Y334345D01*
X425410Y334138D01*
X425333Y333725D01*
X425410Y333312D01*
X425640Y333053D01*
X425908Y332898D01*
X426867D01*
G01X425908D02*
X425333Y331400D01*
G01X423843Y331865D02*
X423613Y331607D01*
X423345Y331452D01*
X423000Y331400D01*
X422655Y331503D01*
X422387Y331710D01*
X422195Y332072D01*
X422157Y332485D01*
X422233Y332898D01*
X422425Y333157D01*
X422693Y333363D01*
X422962Y333415D01*
X423230Y333363D01*
X423575Y333157D01*
X423460Y334500D01*
X422425D01*
G01X419900D02*
X420207Y334397D01*
X420437Y334138D01*
X420590Y333828D01*
X420705Y333415D01*
X420743Y332950D01*
X420705Y332485D01*
X420590Y332072D01*
X420437Y331762D01*
X420207Y331503D01*
X419900Y331400D01*
X419593Y331503D01*
X419363Y331762D01*
X419210Y332072D01*
X419095Y332485D01*
X419057Y332950D01*
X419095Y333415D01*
X419210Y333828D01*
X419363Y334138D01*
X419593Y334397D01*
X419900Y334500D01*
G01X420607Y340442D02*
X420837Y340597D01*
X421105Y340700D01*
X421412D01*
X421757Y340545D01*
X422025Y340287D01*
X422217Y339977D01*
X422370Y339460D01*
X422408Y338995D01*
X422332Y338530D01*
X422217Y338220D01*
X421987Y337910D01*
X421718Y337703D01*
X421450Y337600D01*
X421182D01*
X420913Y337703D01*
X420683Y337858D01*
X420492Y338065D01*
G01X418350Y337600D02*
Y340700D01*
X418810Y340080D01*
G01Y337600D02*
X417890D01*
G01X415978Y340183D02*
X415748Y340493D01*
X415480Y340648D01*
X415173Y340700D01*
X414790Y340597D01*
X414522Y340338D01*
X414445Y340028D01*
X414483Y339718D01*
X414637Y339460D01*
X415403Y338943D01*
X415748Y338582D01*
X415978Y338065D01*
X416055Y337600D01*
X414445D01*
G01X412878Y340183D02*
X412648Y340493D01*
X412380Y340648D01*
X412073Y340700D01*
X411690Y340597D01*
X411422Y340338D01*
X411345Y340028D01*
X411383Y339718D01*
X411537Y339460D01*
X412303Y338943D01*
X412648Y338582D01*
X412878Y338065D01*
X412955Y337600D01*
X411345D01*
G01X435367Y362100D02*
Y365200D01*
X434408D01*
X434102Y365045D01*
X433910Y364838D01*
X433833Y364425D01*
X433910Y364012D01*
X434140Y363753D01*
X434408Y363598D01*
X435367D01*
G01X434408D02*
X433833Y362100D01*
G01X432343Y362565D02*
X432113Y362307D01*
X431845Y362152D01*
X431500Y362100D01*
X431155Y362203D01*
X430887Y362410D01*
X430695Y362772D01*
X430657Y363185D01*
X430733Y363598D01*
X430925Y363857D01*
X431193Y364063D01*
X431462Y364115D01*
X431730Y364063D01*
X432075Y363857D01*
X431960Y365200D01*
X430925D01*
G01X429243Y362720D02*
X429013Y362358D01*
X428707Y362152D01*
X428362Y362100D01*
X428055Y362152D01*
X427748Y362410D01*
X427557Y362720D01*
X427518Y363030D01*
X427595Y363392D01*
X427863Y363650D01*
X428132Y363753D01*
X428477D01*
G01X428132D02*
X427902Y363908D01*
X427710Y364167D01*
X427633Y364477D01*
X427710Y364787D01*
X427902Y365045D01*
X428247Y365200D01*
X428592Y365148D01*
X428937Y364942D01*
G01X451767Y332700D02*
Y335800D01*
X450808D01*
X450502Y335645D01*
X450310Y335438D01*
X450233Y335025D01*
X450310Y334612D01*
X450540Y334353D01*
X450808Y334198D01*
X451767D01*
G01X450808D02*
X450233Y332700D01*
G01X448743Y333165D02*
X448513Y332907D01*
X448245Y332752D01*
X447900Y332700D01*
X447555Y332803D01*
X447287Y333010D01*
X447095Y333372D01*
X447057Y333785D01*
X447133Y334198D01*
X447325Y334457D01*
X447593Y334663D01*
X447862Y334715D01*
X448130Y334663D01*
X448475Y334457D01*
X448360Y335800D01*
X447325D01*
G01X445452Y333062D02*
X445183Y332803D01*
X444877Y332700D01*
X444570Y332803D01*
X444302Y333113D01*
X444110Y333578D01*
X444033Y334043D01*
Y334612D01*
X444110Y335077D01*
X444302Y335490D01*
X444532Y335697D01*
X444800Y335800D01*
X445107Y335697D01*
X445337Y335490D01*
X445490Y335180D01*
X445567Y334767D01*
X445490Y334405D01*
X445298Y334043D01*
X445068Y333837D01*
X444800Y333785D01*
X444493Y333888D01*
X444263Y334147D01*
X444033Y334612D01*
G01X445907Y319842D02*
X446137Y319997D01*
X446405Y320100D01*
X446712D01*
X447057Y319945D01*
X447325Y319687D01*
X447517Y319377D01*
X447670Y318860D01*
X447708Y318395D01*
X447632Y317930D01*
X447517Y317620D01*
X447287Y317310D01*
X447018Y317103D01*
X446750Y317000D01*
X446482D01*
X446213Y317103D01*
X445983Y317258D01*
X445792Y317465D01*
G01X443650Y317000D02*
Y320100D01*
X444110Y319480D01*
G01Y317000D02*
X443190D01*
G01X441393Y317620D02*
X441163Y317258D01*
X440857Y317052D01*
X440512Y317000D01*
X440205Y317052D01*
X439898Y317310D01*
X439707Y317620D01*
X439668Y317930D01*
X439745Y318292D01*
X440013Y318550D01*
X440282Y318653D01*
X440627D01*
G01X440282D02*
X440052Y318808D01*
X439860Y319067D01*
X439783Y319377D01*
X439860Y319687D01*
X440052Y319945D01*
X440397Y320100D01*
X440742Y320048D01*
X441087Y319842D01*
G01X437450Y317000D02*
Y320100D01*
X437910Y319480D01*
G01Y317000D02*
X436990D01*
G01X450707Y347642D02*
X450937Y347797D01*
X451205Y347900D01*
X451512D01*
X451857Y347745D01*
X452125Y347487D01*
X452317Y347177D01*
X452470Y346660D01*
X452508Y346195D01*
X452432Y345730D01*
X452317Y345420D01*
X452087Y345110D01*
X451818Y344903D01*
X451550Y344800D01*
X451282D01*
X451013Y344903D01*
X450783Y345058D01*
X450592Y345265D01*
G01X448450Y344800D02*
Y347900D01*
X448910Y347280D01*
G01Y344800D02*
X447990D01*
G01X446078Y347383D02*
X445848Y347693D01*
X445580Y347848D01*
X445273Y347900D01*
X444890Y347797D01*
X444622Y347538D01*
X444545Y347228D01*
X444583Y346918D01*
X444737Y346660D01*
X445503Y346143D01*
X445848Y345782D01*
X446078Y345265D01*
X446155Y344800D01*
X444545D01*
G01X442250D02*
X441982Y344852D01*
X441675Y345007D01*
X441483Y345265D01*
X441407Y345627D01*
X441483Y345988D01*
X441713Y346298D01*
X442058Y346453D01*
X442442D01*
X442672Y346557D01*
X442863Y346815D01*
X442940Y347177D01*
X442825Y347538D01*
X442557Y347797D01*
X442250Y347900D01*
X441943Y347797D01*
X441675Y347538D01*
X441560Y347177D01*
X441637Y346815D01*
X441828Y346557D01*
X442058Y346453D01*
X442442D01*
X442787Y346298D01*
X443017Y345988D01*
X443093Y345627D01*
X443017Y345265D01*
X442825Y345007D01*
X442518Y344852D01*
X442250Y344800D01*
G01X455467Y361000D02*
Y364100D01*
X454508D01*
X454202Y363945D01*
X454010Y363738D01*
X453933Y363325D01*
X454010Y362912D01*
X454240Y362653D01*
X454508Y362498D01*
X455467D01*
G01X454508D02*
X453933Y361000D01*
G01X452443Y361465D02*
X452213Y361207D01*
X451945Y361052D01*
X451600Y361000D01*
X451255Y361103D01*
X450987Y361310D01*
X450795Y361672D01*
X450757Y362085D01*
X450833Y362498D01*
X451025Y362757D01*
X451293Y362963D01*
X451562Y363015D01*
X451830Y362963D01*
X452175Y362757D01*
X452060Y364100D01*
X451025D01*
G01X449228Y362292D02*
X448960Y362653D01*
X448730Y362860D01*
X448423Y362963D01*
X448155Y362860D01*
X447963Y362653D01*
X447810Y362343D01*
X447772Y361982D01*
X447810Y361672D01*
X447963Y361362D01*
X448193Y361103D01*
X448462Y361000D01*
X448768Y361103D01*
X449037Y361413D01*
X449190Y361878D01*
X449228Y362395D01*
X449152Y363067D01*
X449037Y363428D01*
X448845Y363790D01*
X448577Y364048D01*
X448308Y364100D01*
X448040Y363997D01*
X447848Y363738D01*
G01X450093Y575600D02*
Y573378D01*
X449940Y572913D01*
X449633Y572603D01*
X449250Y572500D01*
X448867Y572603D01*
X448560Y572913D01*
X448407Y573378D01*
Y575600D01*
G01X445690Y572500D02*
Y575600D01*
X447108Y573378D01*
X445192D01*
G01X443893Y572965D02*
X443663Y572707D01*
X443395Y572552D01*
X443050Y572500D01*
X442705Y572603D01*
X442437Y572810D01*
X442245Y573172D01*
X442207Y573585D01*
X442283Y573998D01*
X442475Y574257D01*
X442743Y574463D01*
X443012Y574515D01*
X443280Y574463D01*
X443625Y574257D01*
X443510Y575600D01*
X442475D01*
G01X446893Y908000D02*
Y905778D01*
X446740Y905313D01*
X446433Y905003D01*
X446050Y904900D01*
X445667Y905003D01*
X445360Y905313D01*
X445207Y905778D01*
Y908000D01*
G01X442950Y904900D02*
Y908000D01*
X443410Y907380D01*
G01Y904900D02*
X442490D01*
G01X440693Y905365D02*
X440463Y905107D01*
X440195Y904952D01*
X439850Y904900D01*
X439505Y905003D01*
X439237Y905210D01*
X439045Y905572D01*
X439007Y905985D01*
X439083Y906398D01*
X439275Y906657D01*
X439543Y906863D01*
X439812Y906915D01*
X440080Y906863D01*
X440425Y906657D01*
X440310Y908000D01*
X439275D01*
G01X467007Y323142D02*
X467237Y323297D01*
X467505Y323400D01*
X467812D01*
X468157Y323245D01*
X468425Y322987D01*
X468617Y322677D01*
X468770Y322160D01*
X468808Y321695D01*
X468732Y321230D01*
X468617Y320920D01*
X468387Y320610D01*
X468118Y320403D01*
X467850Y320300D01*
X467582D01*
X467313Y320403D01*
X467083Y320558D01*
X466892Y320765D01*
G01X464750Y320300D02*
Y323400D01*
X465210Y322780D01*
G01Y320300D02*
X464290D01*
G01X462493Y320920D02*
X462263Y320558D01*
X461957Y320352D01*
X461612Y320300D01*
X461305Y320352D01*
X460998Y320610D01*
X460807Y320920D01*
X460768Y321230D01*
X460845Y321592D01*
X461113Y321850D01*
X461382Y321953D01*
X461727D01*
G01X461382D02*
X461152Y322108D01*
X460960Y322367D01*
X460883Y322677D01*
X460960Y322987D01*
X461152Y323245D01*
X461497Y323400D01*
X461842Y323348D01*
X462187Y323142D01*
G01X458090Y320300D02*
Y323400D01*
X459508Y321178D01*
X457592D01*
G01X473867Y335900D02*
Y339000D01*
X472908D01*
X472602Y338845D01*
X472410Y338638D01*
X472333Y338225D01*
X472410Y337812D01*
X472640Y337553D01*
X472908Y337398D01*
X473867D01*
G01X472908D02*
X472333Y335900D01*
G01X470728Y337192D02*
X470460Y337553D01*
X470230Y337760D01*
X469923Y337863D01*
X469655Y337760D01*
X469463Y337553D01*
X469310Y337243D01*
X469272Y336882D01*
X469310Y336572D01*
X469463Y336262D01*
X469693Y336003D01*
X469962Y335900D01*
X470268Y336003D01*
X470537Y336313D01*
X470690Y336778D01*
X470728Y337295D01*
X470652Y337967D01*
X470537Y338328D01*
X470345Y338690D01*
X470077Y338948D01*
X469808Y339000D01*
X469540Y338897D01*
X469348Y338638D01*
G01X467628Y338483D02*
X467398Y338793D01*
X467130Y338948D01*
X466823Y339000D01*
X466440Y338897D01*
X466172Y338638D01*
X466095Y338328D01*
X466133Y338018D01*
X466287Y337760D01*
X467053Y337243D01*
X467398Y336882D01*
X467628Y336365D01*
X467705Y335900D01*
X466095D01*
G01X470507Y355542D02*
X470737Y355697D01*
X471005Y355800D01*
X471312D01*
X471657Y355645D01*
X471925Y355387D01*
X472117Y355077D01*
X472270Y354560D01*
X472308Y354095D01*
X472232Y353630D01*
X472117Y353320D01*
X471887Y353010D01*
X471618Y352803D01*
X471350Y352700D01*
X471082D01*
X470813Y352803D01*
X470583Y352958D01*
X470392Y353165D01*
G01X468250Y352700D02*
Y355800D01*
X468710Y355180D01*
G01Y352700D02*
X467790D01*
G01X465993Y353320D02*
X465763Y352958D01*
X465457Y352752D01*
X465112Y352700D01*
X464805Y352752D01*
X464498Y353010D01*
X464307Y353320D01*
X464268Y353630D01*
X464345Y353992D01*
X464613Y354250D01*
X464882Y354353D01*
X465227D01*
G01X464882D02*
X464652Y354508D01*
X464460Y354767D01*
X464383Y355077D01*
X464460Y355387D01*
X464652Y355645D01*
X464997Y355800D01*
X465342Y355748D01*
X465687Y355542D01*
G01X462127Y352700D02*
X462050Y353372D01*
X461935Y353940D01*
X461782Y354457D01*
X461590Y355025D01*
X461283Y355800D01*
X462817D01*
G01X496817Y280700D02*
Y283800D01*
X495858D01*
X495552Y283645D01*
X495360Y283438D01*
X495283Y283025D01*
X495360Y282612D01*
X495590Y282353D01*
X495858Y282198D01*
X496817D01*
G01X495858D02*
X495283Y280700D01*
G01X492950D02*
Y283800D01*
X493410Y283180D01*
G01Y280700D02*
X492490D01*
G01X489850D02*
X489582Y280752D01*
X489275Y280907D01*
X489083Y281165D01*
X489007Y281527D01*
X489083Y281888D01*
X489313Y282198D01*
X489658Y282353D01*
X490042D01*
X490272Y282457D01*
X490463Y282715D01*
X490540Y283077D01*
X490425Y283438D01*
X490157Y283697D01*
X489850Y283800D01*
X489543Y283697D01*
X489275Y283438D01*
X489160Y283077D01*
X489237Y282715D01*
X489428Y282457D01*
X489658Y282353D01*
X490042D01*
X490387Y282198D01*
X490617Y281888D01*
X490693Y281527D01*
X490617Y281165D01*
X490425Y280907D01*
X490118Y280752D01*
X489850Y280700D01*
G01X487593Y281320D02*
X487363Y280958D01*
X487057Y280752D01*
X486712Y280700D01*
X486405Y280752D01*
X486098Y281010D01*
X485907Y281320D01*
X485868Y281630D01*
X485945Y281992D01*
X486213Y282250D01*
X486482Y282353D01*
X486827D01*
G01X486482D02*
X486252Y282508D01*
X486060Y282767D01*
X485983Y283077D01*
X486060Y283387D01*
X486252Y283645D01*
X486597Y283800D01*
X486942Y283748D01*
X487287Y283542D01*
G01X489207Y289842D02*
X489437Y289997D01*
X489705Y290100D01*
X490012D01*
X490357Y289945D01*
X490625Y289687D01*
X490817Y289377D01*
X490970Y288860D01*
X491008Y288395D01*
X490932Y287930D01*
X490817Y287620D01*
X490587Y287310D01*
X490318Y287103D01*
X490050Y287000D01*
X489782D01*
X489513Y287103D01*
X489283Y287258D01*
X489092Y287465D01*
G01X487678Y289583D02*
X487448Y289893D01*
X487180Y290048D01*
X486873Y290100D01*
X486490Y289997D01*
X486222Y289738D01*
X486145Y289428D01*
X486183Y289118D01*
X486337Y288860D01*
X487103Y288343D01*
X487448Y287982D01*
X487678Y287465D01*
X487755Y287000D01*
X486145D01*
G01X484693Y287620D02*
X484463Y287258D01*
X484157Y287052D01*
X483812Y287000D01*
X483505Y287052D01*
X483198Y287310D01*
X483007Y287620D01*
X482968Y287930D01*
X483045Y288292D01*
X483313Y288550D01*
X483582Y288653D01*
X483927D01*
G01X483582D02*
X483352Y288808D01*
X483160Y289067D01*
X483083Y289377D01*
X483160Y289687D01*
X483352Y289945D01*
X483697Y290100D01*
X484042Y290048D01*
X484387Y289842D01*
G01X481593Y287465D02*
X481363Y287207D01*
X481095Y287052D01*
X480750Y287000D01*
X480405Y287103D01*
X480137Y287310D01*
X479945Y287672D01*
X479907Y288085D01*
X479983Y288498D01*
X480175Y288757D01*
X480443Y288963D01*
X480712Y289015D01*
X480980Y288963D01*
X481325Y288757D01*
X481210Y290100D01*
X480175D01*
G01X494817Y302000D02*
Y305100D01*
X493858D01*
X493552Y304945D01*
X493360Y304738D01*
X493283Y304325D01*
X493360Y303912D01*
X493590Y303653D01*
X493858Y303498D01*
X494817D01*
G01X493858D02*
X493283Y302000D01*
G01X490950D02*
Y305100D01*
X491410Y304480D01*
G01Y302000D02*
X490490D01*
G01X487850D02*
X487582Y302052D01*
X487275Y302207D01*
X487083Y302465D01*
X487007Y302827D01*
X487083Y303188D01*
X487313Y303498D01*
X487658Y303653D01*
X488042D01*
X488272Y303757D01*
X488463Y304015D01*
X488540Y304377D01*
X488425Y304738D01*
X488157Y304997D01*
X487850Y305100D01*
X487543Y304997D01*
X487275Y304738D01*
X487160Y304377D01*
X487237Y304015D01*
X487428Y303757D01*
X487658Y303653D01*
X488042D01*
X488387Y303498D01*
X488617Y303188D01*
X488693Y302827D01*
X488617Y302465D01*
X488425Y302207D01*
X488118Y302052D01*
X487850Y302000D01*
G01X484290D02*
Y305100D01*
X485708Y302878D01*
X483792D01*
G01X494307Y328242D02*
X494537Y328397D01*
X494805Y328500D01*
X495112D01*
X495457Y328345D01*
X495725Y328087D01*
X495917Y327777D01*
X496070Y327260D01*
X496108Y326795D01*
X496032Y326330D01*
X495917Y326020D01*
X495687Y325710D01*
X495418Y325503D01*
X495150Y325400D01*
X494882D01*
X494613Y325503D01*
X494383Y325658D01*
X494192Y325865D01*
G01X492050Y325400D02*
Y328500D01*
X492510Y327880D01*
G01Y325400D02*
X491590D01*
G01X488490D02*
Y328500D01*
X489908Y326278D01*
X487992D01*
G01X486693Y326020D02*
X486463Y325658D01*
X486157Y325452D01*
X485812Y325400D01*
X485505Y325452D01*
X485198Y325710D01*
X485007Y326020D01*
X484968Y326330D01*
X485045Y326692D01*
X485313Y326950D01*
X485582Y327053D01*
X485927D01*
G01X485582D02*
X485352Y327208D01*
X485160Y327467D01*
X485083Y327777D01*
X485160Y328087D01*
X485352Y328345D01*
X485697Y328500D01*
X486042Y328448D01*
X486387Y328242D01*
G01X476967Y368800D02*
Y371900D01*
X476008D01*
X475702Y371745D01*
X475510Y371538D01*
X475433Y371125D01*
X475510Y370712D01*
X475740Y370453D01*
X476008Y370298D01*
X476967D01*
G01X476008D02*
X475433Y368800D01*
G01X473828Y370092D02*
X473560Y370453D01*
X473330Y370660D01*
X473023Y370763D01*
X472755Y370660D01*
X472563Y370453D01*
X472410Y370143D01*
X472372Y369782D01*
X472410Y369472D01*
X472563Y369162D01*
X472793Y368903D01*
X473062Y368800D01*
X473368Y368903D01*
X473637Y369213D01*
X473790Y369678D01*
X473828Y370195D01*
X473752Y370867D01*
X473637Y371228D01*
X473445Y371590D01*
X473177Y371848D01*
X472908Y371900D01*
X472640Y371797D01*
X472448Y371538D01*
G01X470843Y369265D02*
X470613Y369007D01*
X470345Y368852D01*
X470000Y368800D01*
X469655Y368903D01*
X469387Y369110D01*
X469195Y369472D01*
X469157Y369885D01*
X469233Y370298D01*
X469425Y370557D01*
X469693Y370763D01*
X469962Y370815D01*
X470230Y370763D01*
X470575Y370557D01*
X470460Y371900D01*
X469425D01*
G01X501907Y316842D02*
X502137Y316997D01*
X502405Y317100D01*
X502712D01*
X503057Y316945D01*
X503325Y316687D01*
X503517Y316377D01*
X503670Y315860D01*
X503708Y315395D01*
X503632Y314930D01*
X503517Y314620D01*
X503287Y314310D01*
X503018Y314103D01*
X502750Y314000D01*
X502482D01*
X502213Y314103D01*
X501983Y314258D01*
X501792Y314465D01*
G01X500378Y316583D02*
X500148Y316893D01*
X499880Y317048D01*
X499573Y317100D01*
X499190Y316997D01*
X498922Y316738D01*
X498845Y316428D01*
X498883Y316118D01*
X499037Y315860D01*
X499803Y315343D01*
X500148Y314982D01*
X500378Y314465D01*
X500455Y314000D01*
X498845D01*
G01X497393Y314620D02*
X497163Y314258D01*
X496857Y314052D01*
X496512Y314000D01*
X496205Y314052D01*
X495898Y314310D01*
X495707Y314620D01*
X495668Y314930D01*
X495745Y315292D01*
X496013Y315550D01*
X496282Y315653D01*
X496627D01*
G01X496282D02*
X496052Y315808D01*
X495860Y316067D01*
X495783Y316377D01*
X495860Y316687D01*
X496052Y316945D01*
X496397Y317100D01*
X496742Y317048D01*
X497087Y316842D01*
G01X494178Y315292D02*
X493910Y315653D01*
X493680Y315860D01*
X493373Y315963D01*
X493105Y315860D01*
X492913Y315653D01*
X492760Y315343D01*
X492722Y314982D01*
X492760Y314672D01*
X492913Y314362D01*
X493143Y314103D01*
X493412Y314000D01*
X493718Y314103D01*
X493987Y314413D01*
X494140Y314878D01*
X494178Y315395D01*
X494102Y316067D01*
X493987Y316428D01*
X493795Y316790D01*
X493527Y317048D01*
X493258Y317100D01*
X492990Y316997D01*
X492798Y316738D01*
G01X512367Y336600D02*
Y339700D01*
X511408D01*
X511102Y339545D01*
X510910Y339338D01*
X510833Y338925D01*
X510910Y338512D01*
X511140Y338253D01*
X511408Y338098D01*
X512367D01*
G01X511408D02*
X510833Y336600D01*
G01X508577D02*
X508500Y337272D01*
X508385Y337840D01*
X508232Y338357D01*
X508040Y338925D01*
X507733Y339700D01*
X509267D01*
G01X505400Y336600D02*
Y339700D01*
X505860Y339080D01*
G01Y336600D02*
X504940D01*
G01X502467Y365300D02*
Y368400D01*
X501508D01*
X501202Y368245D01*
X501010Y368038D01*
X500933Y367625D01*
X501010Y367212D01*
X501240Y366953D01*
X501508Y366798D01*
X502467D01*
G01X501508D02*
X500933Y365300D01*
G01X499328Y366592D02*
X499060Y366953D01*
X498830Y367160D01*
X498523Y367263D01*
X498255Y367160D01*
X498063Y366953D01*
X497910Y366643D01*
X497872Y366282D01*
X497910Y365972D01*
X498063Y365662D01*
X498293Y365403D01*
X498562Y365300D01*
X498868Y365403D01*
X499137Y365713D01*
X499290Y366178D01*
X499328Y366695D01*
X499252Y367367D01*
X499137Y367728D01*
X498945Y368090D01*
X498677Y368348D01*
X498408Y368400D01*
X498140Y368297D01*
X497948Y368038D01*
G01X495500Y365300D02*
X495232Y365352D01*
X494925Y365507D01*
X494733Y365765D01*
X494657Y366127D01*
X494733Y366488D01*
X494963Y366798D01*
X495308Y366953D01*
X495692D01*
X495922Y367057D01*
X496113Y367315D01*
X496190Y367677D01*
X496075Y368038D01*
X495807Y368297D01*
X495500Y368400D01*
X495193Y368297D01*
X494925Y368038D01*
X494810Y367677D01*
X494887Y367315D01*
X495078Y367057D01*
X495308Y366953D01*
X495692D01*
X496037Y366798D01*
X496267Y366488D01*
X496343Y366127D01*
X496267Y365765D01*
X496075Y365507D01*
X495768Y365352D01*
X495500Y365300D01*
G01X504607Y360842D02*
X504837Y360997D01*
X505105Y361100D01*
X505412D01*
X505757Y360945D01*
X506025Y360687D01*
X506217Y360377D01*
X506370Y359860D01*
X506408Y359395D01*
X506332Y358930D01*
X506217Y358620D01*
X505987Y358310D01*
X505718Y358103D01*
X505450Y358000D01*
X505182D01*
X504913Y358103D01*
X504683Y358258D01*
X504492Y358465D01*
G01X502350Y358000D02*
Y361100D01*
X502810Y360480D01*
G01Y358000D02*
X501890D01*
G01X498790D02*
Y361100D01*
X500208Y358878D01*
X498292D01*
G01X496150Y361100D02*
X496457Y360997D01*
X496687Y360738D01*
X496840Y360428D01*
X496955Y360015D01*
X496993Y359550D01*
X496955Y359085D01*
X496840Y358672D01*
X496687Y358362D01*
X496457Y358103D01*
X496150Y358000D01*
X495843Y358103D01*
X495613Y358362D01*
X495460Y358672D01*
X495345Y359085D01*
X495307Y359550D01*
X495345Y360015D01*
X495460Y360428D01*
X495613Y360738D01*
X495843Y360997D01*
X496150Y361100D01*
G01X511593Y660200D02*
Y657978D01*
X511440Y657513D01*
X511133Y657203D01*
X510750Y657100D01*
X510367Y657203D01*
X510060Y657513D01*
X509907Y657978D01*
Y660200D01*
G01X507190Y657100D02*
Y660200D01*
X508608Y657978D01*
X506692D01*
G01X504090Y657100D02*
Y660200D01*
X505508Y657978D01*
X503592D01*
G01X511293Y718500D02*
Y716278D01*
X511140Y715813D01*
X510833Y715503D01*
X510450Y715400D01*
X510067Y715503D01*
X509760Y715813D01*
X509607Y716278D01*
Y718500D01*
G01X508193Y716020D02*
X507963Y715658D01*
X507657Y715452D01*
X507312Y715400D01*
X507005Y715452D01*
X506698Y715710D01*
X506507Y716020D01*
X506468Y716330D01*
X506545Y716692D01*
X506813Y716950D01*
X507082Y717053D01*
X507427D01*
G01X507082D02*
X506852Y717208D01*
X506660Y717467D01*
X506583Y717777D01*
X506660Y718087D01*
X506852Y718345D01*
X507197Y718500D01*
X507542Y718448D01*
X507887Y718242D01*
G01X504250Y715400D02*
X503982Y715452D01*
X503675Y715607D01*
X503483Y715865D01*
X503407Y716227D01*
X503483Y716588D01*
X503713Y716898D01*
X504058Y717053D01*
X504442D01*
X504672Y717157D01*
X504863Y717415D01*
X504940Y717777D01*
X504825Y718138D01*
X504557Y718397D01*
X504250Y718500D01*
X503943Y718397D01*
X503675Y718138D01*
X503560Y717777D01*
X503637Y717415D01*
X503828Y717157D01*
X504058Y717053D01*
X504442D01*
X504787Y716898D01*
X505017Y716588D01*
X505093Y716227D01*
X505017Y715865D01*
X504825Y715607D01*
X504518Y715452D01*
X504250Y715400D01*
G01X508593Y770700D02*
Y768478D01*
X508440Y768013D01*
X508133Y767703D01*
X507750Y767600D01*
X507367Y767703D01*
X507060Y768013D01*
X506907Y768478D01*
Y770700D01*
G01X505493Y768220D02*
X505263Y767858D01*
X504957Y767652D01*
X504612Y767600D01*
X504305Y767652D01*
X503998Y767910D01*
X503807Y768220D01*
X503768Y768530D01*
X503845Y768892D01*
X504113Y769150D01*
X504382Y769253D01*
X504727D01*
G01X504382D02*
X504152Y769408D01*
X503960Y769667D01*
X503883Y769977D01*
X503960Y770287D01*
X504152Y770545D01*
X504497Y770700D01*
X504842Y770648D01*
X505187Y770442D01*
G01X502278Y770183D02*
X502048Y770493D01*
X501780Y770648D01*
X501473Y770700D01*
X501090Y770597D01*
X500822Y770338D01*
X500745Y770028D01*
X500783Y769718D01*
X500937Y769460D01*
X501703Y768943D01*
X502048Y768582D01*
X502278Y768065D01*
X502355Y767600D01*
X500745D01*
G01X505293Y827600D02*
Y825378D01*
X505140Y824913D01*
X504833Y824603D01*
X504450Y824500D01*
X504067Y824603D01*
X503760Y824913D01*
X503607Y825378D01*
Y827600D01*
G01X502078Y827083D02*
X501848Y827393D01*
X501580Y827548D01*
X501273Y827600D01*
X500890Y827497D01*
X500622Y827238D01*
X500545Y826928D01*
X500583Y826618D01*
X500737Y826360D01*
X501503Y825843D01*
X501848Y825482D01*
X502078Y824965D01*
X502155Y824500D01*
X500545D01*
G01X498978Y825792D02*
X498710Y826153D01*
X498480Y826360D01*
X498173Y826463D01*
X497905Y826360D01*
X497713Y826153D01*
X497560Y825843D01*
X497522Y825482D01*
X497560Y825172D01*
X497713Y824862D01*
X497943Y824603D01*
X498212Y824500D01*
X498518Y824603D01*
X498787Y824913D01*
X498940Y825378D01*
X498978Y825895D01*
X498902Y826567D01*
X498787Y826928D01*
X498595Y827290D01*
X498327Y827548D01*
X498058Y827600D01*
X497790Y827497D01*
X497598Y827238D01*
G01X535607Y291342D02*
X535837Y291497D01*
X536105Y291600D01*
X536412D01*
X536757Y291445D01*
X537025Y291187D01*
X537217Y290877D01*
X537370Y290360D01*
X537408Y289895D01*
X537332Y289430D01*
X537217Y289120D01*
X536987Y288810D01*
X536718Y288603D01*
X536450Y288500D01*
X536182D01*
X535913Y288603D01*
X535683Y288758D01*
X535492Y288965D01*
G01X534078Y291083D02*
X533848Y291393D01*
X533580Y291548D01*
X533273Y291600D01*
X532890Y291497D01*
X532622Y291238D01*
X532545Y290928D01*
X532583Y290618D01*
X532737Y290360D01*
X533503Y289843D01*
X533848Y289482D01*
X534078Y288965D01*
X534155Y288500D01*
X532545D01*
G01X531093Y289120D02*
X530863Y288758D01*
X530557Y288552D01*
X530212Y288500D01*
X529905Y288552D01*
X529598Y288810D01*
X529407Y289120D01*
X529368Y289430D01*
X529445Y289792D01*
X529713Y290050D01*
X529982Y290153D01*
X530327D01*
G01X529982D02*
X529752Y290308D01*
X529560Y290567D01*
X529483Y290877D01*
X529560Y291187D01*
X529752Y291445D01*
X530097Y291600D01*
X530442Y291548D01*
X530787Y291342D01*
G01X527150Y288500D02*
X526882Y288552D01*
X526575Y288707D01*
X526383Y288965D01*
X526307Y289327D01*
X526383Y289688D01*
X526613Y289998D01*
X526958Y290153D01*
X527342D01*
X527572Y290257D01*
X527763Y290515D01*
X527840Y290877D01*
X527725Y291238D01*
X527457Y291497D01*
X527150Y291600D01*
X526843Y291497D01*
X526575Y291238D01*
X526460Y290877D01*
X526537Y290515D01*
X526728Y290257D01*
X526958Y290153D01*
X527342D01*
X527687Y289998D01*
X527917Y289688D01*
X527993Y289327D01*
X527917Y288965D01*
X527725Y288707D01*
X527418Y288552D01*
X527150Y288500D01*
G01X533107Y312642D02*
X533337Y312797D01*
X533605Y312900D01*
X533912D01*
X534257Y312745D01*
X534525Y312487D01*
X534717Y312177D01*
X534870Y311660D01*
X534908Y311195D01*
X534832Y310730D01*
X534717Y310420D01*
X534487Y310110D01*
X534218Y309903D01*
X533950Y309800D01*
X533682D01*
X533413Y309903D01*
X533183Y310058D01*
X532992Y310265D01*
G01X531578Y312383D02*
X531348Y312693D01*
X531080Y312848D01*
X530773Y312900D01*
X530390Y312797D01*
X530122Y312538D01*
X530045Y312228D01*
X530083Y311918D01*
X530237Y311660D01*
X531003Y311143D01*
X531348Y310782D01*
X531578Y310265D01*
X531655Y309800D01*
X530045D01*
G01X528593Y310420D02*
X528363Y310058D01*
X528057Y309852D01*
X527712Y309800D01*
X527405Y309852D01*
X527098Y310110D01*
X526907Y310420D01*
X526868Y310730D01*
X526945Y311092D01*
X527213Y311350D01*
X527482Y311453D01*
X527827D01*
G01X527482D02*
X527252Y311608D01*
X527060Y311867D01*
X526983Y312177D01*
X527060Y312487D01*
X527252Y312745D01*
X527597Y312900D01*
X527942Y312848D01*
X528287Y312642D01*
G01X524727Y309800D02*
X524650Y310472D01*
X524535Y311040D01*
X524382Y311557D01*
X524190Y312125D01*
X523883Y312900D01*
X525417D01*
G01X532093Y660500D02*
Y658278D01*
X531940Y657813D01*
X531633Y657503D01*
X531250Y657400D01*
X530867Y657503D01*
X530560Y657813D01*
X530407Y658278D01*
Y660500D01*
G01X527690Y657400D02*
Y660500D01*
X529108Y658278D01*
X527192D01*
G01X525778Y659983D02*
X525548Y660293D01*
X525280Y660448D01*
X524973Y660500D01*
X524590Y660397D01*
X524322Y660138D01*
X524245Y659828D01*
X524283Y659518D01*
X524437Y659260D01*
X525203Y658743D01*
X525548Y658382D01*
X525778Y657865D01*
X525855Y657400D01*
X524245D01*
G01X521193Y660300D02*
Y658078D01*
X521040Y657613D01*
X520733Y657303D01*
X520350Y657200D01*
X519967Y657303D01*
X519660Y657613D01*
X519507Y658078D01*
Y660300D01*
G01X516790Y657200D02*
Y660300D01*
X518208Y658078D01*
X516292D01*
G01X514993Y657820D02*
X514763Y657458D01*
X514457Y657252D01*
X514112Y657200D01*
X513805Y657252D01*
X513498Y657510D01*
X513307Y657820D01*
X513268Y658130D01*
X513345Y658492D01*
X513613Y658750D01*
X513882Y658853D01*
X514227D01*
G01X513882D02*
X513652Y659008D01*
X513460Y659267D01*
X513383Y659577D01*
X513460Y659887D01*
X513652Y660145D01*
X513997Y660300D01*
X514342Y660248D01*
X514687Y660042D01*
G01X531293Y719100D02*
Y716878D01*
X531140Y716413D01*
X530833Y716103D01*
X530450Y716000D01*
X530067Y716103D01*
X529760Y716413D01*
X529607Y716878D01*
Y719100D01*
G01X528193Y716620D02*
X527963Y716258D01*
X527657Y716052D01*
X527312Y716000D01*
X527005Y716052D01*
X526698Y716310D01*
X526507Y716620D01*
X526468Y716930D01*
X526545Y717292D01*
X526813Y717550D01*
X527082Y717653D01*
X527427D01*
G01X527082D02*
X526852Y717808D01*
X526660Y718067D01*
X526583Y718377D01*
X526660Y718687D01*
X526852Y718945D01*
X527197Y719100D01*
X527542Y719048D01*
X527887Y718842D01*
G01X524978Y717292D02*
X524710Y717653D01*
X524480Y717860D01*
X524173Y717963D01*
X523905Y717860D01*
X523713Y717653D01*
X523560Y717343D01*
X523522Y716982D01*
X523560Y716672D01*
X523713Y716362D01*
X523943Y716103D01*
X524212Y716000D01*
X524518Y716103D01*
X524787Y716413D01*
X524940Y716878D01*
X524978Y717395D01*
X524902Y718067D01*
X524787Y718428D01*
X524595Y718790D01*
X524327Y719048D01*
X524058Y719100D01*
X523790Y718997D01*
X523598Y718738D01*
G01X521393Y718900D02*
Y716678D01*
X521240Y716213D01*
X520933Y715903D01*
X520550Y715800D01*
X520167Y715903D01*
X519860Y716213D01*
X519707Y716678D01*
Y718900D01*
G01X518293Y716420D02*
X518063Y716058D01*
X517757Y715852D01*
X517412Y715800D01*
X517105Y715852D01*
X516798Y716110D01*
X516607Y716420D01*
X516568Y716730D01*
X516645Y717092D01*
X516913Y717350D01*
X517182Y717453D01*
X517527D01*
G01X517182D02*
X516952Y717608D01*
X516760Y717867D01*
X516683Y718177D01*
X516760Y718487D01*
X516952Y718745D01*
X517297Y718900D01*
X517642Y718848D01*
X517987Y718642D01*
G01X514427Y715800D02*
X514350Y716472D01*
X514235Y717040D01*
X514082Y717557D01*
X513890Y718125D01*
X513583Y718900D01*
X515117D01*
G01X531893Y770800D02*
Y768578D01*
X531740Y768113D01*
X531433Y767803D01*
X531050Y767700D01*
X530667Y767803D01*
X530360Y768113D01*
X530207Y768578D01*
Y770800D01*
G01X528793Y768320D02*
X528563Y767958D01*
X528257Y767752D01*
X527912Y767700D01*
X527605Y767752D01*
X527298Y768010D01*
X527107Y768320D01*
X527068Y768630D01*
X527145Y768992D01*
X527413Y769250D01*
X527682Y769353D01*
X528027D01*
G01X527682D02*
X527452Y769508D01*
X527260Y769767D01*
X527183Y770077D01*
X527260Y770387D01*
X527452Y770645D01*
X527797Y770800D01*
X528142Y770748D01*
X528487Y770542D01*
G01X524850Y770800D02*
X525157Y770697D01*
X525387Y770438D01*
X525540Y770128D01*
X525655Y769715D01*
X525693Y769250D01*
X525655Y768785D01*
X525540Y768372D01*
X525387Y768062D01*
X525157Y767803D01*
X524850Y767700D01*
X524543Y767803D01*
X524313Y768062D01*
X524160Y768372D01*
X524045Y768785D01*
X524007Y769250D01*
X524045Y769715D01*
X524160Y770128D01*
X524313Y770438D01*
X524543Y770697D01*
X524850Y770800D01*
G01X520593Y770900D02*
Y768678D01*
X520440Y768213D01*
X520133Y767903D01*
X519750Y767800D01*
X519367Y767903D01*
X519060Y768213D01*
X518907Y768678D01*
Y770900D01*
G01X517493Y768420D02*
X517263Y768058D01*
X516957Y767852D01*
X516612Y767800D01*
X516305Y767852D01*
X515998Y768110D01*
X515807Y768420D01*
X515768Y768730D01*
X515845Y769092D01*
X516113Y769350D01*
X516382Y769453D01*
X516727D01*
G01X516382D02*
X516152Y769608D01*
X515960Y769867D01*
X515883Y770177D01*
X515960Y770487D01*
X516152Y770745D01*
X516497Y770900D01*
X516842Y770848D01*
X517187Y770642D01*
G01X513550Y767800D02*
Y770900D01*
X514010Y770280D01*
G01Y767800D02*
X513090D01*
G01X528293Y827900D02*
Y825678D01*
X528140Y825213D01*
X527833Y824903D01*
X527450Y824800D01*
X527067Y824903D01*
X526760Y825213D01*
X526607Y825678D01*
Y827900D01*
G01X525078Y827383D02*
X524848Y827693D01*
X524580Y827848D01*
X524273Y827900D01*
X523890Y827797D01*
X523622Y827538D01*
X523545Y827228D01*
X523583Y826918D01*
X523737Y826660D01*
X524503Y826143D01*
X524848Y825782D01*
X525078Y825265D01*
X525155Y824800D01*
X523545D01*
G01X520790D02*
Y827900D01*
X522208Y825678D01*
X520292D01*
G01X517093Y827700D02*
Y825478D01*
X516940Y825013D01*
X516633Y824703D01*
X516250Y824600D01*
X515867Y824703D01*
X515560Y825013D01*
X515407Y825478D01*
Y827700D01*
G01X513878Y827183D02*
X513648Y827493D01*
X513380Y827648D01*
X513073Y827700D01*
X512690Y827597D01*
X512422Y827338D01*
X512345Y827028D01*
X512383Y826718D01*
X512537Y826460D01*
X513303Y825943D01*
X513648Y825582D01*
X513878Y825065D01*
X513955Y824600D01*
X512345D01*
G01X510893Y825065D02*
X510663Y824807D01*
X510395Y824652D01*
X510050Y824600D01*
X509705Y824703D01*
X509437Y824910D01*
X509245Y825272D01*
X509207Y825685D01*
X509283Y826098D01*
X509475Y826357D01*
X509743Y826563D01*
X510012Y826615D01*
X510280Y826563D01*
X510625Y826357D01*
X510510Y827700D01*
X509475D01*
G01X542617Y280600D02*
Y283700D01*
X541658D01*
X541352Y283545D01*
X541160Y283338D01*
X541083Y282925D01*
X541160Y282512D01*
X541390Y282253D01*
X541658Y282098D01*
X542617D01*
G01X541658D02*
X541083Y280600D01*
G01X538750D02*
Y283700D01*
X539210Y283080D01*
G01Y280600D02*
X538290D01*
G01X535650D02*
X535382Y280652D01*
X535075Y280807D01*
X534883Y281065D01*
X534807Y281427D01*
X534883Y281788D01*
X535113Y282098D01*
X535458Y282253D01*
X535842D01*
X536072Y282357D01*
X536263Y282615D01*
X536340Y282977D01*
X536225Y283338D01*
X535957Y283597D01*
X535650Y283700D01*
X535343Y283597D01*
X535075Y283338D01*
X534960Y282977D01*
X535037Y282615D01*
X535228Y282357D01*
X535458Y282253D01*
X535842D01*
X536187Y282098D01*
X536417Y281788D01*
X536493Y281427D01*
X536417Y281065D01*
X536225Y280807D01*
X535918Y280652D01*
X535650Y280600D01*
G01X533278Y281892D02*
X533010Y282253D01*
X532780Y282460D01*
X532473Y282563D01*
X532205Y282460D01*
X532013Y282253D01*
X531860Y281943D01*
X531822Y281582D01*
X531860Y281272D01*
X532013Y280962D01*
X532243Y280703D01*
X532512Y280600D01*
X532818Y280703D01*
X533087Y281013D01*
X533240Y281478D01*
X533278Y281995D01*
X533202Y282667D01*
X533087Y283028D01*
X532895Y283390D01*
X532627Y283648D01*
X532358Y283700D01*
X532090Y283597D01*
X531898Y283338D01*
G01X542017Y303500D02*
Y306600D01*
X541058D01*
X540752Y306445D01*
X540560Y306238D01*
X540483Y305825D01*
X540560Y305412D01*
X540790Y305153D01*
X541058Y304998D01*
X542017D01*
G01X541058D02*
X540483Y303500D01*
G01X538150D02*
Y306600D01*
X538610Y305980D01*
G01Y303500D02*
X537690D01*
G01X535050D02*
X534782Y303552D01*
X534475Y303707D01*
X534283Y303965D01*
X534207Y304327D01*
X534283Y304688D01*
X534513Y304998D01*
X534858Y305153D01*
X535242D01*
X535472Y305257D01*
X535663Y305515D01*
X535740Y305877D01*
X535625Y306238D01*
X535357Y306497D01*
X535050Y306600D01*
X534743Y306497D01*
X534475Y306238D01*
X534360Y305877D01*
X534437Y305515D01*
X534628Y305257D01*
X534858Y305153D01*
X535242D01*
X535587Y304998D01*
X535817Y304688D01*
X535893Y304327D01*
X535817Y303965D01*
X535625Y303707D01*
X535318Y303552D01*
X535050Y303500D01*
G01X532793Y303965D02*
X532563Y303707D01*
X532295Y303552D01*
X531950Y303500D01*
X531605Y303603D01*
X531337Y303810D01*
X531145Y304172D01*
X531107Y304585D01*
X531183Y304998D01*
X531375Y305257D01*
X531643Y305463D01*
X531912Y305515D01*
X532180Y305463D01*
X532525Y305257D01*
X532410Y306600D01*
X531375D01*
G01X542893Y660400D02*
Y658178D01*
X542740Y657713D01*
X542433Y657403D01*
X542050Y657300D01*
X541667Y657403D01*
X541360Y657713D01*
X541207Y658178D01*
Y660400D01*
G01X538490Y657300D02*
Y660400D01*
X539908Y658178D01*
X537992D01*
G01X535850Y657300D02*
Y660400D01*
X536310Y659780D01*
G01Y657300D02*
X535390D01*
G01X543393Y718800D02*
Y716578D01*
X543240Y716113D01*
X542933Y715803D01*
X542550Y715700D01*
X542167Y715803D01*
X541860Y716113D01*
X541707Y716578D01*
Y718800D01*
G01X540293Y716320D02*
X540063Y715958D01*
X539757Y715752D01*
X539412Y715700D01*
X539105Y715752D01*
X538798Y716010D01*
X538607Y716320D01*
X538568Y716630D01*
X538645Y716992D01*
X538913Y717250D01*
X539182Y717353D01*
X539527D01*
G01X539182D02*
X538952Y717508D01*
X538760Y717767D01*
X538683Y718077D01*
X538760Y718387D01*
X538952Y718645D01*
X539297Y718800D01*
X539642Y718748D01*
X539987Y718542D01*
G01X537193Y716165D02*
X536963Y715907D01*
X536695Y715752D01*
X536350Y715700D01*
X536005Y715803D01*
X535737Y716010D01*
X535545Y716372D01*
X535507Y716785D01*
X535583Y717198D01*
X535775Y717457D01*
X536043Y717663D01*
X536312Y717715D01*
X536580Y717663D01*
X536925Y717457D01*
X536810Y718800D01*
X535775D01*
G01X552493Y771100D02*
Y768878D01*
X552340Y768413D01*
X552033Y768103D01*
X551650Y768000D01*
X551267Y768103D01*
X550960Y768413D01*
X550807Y768878D01*
Y771100D01*
G01X549278Y770583D02*
X549048Y770893D01*
X548780Y771048D01*
X548473Y771100D01*
X548090Y770997D01*
X547822Y770738D01*
X547745Y770428D01*
X547783Y770118D01*
X547937Y769860D01*
X548703Y769343D01*
X549048Y768982D01*
X549278Y768465D01*
X549355Y768000D01*
X547745D01*
G01X545450D02*
X545182Y768052D01*
X544875Y768207D01*
X544683Y768465D01*
X544607Y768827D01*
X544683Y769188D01*
X544913Y769498D01*
X545258Y769653D01*
X545642D01*
X545872Y769757D01*
X546063Y770015D01*
X546140Y770377D01*
X546025Y770738D01*
X545757Y770997D01*
X545450Y771100D01*
X545143Y770997D01*
X544875Y770738D01*
X544760Y770377D01*
X544837Y770015D01*
X545028Y769757D01*
X545258Y769653D01*
X545642D01*
X545987Y769498D01*
X546217Y769188D01*
X546293Y768827D01*
X546217Y768465D01*
X546025Y768207D01*
X545718Y768052D01*
X545450Y768000D01*
G01X541893Y770900D02*
Y768678D01*
X541740Y768213D01*
X541433Y767903D01*
X541050Y767800D01*
X540667Y767903D01*
X540360Y768213D01*
X540207Y768678D01*
Y770900D01*
G01X538678Y770383D02*
X538448Y770693D01*
X538180Y770848D01*
X537873Y770900D01*
X537490Y770797D01*
X537222Y770538D01*
X537145Y770228D01*
X537183Y769918D01*
X537337Y769660D01*
X538103Y769143D01*
X538448Y768782D01*
X538678Y768265D01*
X538755Y767800D01*
X537145D01*
G01X535502Y768162D02*
X535233Y767903D01*
X534927Y767800D01*
X534620Y767903D01*
X534352Y768213D01*
X534160Y768678D01*
X534083Y769143D01*
Y769712D01*
X534160Y770177D01*
X534352Y770590D01*
X534582Y770797D01*
X534850Y770900D01*
X535157Y770797D01*
X535387Y770590D01*
X535540Y770280D01*
X535617Y769867D01*
X535540Y769505D01*
X535348Y769143D01*
X535118Y768937D01*
X534850Y768885D01*
X534543Y768988D01*
X534313Y769247D01*
X534083Y769712D01*
G01X549793Y827800D02*
Y825578D01*
X549640Y825113D01*
X549333Y824803D01*
X548950Y824700D01*
X548567Y824803D01*
X548260Y825113D01*
X548107Y825578D01*
Y827800D01*
G01X546578Y827283D02*
X546348Y827593D01*
X546080Y827748D01*
X545773Y827800D01*
X545390Y827697D01*
X545122Y827438D01*
X545045Y827128D01*
X545083Y826818D01*
X545237Y826560D01*
X546003Y826043D01*
X546348Y825682D01*
X546578Y825165D01*
X546655Y824700D01*
X545045D01*
G01X543478Y827283D02*
X543248Y827593D01*
X542980Y827748D01*
X542673Y827800D01*
X542290Y827697D01*
X542022Y827438D01*
X541945Y827128D01*
X541983Y826818D01*
X542137Y826560D01*
X542903Y826043D01*
X543248Y825682D01*
X543478Y825165D01*
X543555Y824700D01*
X541945D01*
G01X539193Y827800D02*
Y825578D01*
X539040Y825113D01*
X538733Y824803D01*
X538350Y824700D01*
X537967Y824803D01*
X537660Y825113D01*
X537507Y825578D01*
Y827800D01*
G01X535978Y827283D02*
X535748Y827593D01*
X535480Y827748D01*
X535173Y827800D01*
X534790Y827697D01*
X534522Y827438D01*
X534445Y827128D01*
X534483Y826818D01*
X534637Y826560D01*
X535403Y826043D01*
X535748Y825682D01*
X535978Y825165D01*
X536055Y824700D01*
X534445D01*
G01X532993Y825320D02*
X532763Y824958D01*
X532457Y824752D01*
X532112Y824700D01*
X531805Y824752D01*
X531498Y825010D01*
X531307Y825320D01*
X531268Y825630D01*
X531345Y825992D01*
X531613Y826250D01*
X531882Y826353D01*
X532227D01*
G01X531882D02*
X531652Y826508D01*
X531460Y826767D01*
X531383Y827077D01*
X531460Y827387D01*
X531652Y827645D01*
X531997Y827800D01*
X532342Y827748D01*
X532687Y827542D01*
G01X562007Y424083D02*
X562387Y424333D01*
X562830Y424500D01*
X563337D01*
X563907Y424250D01*
X564350Y423833D01*
X564667Y423333D01*
X564920Y422500D01*
X564983Y421750D01*
X564857Y421000D01*
X564667Y420500D01*
X564287Y420000D01*
X563843Y419667D01*
X563400Y419500D01*
X562957D01*
X562513Y419667D01*
X562133Y419917D01*
X561817Y420250D01*
G01X559693Y420500D02*
X559313Y419917D01*
X558807Y419583D01*
X558237Y419500D01*
X557730Y419583D01*
X557223Y420000D01*
X556907Y420500D01*
X556843Y421000D01*
X556970Y421583D01*
X557413Y422000D01*
X557857Y422167D01*
X558427D01*
G01X557857D02*
X557477Y422417D01*
X557160Y422833D01*
X557033Y423333D01*
X557160Y423833D01*
X557477Y424250D01*
X558047Y424500D01*
X558617Y424417D01*
X559187Y424083D01*
G01X565793Y660500D02*
Y658278D01*
X565640Y657813D01*
X565333Y657503D01*
X564950Y657400D01*
X564567Y657503D01*
X564260Y657813D01*
X564107Y658278D01*
Y660500D01*
G01X562693Y658020D02*
X562463Y657658D01*
X562157Y657452D01*
X561812Y657400D01*
X561505Y657452D01*
X561198Y657710D01*
X561007Y658020D01*
X560968Y658330D01*
X561045Y658692D01*
X561313Y658950D01*
X561582Y659053D01*
X561927D01*
G01X561582D02*
X561352Y659208D01*
X561160Y659467D01*
X561083Y659777D01*
X561160Y660087D01*
X561352Y660345D01*
X561697Y660500D01*
X562042Y660448D01*
X562387Y660242D01*
G01X559402Y657762D02*
X559133Y657503D01*
X558827Y657400D01*
X558520Y657503D01*
X558252Y657813D01*
X558060Y658278D01*
X557983Y658743D01*
Y659312D01*
X558060Y659777D01*
X558252Y660190D01*
X558482Y660397D01*
X558750Y660500D01*
X559057Y660397D01*
X559287Y660190D01*
X559440Y659880D01*
X559517Y659467D01*
X559440Y659105D01*
X559248Y658743D01*
X559018Y658537D01*
X558750Y658485D01*
X558443Y658588D01*
X558213Y658847D01*
X557983Y659312D01*
G01X554093Y660200D02*
Y657978D01*
X553940Y657513D01*
X553633Y657203D01*
X553250Y657100D01*
X552867Y657203D01*
X552560Y657513D01*
X552407Y657978D01*
Y660200D01*
G01X549690Y657100D02*
Y660200D01*
X551108Y657978D01*
X549192D01*
G01X547050Y660200D02*
X547357Y660097D01*
X547587Y659838D01*
X547740Y659528D01*
X547855Y659115D01*
X547893Y658650D01*
X547855Y658185D01*
X547740Y657772D01*
X547587Y657462D01*
X547357Y657203D01*
X547050Y657100D01*
X546743Y657203D01*
X546513Y657462D01*
X546360Y657772D01*
X546245Y658185D01*
X546207Y658650D01*
X546245Y659115D01*
X546360Y659528D01*
X546513Y659838D01*
X546743Y660097D01*
X547050Y660200D01*
G01X565793Y718500D02*
Y716278D01*
X565640Y715813D01*
X565333Y715503D01*
X564950Y715400D01*
X564567Y715503D01*
X564260Y715813D01*
X564107Y716278D01*
Y718500D01*
G01X562693Y716020D02*
X562463Y715658D01*
X562157Y715452D01*
X561812Y715400D01*
X561505Y715452D01*
X561198Y715710D01*
X561007Y716020D01*
X560968Y716330D01*
X561045Y716692D01*
X561313Y716950D01*
X561582Y717053D01*
X561927D01*
G01X561582D02*
X561352Y717208D01*
X561160Y717467D01*
X561083Y717777D01*
X561160Y718087D01*
X561352Y718345D01*
X561697Y718500D01*
X562042Y718448D01*
X562387Y718242D01*
G01X559593Y716020D02*
X559363Y715658D01*
X559057Y715452D01*
X558712Y715400D01*
X558405Y715452D01*
X558098Y715710D01*
X557907Y716020D01*
X557868Y716330D01*
X557945Y716692D01*
X558213Y716950D01*
X558482Y717053D01*
X558827D01*
G01X558482D02*
X558252Y717208D01*
X558060Y717467D01*
X557983Y717777D01*
X558060Y718087D01*
X558252Y718345D01*
X558597Y718500D01*
X558942Y718448D01*
X559287Y718242D01*
G01X554893Y718800D02*
Y716578D01*
X554740Y716113D01*
X554433Y715803D01*
X554050Y715700D01*
X553667Y715803D01*
X553360Y716113D01*
X553207Y716578D01*
Y718800D01*
G01X551793Y716320D02*
X551563Y715958D01*
X551257Y715752D01*
X550912Y715700D01*
X550605Y715752D01*
X550298Y716010D01*
X550107Y716320D01*
X550068Y716630D01*
X550145Y716992D01*
X550413Y717250D01*
X550682Y717353D01*
X551027D01*
G01X550682D02*
X550452Y717508D01*
X550260Y717767D01*
X550183Y718077D01*
X550260Y718387D01*
X550452Y718645D01*
X550797Y718800D01*
X551142Y718748D01*
X551487Y718542D01*
G01X547390Y715700D02*
Y718800D01*
X548808Y716578D01*
X546892D01*
G01X562993Y771000D02*
Y768778D01*
X562840Y768313D01*
X562533Y768003D01*
X562150Y767900D01*
X561767Y768003D01*
X561460Y768313D01*
X561307Y768778D01*
Y771000D01*
G01X559778Y770483D02*
X559548Y770793D01*
X559280Y770948D01*
X558973Y771000D01*
X558590Y770897D01*
X558322Y770638D01*
X558245Y770328D01*
X558283Y770018D01*
X558437Y769760D01*
X559203Y769243D01*
X559548Y768882D01*
X559778Y768365D01*
X559855Y767900D01*
X558245D01*
G01X556027D02*
X555950Y768572D01*
X555835Y769140D01*
X555682Y769657D01*
X555490Y770225D01*
X555183Y771000D01*
X556717D01*
G01X561493Y828200D02*
Y825978D01*
X561340Y825513D01*
X561033Y825203D01*
X560650Y825100D01*
X560267Y825203D01*
X559960Y825513D01*
X559807Y825978D01*
Y828200D01*
G01X558278Y827683D02*
X558048Y827993D01*
X557780Y828148D01*
X557473Y828200D01*
X557090Y828097D01*
X556822Y827838D01*
X556745Y827528D01*
X556783Y827218D01*
X556937Y826960D01*
X557703Y826443D01*
X558048Y826082D01*
X558278Y825565D01*
X558355Y825100D01*
X556745D01*
G01X554450D02*
Y828200D01*
X554910Y827580D01*
G01Y825100D02*
X553990D01*
G54D11*
G01X50100Y122600D02*
X39100D01*
Y117600D01*
X50100D01*
Y122600D01*
G01X60900Y341600D02*
Y330600D01*
X65900D01*
Y341600D01*
X60900D01*
G01X61800Y431300D02*
Y420300D01*
X66800D01*
Y431300D01*
X61800D01*
G01X73700Y117500D02*
X84700D01*
Y122500D01*
X73700D01*
Y117500D01*
G01X65900Y206900D02*
Y195900D01*
X70900D01*
Y206900D01*
X65900D01*
G01X64400Y273200D02*
Y262200D01*
X69400D01*
Y273200D01*
X64400D01*
G01X131700Y498000D02*
Y509000D01*
X126700D01*
Y498000D01*
X131700D01*
G01X142000Y528300D02*
Y539300D01*
X137000D01*
Y528300D01*
X142000D01*
G01X139672Y550291D02*
X136128D01*
G01X139672Y549109D02*
X136128D01*
G01X156000Y358100D02*
X167000D01*
Y363100D01*
X156000D01*
Y358100D01*
G01X162000Y352300D02*
X173000D01*
Y357300D01*
X162000D01*
Y352300D01*
G01X176400Y358700D02*
X187400D01*
Y363700D01*
X176400D01*
Y358700D01*
G01X165072Y550291D02*
X161528D01*
G01X165072Y549109D02*
X161528D01*
G01X184300Y196400D02*
X195300D01*
Y201400D01*
X184300D01*
Y196400D01*
G01X190300Y202300D02*
X201300D01*
Y207300D01*
X190300D01*
Y202300D01*
G01X197000Y358200D02*
X208000D01*
Y363200D01*
X197000D01*
Y358200D01*
G01X181500Y353000D02*
X192500D01*
Y358000D01*
X181500D01*
Y353000D01*
G01X198072Y550391D02*
X194528D01*
G01X198072Y549209D02*
X194528D01*
G01X208700Y202400D02*
X219700D01*
Y207400D01*
X208700D01*
Y202400D01*
G01X214700Y208200D02*
X225700D01*
Y213200D01*
X214700D01*
Y208200D01*
G01X198500Y281700D02*
X209500D01*
Y286700D01*
X198500D01*
Y281700D01*
G01X204800Y287600D02*
X215800D01*
Y292600D01*
X204800D01*
Y287600D01*
G01X215000Y314300D02*
X204000D01*
Y309300D01*
X215000D01*
Y314300D01*
G01X204000Y315200D02*
X215000D01*
Y320200D01*
X204000D01*
Y315200D01*
G01X213200Y348900D02*
X202200D01*
Y343900D01*
X213200D01*
Y348900D01*
G01X205600Y338700D02*
X216600D01*
Y343700D01*
X205600D01*
Y338700D01*
G01X203000Y352300D02*
X214000D01*
Y357300D01*
X203000D01*
Y352300D01*
G01X207500Y365700D02*
X218500D01*
Y370700D01*
X207500D01*
Y365700D01*
G01X314600Y189700D02*
X303600D01*
Y184700D01*
X314600D01*
Y189700D01*
G01X308600Y195400D02*
X297600D01*
Y190400D01*
X308600D01*
Y195400D01*
G01X313400Y218200D02*
X302400D01*
Y213200D01*
X313400D01*
Y218200D01*
G01X307400Y223700D02*
X296400D01*
Y218700D01*
X307400D01*
Y223700D01*
G01X342900Y192200D02*
X331900D01*
Y187200D01*
X342900D01*
Y192200D01*
G01X336000Y197900D02*
X325000D01*
Y192900D01*
X336000D01*
Y197900D01*
G01X342500Y213800D02*
X331500D01*
Y208800D01*
X342500D01*
Y213800D01*
G01X335100Y219500D02*
X324100D01*
Y214500D01*
X335100D01*
Y219500D01*
G01X360400Y202200D02*
X349400D01*
Y197200D01*
X360400D01*
Y202200D01*
G01X354400Y207700D02*
X343400D01*
Y202700D01*
X354400D01*
Y207700D01*
G01X371800Y192200D02*
X360800D01*
Y187200D01*
X371800D01*
Y192200D01*
G01X365800Y186500D02*
X354800D01*
Y181500D01*
X365800D01*
Y186500D01*
G01X378200Y213300D02*
X367200D01*
Y208300D01*
X378200D01*
Y213300D01*
G01X384100Y207200D02*
X373100D01*
Y202200D01*
X384100D01*
Y207200D01*
G01X386800Y234000D02*
X375800D01*
Y229000D01*
X386800D01*
Y234000D01*
G01X383900Y227800D02*
X372900D01*
Y222800D01*
X383900D01*
Y227800D01*
G01X389400Y274800D02*
X378400D01*
Y269800D01*
X389400D01*
Y274800D01*
G01X386800Y268500D02*
X375800D01*
Y263500D01*
X386800D01*
Y268500D01*
G01X389800Y281000D02*
X378800D01*
Y276000D01*
X389800D01*
Y281000D01*
G01X388700Y287100D02*
X377700D01*
Y282100D01*
X388700D01*
Y287100D01*
G01X388300Y292100D02*
X377300D01*
Y287100D01*
X388300D01*
Y292100D01*
G01X391400Y291400D02*
X402400D01*
Y296400D01*
X391400D01*
Y291400D01*
G01X380500Y310000D02*
Y321000D01*
X375500D01*
Y310000D01*
X380500D01*
G01X381400Y321900D02*
Y332900D01*
X376400D01*
Y321900D01*
X381400D01*
G01X386100Y395200D02*
X375100D01*
Y390200D01*
X386100D01*
Y395200D01*
G01X385500Y405800D02*
X374500D01*
Y400800D01*
X385500D01*
Y405800D01*
G01X440600Y335600D02*
X429600D01*
Y330600D01*
X440600D01*
Y335600D01*
G01X433000Y354700D02*
X422000D01*
Y349700D01*
X433000D01*
Y354700D01*
G01X435000Y341800D02*
X424000D01*
Y336800D01*
X435000D01*
Y341800D01*
G01X437900Y360300D02*
X426900D01*
Y355300D01*
X437900D01*
Y360300D01*
G01X453700Y331900D02*
X442700D01*
Y326900D01*
X453700D01*
Y331900D01*
G01X447700Y326300D02*
X436700D01*
Y321300D01*
X447700D01*
Y326300D01*
G01X452000Y353800D02*
X441000D01*
Y348800D01*
X452000D01*
Y353800D01*
G01X458000Y359500D02*
X447000D01*
Y354500D01*
X458000D01*
Y359500D01*
G01X476300Y335000D02*
X465300D01*
Y330000D01*
X476300D01*
Y335000D01*
G01X470300Y329100D02*
X459300D01*
Y324100D01*
X470300D01*
Y329100D01*
G01X479000Y367700D02*
X468000D01*
Y362700D01*
X479000D01*
Y367700D01*
G01X473000Y361900D02*
X462000D01*
Y356900D01*
X473000D01*
Y361900D01*
G01X497600Y334200D02*
X486600D01*
Y329200D01*
X497600D01*
Y334200D01*
G01X494000Y368000D02*
X483000D01*
Y363000D01*
X494000D01*
Y368000D01*
G01X487100Y361000D02*
X476100D01*
Y356000D01*
X487100D01*
Y361000D01*
G01X508400Y285100D02*
X497400D01*
Y280100D01*
X508400D01*
Y285100D01*
G01X503300Y290800D02*
X492300D01*
Y285800D01*
X503300D01*
Y290800D01*
G01X507500Y306200D02*
X496500D01*
Y301200D01*
X507500D01*
Y306200D01*
G01X502400Y313000D02*
X491400D01*
Y308000D01*
X502400D01*
Y313000D01*
G01X503900Y340000D02*
X492900D01*
Y335000D01*
X503900D01*
Y340000D01*
G01X530900Y284700D02*
X519900D01*
Y279700D01*
X530900D01*
Y284700D01*
G01X524800Y291500D02*
X513800D01*
Y286500D01*
X524800D01*
Y291500D01*
G01X528800Y307100D02*
X517800D01*
Y302100D01*
X528800D01*
Y307100D01*
G01X523100Y313700D02*
X512100D01*
Y308700D01*
X523100D01*
Y313700D01*
G01X555500Y407300D02*
X566500D01*
Y412300D01*
X555500D01*
Y407300D01*
G01X566500Y417700D02*
X555500D01*
Y412700D01*
X566500D01*
Y417700D01*
G01X44800Y484100D02*
Y560478D01*
X111729D01*
Y484100D01*
X44800D01*
G01X109979Y581500D02*
Y631500D01*
X167065D01*
Y581500D01*
X109979D01*
G01Y635500D02*
Y685500D01*
X167065D01*
Y635500D01*
X109979D01*
G01Y689500D02*
Y739500D01*
X167065D01*
Y689500D01*
X109979D01*
G01Y743500D02*
Y793500D01*
X167065D01*
Y743500D01*
X109979D01*
G01Y797500D02*
Y847500D01*
X167065D01*
Y797500D01*
X109979D01*
G01Y851500D02*
Y901500D01*
X167065D01*
Y851500D01*
X109979D01*
G01X170979Y581500D02*
Y631500D01*
X228065D01*
Y581500D01*
X170979D01*
G01Y635500D02*
Y685500D01*
X228065D01*
Y635500D01*
X170979D01*
G01Y689500D02*
Y739500D01*
X228065D01*
Y689500D01*
X170979D01*
G01Y743500D02*
Y793500D01*
X228065D01*
Y743500D01*
X170979D01*
G01Y797500D02*
Y847500D01*
X228065D01*
Y797500D01*
X170979D01*
G01Y851500D02*
Y901500D01*
X228065D01*
Y851500D01*
X170979D01*
G01X231979Y581500D02*
Y631500D01*
X289065D01*
Y581500D01*
X231979D01*
G01Y635500D02*
Y685500D01*
X289065D01*
Y635500D01*
X231979D01*
G01Y689500D02*
Y739500D01*
X289065D01*
Y689500D01*
X231979D01*
G01Y743500D02*
Y793500D01*
X289065D01*
Y743500D01*
X231979D01*
G01Y798500D02*
Y848500D01*
X289065D01*
Y798500D01*
X231979D01*
G01Y851500D02*
Y901500D01*
X289065D01*
Y851500D01*
X231979D01*
G01X292979Y581500D02*
Y631500D01*
X350065D01*
Y581500D01*
X292979D01*
G01Y635500D02*
Y685500D01*
X350065D01*
Y635500D01*
X292979D01*
G01Y689500D02*
Y739500D01*
X350065D01*
Y689500D01*
X292979D01*
G01Y743500D02*
Y793500D01*
X350065D01*
Y743500D01*
X292979D01*
G01Y798500D02*
Y848500D01*
X350065D01*
Y798500D01*
X292979D01*
G01Y851500D02*
Y901500D01*
X350065D01*
Y851500D01*
X292979D01*
G01X353979Y581500D02*
Y631500D01*
X411065D01*
Y581500D01*
X353979D01*
G01Y635500D02*
Y685500D01*
X411065D01*
Y635500D01*
X353979D01*
G01Y689500D02*
Y739500D01*
X411065D01*
Y689500D01*
X353979D01*
G01Y743500D02*
Y793500D01*
X411065D01*
Y743500D01*
X353979D01*
G01Y798500D02*
Y848500D01*
X411065D01*
Y798500D01*
X353979D01*
G01Y851500D02*
Y901500D01*
X411065D01*
Y851500D01*
X353979D01*
G01X414979Y581500D02*
Y631500D01*
X472065D01*
Y581500D01*
X414979D01*
G01Y635500D02*
Y685500D01*
X472065D01*
Y635500D01*
X414979D01*
G01Y689500D02*
Y739500D01*
X472065D01*
Y689500D01*
X414979D01*
G01Y743500D02*
Y793500D01*
X472065D01*
Y743500D01*
X414979D01*
G01Y797500D02*
Y847500D01*
X472065D01*
Y797500D01*
X414979D01*
G01Y851500D02*
Y901500D01*
X472065D01*
Y851500D01*
X414979D01*
G01X562567Y399900D02*
Y404900D01*
X560983D01*
X560477Y404650D01*
X560160Y404317D01*
X560033Y403650D01*
X560160Y402983D01*
X560540Y402567D01*
X560983Y402317D01*
X562567D01*
G01X560983D02*
X560033Y399900D01*
G01X557300D02*
Y404900D01*
X558060Y403900D01*
G01Y399900D02*
X556540D01*
G54D12*
G01X4800Y139800D02*
X46800D01*
X47800D01*
Y158800D01*
X4800D01*
Y139800D01*
G01X6300D02*
Y158800D01*
G54D13*
G01X254100Y228916D02*
X219454D01*
Y272617D01*
X254100D01*
Y228916D01*
G01Y281816D02*
X219454D01*
Y325517D01*
X254100D01*
Y281816D01*
G01Y331816D02*
X219454D01*
Y375517D01*
X254100D01*
Y331816D01*
G01Y381816D02*
X219454D01*
Y425517D01*
X254100D01*
Y381816D01*
G01X294100Y228916D02*
X259454D01*
Y272617D01*
X294100D01*
Y228916D01*
G01Y281816D02*
X259454D01*
Y325517D01*
X294100D01*
Y281816D01*
G01Y331816D02*
X259454D01*
Y375517D01*
X294100D01*
Y331816D01*
G01Y381816D02*
X259454D01*
Y425517D01*
X294100D01*
Y381816D01*
G01X334100Y228916D02*
X299454D01*
Y272617D01*
X334100D01*
Y228916D01*
G01Y281816D02*
X299454D01*
Y325517D01*
X334100D01*
Y281816D01*
G01Y331816D02*
X299454D01*
Y375517D01*
X334100D01*
Y331816D01*
G01Y381816D02*
X299454D01*
Y425517D01*
X334100D01*
Y381816D01*
G01X374100Y228916D02*
X339454D01*
Y272617D01*
X374100D01*
Y228916D01*
G01Y281816D02*
X339454D01*
Y325517D01*
X374100D01*
Y281816D01*
G01Y331816D02*
X339454D01*
Y375517D01*
X374100D01*
Y331816D01*
G01Y381816D02*
X339454D01*
Y425517D01*
X374100D01*
Y381816D01*
G54D14*
G01X134258Y547732D02*
Y542613D01*
X141542D01*
Y543401D01*
G01Y551669D02*
Y556787D01*
X134258D01*
Y551669D01*
G01X159658Y547732D02*
Y542613D01*
X166942D01*
Y543401D01*
G01X141542Y543007D02*
Y547732D01*
G01X166942Y551669D02*
Y556787D01*
X159658D01*
Y551669D01*
G01X166942Y543007D02*
Y547732D01*
G01X192658Y547831D02*
Y542713D01*
X199942D01*
Y543501D01*
G01Y551768D02*
Y556887D01*
X192658D01*
Y551768D01*
G01X199942Y543107D02*
Y547831D01*
M02*
