G04 ================== begin FILE IDENTIFICATION RECORD ==================*
G04 Layout Name:  E:/Work_File/CEPC/Schematic-amd-PCB-of-DET_V1/FEB_DET_1V0.brd*
G04 Film Name:    plane07*
G04 File Format:  Gerber RS274X*
G04 File Origin:  Cadence Allegro 16.6-2015-S066*
G04 Origin Date:  Mon Sep 04 10:49:42 2017*
G04 *
G04 Layer:  VIA CLASS/GND7*
G04 Layer:  PIN/GND7*
G04 Layer:  ETCH/GND7*
G04 Layer:  BOARD GEOMETRY/OUTLINE*
G04 *
G04 Offset:    (0.000 0.000)*
G04 Mirror:    No*
G04 Mode:      Negative*
G04 Rotation:  0*
G04 FullContactRelief:  No*
G04 UndefLineWidth:     5.000*
G04 ================== end FILE IDENTIFICATION RECORD ====================*
%FSLAX25Y25*MOIN*%
%IR0*IPPOS*OFA0.00000B0.00000*MIA0B0*SFA1.00000B1.00000*%
%AMMACRO19*
4,1,15,-.014098,.028201,
-.008987,.030221,
-.003602,.031322,
.001891,.031472,
.007328,.030665,
.012541,.028927,
.014098,.028201,
.020299,.0345,
.014,.037501,
.007275,.039362,
.000329,.040027,
-.006626,.039476,
-.013381,.037726,
-.019728,.034829,
-.020299,.0345,
-.014098,.028201,
270.*
4,1,15,-.028201,-.014098,
-.030221,-.008987,
-.031322,-.003602,
-.031472,.001891,
-.030665,.007328,
-.028927,.012541,
-.028201,.014098,
-.0345,.020299,
-.037501,.014,
-.039362,.007275,
-.040027,.000329,
-.039476,-.006626,
-.037726,-.013381,
-.034829,-.019728,
-.0345,-.020299,
-.028201,-.014098,
270.*
4,1,15,.014098,-.028201,
.008987,-.030221,
.003602,-.031322,
-.001891,-.031472,
-.007328,-.030665,
-.012541,-.028927,
-.014098,-.028201,
-.020299,-.0345,
-.014,-.037501,
-.007275,-.039362,
-.000329,-.040027,
.006626,-.039476,
.013381,-.037726,
.019728,-.034829,
.020299,-.0345,
.014098,-.028201,
270.*
4,1,15,.028201,.014098,
.030221,.008987,
.031322,.003602,
.031472,-.001891,
.030665,-.007328,
.028927,-.012541,
.028201,-.014098,
.0345,-.020299,
.037501,-.014,
.039362,-.007275,
.040027,-.000329,
.039476,.006626,
.037726,.013381,
.034829,.019728,
.0345,.020299,
.028201,.014098,
270.*
%
%ADD19MACRO19*%
%ADD14C,.14*%
%AMMACRO32*
4,1,18,.0077,.0021,
.007809,.001649,
.007892,.001192,
.007948,.000731,
.007977,.000268,
.007979,-.000197,
.007954,-.00066,
.007902,-.001122,
.007823,-.001579,
.007718,-.002031,
.0077,-.0021,
.0108,-.0052,
.011539,-.003246,
.011927,-.001193,
.011953,.000897,
.011616,.002959,
.010926,.004931,
.0108,.0052,
.0077,.0021,
225.*
4,1,18,.0021,-.0077,
.001649,-.007809,
.001192,-.007892,
.000731,-.007948,
.000268,-.007977,
-.000197,-.007979,
-.00066,-.007954,
-.001122,-.007902,
-.001579,-.007823,
-.002031,-.007718,
-.0021,-.0077,
-.0052,-.0108,
-.003246,-.011539,
-.001193,-.011927,
.000897,-.011953,
.002959,-.011616,
.004931,-.010926,
.0052,-.0108,
.0021,-.0077,
225.*
4,1,18,-.0077,-.0021,
-.007809,-.001649,
-.007892,-.001192,
-.007948,-.000731,
-.007977,-.000268,
-.007979,.000197,
-.007954,.00066,
-.007902,.001122,
-.007823,.001579,
-.007718,.002031,
-.0077,.0021,
-.0108,.0052,
-.011539,.003246,
-.011927,.001193,
-.011953,-.000897,
-.011616,-.002959,
-.010926,-.004931,
-.0108,-.0052,
-.0077,-.0021,
225.*
4,1,18,-.0021,.0077,
-.001649,.007809,
-.001192,.007892,
-.000731,.007948,
-.000268,.007977,
.000197,.007979,
.00066,.007954,
.001122,.007902,
.001579,.007823,
.002031,.007718,
.0021,.0077,
.0052,.0108,
.003246,.011539,
.001193,.011927,
-.000897,.011953,
-.002959,.011616,
-.004931,.010926,
-.0052,.0108,
-.0021,.0077,
225.*
%
%ADD32MACRO32*%
%AMMACRO31*
4,1,18,.0077,.0021,
.007809,.001649,
.007892,.001192,
.007948,.000731,
.007977,.000268,
.007979,-.000197,
.007954,-.00066,
.007902,-.001122,
.007823,-.001579,
.007718,-.002031,
.0077,-.0021,
.0108,-.0052,
.011539,-.003246,
.011927,-.001193,
.011953,.000897,
.011616,.002959,
.010926,.004931,
.0108,.0052,
.0077,.0021,
135.*
4,1,18,.0021,-.0077,
.001649,-.007809,
.001192,-.007892,
.000731,-.007948,
.000268,-.007977,
-.000197,-.007979,
-.00066,-.007954,
-.001122,-.007902,
-.001579,-.007823,
-.002031,-.007718,
-.0021,-.0077,
-.0052,-.0108,
-.003246,-.011539,
-.001193,-.011927,
.000897,-.011953,
.002959,-.011616,
.004931,-.010926,
.0052,-.0108,
.0021,-.0077,
135.*
4,1,18,-.0077,-.0021,
-.007809,-.001649,
-.007892,-.001192,
-.007948,-.000731,
-.007977,-.000268,
-.007979,.000197,
-.007954,.00066,
-.007902,.001122,
-.007823,.001579,
-.007718,.002031,
-.0077,.0021,
-.0108,.0052,
-.011539,.003246,
-.011927,.001193,
-.011953,-.000897,
-.011616,-.002959,
-.010926,-.004931,
-.0108,-.0052,
-.0077,-.0021,
135.*
4,1,18,-.0021,.0077,
-.001649,.007809,
-.001192,.007892,
-.000731,.007948,
-.000268,.007977,
.000197,.007979,
.00066,.007954,
.001122,.007902,
.001579,.007823,
.002031,.007718,
.0021,.0077,
.0052,.0108,
.003246,.011539,
.001193,.011927,
-.000897,.011953,
-.002959,.011616,
-.004931,.010926,
-.0052,.0108,
-.0021,.0077,
135.*
%
%ADD31MACRO31*%
%AMMACRO21*
4,1,18,.0077,.0021,
.007809,.001649,
.007892,.001192,
.007948,.000731,
.007977,.000268,
.007979,-.000197,
.007954,-.00066,
.007902,-.001122,
.007823,-.001579,
.007718,-.002031,
.0077,-.0021,
.0108,-.0052,
.011539,-.003246,
.011927,-.001193,
.011953,.000897,
.011616,.002959,
.010926,.004931,
.0108,.0052,
.0077,.0021,
270.*
4,1,18,.0021,-.0077,
.001649,-.007809,
.001192,-.007892,
.000731,-.007948,
.000268,-.007977,
-.000197,-.007979,
-.00066,-.007954,
-.001122,-.007902,
-.001579,-.007823,
-.002031,-.007718,
-.0021,-.0077,
-.0052,-.0108,
-.003246,-.011539,
-.001193,-.011927,
.000897,-.011953,
.002959,-.011616,
.004931,-.010926,
.0052,-.0108,
.0021,-.0077,
270.*
4,1,18,-.0077,-.0021,
-.007809,-.001649,
-.007892,-.001192,
-.007948,-.000731,
-.007977,-.000268,
-.007979,.000197,
-.007954,.00066,
-.007902,.001122,
-.007823,.001579,
-.007718,.002031,
-.0077,.0021,
-.0108,.0052,
-.011539,.003246,
-.011927,.001193,
-.011953,-.000897,
-.011616,-.002959,
-.010926,-.004931,
-.0108,-.0052,
-.0077,-.0021,
270.*
4,1,18,-.0021,.0077,
-.001649,.007809,
-.001192,.007892,
-.000731,.007948,
-.000268,.007977,
.000197,.007979,
.00066,.007954,
.001122,.007902,
.001579,.007823,
.002031,.007718,
.0021,.0077,
.0052,.0108,
.003246,.011539,
.001193,.011927,
-.000897,.011953,
-.002959,.011616,
-.004931,.010926,
-.0052,.0108,
-.0021,.0077,
270.*
%
%ADD21MACRO21*%
%AMMACRO16*
4,1,18,.0077,.0021,
.007809,.001649,
.007892,.001192,
.007948,.000731,
.007977,.000268,
.007979,-.000197,
.007954,-.00066,
.007902,-.001122,
.007823,-.001579,
.007718,-.002031,
.0077,-.0021,
.0108,-.0052,
.011539,-.003246,
.011927,-.001193,
.011953,.000897,
.011616,.002959,
.010926,.004931,
.0108,.0052,
.0077,.0021,
180.*
4,1,18,.0021,-.0077,
.001649,-.007809,
.001192,-.007892,
.000731,-.007948,
.000268,-.007977,
-.000197,-.007979,
-.00066,-.007954,
-.001122,-.007902,
-.001579,-.007823,
-.002031,-.007718,
-.0021,-.0077,
-.0052,-.0108,
-.003246,-.011539,
-.001193,-.011927,
.000897,-.011953,
.002959,-.011616,
.004931,-.010926,
.0052,-.0108,
.0021,-.0077,
180.*
4,1,18,-.0077,-.0021,
-.007809,-.001649,
-.007892,-.001192,
-.007948,-.000731,
-.007977,-.000268,
-.007979,.000197,
-.007954,.00066,
-.007902,.001122,
-.007823,.001579,
-.007718,.002031,
-.0077,.0021,
-.0108,.0052,
-.011539,.003246,
-.011927,.001193,
-.011953,-.000897,
-.011616,-.002959,
-.010926,-.004931,
-.0108,-.0052,
-.0077,-.0021,
180.*
4,1,18,-.0021,.0077,
-.001649,.007809,
-.001192,.007892,
-.000731,.007948,
-.000268,.007977,
.000197,.007979,
.00066,.007954,
.001122,.007902,
.001579,.007823,
.002031,.007718,
.0021,.0077,
.0052,.0108,
.003246,.011539,
.001193,.011927,
-.000897,.011953,
-.002959,.011616,
-.004931,.010926,
-.0052,.0108,
-.0021,.0077,
180.*
%
%ADD16MACRO16*%
%AMMACRO23*
4,1,20,-.01319,.0047,
-.013441,.003925,
-.013646,.003137,
-.013806,.002338,
-.013918,.001531,
-.013984,.00072,
-.014002,-.000095,
-.013973,-.000909,
-.013896,-.00172,
-.013773,-.002525,
-.013603,-.003321,
-.013387,-.004107,
-.01319,-.0047,
-.01773,-.00925,
-.019067,-.006031,
-.019824,-.002628,
-.01998,.000854,
-.019528,.004311,
-.018483,.007636,
-.01773,.00925,
-.01319,.0047,
270.*
4,1,20,-.0047,-.01319,
-.003925,-.013441,
-.003137,-.013646,
-.002338,-.013806,
-.001531,-.013918,
-.00072,-.013984,
.000095,-.014002,
.000909,-.013973,
.00172,-.013896,
.002525,-.013773,
.003321,-.013603,
.004107,-.013387,
.0047,-.01319,
.00925,-.01773,
.006031,-.019067,
.002628,-.019824,
-.000854,-.01998,
-.004311,-.019528,
-.007636,-.018483,
-.00925,-.01773,
-.0047,-.01319,
270.*
4,1,20,.01319,-.0047,
.013441,-.003925,
.013646,-.003137,
.013806,-.002338,
.013918,-.001531,
.013984,-.00072,
.014002,.000095,
.013973,.000909,
.013896,.00172,
.013773,.002525,
.013603,.003321,
.013387,.004107,
.01319,.0047,
.01773,.00925,
.019067,.006031,
.019824,.002628,
.01998,-.000854,
.019528,-.004311,
.018483,-.007636,
.01773,-.00925,
.01319,-.0047,
270.*
4,1,20,.0047,.01319,
.003925,.013441,
.003137,.013646,
.002338,.013806,
.001531,.013918,
.00072,.013984,
-.000095,.014002,
-.000909,.013973,
-.00172,.013896,
-.002525,.013773,
-.003321,.013603,
-.004107,.013387,
-.0047,.01319,
-.00925,.01773,
-.006031,.019067,
-.002628,.019824,
.000854,.01998,
.004311,.019528,
.007636,.018483,
.00925,.01773,
.0047,.01319,
270.*
%
%ADD23MACRO23*%
%AMMACRO29*
4,1,13,.009,.004,
.009558,.002376,
.009825,.000681,
.009794,-.001036,
.009466,-.002721,
.009,-.004,
.012,-.006,
.01286,-.003825,
.013328,-.001534,
.013392,.000804,
.013049,.003117,
.01231,.005336,
.012,.006,
.009,.004,
0.0*
4,1,13,.004,-.009,
.002376,-.009558,
.000681,-.009825,
-.001036,-.009794,
-.002721,-.009466,
-.004,-.009,
-.006,-.012,
-.003825,-.01286,
-.001534,-.013328,
.000804,-.013392,
.003117,-.013049,
.005336,-.01231,
.006,-.012,
.004,-.009,
0.0*
4,1,13,-.009,-.004,
-.009558,-.002376,
-.009825,-.000681,
-.009794,.001036,
-.009466,.002721,
-.009,.004,
-.012,.006,
-.01286,.003825,
-.013328,.001534,
-.013392,-.000804,
-.013049,-.003117,
-.01231,-.005336,
-.012,-.006,
-.009,-.004,
0.0*
4,1,13,-.004,.009,
-.002376,.009558,
-.000681,.009825,
.001036,.009794,
.002721,.009466,
.004,.009,
.006,.012,
.003825,.01286,
.001534,.013328,
-.000804,.013392,
-.003117,.013049,
-.005336,.01231,
-.006,.012,
-.004,.009,
0.0*
%
%ADD29MACRO29*%
%AMMACRO20*
4,1,14,-.006,.014,
-.003478,.014829,
-.00085,.015208,
.001804,.015124,
.004403,.014581,
.006,.014,
.01,.017,
.006896,.018478,
.003583,.019395,
.00016,.019722,
-.003267,.019451,
-.006595,.018588,
-.009722,.01716,
-.01,.017,
-.006,.014,
0.0*
4,1,14,-.014,-.006,
-.014829,-.003478,
-.015208,-.00085,
-.015124,.001804,
-.014581,.004403,
-.014,.006,
-.017,.01,
-.018478,.006896,
-.019395,.003583,
-.019722,.00016,
-.019451,-.003267,
-.018588,-.006595,
-.01716,-.009722,
-.017,-.01,
-.014,-.006,
0.0*
4,1,14,.006,-.014,
.003478,-.014829,
.00085,-.015208,
-.001804,-.015124,
-.004403,-.014581,
-.006,-.014,
-.01,-.017,
-.006896,-.018478,
-.003583,-.019395,
-.00016,-.019722,
.003267,-.019451,
.006595,-.018588,
.009722,-.01716,
.01,-.017,
.006,-.014,
0.0*
4,1,14,.014,.006,
.014829,.003478,
.015208,.00085,
.015124,-.001804,
.014581,-.004403,
.014,-.006,
.017,-.01,
.018478,-.006896,
.019395,-.003583,
.019722,-.00016,
.019451,.003267,
.018588,.006595,
.01716,.009722,
.017,.01,
.014,.006,
0.0*
%
%ADD20MACRO20*%
%AMMACRO17*
4,1,15,.0289,.0148,
.031031,.009555,
.032218,.004019,
.032427,-.001639,
.031649,-.007247,
.02991,-.012635,
.0289,-.0148,
.0345,-.0203,
.037501,-.014003,
.039363,-.00728,
.040029,-.000336,
.03948,.006618,
.037731,.013372,
.034836,.019718,
.0345,.0203,
.0289,.0148,
0.0*
4,1,15,.0148,-.0289,
.009555,-.031031,
.004019,-.032218,
-.001639,-.032427,
-.007247,-.031649,
-.012635,-.02991,
-.0148,-.0289,
-.0203,-.0345,
-.014003,-.037501,
-.00728,-.039363,
-.000336,-.040029,
.006618,-.03948,
.013372,-.037731,
.019718,-.034836,
.0203,-.0345,
.0148,-.0289,
0.0*
4,1,15,-.0289,-.0148,
-.031031,-.009555,
-.032218,-.004019,
-.032427,.001639,
-.031649,.007247,
-.02991,.012635,
-.0289,.0148,
-.0345,.0203,
-.037501,.014003,
-.039363,.00728,
-.040029,.000336,
-.03948,-.006618,
-.037731,-.013372,
-.034836,-.019718,
-.0345,-.0203,
-.0289,-.0148,
0.0*
4,1,15,-.0148,.0289,
-.009555,.031031,
-.004019,.032218,
.001639,.032427,
.007247,.031649,
.012635,.02991,
.0148,.0289,
.0203,.0345,
.014003,.037501,
.00728,.039363,
.000336,.040029,
-.006618,.03948,
-.013372,.037731,
-.019718,.034836,
-.0203,.0345,
-.0148,.0289,
0.0*
%
%ADD17MACRO17*%
%ADD18C,.02*%
%ADD22C,.04*%
%AMMACRO15*
4,1,18,.0077,.0021,
.007809,.001649,
.007892,.001192,
.007948,.000731,
.007977,.000268,
.007979,-.000197,
.007954,-.00066,
.007902,-.001122,
.007823,-.001579,
.007718,-.002031,
.0077,-.0021,
.0108,-.0052,
.011539,-.003246,
.011927,-.001193,
.011953,.000897,
.011616,.002959,
.010926,.004931,
.0108,.0052,
.0077,.0021,
90.*
4,1,18,.0021,-.0077,
.001649,-.007809,
.001192,-.007892,
.000731,-.007948,
.000268,-.007977,
-.000197,-.007979,
-.00066,-.007954,
-.001122,-.007902,
-.001579,-.007823,
-.002031,-.007718,
-.0021,-.0077,
-.0052,-.0108,
-.003246,-.011539,
-.001193,-.011927,
.000897,-.011953,
.002959,-.011616,
.004931,-.010926,
.0052,-.0108,
.0021,-.0077,
90.*
4,1,18,-.0077,-.0021,
-.007809,-.001649,
-.007892,-.001192,
-.007948,-.000731,
-.007977,-.000268,
-.007979,.000197,
-.007954,.00066,
-.007902,.001122,
-.007823,.001579,
-.007718,.002031,
-.0077,.0021,
-.0108,.0052,
-.011539,.003246,
-.011927,.001193,
-.011953,-.000897,
-.011616,-.002959,
-.010926,-.004931,
-.0108,-.0052,
-.0077,-.0021,
90.*
4,1,18,-.0021,.0077,
-.001649,.007809,
-.001192,.007892,
-.000731,.007948,
-.000268,.007977,
.000197,.007979,
.00066,.007954,
.001122,.007902,
.001579,.007823,
.002031,.007718,
.0021,.0077,
.0052,.0108,
.003246,.011539,
.001193,.011927,
-.000897,.011953,
-.002959,.011616,
-.004931,.010926,
-.0052,.0108,
-.0021,.0077,
90.*
%
%ADD15MACRO15*%
%AMMACRO12*
4,1,18,.0077,.0021,
.007809,.001649,
.007892,.001192,
.007948,.000731,
.007977,.000268,
.007979,-.000197,
.007954,-.00066,
.007902,-.001122,
.007823,-.001579,
.007718,-.002031,
.0077,-.0021,
.0108,-.0052,
.011539,-.003246,
.011927,-.001193,
.011953,.000897,
.011616,.002959,
.010926,.004931,
.0108,.0052,
.0077,.0021,
0.0*
4,1,18,.0021,-.0077,
.001649,-.007809,
.001192,-.007892,
.000731,-.007948,
.000268,-.007977,
-.000197,-.007979,
-.00066,-.007954,
-.001122,-.007902,
-.001579,-.007823,
-.002031,-.007718,
-.0021,-.0077,
-.0052,-.0108,
-.003246,-.011539,
-.001193,-.011927,
.000897,-.011953,
.002959,-.011616,
.004931,-.010926,
.0052,-.0108,
.0021,-.0077,
0.0*
4,1,18,-.0077,-.0021,
-.007809,-.001649,
-.007892,-.001192,
-.007948,-.000731,
-.007977,-.000268,
-.007979,.000197,
-.007954,.00066,
-.007902,.001122,
-.007823,.001579,
-.007718,.002031,
-.0077,.0021,
-.0108,.0052,
-.011539,.003246,
-.011927,.001193,
-.011953,-.000897,
-.011616,-.002959,
-.010926,-.004931,
-.0108,-.0052,
-.0077,-.0021,
0.0*
4,1,18,-.0021,.0077,
-.001649,.007809,
-.001192,.007892,
-.000731,.007948,
-.000268,.007977,
.000197,.007979,
.00066,.007954,
.001122,.007902,
.001579,.007823,
.002031,.007718,
.0021,.0077,
.0052,.0108,
.003246,.011539,
.001193,.011927,
-.000897,.011953,
-.002959,.011616,
-.004931,.010926,
-.0052,.0108,
-.0021,.0077,
0.0*
%
%ADD12MACRO12*%
%ADD26C,.026*%
%ADD25C,.035*%
%ADD24C,.08*%
%ADD30C,.036*%
%ADD11C,.028*%
%AMMACRO10*
4,1,16,-.0305,.0517,
-.021059,.056211,
-.010978,.059014,
-.000564,.060024,
.009868,.05921,
.019999,.056596,
.029524,.052264,
.0305,.0517,
.0414,.0626,
.029901,.068838,
.017493,.072984,
.004553,.074913,
-.008524,.074566,
-.021343,.071953,
-.033513,.067153,
-.0414,.0626,
-.0305,.0517,
0.0*
4,1,16,-.0517,-.0305,
-.056211,-.021059,
-.059014,-.010978,
-.060024,-.000564,
-.05921,.009868,
-.056596,.019999,
-.052264,.029524,
-.0517,.0305,
-.0626,.0414,
-.068838,.029901,
-.072984,.017493,
-.074913,.004553,
-.074566,-.008524,
-.071953,-.021343,
-.067153,-.033513,
-.0626,-.0414,
-.0517,-.0305,
0.0*
4,1,16,.0305,-.0517,
.021059,-.056211,
.010978,-.059014,
.000564,-.060024,
-.009868,-.05921,
-.019999,-.056596,
-.029524,-.052264,
-.0305,-.0517,
-.0414,-.0626,
-.029901,-.068838,
-.017493,-.072984,
-.004553,-.074913,
.008524,-.074566,
.021343,-.071953,
.033513,-.067153,
.0414,-.0626,
.0305,-.0517,
0.0*
4,1,16,.0517,.0305,
.056211,.021059,
.059014,.010978,
.060024,.000564,
.05921,-.009868,
.056596,-.019999,
.052264,-.029524,
.0517,-.0305,
.0626,-.0414,
.068838,-.029901,
.072984,-.017493,
.074913,-.004553,
.074566,.008524,
.071953,.021343,
.067153,.033513,
.0626,.0414,
.0517,.0305,
0.0*
%
%ADD10MACRO10*%
%AMMACRO13*
4,1,15,-.026811,.048024,
-.018064,.05195,
-.008769,.054298,
.000793,.054996,
.010331,.054022,
.019555,.051408,
.026811,.048024,
.034114,.055327,
.023988,.06041,
.013134,.063658,
.00188,.064972,
-.009431,.064311,
-.020455,.061696,
-.030858,.057207,
-.034114,.055327,
-.026811,.048024,
90.*
4,1,15,-.048024,-.026811,
-.05195,-.018064,
-.054298,-.008769,
-.054996,.000793,
-.054022,.010331,
-.051408,.019555,
-.048024,.026811,
-.055327,.034114,
-.06041,.023988,
-.063658,.013134,
-.064972,.00188,
-.064311,-.009431,
-.061696,-.020455,
-.057207,-.030858,
-.055327,-.034114,
-.048024,-.026811,
90.*
4,1,15,.026811,-.048024,
.018064,-.05195,
.008769,-.054298,
-.000793,-.054996,
-.010331,-.054022,
-.019555,-.051408,
-.026811,-.048024,
-.034114,-.055327,
-.023988,-.06041,
-.013134,-.063658,
-.00188,-.064972,
.009431,-.064311,
.020455,-.061696,
.030858,-.057207,
.034114,-.055327,
.026811,-.048024,
90.*
4,1,15,.048024,.026811,
.05195,.018064,
.054298,.008769,
.054996,-.000793,
.054022,-.010331,
.051408,-.019555,
.048024,-.026811,
.055327,-.034114,
.06041,-.023988,
.063658,-.013134,
.064972,-.00188,
.064311,.009431,
.061696,.020455,
.057207,.030858,
.055327,.034114,
.048024,.026811,
90.*
%
%ADD13MACRO13*%
%ADD27C,.07874*%
%AMMACRO28*
4,1,18,-.038299,.0525,
-.028601,.058353,
-.018033,.062433,
-.006918,.064616,
.004408,.064835,
.015599,.063085,
.026317,.059418,
.036235,.053945,
.038299,.0525,
.049098,.063201,
.037377,.070767,
.024521,.076182,
.01092,.079283,
-.003014,.079974,
-.016855,.078236,
-.030185,.074121,
-.042597,.067753,
-.049098,.063201,
-.038299,.0525,
0.0*
4,1,18,-.0525,-.038299,
-.058353,-.028601,
-.062433,-.018033,
-.064616,-.006918,
-.064835,.004408,
-.063085,.015599,
-.059418,.026317,
-.053945,.036235,
-.0525,.038299,
-.063201,.049098,
-.070767,.037377,
-.076182,.024521,
-.079283,.01092,
-.079974,-.003014,
-.078236,-.016855,
-.074121,-.030185,
-.067753,-.042597,
-.063201,-.049098,
-.0525,-.038299,
0.0*
4,1,18,.038299,-.0525,
.028601,-.058353,
.018033,-.062433,
.006918,-.064616,
-.004408,-.064835,
-.015599,-.063085,
-.026317,-.059418,
-.036235,-.053945,
-.038299,-.0525,
-.049098,-.063201,
-.037377,-.070767,
-.024521,-.076182,
-.01092,-.079283,
.003014,-.079974,
.016855,-.078236,
.030185,-.074121,
.042597,-.067753,
.049098,-.063201,
.038299,-.0525,
0.0*
4,1,18,.0525,.038299,
.058353,.028601,
.062433,.018033,
.064616,.006918,
.064835,-.004408,
.063085,-.015599,
.059418,-.026317,
.053945,-.036235,
.0525,-.038299,
.063201,-.049098,
.070767,-.037377,
.076182,-.024521,
.079283,-.01092,
.079974,.003014,
.078236,.016855,
.074121,.030185,
.067753,.042597,
.063201,.049098,
.0525,.038299,
0.0*
%
%ADD28MACRO28*%
%ADD33C,.003*%
G75*
%LPD*%
G75*
G36*
G01X-650Y1350D02*
X591250D01*
Y984900D01*
X-650D01*
Y1350D01*
G37*
%LPC*%
G75*
G36*
G01X588550Y982250D02*
Y2000D01*
X2000D01*
Y982250D01*
X588550D01*
G37*
%LPD*%
G75*
G54D19*
X61300Y19126D03*
X273700D03*
X312300D03*
X524700D03*
G54D14*
X21300Y83000D03*
Y98600D03*
G54D16*
X21200Y177800D03*
Y193800D03*
Y185800D03*
X22800Y211400D03*
X14800Y233500D03*
X22800Y227400D03*
Y219400D03*
X22600Y252700D03*
Y244700D03*
X14800Y249500D03*
Y241500D03*
X22600Y260700D03*
X7600Y268600D03*
X24100Y291900D03*
Y283900D03*
X9600Y280600D03*
X23700Y314700D03*
Y306700D03*
X24100Y299900D03*
X11700Y331800D03*
Y323800D03*
Y315800D03*
X23300Y332500D03*
X23700Y322700D03*
X23300Y348500D03*
Y340500D03*
X24500Y392400D03*
Y384400D03*
Y400400D03*
X24400Y410300D03*
Y426300D03*
Y418300D03*
X20600Y469600D03*
Y465600D03*
Y461600D03*
Y457600D03*
Y473600D03*
X31100Y190100D03*
X28500Y180300D03*
X26400Y201000D03*
X27600Y233900D03*
X28500Y224000D03*
X27600Y245900D03*
Y241900D03*
X27200Y253300D03*
Y269300D03*
Y261300D03*
X29900Y349200D03*
Y341200D03*
Y357200D03*
X30700Y390300D03*
Y382300D03*
X29900Y410800D03*
X30700Y398300D03*
X29900Y426800D03*
Y418800D03*
X41200Y457200D03*
Y453200D03*
X40200Y467500D03*
Y463500D03*
Y479500D03*
Y475500D03*
Y471500D03*
X61700Y64200D03*
X58600Y457200D03*
Y453200D03*
X74500Y63900D03*
X68500Y58600D03*
X100100Y83100D03*
Y75700D03*
Y72000D03*
X95000Y70100D03*
X94100Y93800D03*
X100100Y90400D03*
X101300Y181900D03*
Y186900D03*
Y191900D03*
X99000Y189500D03*
Y194500D03*
Y199500D03*
X102200Y219200D03*
Y224200D03*
Y229200D03*
X101900Y347200D03*
Y351700D03*
Y356200D03*
X95400Y358900D03*
Y363400D03*
Y367900D03*
X98700Y393200D03*
X98600Y400900D03*
Y412200D03*
X98200Y420500D03*
X88900Y429100D03*
X88500Y433300D03*
X105300Y370600D03*
Y366100D03*
X113600Y389500D03*
X105300Y375100D03*
X113600Y397000D03*
Y404400D03*
X106100Y408100D03*
Y400700D03*
Y393200D03*
Y415600D03*
X158900Y188500D03*
Y192500D03*
Y196500D03*
X156000Y210900D03*
X160300Y214900D03*
X156000Y218900D03*
X162500Y104500D03*
X162000Y122700D03*
Y130700D03*
X171200Y210600D03*
X188700Y209000D03*
X194200Y215700D03*
X188700Y217000D03*
X183400Y218600D03*
Y226600D03*
X205700Y196300D03*
Y200300D03*
Y204300D03*
X327400Y181600D03*
X334200Y182000D03*
X325700Y200500D03*
X331200Y201900D03*
Y207600D03*
X327900Y200200D03*
X346400Y194500D03*
X345200Y181000D03*
X341900Y200300D03*
X410300Y506200D03*
Y498200D03*
Y514200D03*
X416300Y458800D03*
Y466800D03*
Y450800D03*
X426100Y463000D03*
Y471000D03*
Y479000D03*
Y507800D03*
Y515800D03*
Y523800D03*
X461000Y367900D03*
Y371700D03*
X486300Y346200D03*
X481500Y386500D03*
X480100Y407200D03*
Y423200D03*
Y415200D03*
Y445100D03*
Y437100D03*
X481700Y466200D03*
X480100Y453100D03*
X481700Y482200D03*
Y474200D03*
X486400Y600600D03*
Y592600D03*
Y608600D03*
X487000Y657300D03*
Y673300D03*
Y665300D03*
X497000Y372700D03*
X491900Y386100D03*
Y378700D03*
X496900Y641700D03*
Y657700D03*
Y649700D03*
X515900Y680500D03*
Y672500D03*
Y664500D03*
X529600Y193800D03*
Y185800D03*
Y215700D03*
Y201800D03*
Y223700D03*
Y231700D03*
Y268500D03*
Y276500D03*
Y260500D03*
X578700Y45000D03*
Y53000D03*
Y61000D03*
Y97800D03*
Y89800D03*
Y105800D03*
Y134500D03*
Y142500D03*
Y150500D03*
Y179900D03*
Y187900D03*
Y195900D03*
Y232700D03*
Y224700D03*
Y240700D03*
Y269500D03*
Y277500D03*
Y285500D03*
Y314300D03*
Y322300D03*
Y330300D03*
Y367700D03*
Y359700D03*
Y375700D03*
G54D21*
X55000Y461400D03*
X59000D03*
X47600Y461300D03*
X51600D03*
X76800Y9200D03*
X68800D03*
X77800Y17500D03*
X69800D03*
X84800Y9200D03*
X101100Y9000D03*
X93100D03*
X100200Y17200D03*
X92200D03*
X85800Y17500D03*
X99900Y202400D03*
X102100Y303600D03*
Y341100D03*
X97600D03*
X93100D03*
X109100Y9000D03*
X114400Y12300D03*
X108200Y17200D03*
X109900Y202400D03*
X104900D03*
X111100Y303600D03*
X106600D03*
X141400Y7100D03*
X140700Y16600D03*
X132700D03*
X122400Y12300D03*
X130400D03*
X149400Y7100D03*
X157400D03*
X153800Y13000D03*
X148700Y16600D03*
X161800Y13000D03*
X169800D03*
X198500Y9500D03*
X190500D03*
X192800Y16600D03*
X184800D03*
X198600Y177500D03*
X206500Y9500D03*
X211700Y10600D03*
X200800Y16600D03*
X229600Y6000D03*
X221600D03*
X237600D03*
X233300Y16900D03*
X225300D03*
X219700Y10600D03*
X227700D03*
X223200Y159900D03*
X251000Y16700D03*
X256000Y11300D03*
X248000D03*
X241300Y16900D03*
X241700Y149500D03*
X259000Y16700D03*
X267000D03*
X264000Y11300D03*
X269800Y133300D03*
X292100Y53600D03*
X288900Y46500D03*
X304100Y53500D03*
X314600Y46200D03*
X301500Y46400D03*
X311800Y65200D03*
X308200Y161100D03*
X329000Y9200D03*
X321000D03*
X315500Y53500D03*
X324100Y75000D03*
X332600Y166300D03*
X337000Y9200D03*
X350700Y99400D03*
X336500Y86000D03*
X365800Y9200D03*
X365600Y112500D03*
X372600Y126900D03*
X368200Y239900D03*
X373800Y9200D03*
X381800D03*
X373700Y145000D03*
X374300Y167300D03*
X376900Y196900D03*
X375200Y184900D03*
X383200Y216400D03*
X384100Y239700D03*
X373700Y240300D03*
X410500Y9200D03*
X418500D03*
X426500D03*
X463300D03*
X455300D03*
X457200Y97500D03*
X468800Y109500D03*
X460300Y256100D03*
X471300Y9200D03*
X483900Y131300D03*
X472400Y132800D03*
X483900Y161100D03*
X472700Y165800D03*
X483900Y191000D03*
X472700Y195600D03*
X483900Y220800D03*
X472700Y225500D03*
X483600Y254000D03*
X472700Y255400D03*
X508100Y9200D03*
X500100D03*
X516100D03*
G54D31*
X421136Y547178D03*
X420393Y566034D03*
X414736Y560378D03*
X426793Y552834D03*
X426050Y571691D03*
X432450Y558491D03*
X487019Y65202D03*
X497176Y58559D03*
X502833Y64215D03*
X491519Y52902D03*
X492676Y70859D03*
X498333Y76515D03*
X525119Y147202D03*
X528319Y98302D03*
X533976Y103959D03*
X539633Y109615D03*
X530776Y152859D03*
X536433Y158515D03*
G54D32*
X498129Y735688D03*
X503786Y730031D03*
X498372Y749645D03*
X504029Y743988D03*
X492472Y741345D03*
X509686Y738331D03*
G54D23*
X60824Y489809D03*
X75824D03*
X80824Y554769D03*
X90824Y489809D03*
G54D29*
X223800Y323016D03*
X237400Y380102D03*
X271902Y671198D03*
X271716Y726316D03*
X260700Y783600D03*
X288609Y666291D03*
X294514Y665814D03*
X292546Y788346D03*
X288609Y788609D03*
X314100Y400200D03*
X303790Y394851D03*
X302388Y667049D03*
X312231Y797169D03*
X304357Y788757D03*
X317000Y380000D03*
X329700Y394851D03*
X333317D03*
X317300Y395600D03*
X322073Y665527D03*
X329947Y665747D03*
X315962Y787375D03*
X331916Y797284D03*
X324042Y797058D03*
X316168Y797132D03*
X336700Y342900D03*
X352600Y343000D03*
X346100D03*
X337900Y381900D03*
X343800Y379400D03*
X353002Y394851D03*
X349632Y666632D03*
X351601Y666899D03*
X353569Y665669D03*
X351601Y797199D03*
X341758Y796642D03*
X349632Y787000D03*
X353569Y787100D03*
X335853Y796953D03*
X339790Y797990D03*
X369898Y267898D03*
X369600Y271100D03*
X356300Y327100D03*
X369395Y370273D03*
X354000Y380200D03*
X356900Y379400D03*
X365380Y666200D03*
X373254Y665654D03*
X369317Y788517D03*
X365380Y788720D03*
X392300Y674500D03*
X377191Y665691D03*
X385065Y665565D03*
X389002Y788302D03*
X394040Y681040D03*
X393200Y672321D03*
X403751Y671198D03*
X393825Y700725D03*
X393151Y686946D03*
X393300Y688914D03*
X393151Y773560D03*
Y781434D03*
G54D20*
X59600Y74900D03*
X59800Y67000D03*
X61900Y89000D03*
G54D17*
X14200Y299200D03*
X97000Y143800D03*
X164500Y494300D03*
X164600Y513000D03*
X185400Y458500D03*
X200800Y776200D03*
X237600Y144200D03*
X258100Y541900D03*
X333200Y885600D03*
X344000Y93300D03*
X471100Y153600D03*
X472000Y240500D03*
X527500Y806000D03*
G54D18*
X43300Y436800D03*
Y439800D03*
Y442800D03*
X61600Y209500D03*
X63000Y213300D03*
X61600Y278400D03*
X63600Y328100D03*
X57000Y346100D03*
X63400Y342700D03*
X58400Y354100D03*
X58100Y433300D03*
Y436300D03*
Y439300D03*
X47200Y433500D03*
X50200D03*
X53200D03*
X63500Y442100D03*
X60500D03*
X64300Y432700D03*
X68900Y193100D03*
X79100Y187100D03*
X80000Y191700D03*
X75800Y196200D03*
X81800D03*
X75300Y213400D03*
X81300D03*
X67600Y209500D03*
X72600Y210000D03*
X78600D03*
X69000Y213300D03*
X80400Y200000D03*
X83600Y203800D03*
X77600D03*
X68400Y207800D03*
X78400Y255200D03*
X83400D03*
X66500Y261200D03*
X83000Y268400D03*
Y273400D03*
X68500Y276600D03*
X73500D03*
X83500Y276400D03*
X73300Y263300D03*
X78300D03*
X81000Y259200D03*
X76000D03*
X66400Y273300D03*
X66600Y278400D03*
X72900Y333800D03*
X74100Y331400D03*
X82800Y322500D03*
X79900D03*
X75600D03*
X76300Y325600D03*
X72600D03*
X75700Y327600D03*
X73000Y327700D03*
X70600D03*
X73100Y337200D03*
X70900Y342400D03*
X75300Y342700D03*
X81300Y342400D03*
X71500Y346000D03*
X71800Y353900D03*
X65000Y419100D03*
X71100Y419300D03*
X74100D03*
X77100D03*
X77400Y414000D03*
X80400D03*
X83400D03*
X73700Y423300D03*
Y426300D03*
Y429300D03*
X67300Y435200D03*
X70300D03*
X73300D03*
X66500Y442100D03*
X68000Y610200D03*
X85100Y187100D03*
X86000Y191700D03*
X86400Y200000D03*
X101000Y234700D03*
Y242100D03*
Y249600D03*
Y257100D03*
X88500Y276400D03*
X86700Y267800D03*
X91700D03*
X83900Y263400D03*
X88900D03*
X95700Y529600D03*
X101500Y545200D03*
X96500D03*
X101200Y540100D03*
X96200D03*
X108500Y234700D03*
Y242100D03*
Y249600D03*
Y257100D03*
X118100Y529600D03*
X110700D03*
X103200D03*
X111500Y545200D03*
X106500D03*
X106200Y540100D03*
X111200D03*
X121600Y607900D03*
X120300Y666600D03*
X139700Y23200D03*
X129900Y23600D03*
X133970Y669530D03*
X132500Y809900D03*
X132000Y859200D03*
X150000Y23100D03*
X158300Y255500D03*
X159900Y676200D03*
X159800Y668600D03*
X170400Y23700D03*
X175700Y36100D03*
X178700Y274600D03*
X161300Y279800D03*
X161000Y321500D03*
X174700Y348800D03*
X174500Y354800D03*
X165600Y375800D03*
X166900Y529300D03*
X178100D03*
X178900Y535900D03*
X173900D03*
X179300Y545000D03*
X174300D03*
X179600Y657700D03*
X180400Y23200D03*
X190350Y23250D03*
X195000Y35400D03*
X185000Y35000D03*
X183700Y254100D03*
X196200Y273200D03*
X195150Y333350D03*
X185400Y326000D03*
X198900Y320600D03*
X193800Y357200D03*
X185700Y382700D03*
X189300Y529300D03*
X188900Y535900D03*
X183900D03*
X189300Y545000D03*
X184300D03*
X183258Y611300D03*
X196500Y664000D03*
Y676400D03*
X193700Y812500D03*
X181000Y854200D03*
X200200Y23600D03*
X210000Y24200D03*
X218700Y53700D03*
X210000Y48900D03*
X215700Y53800D03*
X209700D03*
X205700D03*
X217000Y229600D03*
X200300Y347700D03*
X216300Y352600D03*
X217400Y354800D03*
X218700Y368200D03*
X213000Y398800D03*
X213400Y424000D03*
X200500Y529300D03*
X211700D03*
X215700Y540300D03*
X210700D03*
X205700D03*
X200700D03*
X211800Y646100D03*
X204643Y648158D03*
X229950Y22950D03*
X235400Y35700D03*
X225300Y35500D03*
X228300Y212000D03*
X230700Y205100D03*
X232300Y211900D03*
X234300Y206400D03*
X236600Y255500D03*
X223900Y261900D03*
X222900Y275200D03*
X223500Y269500D03*
X231400Y259900D03*
X223700Y273300D03*
X236800Y274100D03*
X219300Y291000D03*
X236900Y291500D03*
X224500Y299300D03*
X225500Y296500D03*
X224300Y332700D03*
X236600Y344600D03*
X225300Y348400D03*
Y364100D03*
X225900Y365800D03*
X222200Y362000D03*
X222800Y385200D03*
X226200Y378600D03*
X220700Y373700D03*
X229500Y404900D03*
X235600Y394500D03*
X220400Y404800D03*
X219100Y529300D03*
X234500Y638500D03*
X237000Y700800D03*
X240750Y22450D03*
X249900Y23300D03*
X251300Y204900D03*
X252440Y224800D03*
X254600Y237100D03*
X248800Y251700D03*
X240000Y252400D03*
X243600Y249600D03*
X245400Y251750D03*
X239400Y273700D03*
X240500Y262900D03*
X249500Y264100D03*
X254600Y266100D03*
X252100Y289700D03*
X239400Y292800D03*
X249700Y303700D03*
X252600Y313173D03*
X249400Y299700D03*
X245200Y300700D03*
X250500Y311400D03*
X245800Y309700D03*
X242900Y296700D03*
X250300Y325150D03*
X252100Y320400D03*
Y331800D03*
X252000Y318000D03*
X238300Y340900D03*
X239300Y338600D03*
X239900Y348000D03*
X249900Y334700D03*
X240200Y342700D03*
X250600Y336600D03*
X246400Y354600D03*
X239700Y354500D03*
X239200Y360200D03*
X240900Y356600D03*
X240300Y379100D03*
X250000Y383400D03*
X244200Y383500D03*
X242400Y395800D03*
X248300Y395600D03*
X244600Y395800D03*
X255200Y397300D03*
X240300Y412800D03*
X256900Y429500D03*
X248100Y438900D03*
X248700Y604800D03*
X241200Y665500D03*
X257200Y692200D03*
X240600Y690800D03*
X247400Y761800D03*
X243300Y787100D03*
X260100Y23600D03*
X265500Y37100D03*
X257800Y182700D03*
X275900Y183700D03*
X274800Y208200D03*
X260600Y214200D03*
X259700Y252600D03*
X260800Y239900D03*
X263800Y410600D03*
X262600Y396000D03*
X274900Y399000D03*
X270300Y416000D03*
X268800Y432700D03*
X275100Y438000D03*
X268500Y632700D03*
X259700Y660000D03*
X260600Y679000D03*
X273400Y720400D03*
X272900Y718200D03*
X273900Y722200D03*
X261700Y732100D03*
X261300Y734200D03*
X262300Y724300D03*
X272700Y730100D03*
X260200Y722500D03*
X273800Y757800D03*
X261650Y752850D03*
X261000Y742100D03*
X274700Y752100D03*
X260900Y755600D03*
X272900Y744000D03*
X273000Y746000D03*
X273400Y777600D03*
Y759700D03*
X272500Y775500D03*
X273500Y767700D03*
X274900Y769700D03*
X272900Y773400D03*
X273300Y771300D03*
X258100Y774800D03*
X272500Y779700D03*
X285900Y187600D03*
X294100Y192900D03*
X292100Y237800D03*
X292300Y221200D03*
X283200Y240300D03*
X288000Y253100D03*
X291950Y253150D03*
X282200Y263200D03*
X286500Y410600D03*
X286800Y426900D03*
X290200Y416500D03*
X294200Y426800D03*
X285500Y641000D03*
X285100Y654400D03*
X284800Y649500D03*
X282800Y667600D03*
X284700Y787400D03*
X282300Y787600D03*
X278766Y798800D03*
X281100Y798100D03*
X291000Y804500D03*
X277200Y801700D03*
X282500Y818000D03*
X298300Y238300D03*
X314500Y379200D03*
X301821Y377500D03*
X314100Y409200D03*
X309500Y397000D03*
X299400Y399100D03*
X310000Y412700D03*
X309000Y443900D03*
X301600Y610600D03*
X305700Y626400D03*
X306325Y656475D03*
X306900Y644400D03*
X305500Y809500D03*
X296800Y848700D03*
X332276Y22600D03*
X325424Y37800D03*
X322576D03*
X333500Y199300D03*
X319900Y211200D03*
X319400Y203400D03*
X331250Y231150D03*
X315300Y222100D03*
X319300Y379500D03*
X323900Y379900D03*
X334000Y379500D03*
X329900Y379300D03*
X316777Y377123D03*
X329400Y414300D03*
X328500Y443400D03*
X317700Y448100D03*
X331900Y442100D03*
X331100Y641500D03*
X317400Y640800D03*
X324042Y656842D03*
X327979Y667300D03*
X328000Y799200D03*
X351976Y22200D03*
X335124Y22600D03*
X345224Y36076D03*
X342376D03*
X353800Y315100D03*
X347250Y327250D03*
X349300Y322800D03*
X337400Y331400D03*
X339000Y338200D03*
X341900Y352543D03*
X334700Y350575D03*
X349200Y334827D03*
X340400Y367900D03*
X351800Y354512D03*
X348214Y362386D03*
X340054Y364354D03*
X342000Y358449D03*
X337200Y360417D03*
X345200Y356480D03*
X349200Y376300D03*
X344000Y411200D03*
X351600Y411900D03*
X337400Y420000D03*
X346777Y435123D03*
X351400Y433400D03*
X348400Y605200D03*
X349800Y631900D03*
X339900Y656300D03*
X337800Y782800D03*
X341300Y799200D03*
X343900Y818500D03*
X339700Y861600D03*
X370650Y24250D03*
X354824Y22200D03*
X364624Y34676D03*
X361776D03*
X369700Y207800D03*
X365800Y253600D03*
X370300Y263700D03*
X367091Y279709D03*
X369900Y279900D03*
X355105Y311205D03*
X354300Y332858D03*
X371336Y338764D03*
X369700Y342700D03*
X368702Y380102D03*
X359000Y391800D03*
X366700Y393800D03*
X369800Y437500D03*
X363800Y631200D03*
X356800Y640400D03*
X359500Y656300D03*
X365500Y825400D03*
X371600Y822400D03*
X391100Y23600D03*
X381050Y23550D03*
X375400Y218800D03*
X383100Y255400D03*
X376700Y269900D03*
X378300Y263100D03*
X376450Y273350D03*
X375200Y285700D03*
X378800Y279200D03*
X376000Y279700D03*
X389700Y304324D03*
Y301476D03*
X386500Y312976D03*
X384700Y320400D03*
X385500Y327600D03*
Y324751D03*
X386500Y315824D03*
X376768Y340732D03*
X391000Y335100D03*
X388650Y337050D03*
X386800Y335100D03*
X390500Y402200D03*
X374700Y435200D03*
Y655500D03*
X391000Y655700D03*
X376400Y801500D03*
X411050Y24150D03*
X405350Y292350D03*
X396200Y311900D03*
Y309000D03*
X402000Y330900D03*
X402900Y320900D03*
Y318051D03*
X393500Y337100D03*
X406900Y352543D03*
X404700Y350575D03*
X408400Y346638D03*
X395600Y342500D03*
X392800Y368900D03*
X396600Y371500D03*
X398100Y378200D03*
X397100Y375400D03*
X393600Y407800D03*
X393800Y637300D03*
X403400Y646500D03*
X409500Y661400D03*
X398700Y667000D03*
X407200Y666600D03*
X411200Y678300D03*
X404600Y714500D03*
X404400Y734200D03*
X404300Y736200D03*
X403700Y726000D03*
X402200Y732221D03*
X410357Y755843D03*
X411012Y757812D03*
X404780Y759780D03*
X403597Y777497D03*
X406686Y765686D03*
X404254Y767654D03*
X408051Y761749D03*
X409183Y763717D03*
X405965Y779465D03*
X409600Y804800D03*
X400800Y864800D03*
X420650Y23950D03*
X427900Y273900D03*
X427600Y279000D03*
X427500Y331900D03*
X428400Y320100D03*
X414350Y350150D03*
X421200Y353500D03*
X419600Y346200D03*
X424700Y357600D03*
X413850Y356050D03*
X421400Y358449D03*
X426900Y360417D03*
X412900Y613000D03*
X429200Y658200D03*
X430600Y650500D03*
X425700Y677900D03*
X424100Y671400D03*
X427200Y664700D03*
X429676Y671676D03*
X419100Y684600D03*
X428300Y684200D03*
X422500Y686600D03*
X428976Y715500D03*
X430900Y718300D03*
X413100Y738200D03*
X422551Y737700D03*
X425400D03*
X427576Y725300D03*
X430424D03*
X411900Y740095D03*
X413425Y753875D03*
X428500Y765300D03*
X436100Y23200D03*
X446000Y23400D03*
X448300Y303300D03*
X432100Y317000D03*
X439100Y349300D03*
X445300Y356100D03*
X431914Y362386D03*
X438054Y364354D03*
X439100Y654500D03*
X438000Y661300D03*
X436776Y676876D03*
Y679724D03*
X434100Y673651D03*
Y676500D03*
X440300Y681176D03*
X436500Y666300D03*
X447400Y687076D03*
X444276Y696400D03*
X447400Y689924D03*
X447124Y696400D03*
X444736Y683040D03*
Y685889D03*
X440300Y684024D03*
X431824Y715500D03*
X440551Y703200D03*
X443400D03*
X450850Y24150D03*
X460400Y23500D03*
X451900Y288100D03*
X467100Y293900D03*
X453724Y307076D03*
X464700Y330100D03*
X461300Y362600D03*
X469500Y658200D03*
X459000Y672400D03*
X461700Y669400D03*
X456200Y675800D03*
X466100Y664700D03*
X481100Y23700D03*
X486100Y270100D03*
X481100Y266100D03*
X476200Y283600D03*
X474000Y288400D03*
X479500Y306800D03*
X469700Y297700D03*
X477400Y353000D03*
X471100Y369400D03*
X485100Y368900D03*
X472700Y650500D03*
X491800Y23400D03*
X497500Y277300D03*
X496300Y327400D03*
X522500Y278200D03*
X524400Y341000D03*
X534700Y419500D03*
X534840Y415740D03*
X536800Y421600D03*
X544200Y423100D03*
X546070Y421470D03*
X542130Y423630D03*
X532400Y734200D03*
X528100Y732100D03*
X534300Y735600D03*
X532100Y732300D03*
X530700Y728800D03*
X541300Y735900D03*
X543500D03*
X539400Y735800D03*
X538300Y745400D03*
X554230Y409830D03*
X554500Y396700D03*
X549600Y421900D03*
X556200Y420500D03*
X553800Y420400D03*
X554200Y411800D03*
X546950Y732450D03*
X551000Y725000D03*
X558800Y771800D03*
X566800Y718500D03*
G54D22*
X55824Y489809D03*
X65824D03*
X70824D03*
X80824D03*
X75824Y554769D03*
X85824Y489809D03*
X95824D03*
X100824D03*
Y554769D03*
X95824D03*
X90824D03*
X85824D03*
G54D15*
X16400Y123400D03*
X34700Y120800D03*
X34600Y116300D03*
X41100Y125200D03*
X27100Y123000D03*
X34800Y125400D03*
X50600Y138800D03*
X50400Y156100D03*
X50500Y143800D03*
Y151100D03*
X61600Y153300D03*
X61200Y224100D03*
X56200D03*
X49800Y368400D03*
X54300D03*
X58800D03*
X80000Y145600D03*
X76000D03*
X72000D03*
X68000D03*
X77600Y153300D03*
X73600D03*
X69600D03*
X65600D03*
X81800Y223500D03*
X72100Y230700D03*
X77100D03*
X82100D03*
X66200Y224100D03*
X84000Y145600D03*
X86800Y223500D03*
X91800D03*
X96800Y238200D03*
Y245600D03*
Y253100D03*
X102800Y309300D03*
X92200Y323800D03*
X96700D03*
X101200D03*
X113200Y256700D03*
Y249300D03*
Y238100D03*
X109900Y265000D03*
X114400D03*
X107300Y309300D03*
X111800D03*
X160700Y227300D03*
X158600Y235300D03*
X155600Y261600D03*
X154600Y268400D03*
X153800Y275400D03*
X170400Y225200D03*
X173300Y219400D03*
X178400Y225200D03*
X164900Y233100D03*
X171900Y237300D03*
X172900Y233100D03*
X163100Y238500D03*
X174700Y268700D03*
X174500Y260300D03*
X165200Y269000D03*
X164900Y275600D03*
X198600Y40300D03*
X195600D03*
X197100Y42800D03*
Y37800D03*
X185800Y268800D03*
X210400Y38700D03*
X207400D03*
X208900Y41200D03*
Y36200D03*
X218700Y37600D03*
X204600Y226900D03*
X207300Y229100D03*
X208400Y231700D03*
Y234700D03*
Y237700D03*
X204100Y237600D03*
X221700Y37600D03*
X220200Y40100D03*
Y35100D03*
X254500Y37900D03*
X254100Y42100D03*
X249600Y41400D03*
X250000Y37700D03*
X241600Y40500D03*
X238600D03*
X240100Y43000D03*
Y38000D03*
X268600Y36600D03*
X265700Y41100D03*
X261100Y43000D03*
G54D12*
X6300Y206400D03*
X13800Y210300D03*
X7000Y217300D03*
X6700Y231000D03*
X14700Y223900D03*
X16300Y666300D03*
Y696200D03*
Y726000D03*
Y755900D03*
Y785800D03*
Y815600D03*
Y845500D03*
Y875300D03*
Y905200D03*
Y935000D03*
X30800Y163000D03*
X35900Y167500D03*
X30300Y172900D03*
X38500Y177800D03*
Y185800D03*
Y193800D03*
X32500Y403300D03*
X32700Y412800D03*
X43000Y595100D03*
X41000Y623600D03*
Y605600D03*
X41300Y637300D03*
X41800Y646300D03*
X59700Y183800D03*
X57100Y252100D03*
X63900Y294800D03*
X56900Y294700D03*
X53400Y318800D03*
X63600D03*
X59100Y385600D03*
X55900Y409700D03*
X51100Y495200D03*
X62500Y610300D03*
X50741Y631559D03*
X50700Y629000D03*
X52500Y646600D03*
X46100Y666300D03*
Y696200D03*
Y726000D03*
Y755900D03*
Y785800D03*
Y815600D03*
Y845500D03*
Y875300D03*
Y905200D03*
Y935000D03*
X71600Y159700D03*
X65700Y159600D03*
X78500Y183800D03*
X68900D03*
X75800Y252100D03*
X66500D03*
X75400Y274600D03*
X73500Y318800D03*
X74280Y379480D03*
X64900Y385700D03*
X74100Y409700D03*
X65000Y409600D03*
X81000Y495200D03*
X66100D03*
X80900Y543500D03*
X83300Y563900D03*
X76200Y595600D03*
X78300Y623500D03*
X76300Y605000D03*
X75900Y613700D03*
X78300Y634400D03*
X65159Y631559D03*
X76900Y644800D03*
X67800Y645900D03*
X75900Y666300D03*
Y696200D03*
Y726000D03*
Y755900D03*
Y785800D03*
Y815600D03*
Y845500D03*
Y875300D03*
Y905200D03*
Y935000D03*
X89300Y329600D03*
Y335700D03*
X94700Y495200D03*
X120400Y38600D03*
Y41600D03*
X117900Y40100D03*
X107600Y40400D03*
X112600D03*
X110100Y41900D03*
Y38900D03*
Y216300D03*
Y211300D03*
Y206300D03*
X115300Y286700D03*
Y282200D03*
Y277700D03*
X109500Y287000D03*
Y282500D03*
Y278000D03*
X110400Y294500D03*
Y290000D03*
Y299000D03*
X122200Y486000D03*
Y534500D03*
X121600Y552700D03*
X122100Y569400D03*
X111700Y585100D03*
X121800Y588500D03*
X121500Y619800D03*
X121100Y639600D03*
X120900Y653000D03*
X121800Y824700D03*
X120700Y882500D03*
X113800Y876900D03*
X105800Y935000D03*
X137500Y42400D03*
X136800Y40100D03*
X131900Y37300D03*
X128000Y42000D03*
X132200Y39800D03*
X127200D03*
X122900Y40100D03*
X122600Y370500D03*
X123200Y394900D03*
X123300Y424900D03*
X122700Y457700D03*
X122300Y508700D03*
X131300Y553300D03*
X138000Y559200D03*
X129200Y701200D03*
X123200Y770800D03*
X126800Y876600D03*
X135600Y935000D03*
X158900Y39200D03*
Y42200D03*
X156400Y40700D03*
X142100Y37200D03*
X141800Y40100D03*
X147900Y34700D03*
X154900Y333400D03*
X155700Y329800D03*
X155600Y326100D03*
X155000Y352800D03*
Y345300D03*
Y337800D03*
Y367700D03*
X155900Y360600D03*
X159100Y391900D03*
X160000Y399200D03*
X160200Y423400D03*
Y445800D03*
Y468200D03*
Y483100D03*
X142900Y553300D03*
X155800Y553400D03*
X149000Y658500D03*
X145000D03*
X153270Y669530D03*
X161400Y40700D03*
X168200Y333900D03*
X161100Y329900D03*
X166800Y329800D03*
X173100Y329900D03*
X178200Y330000D03*
X178100Y326400D03*
X173300Y326500D03*
X167000Y326400D03*
X161100Y326200D03*
X168200Y345300D03*
X162100Y339400D03*
X177200Y368500D03*
X163200Y369900D03*
X175300Y361200D03*
X178500Y391900D03*
X174800D03*
X171000D03*
X167300D03*
X163600D03*
X162800Y560100D03*
X170500Y553900D03*
X172500Y626800D03*
X171000Y658500D03*
X161000D03*
X169840Y680060D03*
X166100Y679800D03*
X175900Y826800D03*
X169000Y878900D03*
X165400Y935000D03*
X186800Y196100D03*
X190200Y331700D03*
X196700Y325900D03*
X188200Y343300D03*
X196600Y359200D03*
X195300Y392300D03*
X185900Y391900D03*
X182200D03*
X197800Y411200D03*
Y403700D03*
Y396300D03*
Y426100D03*
Y418600D03*
Y433600D03*
X194200Y466100D03*
X188300Y553700D03*
X195700Y559600D03*
X184300Y590500D03*
X184958Y628958D03*
X185600Y651200D03*
X187000Y664800D03*
X197000Y692700D03*
X192300Y702400D03*
X182400Y770800D03*
X182200Y879100D03*
X195400Y935000D03*
X211200Y201900D03*
X212000Y261900D03*
X211600Y275200D03*
X212100Y269500D03*
X202300Y281700D03*
X203700Y333400D03*
X211700Y325500D03*
X204600Y326000D03*
X210800Y333100D03*
X203100Y316600D03*
X212900Y348700D03*
X207600Y369300D03*
X202800Y392300D03*
X210800Y385200D03*
X211200Y380700D03*
X208800Y374100D03*
X202500Y402800D03*
Y410200D03*
X200500Y398800D03*
X202500Y417700D03*
Y430300D03*
X216100Y504900D03*
X203600Y554000D03*
X215000Y637200D03*
X237600Y239800D03*
X228100Y243400D03*
X231100Y255300D03*
X228700Y240600D03*
X224100Y466100D03*
X227400Y540300D03*
Y562700D03*
Y585000D03*
X227200Y598800D03*
X235400Y600700D03*
X236600Y607700D03*
X224000Y630800D03*
X227100Y697200D03*
X220600Y706000D03*
X220800Y761300D03*
X225200Y935000D03*
X254000Y196100D03*
X239500Y238200D03*
X244900Y274600D03*
X250100Y271900D03*
X254300D03*
X250300Y268900D03*
X249600Y350500D03*
X252100Y381000D03*
X246800Y377200D03*
X257000Y379500D03*
X249900Y377000D03*
X244600Y407700D03*
X250000Y407500D03*
X255200Y409600D03*
X242300Y427600D03*
X255400Y412800D03*
X250900Y447900D03*
X246500Y466100D03*
X250600Y583900D03*
X239700Y584100D03*
X253700Y600700D03*
X255600Y598100D03*
X246300Y608200D03*
X253900Y622900D03*
X255600Y609300D03*
X247400Y660000D03*
X250200Y645100D03*
X247600Y679000D03*
X248000Y666700D03*
X247900Y673200D03*
X247800Y702800D03*
X250000Y728200D03*
X247900Y722500D03*
X245900Y774800D03*
X241700Y768800D03*
X243500Y793100D03*
X255200Y792700D03*
X249700Y780400D03*
X239500Y825500D03*
X252900Y866700D03*
X255000Y935000D03*
X259200Y173900D03*
X275800Y196600D03*
X275200Y227000D03*
X274600Y237900D03*
X270800Y238500D03*
X267300Y239100D03*
X258800Y242600D03*
X259500Y269600D03*
X261900Y267300D03*
X268300Y379800D03*
X266000Y378300D03*
X260200Y408200D03*
X265900D03*
X271300Y408400D03*
X274700Y409900D03*
X263100Y439800D03*
X276300Y466100D03*
X275700Y504900D03*
X263600Y584500D03*
X270500Y598100D03*
X262000Y596200D03*
X270500Y621100D03*
Y605600D03*
X270200Y624200D03*
X262200Y640100D03*
X272900Y653700D03*
X273100Y648100D03*
X278100Y174600D03*
X292000Y213300D03*
X285200Y213100D03*
X291800Y209100D03*
X276900Y239000D03*
X286200Y241000D03*
X294200Y240600D03*
X290100Y271900D03*
X291000Y268200D03*
X278800Y302600D03*
X289100Y312600D03*
X286000Y377700D03*
X293200Y378200D03*
X288700Y380100D03*
X284000Y408100D03*
X292200Y407400D03*
X278200Y411500D03*
X279800Y434400D03*
X293400Y564100D03*
X293100Y582400D03*
X281300Y585000D03*
X280800Y596300D03*
X288400Y599700D03*
X288200Y605600D03*
X287900Y615500D03*
X279900Y615600D03*
X288000Y624000D03*
X286700Y627400D03*
X293600Y643700D03*
X284500Y809400D03*
X290800Y816300D03*
X295100Y812000D03*
X278900Y814500D03*
X284900Y935000D03*
X306950Y183550D03*
X310600Y213200D03*
X298100Y209300D03*
X299200Y213500D03*
X312800Y213900D03*
X301200Y228800D03*
X301000Y232700D03*
X301100Y236900D03*
X304800Y238400D03*
X307800D03*
X311800D03*
X299000Y267200D03*
X303500Y303200D03*
X302400Y315100D03*
X302200Y331200D03*
X303200Y342500D03*
X301600Y372700D03*
X309200Y377000D03*
X303900Y409200D03*
X309500D03*
X301500Y413900D03*
X303700Y443800D03*
X298700Y466100D03*
X309900Y564100D03*
X302700Y555000D03*
X302100Y574300D03*
X309900Y635600D03*
X310300Y644700D03*
X305000Y647200D03*
X303400Y810400D03*
X311900Y807800D03*
X305500Y822200D03*
X300600Y827900D03*
X314400Y866600D03*
X314700Y935000D03*
X315700Y187900D03*
X317200Y227300D03*
X331500Y233900D03*
X315800Y238400D03*
X333600Y239300D03*
X326700Y240100D03*
X330400Y272100D03*
X325400Y309000D03*
X332000Y297500D03*
X331200Y302300D03*
X325500Y311800D03*
X331700Y317100D03*
X327700Y404500D03*
X324600Y413100D03*
X323500Y444200D03*
X328600Y466100D03*
X320500Y504900D03*
X330400Y563700D03*
X322600Y553600D03*
X321100Y574200D03*
X330400Y582200D03*
X331800Y595200D03*
X324600Y601600D03*
X325900Y589700D03*
X320800Y590100D03*
X327200Y601400D03*
X316400Y642800D03*
X317400Y627800D03*
X334500Y633100D03*
X326100Y641600D03*
X322200Y640100D03*
X321200Y810200D03*
X328000Y811400D03*
X343000Y190900D03*
X340000Y208500D03*
X335400Y227300D03*
X345100Y240600D03*
X340400Y273100D03*
X337500Y270700D03*
X341600Y269500D03*
X336800Y267500D03*
X341000Y292600D03*
X344900Y292800D03*
X350400Y293000D03*
X344800Y309000D03*
X341100Y309700D03*
X345000Y302000D03*
X344800Y297500D03*
X350100Y302100D03*
X350300Y297400D03*
X337100Y407000D03*
X347500Y408500D03*
X340300Y410400D03*
X339300Y435400D03*
X351000Y466100D03*
X342200Y601400D03*
X349400Y636100D03*
X335600Y642200D03*
X350500Y644500D03*
X339900Y643300D03*
X341300Y812200D03*
X346400Y812100D03*
X353000Y825500D03*
X344500Y935000D03*
X372000Y189700D03*
X357900Y196500D03*
X370400Y257700D03*
X365250Y405450D03*
X362700Y441900D03*
X370400Y431300D03*
X371400Y466300D03*
X365300Y504900D03*
X365800Y531600D03*
X364500Y544900D03*
X363100Y561200D03*
X365200Y584300D03*
X365000Y596900D03*
X370900Y590700D03*
X368200Y600900D03*
X356700Y634400D03*
X369400Y644100D03*
X363300Y644200D03*
X354900Y643900D03*
X365000Y807600D03*
X361900Y854800D03*
X359600Y935000D03*
X384300Y204700D03*
Y234400D03*
X382300Y331200D03*
X383200Y368400D03*
X382400Y399400D03*
X380800Y393800D03*
X387100Y394400D03*
X378200Y600900D03*
X388200D03*
X381900Y644100D03*
X374900Y644200D03*
X381128Y788028D03*
X385000Y810000D03*
X373300Y810300D03*
X378150Y823350D03*
X374300Y818100D03*
X383350Y836850D03*
X389400Y935000D03*
X395100Y401500D03*
X395000Y413800D03*
X394900Y424400D03*
X395100Y434000D03*
X396200Y600900D03*
X406200D03*
X401000Y656600D03*
X400700Y666400D03*
X393351Y730253D03*
X404700Y729000D03*
X393351Y728284D03*
X408600Y814200D03*
X406850Y823350D03*
X402050Y836950D03*
X413000Y37300D03*
X426500Y41000D03*
X424200Y38800D03*
X431000Y35800D03*
X425600Y597600D03*
X425300Y608200D03*
X422800Y639000D03*
X417600Y672100D03*
X418300Y770500D03*
X424400Y854500D03*
X419300Y935000D03*
X419200D03*
X434000Y38300D03*
X433500Y35900D03*
X441600Y333900D03*
X435400Y360700D03*
X431700Y603100D03*
X435700Y621600D03*
X435900Y612600D03*
X435700Y625300D03*
X440600Y706700D03*
X435700Y758600D03*
X448400Y815200D03*
X436500Y812600D03*
X448400Y845000D03*
Y874900D03*
X449100Y935000D03*
X457900Y39600D03*
X465000Y39400D03*
X462800Y36600D03*
X457500D03*
X454000Y36700D03*
X460600Y286900D03*
X463300Y302900D03*
X453100Y332100D03*
X460800Y355900D03*
X476900Y40300D03*
X482800Y40200D03*
X479000Y37400D03*
X474000D03*
X486000Y281900D03*
X487700Y303400D03*
X476000Y332500D03*
X481900Y350700D03*
X479300Y365200D03*
X477300Y851700D03*
Y886200D03*
X478900Y935000D03*
X496100Y40100D03*
X492800Y36600D03*
X505900Y285600D03*
X506100Y300800D03*
X501400Y341200D03*
X497000Y361300D03*
X497200Y364600D03*
X506600Y724900D03*
X501700Y757800D03*
X507800Y755000D03*
X501900Y778100D03*
X501700Y766400D03*
X490600Y766500D03*
X501800Y788400D03*
X507100Y788800D03*
X491300Y806800D03*
X507100Y851700D03*
Y886200D03*
X493900Y935000D03*
X524300Y313900D03*
X510600Y330400D03*
X519900Y328900D03*
Y321400D03*
X510600Y335900D03*
Y341600D03*
X527000Y359900D03*
X527100Y354900D03*
X521900Y398800D03*
Y395400D03*
X525900Y401100D03*
X521900Y401800D03*
X525200Y427900D03*
X527300Y429900D03*
X521900Y419600D03*
X522400Y424900D03*
X525000Y425200D03*
X522800Y716000D03*
X520200Y736500D03*
X518300Y731900D03*
X526200Y755500D03*
X525900Y750500D03*
X517800Y777600D03*
X521000Y760000D03*
X514700Y765300D03*
X517500Y763000D03*
X512200Y788600D03*
X517600Y788500D03*
X517800Y781700D03*
X526300Y788400D03*
X521200Y806800D03*
X522700Y827900D03*
Y872700D03*
Y902500D03*
X523700Y935000D03*
X528600Y287500D03*
X533700Y282300D03*
X530200Y315100D03*
X536900Y314200D03*
X529800Y304600D03*
X528800Y322500D03*
X536100Y347700D03*
X531750Y340550D03*
X527900Y367900D03*
X536300Y364900D03*
X534300Y387600D03*
X527600Y377600D03*
X527700Y373200D03*
X536200Y381600D03*
X540100Y407800D03*
X544100Y401200D03*
X546600Y429700D03*
X530900Y430000D03*
X540000Y416000D03*
X544100Y411800D03*
X533470Y413770D03*
X533600Y411800D03*
X542400Y693900D03*
X534800Y698500D03*
X533100Y711800D03*
X531600Y713900D03*
X542200Y701700D03*
X542800Y705600D03*
X534300D03*
X537200Y721000D03*
X537400Y728200D03*
X545500Y728500D03*
X544900Y720900D03*
X541400Y725000D03*
X531470Y726970D03*
X531600Y725000D03*
X540700Y740800D03*
X542100Y745700D03*
X535500Y750700D03*
X531500Y750300D03*
X544400Y741900D03*
X531800Y755500D03*
X534000Y766400D03*
X536400Y762700D03*
X535100Y781300D03*
X534200Y788300D03*
X536900Y851700D03*
Y886200D03*
X561600Y314600D03*
X555600D03*
X561200Y318700D03*
X561000Y324500D03*
X556500Y328200D03*
X556200Y333400D03*
X560600Y336300D03*
X561600Y342400D03*
X555500Y347700D03*
X559100Y364900D03*
X554600Y367300D03*
X561200Y368800D03*
X561800Y356600D03*
X555300Y362900D03*
X561600Y373700D03*
X547500Y387400D03*
X563800Y391300D03*
X564200Y402200D03*
X547600Y399600D03*
X548100Y407900D03*
X548040Y401660D03*
X559300Y421300D03*
X563900Y421100D03*
X559300Y430300D03*
X548200Y416000D03*
X554460Y415740D03*
X547000Y435300D03*
X556900Y433300D03*
X558100Y436500D03*
X552200Y437100D03*
X555700Y694100D03*
Y699000D03*
X547100Y714300D03*
Y709000D03*
Y712000D03*
X551100Y713300D03*
X555700Y713200D03*
X554100Y705200D03*
X550100Y734400D03*
X549800Y736300D03*
X564700Y724600D03*
X551600Y732700D03*
X548800Y750000D03*
X565600Y741100D03*
X547400Y757300D03*
X561900Y757400D03*
X555800Y751700D03*
X547200Y761800D03*
X561800Y764400D03*
X555600Y768000D03*
X551250Y760150D03*
X566000Y791900D03*
X551000Y806800D03*
X552500Y827900D03*
Y872700D03*
Y902500D03*
X553500Y935000D03*
X571300Y402300D03*
X571500Y409400D03*
X571100Y421500D03*
X570900Y415100D03*
X575000Y733600D03*
X584600Y741600D03*
X568900Y757100D03*
X575100Y752300D03*
X569200Y763000D03*
X582600Y760300D03*
X574700Y766700D03*
X582300Y827900D03*
Y872700D03*
Y902500D03*
G54D24*
X76900Y76100D03*
X151800Y225300D03*
X220800Y188400D03*
X236300Y47300D03*
X251700Y47700D03*
X242600Y56200D03*
X275500Y45000D03*
X295200Y636900D03*
X329300Y224200D03*
X339200Y222400D03*
X366800Y638500D03*
X390400Y386800D03*
X385400Y606400D03*
X378700Y637400D03*
X401800Y396700D03*
X407000Y450500D03*
X401800Y611900D03*
X408100Y788100D03*
X431600Y592600D03*
X438900Y777700D03*
X469100Y692900D03*
X455300Y704400D03*
X490700Y357000D03*
X484800Y533000D03*
X494300Y454400D03*
X508100Y499200D03*
X526000Y707900D03*
G54D25*
X114900Y596658D03*
Y616342D03*
Y650658D03*
Y670342D03*
Y704658D03*
Y724342D03*
Y758658D03*
Y778342D03*
Y812658D03*
Y832342D03*
Y866658D03*
Y886342D03*
X175900Y596658D03*
Y616342D03*
Y650658D03*
Y670342D03*
Y704658D03*
Y724342D03*
Y758658D03*
Y778342D03*
Y812658D03*
Y832342D03*
Y866658D03*
Y886342D03*
X236900Y596658D03*
Y616342D03*
Y650658D03*
Y670342D03*
Y704658D03*
Y724342D03*
Y758658D03*
Y778342D03*
Y813658D03*
Y833342D03*
Y866658D03*
Y886342D03*
X297900Y596658D03*
Y616342D03*
Y650658D03*
Y670342D03*
Y704658D03*
Y724342D03*
Y758658D03*
Y778342D03*
Y813658D03*
Y833342D03*
Y866658D03*
Y886342D03*
X358900Y596658D03*
Y616342D03*
Y650658D03*
Y670342D03*
Y704658D03*
Y724342D03*
Y758658D03*
Y778342D03*
Y813658D03*
Y833342D03*
Y866658D03*
Y886342D03*
X419900Y596658D03*
Y616342D03*
Y650658D03*
Y670342D03*
Y704658D03*
Y724342D03*
Y758658D03*
Y778342D03*
Y812658D03*
Y832342D03*
Y866658D03*
Y886342D03*
G54D26*
X113600Y737300D03*
Y744800D03*
X128500Y737300D03*
Y744800D03*
Y767200D03*
Y782100D03*
Y797000D03*
Y819400D03*
Y834400D03*
Y849300D03*
X156400Y595600D03*
X155800Y615900D03*
X150800Y687200D03*
X160200Y701700D03*
X143400Y737300D03*
X158300D03*
Y744800D03*
X143400D03*
Y767200D03*
X158300Y782100D03*
X143400D03*
Y804500D03*
X158300D03*
X143400Y834400D03*
Y819400D03*
Y849300D03*
X165800Y687200D03*
Y767200D03*
X173300Y782100D03*
Y804500D03*
X196100Y594700D03*
X195900Y619700D03*
X188200Y728800D03*
Y722400D03*
X195600Y767200D03*
X188200Y782100D03*
Y804500D03*
X190500Y826700D03*
X188800Y883700D03*
X218000Y676200D03*
X211300Y680900D03*
X204600Y694400D03*
X211000Y701300D03*
X203100Y728800D03*
Y722400D03*
X210600Y767200D03*
Y782100D03*
X218000Y804500D03*
X202700D03*
X202300Y816100D03*
X218300Y816400D03*
X218400Y826700D03*
X201700D03*
X211200Y859000D03*
X231349Y263200D03*
X225500Y327000D03*
X224400Y380000D03*
X220000Y593600D03*
X220800Y622400D03*
X233000Y676200D03*
X226300Y680900D03*
X227300Y717100D03*
X225500Y767200D03*
Y782100D03*
X250640Y253149D03*
X239000Y367800D03*
X250509Y394848D03*
X255300Y833400D03*
X247800Y840900D03*
X255300D03*
X251400Y845600D03*
X244000D03*
X248500Y883700D03*
X262451Y252900D03*
X274262Y253100D03*
X260483Y394851D03*
X272294D03*
X266400Y395600D03*
X276100Y671900D03*
X262666Y673166D03*
X262929Y669229D03*
X276100Y686800D03*
X262584Y728284D03*
X262429Y785371D03*
X262534Y781434D03*
X270200Y833400D03*
X262700D03*
Y840900D03*
X270200D03*
X273800Y845600D03*
X266300D03*
X258800D03*
X270900Y859000D03*
X284105Y394851D03*
X291979D03*
X286640Y657160D03*
X291300Y671900D03*
X292000Y686700D03*
X286000Y717800D03*
X295500Y748900D03*
X280500Y763900D03*
X295500D03*
X286640Y798100D03*
X277700Y833400D03*
Y840900D03*
X285100D03*
X288700Y845600D03*
X281200D03*
X297884Y252700D03*
X308700Y379800D03*
X307727Y395273D03*
X310262Y657538D03*
X298451Y657549D03*
X306300Y671900D03*
X304900Y686900D03*
X303900Y702800D03*
X298100Y733900D03*
X310400Y763900D03*
X309500Y778900D03*
X296300Y798151D03*
X301896D03*
X308294D03*
X308600Y832800D03*
X309000Y842900D03*
X299600Y843000D03*
X308200Y883700D03*
X321506Y253149D03*
X325443D03*
X333317D03*
X325443Y395300D03*
X329700Y587600D03*
X319500Y608800D03*
X326300Y609600D03*
X333400Y620100D03*
X319300Y620400D03*
X333884Y657184D03*
X321200Y671900D03*
X319800Y686900D03*
X318600Y702400D03*
X328300Y703300D03*
X323700Y721600D03*
X317900Y734000D03*
X332800D03*
X317900Y748900D03*
X325300Y763900D03*
X324400Y778900D03*
X320105Y797007D03*
X327979Y788321D03*
X329700Y823100D03*
X319700Y842800D03*
X330600Y859000D03*
X345128Y253149D03*
X337254Y394851D03*
X349065D03*
X339500Y636900D03*
Y629500D03*
X336100Y671900D03*
X346500Y704200D03*
X337200Y714300D03*
X347700Y734000D03*
X340200Y748900D03*
Y763900D03*
X346800Y778900D03*
X339300D03*
X334800Y805700D03*
X345900Y798400D03*
X343727Y798827D03*
X345000Y832400D03*
X368450Y273850D03*
X367751Y313149D03*
X356400Y313300D03*
X368000Y315383D03*
X370620Y328921D03*
X370091Y368291D03*
X368000Y366323D03*
X357506Y657306D03*
X361443Y657557D03*
X369317Y657517D03*
X357100Y686900D03*
X359000Y714100D03*
X362600Y734000D03*
Y748900D03*
X355200Y763900D03*
X373254Y796946D03*
X361443Y796900D03*
X367900Y883700D03*
X390200Y273200D03*
X388700Y267100D03*
X390700Y286900D03*
X390400Y282800D03*
X389700Y293000D03*
X390100Y277400D03*
X374650Y326950D03*
X374450Y322850D03*
X379000Y584900D03*
Y616500D03*
X381200Y656449D03*
X373400Y671900D03*
X373900Y684200D03*
Y699200D03*
Y714100D03*
X377600Y734000D03*
Y748900D03*
Y763900D03*
X376600Y778900D03*
X385065Y797365D03*
X381100Y850600D03*
X408800Y585900D03*
X397800Y586400D03*
X397300Y619500D03*
X411400Y631400D03*
X404500Y679072D03*
X392800Y677700D03*
X393100Y683009D03*
X403691Y771591D03*
X393151Y769623D03*
X407500Y797600D03*
X401300Y803900D03*
X408700Y850600D03*
X393900D03*
X405200Y859000D03*
X422300Y584300D03*
X427200Y624500D03*
X426200Y797700D03*
X417700Y797600D03*
X429700Y805700D03*
X413300Y825000D03*
X412700Y840300D03*
X412800Y883700D03*
X436600Y583700D03*
X438400Y589200D03*
X447600Y734800D03*
X432800Y788700D03*
X433600Y797700D03*
X431900Y818900D03*
X431500Y840500D03*
X461600Y676800D03*
Y683800D03*
X461200Y697200D03*
X465600Y717000D03*
X455800Y726800D03*
X467400Y778100D03*
X451900Y777900D03*
X451500Y788800D03*
X466900D03*
X465800Y803800D03*
X452000Y803700D03*
X467100Y830600D03*
X451800Y828500D03*
X468300Y865500D03*
X450700Y865200D03*
X457600Y883700D03*
X470500Y620100D03*
Y642500D03*
Y627600D03*
X470700Y670200D03*
X470300Y682600D03*
G54D30*
X236777Y412377D03*
X240921Y315621D03*
X274300Y378100D03*
X278800Y265600D03*
X279400Y315100D03*
X277400Y427400D03*
X311500Y314300D03*
X319100Y273500D03*
X316777Y429400D03*
X353400Y365900D03*
X358500Y258800D03*
X358100Y427500D03*
G54D10*
X19600Y19100D03*
Y505500D03*
Y963200D03*
X571000Y19100D03*
Y505500D03*
Y963200D03*
G54D11*
X3200Y138200D03*
X4300Y161500D03*
X11400Y138400D03*
X19400D03*
X12300Y161500D03*
X19800Y161800D03*
X63700Y71900D03*
X63900Y76900D03*
X51400Y116000D03*
X51700Y127800D03*
X51200Y124100D03*
X61100Y127900D03*
X56000Y127800D03*
X58500Y477600D03*
X57900Y481800D03*
X57500Y484600D03*
X52600Y484500D03*
X82700Y81700D03*
X69500Y79800D03*
X75100Y84400D03*
X79800Y85400D03*
X70100Y85300D03*
X70900Y115500D03*
X69800Y123800D03*
X70500Y127900D03*
X66400Y128000D03*
X83700Y173600D03*
X76300Y173400D03*
X80900Y176200D03*
X81000Y178900D03*
X81100Y181400D03*
X83600Y244300D03*
X76900Y244600D03*
X73700Y242600D03*
X80400Y242400D03*
Y246300D03*
Y249700D03*
X79300Y289900D03*
X79200Y295300D03*
X75000Y302900D03*
X81800Y303200D03*
X77700Y307900D03*
X77500Y312500D03*
X74600Y396600D03*
X82800Y401400D03*
X75500Y401100D03*
X81600Y405500D03*
X76900Y405400D03*
X75600Y467000D03*
X72700Y466900D03*
X67100D03*
X75800Y471300D03*
X84800Y72600D03*
X86900Y289800D03*
X87100Y302900D03*
X85200Y308200D03*
X84100Y312400D03*
X87200Y390200D03*
X87000Y393500D03*
Y396600D03*
X88200Y401100D03*
X88500Y405700D03*
X526100Y724100D03*
X523200D03*
X515800Y721200D03*
X515900Y729100D03*
X531900Y410100D03*
X527900Y418200D03*
G54D13*
X21300Y67400D03*
Y114200D03*
G54D27*
X139700Y494300D03*
X139800Y513000D03*
G54D28*
X219800Y899700D03*
X433500Y634300D03*
Y899700D03*
%LPC*%
G75*
G54D33*
G01X0Y2000D02*
X590600D01*
Y984200D01*
X590550Y984250D01*
X0D01*
Y2000D01*
M02*
