G04 ================== begin FILE IDENTIFICATION RECORD ==================*
G04 Layout Name:  E:/Work_File/CEPC/Schematic-amd-PCB-of-DET_V1/FEB_DET_1V0.brd*
G04 Film Name:    soldbottom*
G04 File Format:  Gerber RS274X*
G04 File Origin:  Cadence Allegro 16.6-2015-S066*
G04 Origin Date:  Mon Sep 04 10:49:42 2017*
G04 *
G04 Layer:  VIA CLASS/SOLDERMASK_BOTTOM*
G04 Layer:  PIN/SOLDERMASK_BOTTOM*
G04 Layer:  PACKAGE GEOMETRY/SOLDERMASK_BOTTOM*
G04 Layer:  BOARD GEOMETRY/OUTLINE*
G04 Layer:  BOARD GEOMETRY/SOLDERMASK_BOTTOM*
G04 *
G04 Offset:    (0.000 0.000)*
G04 Mirror:    Yes*
G04 Mode:      Positive*
G04 Rotation:  0*
G04 FullContactRelief:  No*
G04 UndefLineWidth:     5.000*
G04 ================== end FILE IDENTIFICATION RECORD ====================*
%FSLAX25Y25*MOIN*%
%IR0*IPPOS*OFA0.00000B0.00000*MIA1B0*SFA1.00000B1.00000*%
%ADD12C,.12*%
%ADD10C,.32*%
%ADD24C,.15*%
%ADD11R,.12X.12*%
%ADD21C,.11811*%
%ADD26R,.02756X.12205*%
%ADD13R,.14X.105*%
%ADD18R,.043X.04*%
%ADD15R,.04X.043*%
%ADD22R,.04X.038*%
%ADD27R,.038X.04*%
%ADD17C,.021*%
%ADD20C,.032*%
%ADD19C,.07*%
%ADD14C,.045*%
%ADD16C,.070902*%
%ADD23R,.055118X.045276*%
%ADD25R,.02756X.08268*%
%ADD28C,.003*%
G75*
%LPD*%
G75*
G54D10*
X19600Y19100D03*
Y505500D03*
Y963200D03*
X571000Y19100D03*
Y505500D03*
Y963200D03*
G54D20*
X114900Y596658D03*
Y616342D03*
Y650658D03*
Y670342D03*
Y704658D03*
Y724342D03*
Y758658D03*
Y778342D03*
Y812658D03*
Y832342D03*
Y866658D03*
Y886342D03*
X175900Y596658D03*
Y616342D03*
Y650658D03*
Y670342D03*
Y704658D03*
Y724342D03*
Y758658D03*
Y778342D03*
Y812658D03*
Y832342D03*
Y866658D03*
Y886342D03*
X236900Y596658D03*
Y616342D03*
Y650658D03*
Y670342D03*
Y704658D03*
Y724342D03*
Y758658D03*
Y778342D03*
Y813658D03*
Y833342D03*
Y866658D03*
Y886342D03*
X297900Y596658D03*
Y616342D03*
Y650658D03*
Y670342D03*
Y704658D03*
Y724342D03*
Y758658D03*
Y778342D03*
Y813658D03*
Y833342D03*
Y866658D03*
Y886342D03*
X358900Y596658D03*
Y616342D03*
Y650658D03*
Y670342D03*
Y704658D03*
Y724342D03*
Y758658D03*
Y778342D03*
Y813658D03*
Y833342D03*
Y866658D03*
Y886342D03*
X419900Y596658D03*
Y616342D03*
Y650658D03*
Y670342D03*
Y704658D03*
Y724342D03*
Y758658D03*
Y778342D03*
Y812658D03*
Y832342D03*
Y866658D03*
Y886342D03*
G54D11*
X21300Y67400D03*
G54D21*
X139700Y494300D03*
X139800Y513000D03*
X164500Y494300D03*
X164600Y513000D03*
G54D12*
X21300Y83000D03*
Y98600D03*
Y114200D03*
G54D22*
X129200Y506500D03*
Y500500D03*
X139500Y536800D03*
Y530800D03*
X378000Y312500D03*
Y318500D03*
X378900Y330400D03*
Y324400D03*
G54D13*
X14300Y149300D03*
X39300D03*
G54D23*
X137900Y545763D03*
Y553637D03*
X163300Y545763D03*
Y553637D03*
X196300Y545863D03*
Y553737D03*
G54D14*
X14200Y299200D03*
X55824Y489809D03*
X60824D03*
X65824D03*
X70824D03*
X75824D03*
X80824D03*
Y554769D03*
X75824D03*
X97000Y143800D03*
X85824Y489809D03*
X90824D03*
X95824D03*
X100824D03*
Y554769D03*
X95824D03*
X90824D03*
X85824D03*
X185400Y458500D03*
X200800Y776200D03*
X237600Y144200D03*
X258100Y541900D03*
X333200Y885600D03*
X344000Y93300D03*
X471100Y153600D03*
X472000Y240500D03*
X527500Y806000D03*
G54D15*
X41600Y120100D03*
X47600D03*
X82200Y120000D03*
X76200D03*
X158500Y360600D03*
X178900Y361200D03*
X164500Y360600D03*
X170500Y354800D03*
X164500D03*
X186800Y198900D03*
X192800D03*
X198800Y204800D03*
X192800D03*
X199500Y360700D03*
X184900Y361200D03*
X190000Y355500D03*
X184000D03*
X211200Y204900D03*
X217200D03*
Y210700D03*
X201000Y284200D03*
X207000D03*
X213300Y290100D03*
X207300D03*
X206500Y311800D03*
X212500D03*
X206500Y317700D03*
X212500D03*
X210700Y346400D03*
X204700D03*
X214100Y341200D03*
X208100D03*
X205500Y360700D03*
X211500Y354800D03*
X205500D03*
X216000Y368200D03*
X210000D03*
X223200Y210700D03*
X312100Y187200D03*
X306100D03*
X300100Y192900D03*
X306100D03*
X310900Y215700D03*
X304900D03*
X298900Y221200D03*
X304900D03*
X334400Y189700D03*
X327500Y195400D03*
X333500D03*
X334000Y211300D03*
X326600Y217000D03*
X332600D03*
X351900Y199700D03*
X340400Y189700D03*
X340000Y211300D03*
X345900Y205200D03*
X351900D03*
X357900Y199700D03*
X369300Y189700D03*
X363300D03*
X357300Y184000D03*
X363300D03*
X369700Y210800D03*
X381600Y204700D03*
X375600D03*
X375700Y210800D03*
X384300Y231500D03*
X378300D03*
X375400Y225300D03*
X381400D03*
X383600Y392700D03*
X377600D03*
X377000Y403300D03*
X383000D03*
X424500Y352200D03*
X430500D03*
X426500Y339300D03*
X429400Y357800D03*
X445200Y329400D03*
X438100Y333100D03*
X432100D03*
X439200Y323800D03*
X445200D03*
X443500Y351300D03*
X449500D03*
X432500Y339300D03*
X449500Y357000D03*
X435400Y357800D03*
X467800Y332500D03*
X451200Y329400D03*
X461800Y326600D03*
X467800D03*
X455500Y357000D03*
X464500Y359400D03*
X473800Y332500D03*
X489100Y331700D03*
X485500Y365500D03*
X476500Y365200D03*
X470500D03*
X478600Y358500D03*
X484600D03*
X470500Y359400D03*
X505900Y282600D03*
X499900D03*
X494800Y288300D03*
X500800D03*
X505000Y303700D03*
X499000D03*
X493900Y310500D03*
X499900D03*
X495100Y331700D03*
X501400Y337500D03*
X495400D03*
X491500Y365500D03*
X522400Y282200D03*
X516300Y289000D03*
X522300D03*
X526300Y304600D03*
X520300D03*
X514600Y311200D03*
X520600D03*
X528400Y282200D03*
X558000Y415200D03*
X564000D03*
G54D24*
X219800Y899700D03*
X433500Y634300D03*
Y899700D03*
G54D25*
X236777Y232853D03*
X231777D03*
X226777D03*
Y268680D03*
X231777D03*
X236777Y285753D03*
X231777D03*
X226777D03*
Y321580D03*
X231777D03*
X236777Y335753D03*
X231777D03*
X226777D03*
Y371580D03*
X231777D03*
X236777Y385753D03*
X231777D03*
X226777D03*
Y421580D03*
X231777D03*
X246777Y232853D03*
X241777D03*
Y268680D03*
X246777D03*
Y285753D03*
X241777D03*
Y321580D03*
X246777D03*
Y335753D03*
X241777D03*
Y371580D03*
X246777D03*
Y385753D03*
X241777D03*
Y421580D03*
X246777D03*
X276777Y232853D03*
X271777D03*
X266777D03*
Y268680D03*
X271777D03*
X276777Y285753D03*
X271777D03*
X266777D03*
Y321580D03*
X271777D03*
X276777Y335753D03*
X271777D03*
X266777D03*
Y371580D03*
X271777D03*
X276777Y385753D03*
X271777D03*
X266777D03*
Y421580D03*
X271777D03*
X286777Y232853D03*
X281777D03*
Y268680D03*
X286777D03*
Y285753D03*
X281777D03*
Y321580D03*
X286777D03*
Y335753D03*
X281777D03*
Y371580D03*
X286777D03*
Y385753D03*
X281777D03*
Y421580D03*
X286777D03*
X311777Y232853D03*
X306777D03*
Y268680D03*
X311777D03*
Y285753D03*
X306777D03*
Y321580D03*
X311777D03*
Y335753D03*
X306777D03*
Y371580D03*
X311777D03*
Y385753D03*
X306777D03*
Y421580D03*
X311777D03*
X326777Y232853D03*
X321777D03*
X316777D03*
X321777Y268680D03*
X326777D03*
Y285753D03*
X321777D03*
X316777D03*
X321777Y321580D03*
X326777D03*
Y335753D03*
X321777D03*
X316777D03*
X321777Y371580D03*
X326777D03*
Y385753D03*
X321777D03*
X316777D03*
X321777Y421580D03*
X326777D03*
X351777Y232853D03*
X346777D03*
Y268680D03*
X351777D03*
Y285753D03*
X346777D03*
Y321580D03*
X351777D03*
Y335753D03*
X346777D03*
Y371580D03*
X351777D03*
Y385753D03*
X346777D03*
Y421580D03*
X351777D03*
X366777Y232853D03*
X361777D03*
X356777D03*
X361777Y268680D03*
X366777D03*
Y285753D03*
X361777D03*
X356777D03*
X361777Y321580D03*
X366777D03*
Y335753D03*
X361777D03*
X356777D03*
X361777Y371580D03*
X366777D03*
Y385753D03*
X361777D03*
X356777D03*
X361777Y421580D03*
X366777D03*
G54D16*
X61300Y19126D03*
X273700D03*
X312300D03*
X524700D03*
G54D17*
X59600Y74900D03*
X59800Y67000D03*
X61900Y89000D03*
G54D26*
X236777Y266711D03*
Y319611D03*
Y369611D03*
Y419611D03*
X276777Y266711D03*
Y319611D03*
Y369611D03*
Y419611D03*
X316777Y266711D03*
Y319611D03*
Y369611D03*
Y419611D03*
X356777Y266711D03*
Y319611D03*
Y369611D03*
Y419611D03*
G54D27*
X380900Y272300D03*
X386900D03*
X378300Y266000D03*
X384300D03*
X381300Y278500D03*
X387300D03*
X380200Y284600D03*
X386200D03*
X379800Y289600D03*
X385800D03*
X399900Y293900D03*
X393900D03*
X564000Y409800D03*
X558000D03*
G54D18*
X63400Y333100D03*
Y339100D03*
X64300Y422800D03*
Y428800D03*
X68400Y198400D03*
Y204400D03*
X66900Y264700D03*
Y270700D03*
G54D28*
G01X0Y2000D02*
X590600D01*
Y984200D01*
X590550Y984250D01*
X0D01*
Y2000D01*
G54D19*
X76900Y76100D03*
X151800Y225300D03*
X220800Y188400D03*
X236300Y47300D03*
X251700Y47700D03*
X242600Y56200D03*
X275500Y45000D03*
X295200Y636900D03*
X329300Y224200D03*
X339200Y222400D03*
X366800Y638500D03*
X390400Y386800D03*
X385400Y606400D03*
X378700Y637400D03*
X401800Y396700D03*
X407000Y450500D03*
X401800Y611900D03*
X408100Y788100D03*
X431600Y592600D03*
X438900Y777700D03*
X469100Y692900D03*
X455300Y704400D03*
X490700Y357000D03*
X484800Y533000D03*
X494300Y454400D03*
X508100Y499200D03*
X526000Y707900D03*
M02*
